<?xml version="1.0" encoding="utf-8"?>
<!-- Generator: Adobe Illustrator 23.0.6, SVG Export Plug-In . SVG Version: 6.00 Build 0)  -->
<svg version="1.1" id="Layer_1" xmlns="http://www.w3.org/2000/svg" xmlns:xlink="http://www.w3.org/1999/xlink" x="0px" y="0px"
	 viewBox="0 0 394 224" style="enable-background:new 0 0 394 224;" xml:space="preserve">
<style type="text/css">
	.st0{fill:#333333;}
	.st1{fill:#4AA052;}
</style>
<title>gefn-mynd-08-en</title>
<g id="teikningar">
	<path class="st0" d="M301.8,161.3c-18.2,0-38.6-8-51.6-17.8c-0.2-0.2-0.3-0.5-0.1-0.7c0.2-0.2,0.5-0.3,0.7-0.1
		c12.4,9,26.8,14.9,41.9,17c16.8,2.2,30.5-1.7,38.6-10.9c0.2-0.2,0.5-0.2,0.7-0.1c0,0,0,0,0,0c0.2,0.2,0.2,0.5,0,0.7
		C324.6,157.9,313.6,161.3,301.8,161.3z"/>
	<path class="st0" d="M156.3,63.4c-0.1,0-0.3-0.1-0.4-0.2c-8-9.2-11.6-18.4-9.9-25.2c1.2-4.5,4.6-7.9,10.2-9.9
		c0.3-0.1,0.5,0,0.6,0.3c0.1,0.3,0,0.5-0.3,0.6c-5.3,1.9-8.5,5.1-9.6,9.3c-1.7,6.5,1.9,15.3,9.6,24.3c0.2,0.2,0.2,0.5,0,0.7
		c0,0,0,0,0,0C156.5,63.4,156.4,63.4,156.3,63.4z"/>
	<path class="st0" d="M143.6,55.1c-0.1,0-0.2,0-0.2,0c-0.2-0.1-0.4-0.4-0.2-0.7c0,0,0,0,0,0l3.4-6.9c0.1-0.2,0.4-0.4,0.7-0.2
		c0,0,0,0,0,0l6.9,3.4c0.2,0.1,0.4,0.4,0.2,0.7s-0.4,0.4-0.7,0.2l-6.5-3.2l-3.1,6.5C144,54.9,143.8,55.1,143.6,55.1z"/>
	<path class="st0" d="M250.3,150.7c-0.3,0-0.5-0.2-0.5-0.5l-0.5-7.7c0-0.1,0-0.3,0.1-0.4c0.1-0.1,0.2-0.2,0.3-0.2l7.7-0.5
		c0.3,0,0.5,0.2,0.5,0.5c0,0,0,0,0,0c0,0.3-0.2,0.5-0.5,0.5l-7.2,0.4l0.4,7.2C250.8,150.4,250.6,150.7,250.3,150.7
		C250.3,150.7,250.3,150.7,250.3,150.7L250.3,150.7z"/>
	<path class="st1" d="M256.2,69.8l-47.9-23.2c-1.1-0.5-2.4-0.5-3.5,0L157,69.8c-1.4,0.7-2.2,2.1-2.2,3.6v55.1c0,1.5,0.9,2.9,2.2,3.6
		l47.9,23.2c0.5,0.3,1.1,0.4,1.7,0.4l0,0c0.6,0,1.2-0.1,1.8-0.4l47.8-23.2c1.4-0.7,2.2-2.1,2.2-3.6V73.4
		C258.4,71.8,257.5,70.5,256.2,69.8z M207.5,55l38.6,18.8c0.4,0.2,0.5,0.7,0.4,1c-0.1,0.2-0.2,0.3-0.4,0.4L207.5,94
		c-0.6,0.3-1.3,0.3-1.9,0L167,75.2c-0.4-0.2-0.6-0.6-0.4-1c0.1-0.2,0.2-0.3,0.4-0.4L205.6,55C206.2,54.7,206.9,54.7,207.5,55z
		 M163.8,78l39.5,19.2c0.7,0.4,1.2,1.1,1.2,1.9V145c0,0.4-0.4,0.8-0.8,0.8c-0.1,0-0.2,0-0.3-0.1l-39.5-19.2
		c-0.7-0.4-1.2-1.1-1.2-1.9V78.8c0-0.4,0.4-0.8,0.8-0.8C163.6,78,163.7,78,163.8,78L163.8,78z M208.6,145V99.2
		c0-0.8,0.5-1.6,1.2-1.9l39.5-19.2c0.4-0.2,0.9,0,1,0.4c0.1,0.1,0.1,0.2,0.1,0.3v45.9c0,0.8-0.5,1.6-1.2,1.9l-39.5,19.2
		c-0.4,0.2-0.9,0-1-0.4C208.6,145.3,208.6,145.2,208.6,145L208.6,145z"/>
	<path class="st0" d="M146,91.2L146,91.2l-7.7-0.9c-0.3,0-0.5-0.3-0.4-0.6c0-0.3,0.3-0.5,0.6-0.4c0,0,0,0,0,0l7.1,0.8l0.8-7.2
		c0-0.3,0.3-0.5,0.5-0.4c0,0,0,0,0,0c0.3,0,0.5,0.3,0.4,0.6l-0.9,7.7c0,0.1-0.1,0.3-0.2,0.3C146.2,91.1,146.1,91.2,146,91.2z"/>
	<path class="st0" d="M145.3,90.5c-0.2,0-0.3-0.1-0.4-0.2c-9.2-12.8-22.3-22-34.3-24c-7.8-1.4-15.8,0.5-22.2,5.2
		c-0.2,0.2-0.5,0.1-0.7-0.1c0,0,0,0,0,0c-0.2-0.2-0.1-0.5,0.1-0.7c6.6-4.9,14.9-6.8,22.9-5.4c12.4,2,25.5,11.2,34.9,24.4
		c0.2,0.2,0.1,0.5-0.1,0.7c0,0,0,0,0,0C145.5,90.5,145.4,90.5,145.3,90.5z"/>
	<path class="st0" d="M82.3,188.5c-0.3,0-0.6-0.2-0.7-0.4c-17.9-28.8-17.8-55.9-17.8-77.7c0-0.5,0.4-0.8,0.9-0.8l0,0l0,0
		c0.5,0,0.9,0.4,0.8,0.9c-0.1,21.6-0.2,48.4,17.5,76.8c0.2,0.4,0.1,0.9-0.3,1.2C82.6,188.5,82.5,188.5,82.3,188.5z"/>
	<path class="st0" d="M126.7,177.4c-0.1,0-0.2,0-0.3-0.1c-39.2-15.9-62.7-42.1-62.7-70.2c0-6.1,1.1-12.2,3.2-18
		c0.2-0.4,0.6-0.7,1.1-0.5c0.4,0.2,0.7,0.6,0.5,1.1c-2.1,5.6-3.1,11.5-3.1,17.4c0,27.4,23,53,61.6,68.7c0.4,0.2,0.6,0.7,0.5,1.1
		C127.3,177.2,127,177.4,126.7,177.4L126.7,177.4z"/>
	<path class="st0" d="M207.9,192.2c-27.5,0-54.2-4.6-77.2-13.2c-0.4-0.2-0.7-0.7-0.5-1.1c0,0,0,0,0,0c0.2-0.4,0.6-0.7,1.1-0.5
		c0,0,0,0,0,0c22.9,8.6,49.4,13.1,76.6,13.1c3.3,0,6.6-0.1,9.9-0.2c0.5,0,0.9,0.4,0.9,0.8c0,0.5-0.3,0.9-0.8,0.9c0,0,0,0,0,0
		C214.5,192.1,211.2,192.2,207.9,192.2z"/>
	<path class="st0" d="M284.5,179.1c-0.5,0-0.9-0.4-0.9-0.8c0-0.4,0.2-0.7,0.6-0.8c25.1-9.4,44.3-22.8,55.6-38.9
		c0.3-0.4,0.8-0.5,1.2-0.2c0,0,0,0,0,0c0.4,0.3,0.5,0.8,0.2,1.2c-11.5,16.4-30.9,30-56.4,39.5C284.7,179.1,284.6,179.1,284.5,179.1z
		"/>
	<path class="st0" d="M342.9,136.1c-0.2,0-0.3,0-0.4-0.1c-0.4-0.2-0.5-0.8-0.3-1.2c5.2-8.3,8-18,8.1-27.8c0-22.8-15.5-44.1-43.5-60
		c-0.4-0.3-0.5-0.8-0.3-1.2c0.2-0.4,0.7-0.5,1.1-0.3c28.6,16.2,44.4,38,44.4,61.5c-0.1,10.1-3,20.1-8.4,28.7
		C343.5,136,343.2,136.1,342.9,136.1z"/>
	<path class="st0" d="M280.2,35.2c-0.1,0-0.2,0-0.3,0c-21.8-7.5-46.7-11.5-72.1-11.5c-4.6,0-9.1,0.1-13.6,0.4
		c-0.5,0-0.9-0.3-0.9-0.8c0-0.5,0.3-0.9,0.8-0.9l0,0c4.5-0.2,9.1-0.4,13.7-0.4c25.6,0,50.7,4,72.6,11.6c0.4,0.1,0.7,0.6,0.6,1.1
		C280.9,35,280.6,35.2,280.2,35.2L280.2,35.2z"/>
	<path class="st0" d="M120.7,41c-0.5,0-0.8-0.4-0.8-0.9c0-0.3,0.2-0.6,0.5-0.8c20.2-9.1,44.1-14.9,69.2-16.8c0.5,0,0.9,0.3,0.9,0.8
		c0,0.5-0.3,0.9-0.8,0.9c-24.9,1.9-48.7,7.6-68.7,16.6C121,41,120.9,41,120.7,41z"/>
	<path class="st0" d="M342.5,137.3c-0.4,0-0.7-0.2-0.8-0.6l-4.1-11.5c-0.2-0.4,0.1-0.9,0.5-1.1s0.9,0.1,1.1,0.5l3.8,10.7l10.7-3.8
		c0.4-0.2,0.9,0.1,1.1,0.5c0.2,0.4-0.1,0.9-0.5,1.1l0,0l-11.5,4.1C342.7,137.2,342.6,137.3,342.5,137.3z"/>
	<path class="st0" d="M181.6,33.3c-0.2,0-0.4-0.1-0.6-0.3c-0.3-0.3-0.3-0.9,0-1.2c0,0,0,0,0,0l7.9-8.1l-8.1-7.9
		c-0.3-0.3-0.3-0.9,0-1.2c0.3-0.3,0.9-0.3,1.2,0c0,0,0,0,0,0l8.7,8.5c0.3,0.3,0.3,0.9,0,1.2c0,0,0,0,0,0l-8.5,8.7
		C182.1,33.2,181.8,33.3,181.6,33.3z"/>
	<path class="st0" d="M135.5,190.1c-0.3,0-0.6-0.2-0.8-0.5l-5.2-11.1c-0.1-0.2-0.1-0.4,0-0.6c0.1-0.2,0.2-0.4,0.4-0.5l11-5.2
		c0.4-0.2,0.9,0,1.1,0.4c0.2,0.4,0,0.9-0.4,1.1l-10.3,4.8l4.8,10.3c0.2,0.4,0,0.9-0.4,1.1l0,0C135.7,190.1,135.6,190.1,135.5,190.1z
		"/>
	<path class="st0" d="M63.5,169.7c-0.1,0-0.3,0-0.4-0.1c-0.4-0.2-0.6-0.7-0.4-1.1c0,0,0,0,0,0l5.6-10.8c0.2-0.4,0.7-0.6,1.1-0.4
		c0,0,0,0,0,0l10.8,5.6c0.4,0.2,0.6,0.7,0.4,1.1c-0.2,0.4-0.7,0.6-1.2,0.4l-10.1-5.2l-5.2,10.1C64.2,169.6,63.9,169.7,63.5,169.7z"
		/>
</g>
<g id="enska">
	<path class="st0" d="M79.6,105v-7.6h3.1c0.7-0.1,1.4,0.1,1.9,0.6c0.4,0.3,0.7,0.9,0.6,1.4c0,0.4-0.1,0.8-0.4,1.1
		c-0.3,0.3-0.6,0.5-1,0.6v0.1c0.3,0,0.6,0.1,0.8,0.2c0.3,0.2,0.5,0.4,0.6,0.6c0.2,0.3,0.3,0.7,0.2,1c0,0.8-0.4,1.5-1.2,1.8
		c-0.5,0.2-0.9,0.3-1.4,0.3L79.6,105z M81.2,100.6h1.2c0.3,0,0.6-0.1,0.8-0.3c0.2-0.2,0.3-0.4,0.3-0.7c0-0.3-0.1-0.5-0.3-0.7
		c-0.2-0.2-0.5-0.3-0.8-0.2h-1.2V100.6z M81.2,103.7h1.3c0.4,0,0.7-0.1,1-0.3c0.2-0.2,0.3-0.4,0.3-0.7c0-0.3-0.1-0.6-0.3-0.8
		c-0.3-0.2-0.6-0.3-0.9-0.3h-1.4V103.7z"/>
	<path class="st0" d="M87.2,107.3c-0.2,0-0.4,0-0.6-0.1c-0.1,0-0.3-0.1-0.4-0.1l0.4-1.2c0.2,0.1,0.5,0.1,0.7,0.1
		c0.2-0.1,0.4-0.2,0.5-0.4l0.1-0.3l-2-5.9h1.7l1.2,4.2h0.1l1.2-4.2h1.6l-2.2,6.4c-0.1,0.4-0.4,0.8-0.8,1.1
		C88.2,107.1,87.7,107.3,87.2,107.3z"/>
	<path class="st0" d="M95.8,101.3v1.3h-3.5v-1.3H95.8z"/>
	<path class="st0" d="M97,105v-7.6h3c0.5,0,1,0.1,1.5,0.3c0.4,0.2,0.7,0.5,0.9,0.9c0.2,0.4,0.3,0.9,0.3,1.3c0,0.5-0.1,0.9-0.3,1.3
		c-0.2,0.4-0.6,0.7-1,0.9c-0.5,0.2-1,0.3-1.5,0.3h-1.4v2.4H97z M98.6,101.2h1.1c0.4,0,0.7-0.1,1-0.3c0.2-0.2,0.3-0.6,0.3-0.9
		c0-0.3-0.1-0.7-0.3-0.9c-0.3-0.2-0.6-0.4-1-0.3h-1.1L98.6,101.2z"/>
	<path class="st0" d="M103.5,105v-5.7h1.5v1h0.1c0.1-0.3,0.3-0.6,0.5-0.8c0.4-0.3,0.8-0.3,1.3-0.2c0.1,0,0.2,0.1,0.4,0.2l-0.5,1.3
		l-0.2-0.1c-0.1,0-0.2,0-0.3,0c-0.3,0-0.6,0.1-0.8,0.3c-0.2,0.2-0.4,0.5-0.3,0.8v3.2H103.5z"/>
	<path class="st0" d="M110.1,105.2c-0.5,0-1-0.1-1.5-0.4c-0.4-0.2-0.8-0.6-1-1c-0.5-1-0.5-2.1,0-3.1c0.2-0.4,0.6-0.8,1-1
		c0.9-0.5,2.1-0.5,3,0c0.4,0.2,0.8,0.6,1,1c0.5,1,0.5,2.1,0,3.1c-0.2,0.4-0.6,0.8-1,1C111.2,105,110.6,105.2,110.1,105.2z
		 M110.1,103.9c0.4,0,0.7-0.2,0.9-0.5c0.4-0.8,0.4-1.7,0-2.5c-0.2-0.3-0.5-0.5-0.9-0.5c-0.4,0-0.7,0.2-0.9,0.5
		c-0.4,0.8-0.4,1.7,0,2.5C109.4,103.8,109.8,103.9,110.1,103.9L110.1,103.9z"/>
	<path class="st0" d="M115.9,105.1c-0.4,0-0.8-0.1-1.2-0.3c-0.4-0.2-0.7-0.6-0.8-1c-0.2-0.5-0.3-1.1-0.3-1.6c0-0.6,0.1-1.1,0.3-1.6
		c0.2-0.4,0.5-0.8,0.8-1c0.3-0.2,0.7-0.3,1.2-0.3c0.3,0,0.6,0,0.8,0.2c0.2,0.1,0.4,0.2,0.5,0.4c0.1,0.1,0.2,0.3,0.3,0.5l0,0v-2.9
		h1.6v7.6h-1.6v-0.9h-0.1c-0.1,0.2-0.2,0.3-0.3,0.5c-0.1,0.2-0.3,0.3-0.5,0.4C116.4,105.1,116.1,105.1,115.9,105.1z M116.4,103.9
		c0.4,0,0.7-0.2,0.9-0.5c0.2-0.4,0.3-0.8,0.3-1.2c0-0.4-0.1-0.9-0.3-1.2c-0.3-0.5-1-0.6-1.5-0.3c-0.1,0.1-0.2,0.2-0.3,0.3
		c-0.2,0.4-0.3,0.8-0.3,1.2c0,0.4,0.1,0.9,0.3,1.2C115.7,103.7,116,103.9,116.4,103.9z"/>
	<path class="st0" d="M123.9,102.6v-3.3h1.6v5.7H124v-1h-0.1c-0.1,0.3-0.3,0.6-0.6,0.8c-0.3,0.2-0.7,0.3-1.1,0.3
		c-0.5,0-1-0.2-1.4-0.6c-0.4-0.4-0.6-1-0.5-1.6v-3.6h1.6v3.4c0,0.3,0.1,0.6,0.3,0.8c0.2,0.2,0.4,0.3,0.7,0.3c0.3,0,0.6-0.1,0.8-0.3
		C123.8,103.2,123.9,102.9,123.9,102.6z"/>
	<path class="st0" d="M129.1,105.2c-0.5,0-1.1-0.1-1.5-0.4c-0.4-0.2-0.8-0.6-1-1c-0.5-1-0.5-2.1,0-3.1c0.2-0.4,0.6-0.8,1-1
		c0.5-0.3,1-0.4,1.5-0.4c0.5,0,0.9,0.1,1.3,0.3c0.4,0.2,0.7,0.4,0.9,0.8c0.2,0.3,0.3,0.7,0.4,1.2h-1.5c0-0.3-0.1-0.5-0.3-0.7
		c-0.2-0.2-0.4-0.3-0.7-0.3c-0.4,0-0.7,0.2-0.9,0.4c-0.4,0.8-0.4,1.7,0,2.5c0.2,0.3,0.5,0.5,0.9,0.4c0.3,0,0.5-0.1,0.7-0.2
		c0.2-0.2,0.3-0.4,0.4-0.7h1.5c0,0.4-0.1,0.8-0.4,1.2c-0.2,0.3-0.5,0.6-0.9,0.8C130,105.1,129.6,105.2,129.1,105.2z"/>
	<path class="st0" d="M135.6,99.3v1.2h-1.1v2.8c0,0.2,0,0.3,0.1,0.4c0.1,0.1,0.3,0.1,0.4,0.1c0.1,0,0.1,0,0.2,0h0.2l0.2,1.2
		l-0.3,0.1c-0.2,0-0.4,0.1-0.5,0.1c-0.5,0.1-1-0.1-1.4-0.4c-0.4-0.3-0.6-0.8-0.5-1.3v-3h-0.8v-1.2h0.8v-1.4h1.6v1.4H135.6z"/>
	<path class="st0" d="M141.1,101l-1.5,0.1c0-0.2-0.1-0.4-0.3-0.5c-0.2-0.1-0.4-0.2-0.6-0.2c-0.2,0-0.4,0-0.6,0.2
		c-0.2,0.1-0.3,0.2-0.2,0.4c0,0.1,0.1,0.3,0.2,0.3c0.2,0.1,0.4,0.2,0.6,0.2l1,0.2c1.1,0.2,1.7,0.7,1.7,1.6c0,0.4-0.1,0.7-0.3,1
		c-0.2,0.3-0.6,0.5-0.9,0.7c-0.4,0.2-0.9,0.2-1.3,0.2c-0.6,0-1.3-0.1-1.8-0.5c-0.4-0.3-0.7-0.8-0.8-1.3l1.6-0.1
		c0,0.2,0.2,0.4,0.4,0.5c0.2,0.1,0.4,0.2,0.7,0.2c0.2,0,0.5,0,0.7-0.2c0.2-0.1,0.3-0.2,0.3-0.4c0-0.3-0.2-0.5-0.7-0.6l-1-0.2
		c-1.1-0.2-1.7-0.8-1.7-1.6c0-0.5,0.2-1,0.7-1.3c0.5-0.3,1.1-0.5,1.8-0.5c0.6,0,1.2,0.1,1.7,0.5C140.7,100,141,100.5,141.1,101z"/>
	<path class="st0" d="M92.8,116.2c-0.5,0-0.9-0.1-1.4-0.3c-0.4-0.2-0.7-0.4-0.9-0.8c-0.2-0.3-0.3-0.7-0.3-1.1c0-0.4,0.1-0.8,0.4-1.1
		c0.3-0.3,0.6-0.6,1-0.9c-0.2-0.3-0.4-0.5-0.5-0.8c-0.1-0.3-0.2-0.6-0.2-0.9c0-0.4,0.1-0.7,0.3-1c0.2-0.3,0.4-0.5,0.7-0.7
		c0.3-0.2,0.7-0.3,1.1-0.3c0.4,0,0.7,0.1,1.1,0.2c0.6,0.3,0.9,0.9,0.9,1.6c0,0.4-0.1,0.7-0.3,1c-0.2,0.3-0.5,0.6-0.8,0.8l-0.4,0.3
		l1.3,1.4c0.1-0.2,0.2-0.4,0.2-0.7c0.1-0.2,0.1-0.5,0.1-0.7h1.3c0,0.5-0.1,0.9-0.2,1.4c-0.1,0.4-0.3,0.7-0.5,1l1.2,1.3h-1.7
		l-0.5-0.5c-0.3,0.2-0.6,0.4-0.9,0.5C93.5,116.1,93.2,116.1,92.8,116.2z M93.9,114.6l-1.4-1.6l0,0c-0.2,0.1-0.3,0.3-0.5,0.5
		c-0.1,0.1-0.1,0.3-0.2,0.5c0,0.3,0.1,0.5,0.3,0.7c0.2,0.2,0.5,0.3,0.8,0.3C93.3,114.9,93.6,114.8,93.9,114.6z M92.8,111.3l0.4-0.3
		c0.3-0.2,0.5-0.5,0.6-0.8c0-0.2-0.1-0.3-0.2-0.4c-0.1-0.1-0.3-0.2-0.5-0.2c-0.2,0-0.4,0.1-0.5,0.2c-0.1,0.1-0.2,0.3-0.2,0.5
		c0,0.2,0,0.3,0.1,0.5C92.5,111,92.6,111.1,92.8,111.3z"/>
	<path class="st0" d="M101.3,116l-2.2-7.6h1.8l1.3,5.3h0.1l1.4-5.3h1.5l1.4,5.3h0.1l1.3-5.3h1.8l-2.2,7.6h-1.6l-1.4-5h-0.1l-1.4,5
		H101.3z"/>
	<path class="st0" d="M111.2,116.2c-0.5,0-1-0.1-1.4-0.4c-0.6-0.6-0.7-1.6-0.2-2.3c0.2-0.3,0.5-0.4,0.8-0.5c0.3-0.1,0.7-0.2,1.1-0.2
		c0.4,0,0.7-0.1,1.1-0.2c0.2,0,0.3-0.2,0.3-0.4l0,0c0-0.2-0.1-0.4-0.2-0.6c-0.2-0.1-0.4-0.2-0.6-0.2c-0.2,0-0.5,0.1-0.7,0.2
		c-0.2,0.1-0.3,0.3-0.3,0.5l-1.5-0.1c0.1-0.5,0.4-0.9,0.8-1.2c0.5-0.3,1.1-0.5,1.7-0.5c0.4,0,0.8,0.1,1.2,0.2
		c0.3,0.1,0.7,0.3,0.9,0.6c0.2,0.3,0.4,0.7,0.3,1.1v3.8H113v-0.8l0,0c-0.1,0.3-0.4,0.5-0.6,0.7C112,116.1,111.6,116.2,111.2,116.2z
		 M111.7,115.1c0.3,0,0.6-0.1,0.9-0.3c0.2-0.2,0.3-0.5,0.3-0.8v-0.6c-0.1,0.1-0.2,0.1-0.3,0.1l-0.4,0.1l-0.4,0.1
		c-0.2,0-0.5,0.1-0.7,0.2c-0.2,0.1-0.3,0.3-0.3,0.5c0,0.2,0.1,0.4,0.2,0.5C111.3,115,111.5,115.1,111.7,115.1z"/>
	<path class="st0" d="M120.2,112l-1.4,0.1c0-0.2-0.1-0.4-0.3-0.5c-0.2-0.1-0.4-0.2-0.7-0.2c-0.2,0-0.4,0-0.6,0.2
		c-0.2,0.1-0.3,0.2-0.3,0.4c0,0.1,0.1,0.3,0.2,0.3c0.2,0.1,0.4,0.2,0.6,0.2l1,0.2c1.1,0.2,1.7,0.7,1.7,1.6c0,0.4-0.1,0.7-0.3,1
		c-0.2,0.3-0.5,0.5-0.9,0.7c-0.4,0.2-0.9,0.2-1.3,0.2c-0.6,0-1.3-0.1-1.8-0.5c-0.4-0.3-0.7-0.8-0.8-1.3l1.6-0.1
		c0,0.2,0.2,0.4,0.3,0.5c0.2,0.1,0.5,0.2,0.7,0.2c0.2,0,0.5,0,0.7-0.2c0.2-0.1,0.3-0.2,0.3-0.4c0-0.3-0.2-0.5-0.7-0.6l-1-0.2
		c-1.1-0.2-1.7-0.8-1.7-1.6c0-0.5,0.2-1,0.7-1.3c0.5-0.3,1.1-0.5,1.8-0.5c0.6,0,1.2,0.1,1.7,0.5C119.9,111,120.2,111.5,120.2,112z"
		/>
	<path class="st0" d="M124.2,110.3v1.2h-1.1v2.8c0,0.2,0,0.3,0.2,0.4c0.1,0.1,0.3,0.1,0.4,0.1c0.1,0,0.2,0,0.2,0h0.2l0.2,1.2
		l-0.3,0.1c-0.2,0-0.3,0.1-0.5,0.1c-0.5,0.1-1-0.1-1.4-0.4c-0.4-0.3-0.6-0.8-0.5-1.3v-3h-0.8v-1.2h0.8V109h1.6v1.4L124.2,110.3z"/>
	<path class="st0" d="M127.6,116.2c-0.5,0-1.1-0.1-1.5-0.4c-0.4-0.2-0.8-0.6-1-1c-0.5-1-0.5-2.1,0-3.1c0.2-0.4,0.6-0.8,1-1
		c0.4-0.3,0.9-0.4,1.5-0.4c0.5,0,0.9,0.1,1.4,0.3c0.4,0.2,0.8,0.6,1,1c0.3,0.5,0.4,1.1,0.4,1.6v0.4h-3.9c0,0.4,0.1,0.7,0.3,1
		c0.3,0.3,0.6,0.4,1,0.4c0.2,0,0.5-0.1,0.7-0.2c0.2-0.1,0.3-0.3,0.4-0.5l1.5,0.1c-0.1,0.5-0.4,1-0.9,1.3
		C128.9,116.1,128.2,116.2,127.6,116.2z M126.3,112.6h2.4c0-0.6-0.5-1.1-1.1-1.2c0,0-0.1,0-0.1,0c-0.3,0-0.6,0.1-0.9,0.3
		C126.5,112,126.3,112.3,126.3,112.6z"/>
	<path class="st0" d="M79.3,201.9v-7.6h3c0.7,0,1.4,0.2,2,0.7c0.5,0.5,0.8,1.1,0.7,1.8c0,0.5-0.1,0.9-0.3,1.3
		c-0.2,0.4-0.6,0.7-1,0.8l1.6,3h-1.8l-1.4-2.7h-1.2v2.7L79.3,201.9z M80.9,197.9H82c0.9,0,1.4-0.4,1.4-1.1s-0.5-1.2-1.4-1.2h-1.1
		V197.9z"/>
	<path class="st0" d="M87.6,202c-0.5,0-1-0.1-1.4-0.4c-0.4-0.3-0.6-0.8-0.5-1.3c0-0.4,0.1-0.7,0.3-1c0.2-0.2,0.5-0.4,0.8-0.5
		c0.3-0.1,0.7-0.2,1.1-0.2c0.4,0,0.7-0.1,1.1-0.2c0.2-0.1,0.3-0.2,0.3-0.4l0,0c0-0.2-0.1-0.4-0.2-0.6c-0.2-0.1-0.4-0.2-0.6-0.2
		c-0.2,0-0.5,0-0.7,0.2c-0.2,0.1-0.3,0.3-0.3,0.5l-1.5-0.1c0.1-0.5,0.4-1,0.8-1.2c0.5-0.3,1.1-0.5,1.7-0.5c0.4,0,0.8,0.1,1.2,0.2
		c0.4,0.1,0.7,0.3,0.9,0.6c0.2,0.3,0.4,0.7,0.4,1.1v3.9h-1.5v-0.8h-0.1c-0.1,0.3-0.4,0.5-0.6,0.6C88.3,201.9,87.9,202,87.6,202z
		 M88,200.9c0.3,0,0.6-0.1,0.8-0.3c0.2-0.2,0.3-0.5,0.3-0.8v-0.6c-0.1,0.1-0.2,0.1-0.3,0.1l-0.4,0.1l-0.4,0.1
		c-0.2,0-0.5,0.1-0.7,0.2c-0.2,0.1-0.3,0.3-0.2,0.5c0,0.2,0.1,0.4,0.2,0.5C87.6,200.8,87.8,200.9,88,200.9L88,200.9z"/>
	<path class="st0" d="M93,201.9l-1.6-5.7H93l0.9,3.9l0,0l0.9-3.9h1.6l0.9,3.8h0.1l0.9-3.8h1.6l-1.6,5.7h-1.6l-1-3.6h-0.1l-1,3.6H93z
		"/>
	<path class="st0" d="M69.7,205.2h2l2.1,5.1h0.1l2.1-5.1h2v7.6h-1.6v-5h-0.1l-2,4.9h-1l-2-5h-0.1v5h-1.6V205.2z"/>
	<path class="st0" d="M80.8,213c-0.5,0-1-0.1-1.4-0.4c-0.4-0.3-0.6-0.8-0.5-1.3c0-0.4,0.1-0.7,0.3-1c0.2-0.2,0.5-0.4,0.8-0.5
		c0.3-0.1,0.7-0.2,1.1-0.2c0.4,0,0.7-0.1,1.1-0.2c0.2-0.1,0.3-0.2,0.3-0.4l0,0c0-0.2-0.1-0.4-0.2-0.6c-0.2-0.1-0.4-0.2-0.6-0.2
		c-0.2,0-0.5,0.1-0.7,0.2c-0.2,0.1-0.3,0.3-0.3,0.5l-1.5-0.1c0.1-0.5,0.4-1,0.8-1.2c0.5-0.3,1.1-0.5,1.7-0.5c0.4,0,0.8,0.1,1.2,0.2
		c0.4,0.1,0.7,0.3,0.9,0.6c0.2,0.3,0.4,0.7,0.4,1.1v3.9h-1.5v-0.8l0,0c-0.1,0.3-0.4,0.5-0.6,0.6C81.5,212.9,81.2,213,80.8,213z
		 M81.2,211.9c0.3,0,0.6-0.1,0.9-0.3c0.2-0.2,0.3-0.5,0.3-0.8v-0.6c-0.1,0.1-0.2,0.1-0.3,0.1l-0.4,0.1l-0.4,0.1
		c-0.2,0-0.5,0.1-0.7,0.2c-0.2,0.1-0.3,0.3-0.3,0.5c0,0.2,0.1,0.4,0.2,0.5C80.8,211.8,81,211.9,81.2,211.9L81.2,211.9z"/>
	<path class="st0" d="M88.1,207.1v1.2H87v2.8c0,0.2,0,0.3,0.2,0.4c0.1,0.1,0.2,0.1,0.4,0.1h0.2h0.2l0.2,1.2l-0.3,0.1
		c-0.2,0-0.3,0.1-0.5,0.1c-0.5,0.1-1-0.1-1.4-0.4c-0.4-0.3-0.6-0.8-0.5-1.2v-3h-0.8v-1.2h0.8v-1.4H87v1.4L88.1,207.1z"/>
	<path class="st0" d="M91.4,213c-0.5,0-1.1-0.1-1.5-0.4c-0.4-0.2-0.8-0.6-1-1c-0.5-1-0.5-2.1,0-3.1c0.2-0.4,0.6-0.8,1-1
		c0.4-0.3,0.9-0.4,1.5-0.4c0.5,0,0.9,0.1,1.4,0.3c0.4,0.2,0.8,0.6,1,1c0.3,0.5,0.4,1.1,0.4,1.6v0.4h-3.9c0,0.4,0.1,0.7,0.3,1
		c0.2,0.2,0.6,0.4,0.9,0.4c0.2,0,0.5,0,0.7-0.2c0.2-0.1,0.3-0.3,0.4-0.5l1.5,0.1c-0.1,0.5-0.4,1-0.8,1.3
		C92.7,212.9,92.1,213.1,91.4,213z M90.2,209.4h2.4c0-0.3-0.1-0.6-0.3-0.9c-0.2-0.2-0.5-0.3-0.8-0.3c-0.3,0-0.6,0.1-0.9,0.4
		C90.3,208.8,90.2,209.1,90.2,209.4L90.2,209.4z"/>
	<path class="st0" d="M94.9,212.9v-5.7h1.5v1h0.1c0.1-0.3,0.3-0.6,0.5-0.8c0.2-0.2,0.5-0.3,0.8-0.3c0.2,0,0.3,0,0.5,0.1v1.4
		c-0.1,0-0.2-0.1-0.3-0.1h-0.4c-0.3,0-0.6,0.1-0.9,0.3c-0.2,0.2-0.4,0.5-0.3,0.9v3.2L94.9,212.9z"/>
	<path class="st0" d="M99.8,206.4c-0.2,0-0.4-0.1-0.6-0.2c-0.3-0.3-0.4-0.7-0.1-1.1c0,0,0.1-0.1,0.1-0.1c0.3-0.3,0.9-0.3,1.2,0
		c0.3,0.3,0.3,0.8,0.1,1.1c0,0,0,0-0.1,0.1C100.2,206.3,100,206.4,99.8,206.4z M99,212.9v-5.7h1.6v5.7H99z"/>
	<path class="st0" d="M103.2,213c-0.5,0-1-0.1-1.4-0.4c-0.4-0.3-0.6-0.8-0.5-1.3c0-0.4,0.1-0.7,0.3-1c0.2-0.2,0.5-0.4,0.8-0.5
		c0.3-0.1,0.7-0.2,1-0.2c0.4,0,0.7-0.1,1.1-0.2c0.2-0.1,0.3-0.2,0.3-0.4l0,0c0-0.2-0.1-0.4-0.2-0.6c-0.2-0.1-0.4-0.2-0.6-0.2
		c-0.2,0-0.5,0-0.7,0.2c-0.2,0.1-0.3,0.3-0.3,0.5l-1.5-0.1c0.1-0.5,0.4-1,0.8-1.2c0.5-0.3,1.1-0.5,1.7-0.5c0.4,0,0.8,0.1,1.2,0.2
		c0.4,0.1,0.7,0.3,0.9,0.6c0.2,0.3,0.4,0.7,0.3,1.1v3.9H105v-0.8l0,0c-0.1,0.3-0.4,0.5-0.6,0.6C104,213,103.6,213,103.2,213z
		 M103.7,211.9c0.3,0,0.6-0.1,0.9-0.3c0.2-0.2,0.3-0.5,0.3-0.8v-0.6c-0.1,0.1-0.2,0.1-0.3,0.1l-0.4,0.1l-0.4,0.1
		c-0.2,0-0.5,0.1-0.7,0.2c-0.2,0.1-0.3,0.3-0.2,0.5c0,0.2,0.1,0.4,0.2,0.5C103.3,211.8,103.5,211.9,103.7,211.9L103.7,211.9z"/>
	<path class="st0" d="M109.1,205.2v7.6h-1.6v-7.6H109.1z"/>
	<path class="st0" d="M74.8,84.1l-7-3.9l1.5-2.8c0.3-0.5,0.6-0.9,1.1-1.2c0.4-0.3,0.8-0.4,1.3-0.4c1,0,1.9,0.5,2.4,1.4
		c0.2,0.4,0.4,0.9,0.3,1.3c0,0.5-0.2,1.1-0.5,1.5l-0.7,1.2l2.3,1.3L74.8,84.1z M72.2,80.6l0.6-1c0.2-0.3,0.3-0.7,0.2-1.1
		c-0.1-0.3-0.3-0.6-0.7-0.8c-0.3-0.2-0.7-0.2-1-0.2c-0.4,0.1-0.7,0.4-0.8,0.8l-0.6,1L72.2,80.6z"/>
	<path class="st0" d="M78.1,78.4L73.2,75l0.9-1.3l0.9,0.6v-0.1c-0.2-0.3-0.4-0.6-0.4-0.9c0-0.3,0.1-0.6,0.3-0.9
		c0.1-0.1,0.2-0.2,0.3-0.3c0.1-0.1,0.2-0.2,0.3-0.2l0.9,1.2l-0.2,0.2c-0.1,0.1-0.1,0.1-0.2,0.2c-0.2,0.3-0.3,0.6-0.2,0.9
		c0.1,0.3,0.3,0.6,0.5,0.8L79,77L78.1,78.4z"/>
	<path class="st0" d="M82.2,73c-0.3,0.4-0.8,0.8-1.3,1c-0.5,0.2-1,0.2-1.5,0.1c-0.5-0.1-1.1-0.4-1.5-0.7c-0.4-0.4-0.8-0.8-1-1.3
		c-0.2-0.5-0.3-1-0.2-1.5c0.1-0.5,0.3-1.1,0.7-1.5c0.3-0.4,0.8-0.8,1.3-1c0.5-0.2,1-0.2,1.4-0.1c1.1,0.3,2,1,2.5,2
		c0.2,0.5,0.3,1,0.2,1.5C82.8,72,82.5,72.6,82.2,73z M81.2,72.2c0.2-0.3,0.3-0.7,0.2-1c-0.2-0.4-0.5-0.8-0.8-1.1
		c-0.3-0.3-0.8-0.5-1.2-0.6c-0.4-0.1-0.8,0.1-1,0.4c-0.3,0.3-0.3,0.7-0.2,1c0.2,0.4,0.5,0.8,0.9,1c0.3,0.3,0.8,0.5,1.2,0.6
		C80.6,72.6,80.9,72.5,81.2,72.2L81.2,72.2z"/>
	<path class="st0" d="M85.9,68.7c-0.3,0.3-0.7,0.5-1.1,0.6c-0.5,0.1-0.9,0.1-1.4-0.1c-1.1-0.4-2-1.3-2.5-2.4
		c-0.2-0.4-0.2-0.9-0.1-1.3c0.1-0.4,0.3-0.8,0.6-1.1c0.2-0.2,0.4-0.4,0.7-0.5c0.2-0.1,0.4-0.1,0.7-0.1c0.2,0,0.4,0.1,0.6,0.1l0,0
		l-2.2-2.1l1.2-1.2l5.8,5.5l-1.1,1.1l-0.7-0.7l0,0c0.1,0.2,0.1,0.4,0.1,0.6c0,0.2,0,0.5-0.1,0.7C86.3,68.2,86.2,68.4,85.9,68.7z
		 M85.4,67.3c0.3-0.3,0.4-0.6,0.3-1c-0.1-0.4-0.4-0.8-0.7-1.1c-0.3-0.3-0.7-0.6-1.2-0.7c-0.6-0.1-1.2,0.4-1.3,1c0,0.1,0,0.2,0,0.4
		c0.3,0.9,1,1.5,1.8,1.8C84.7,67.8,85.1,67.6,85.4,67.3z"/>
	<path class="st0" d="M90.1,61l-2.3-2.6l1.2-1.1l4,4.5l-1.2,1.1l-0.7-0.8l0,0c0.1,0.3,0.1,0.7,0.1,1.1c-0.1,0.4-0.3,0.7-0.6,1
		c-0.4,0.4-0.9,0.6-1.5,0.5c-0.6-0.1-1.1-0.4-1.5-0.8L84.9,61l1.2-1.1l2.3,2.6c0.2,0.2,0.5,0.4,0.8,0.4c0.3,0,0.6-0.1,0.8-0.3
		c0.2-0.2,0.4-0.5,0.4-0.8C90.5,61.6,90.3,61.2,90.1,61z"/>
	<path class="st0" d="M96,59.6c-0.4,0.4-0.9,0.6-1.5,0.7c-0.5,0.1-1,0-1.5-0.3c-1-0.5-1.7-1.4-2-2.5c-0.1-0.5,0-1,0.2-1.5
		c0.2-0.5,0.6-1,1-1.3c0.4-0.3,0.8-0.5,1.3-0.6c0.4-0.1,0.8-0.1,1.2,0.1c0.4,0.1,0.7,0.4,1,0.7l-1.2,1c-0.2-0.2-0.4-0.3-0.7-0.3
		c-0.3,0-0.5,0.1-0.8,0.2c-0.3,0.2-0.5,0.6-0.4,0.9c0,0.5,0.2,0.9,0.5,1.3c0.3,0.4,0.7,0.7,1.1,0.8c0.3,0.1,0.7,0,1-0.2
		c0.2-0.2,0.4-0.4,0.4-0.7c0-0.3,0-0.6-0.2-0.8l1.2-1c0.3,0.3,0.4,0.8,0.4,1.2c0,0.4,0,0.8-0.2,1.2C96.6,58.9,96.4,59.3,96,59.6z"/>
	<path class="st0" d="M97.9,50.6l0.7,1l-0.9,0.7l1.7,2.4c0.1,0.2,0.3,0.3,0.4,0.3c0.1,0,0.3,0,0.4-0.1l0.2-0.2c0,0,0.1-0.1,0.1-0.1
		l0.9,0.9c-0.1,0.1-0.1,0.2-0.2,0.3c-0.1,0.1-0.3,0.3-0.4,0.4c-0.4,0.3-0.9,0.5-1.4,0.5c-0.5,0-0.9-0.3-1.2-0.8l-1.8-2.6l-0.7,0.5
		l-0.7-1l0.7-0.5l-0.8-1.2l1.4-1l0.9,1.2L97.9,50.6z"/>
	<path class="st0" d="M99.1,48.9c-0.2,0.1-0.4,0.2-0.7,0.1c-0.4-0.1-0.7-0.5-0.7-0.9c0,0,0-0.1,0-0.1c0.1-0.5,0.6-0.8,1.1-0.7
		c0.2,0,0.4,0.2,0.6,0.3c0.1,0.2,0.2,0.4,0.1,0.6C99.5,48.6,99.3,48.8,99.1,48.9z M102.1,55l-3.3-5l1.4-0.9l3.3,5L102.1,55z"/>
	<path class="st0" d="M106.9,52.2c-0.5,0.3-1,0.5-1.6,0.5c-0.5,0-1-0.1-1.4-0.4c-0.5-0.3-0.9-0.7-1.2-1.2c-0.3-0.5-0.5-1-0.5-1.6
		c0-0.5,0.1-1,0.3-1.5c0.3-0.5,0.7-0.9,1.1-1.2c0.5-0.3,1-0.5,1.6-0.5c0.5,0,1,0.1,1.4,0.4c0.5,0.3,0.9,0.7,1.1,1.2
		c0.3,0.5,0.5,1,0.5,1.6c0,0.5-0.1,1-0.3,1.5C107.7,51.5,107.4,51.9,106.9,52.2z M106.2,51c0.3-0.2,0.6-0.5,0.5-0.9
		c0-0.5-0.2-0.9-0.4-1.3c-0.2-0.4-0.6-0.8-1-1c-0.3-0.2-0.7-0.2-1.1,0c-0.3,0.2-0.6,0.5-0.5,0.9c0,0.5,0.1,0.9,0.4,1.3
		c0.2,0.4,0.5,0.8,0.9,1C105.4,51.2,105.9,51.2,106.2,51z"/>
	<path class="st0" d="M109.9,46.3l1.6,3.1l-1.5,0.8l-2.8-5.3l1.4-0.8l0.5,0.9h0.1c0-0.3,0-0.7,0.2-1c0.2-0.3,0.5-0.6,0.8-0.8
		c0.5-0.3,1.1-0.3,1.6-0.2c0.6,0.2,1,0.6,1.3,1.2l1.8,3.3l-1.5,0.8l-1.7-3.1c-0.1-0.3-0.4-0.5-0.7-0.6c-0.3-0.1-0.6-0.1-0.8,0.1
		c-0.3,0.1-0.5,0.4-0.6,0.7C109.7,45.6,109.8,46,109.9,46.3z"/>
	<path class="st0" d="M291.4,33.8l1.6,0.6l-1.9,4.9c-0.2,0.5-0.5,1-1,1.3c-0.4,0.3-0.9,0.5-1.4,0.5c-0.6,0-1.2-0.1-1.7-0.3
		c-0.5-0.2-1.1-0.5-1.5-0.9c-0.4-0.4-0.6-0.8-0.7-1.3c-0.1-0.5-0.1-1.1,0.2-1.6l2-4.9l1.6,0.6l-1.9,4.9c-0.2,0.4-0.1,0.8,0.1,1.1
		c0.2,0.4,0.6,0.6,1,0.8c0.4,0.2,0.8,0.2,1.2,0.1c0.4-0.1,0.7-0.4,0.8-0.8L291.4,33.8z"/>
	<path class="st0" d="M297.5,40.4l-1.4-0.5c0-0.2,0-0.4-0.1-0.6c-0.1-0.2-0.3-0.4-0.5-0.5c-0.2-0.1-0.4-0.1-0.7-0.1
		c-0.2,0-0.3,0.1-0.4,0.3c-0.1,0.1-0.1,0.3,0,0.4c0.1,0.2,0.3,0.3,0.5,0.5l0.9,0.6c1,0.7,1.3,1.4,0.9,2.2c-0.1,0.3-0.4,0.6-0.7,0.8
		c-0.4,0.2-0.8,0.3-1.1,0.3c-0.5,0-0.9-0.1-1.4-0.3c-0.6-0.2-1.2-0.7-1.5-1.2c-0.3-0.5-0.4-1-0.2-1.6l1.5,0.6
		c-0.1,0.2,0,0.5,0.1,0.7c0.1,0.2,0.4,0.4,0.6,0.5c0.2,0.1,0.5,0.2,0.7,0.1c0.2,0,0.3-0.1,0.4-0.3c0.1-0.3,0-0.6-0.5-0.9l-0.9-0.6
		c-1-0.7-1.3-1.4-0.9-2.3c0.2-0.5,0.6-0.9,1.2-1c0.6-0.1,1.3,0,1.9,0.3c0.6,0.2,1.1,0.6,1.5,1.2C297.6,39.3,297.7,39.9,297.5,40.4z"
		/>
	<path class="st0" d="M299,46.1c-0.5-0.2-0.9-0.6-1.3-1c-0.3-0.4-0.4-0.9-0.5-1.4c0-0.6,0.1-1.1,0.4-1.6c0.2-0.5,0.6-0.9,1-1.3
		c0.4-0.3,0.9-0.5,1.4-0.5c0.5,0,1.1,0.1,1.5,0.3c0.4,0.2,0.8,0.5,1.1,0.9c0.3,0.4,0.5,0.9,0.5,1.3c0,0.6-0.1,1.2-0.4,1.7l-0.2,0.4
		l-3.7-1.8l0,0c-0.2,0.3-0.2,0.7-0.1,1.1c0.1,0.4,0.4,0.6,0.7,0.8c0.2,0.1,0.5,0.2,0.7,0.2c0.2,0,0.5-0.1,0.6-0.3l1.3,0.8
		c-0.3,0.4-0.8,0.7-1.4,0.8C300.2,46.5,299.6,46.4,299,46.1z M299.5,42.1l2.3,1.1c0.2-0.3,0.2-0.6,0.1-0.9c-0.1-0.3-0.3-0.6-0.6-0.7
		c-0.3-0.2-0.7-0.2-1-0.1C299.9,41.6,299.6,41.8,299.5,42.1z"/>
	<path class="st0" d="M227.2,193.7l-0.7-8l3.1-0.3c0.8-0.1,1.5,0.1,2.2,0.5c0.6,0.5,0.9,1.1,0.9,1.8c0.1,0.5,0,1-0.2,1.4
		c-0.2,0.4-0.6,0.8-1,1l2,3l-1.9,0.2l-1.8-2.7l-1.2,0.1l0.2,2.8L227.2,193.7z M228.5,189.4l1.1-0.1c1-0.1,1.4-0.5,1.3-1.3
		s-0.6-1.2-1.6-1.1l-1.1,0.1L228.5,189.4z"/>
	<path class="st0" d="M237.2,192.9c-0.6,0.1-1.1,0-1.6-0.2c-0.5-0.2-0.9-0.5-1.1-0.9c-0.3-0.5-0.5-1-0.6-1.6c-0.1-0.6,0-1.1,0.2-1.7
		c0.2-0.5,0.5-0.9,0.9-1.2c0.4-0.3,0.9-0.5,1.5-0.6c0.5-0.1,1,0,1.5,0.2c0.5,0.2,0.8,0.5,1.1,0.9c0.3,0.5,0.5,1.1,0.6,1.6v0.5
		l-4.1,0.5l0,0c0,0.4,0.2,0.7,0.5,1c0.3,0.2,0.6,0.3,1,0.3c0.3,0,0.5-0.1,0.7-0.2c0.2-0.1,0.3-0.3,0.4-0.6l1.5-0.1
		c0,0.6-0.3,1.1-0.7,1.4C238.4,192.6,237.8,192.8,237.2,192.9z M235.4,189.3l2.5-0.3c0-0.3-0.2-0.6-0.4-0.8
		c-0.3-0.2-0.6-0.3-0.9-0.2c-0.3,0-0.7,0.2-0.9,0.5C235.5,188.7,235.4,189,235.4,189.3z"/>
	<path class="st0" d="M243.9,192c-0.5,0.1-1.1,0-1.6-0.2c-0.5-0.2-0.9-0.5-1.2-0.9c-0.6-0.9-0.8-2.1-0.5-3.2
		c0.2-0.5,0.4-0.9,0.8-1.2c0.4-0.3,1-0.5,1.5-0.6c0.5-0.1,1-0.1,1.4,0.1c0.4,0.1,0.7,0.4,1,0.7c0.3,0.3,0.5,0.7,0.6,1.1l-1.6,0.2
		c-0.1-0.3-0.2-0.5-0.4-0.7c-0.2-0.2-0.5-0.2-0.8-0.2c-0.4,0-0.7,0.3-0.9,0.6c-0.2,0.4-0.2,0.9-0.1,1.4c0,0.5,0.2,0.9,0.5,1.3
		c0.3,0.3,0.6,0.4,1,0.3c0.3,0,0.5-0.2,0.7-0.4c0.2-0.2,0.3-0.5,0.3-0.8l1.6-0.2c0,0.4,0,0.9-0.2,1.2c-0.2,0.4-0.4,0.7-0.8,0.9
		C244.8,191.8,244.3,191.9,243.9,192z"/>
	<path class="st0" d="M249.1,193.4c-0.2,0-0.4,0-0.6,0c-0.1,0-0.3,0-0.4,0l0.1-1.3c0.2,0,0.5,0,0.7-0.1c0.2-0.1,0.4-0.3,0.4-0.6
		l0.1-0.3l-3.2-5.7l1.7-0.3l2,4.1h0l0.5-4.6l1.7-0.3l-1.1,7c-0.1,0.5-0.3,0.9-0.6,1.3C250.1,193.1,249.6,193.3,249.1,193.4z"/>
	<path class="st0" d="M256.8,189.7c-0.5,0.1-1.1,0.1-1.6-0.1c-0.5-0.2-0.9-0.5-1.2-0.9c-0.3-0.4-0.6-1-0.7-1.5
		c-0.1-0.5-0.1-1.1,0-1.7c0.1-0.5,0.4-0.9,0.8-1.3c0.4-0.4,0.9-0.6,1.5-0.7c0.5-0.1,0.9-0.1,1.4,0c0.4,0.1,0.8,0.3,1.1,0.6
		c0.3,0.3,0.5,0.7,0.6,1.1l-1.5,0.3c-0.1-0.3-0.3-0.5-0.5-0.6c-0.2-0.1-0.5-0.2-0.8-0.1c-0.4,0.1-0.7,0.3-0.8,0.6
		c-0.2,0.4-0.2,0.9-0.1,1.4c0.1,0.5,0.3,0.9,0.6,1.2c0.3,0.2,0.6,0.4,1,0.3c0.3,0,0.5-0.2,0.7-0.4c0.2-0.2,0.2-0.5,0.2-0.8l1.5-0.3
		c0.1,0.4,0,0.9-0.1,1.3c-0.1,0.4-0.4,0.7-0.7,1C257.7,189.4,257.3,189.6,256.8,189.7z"/>
	<path class="st0" d="M260.5,180.6l1.8,7.8l-1.6,0.4l-1.8-7.8L260.5,180.6z"/>
	<path class="st0" d="M262.9,181.3c-0.2,0.1-0.5,0-0.7-0.1c-0.2-0.1-0.4-0.3-0.4-0.5c-0.1-0.2,0-0.5,0.1-0.6
		c0.1-0.2,0.3-0.3,0.6-0.4c0.2-0.1,0.5,0,0.7,0.1c0.4,0.2,0.5,0.7,0.3,1.1c0,0,0,0,0,0.1C263.3,181.1,263.1,181.2,262.9,181.3z
		 M263.7,188l-1.4-5.8l1.6-0.4l1.4,5.8L263.7,188z"/>
	<path class="st0" d="M267.5,183.5l0.9,3.4l-1.6,0.4l-1.6-5.8l1.5-0.4l0.3,1h0.1c0-0.4,0.2-0.7,0.4-1c0.3-0.3,0.6-0.5,1-0.6
		c0.5-0.2,1.1-0.1,1.6,0.2c0.5,0.3,0.9,0.9,1,1.4l1,3.7l-1.6,0.4l-0.9-3.4c-0.1-0.3-0.2-0.6-0.5-0.8c-0.2-0.2-0.6-0.2-0.8-0.1
		c-0.3,0.1-0.6,0.3-0.7,0.5C267.4,182.8,267.4,183.2,267.5,183.5z"/>
	<path class="st0" d="M276.9,186.8c-0.6,0.2-1.3,0.3-2,0.1c-0.5-0.1-0.9-0.4-1.1-0.9l1.4-0.7c0.1,0.2,0.3,0.3,0.5,0.3
		c0.3,0.1,0.6,0,0.9-0.1c0.3-0.1,0.6-0.3,0.8-0.5c0.2-0.3,0.2-0.6,0.1-0.9l-0.3-1H277c0,0.3-0.2,0.6-0.4,0.8c-0.3,0.3-0.6,0.5-1,0.6
		c-0.4,0.1-0.8,0.1-1.3,0.1c-0.4-0.1-0.8-0.3-1.1-0.7c-0.4-0.4-0.6-0.9-0.8-1.5c-0.2-0.6-0.3-1.1-0.2-1.7c0.1-0.5,0.2-0.9,0.5-1.2
		c0.3-0.3,0.6-0.6,1-0.7c0.3-0.1,0.6-0.1,0.9-0.1c0.2,0,0.5,0.1,0.6,0.2c0.2,0.1,0.3,0.2,0.5,0.4h0.1l-0.3-1l1.6-0.5l1.8,5.8
		c0.1,0.4,0.1,0.9,0,1.3c-0.2,0.4-0.4,0.7-0.8,1C277.8,186.4,277.4,186.7,276.9,186.8z M275.8,183.3c0.4-0.1,0.6-0.4,0.8-0.7
		c0.1-0.4,0.1-0.9-0.1-1.3c-0.1-0.4-0.3-0.8-0.7-1.1c-0.3-0.2-0.7-0.3-1-0.2c-0.4,0.1-0.6,0.4-0.8,0.7c-0.1,0.4-0.1,0.9,0.1,1.3
		c0.1,0.4,0.3,0.8,0.7,1.1C275.1,183.4,275.5,183.4,275.8,183.3L275.8,183.3z"/>
</g>
</svg>
