<?xml version="1.0" encoding="utf-8"?>
<!-- Generator: Adobe Illustrator 23.0.6, SVG Export Plug-In . SVG Version: 6.00 Build 0)  -->
<svg version="1.1" id="Layer_1" xmlns="http://www.w3.org/2000/svg" xmlns:xlink="http://www.w3.org/1999/xlink" x="0px" y="0px"
	 viewBox="0 0 400 442" style="enable-background:new 0 0 400 442;" xml:space="preserve">
<style type="text/css">
	.st0{fill:#333333;}
	.st1{fill:#4AA052;}
	.st2{enable-background:new    ;}
</style>
<title>gefn-mynd-01-en</title>
<g id="teikningar">
	<path class="st0" d="M114.1,107.8V92.2l0.8-1.7c0.5,0,0.8,0.4,0.8,0.8v15.9L114.1,107.8z M80.7,99v-7.6c0-0.5,0.4-0.8,0.8-0.8
		l0.8,1.7v8.3L80.7,99z"/>
	<path class="st0" d="M98.2,103.4c-9.7,0-17.6-5.4-17.6-12s7.9-12,17.6-12s17.6,5.4,17.6,12l0,0C115.8,98,107.9,103.4,98.2,103.4z
		 M98.2,81.1c-8.8,0-15.9,4.6-15.9,10.3s7.1,10.3,15.9,10.3s15.9-4.6,15.9-10.3l0,0C114.1,85.7,107,81.1,98.2,81.1z"/>
	<path class="st0" d="M83.8,122.5v-15.4l0.8-1.7c0.5,0,0.8,0.4,0.8,0.8v15.5L83.8,122.5z M50.3,114.3v-8.1c0-0.5,0.4-0.8,0.8-0.8
		l0.8,1.7v8.9L50.3,114.3z"/>
	<path class="st0" d="M67.9,118.2c-9.7,0-17.6-5.4-17.6-12s7.9-12,17.6-12s17.6,5.4,17.6,12l0,0C85.4,112.9,77.6,118.2,67.9,118.2z
		 M67.9,95.9c-8.8,0-15.9,4.6-15.9,10.3s7.1,10.3,15.9,10.3s15.9-4.6,15.9-10.3l0,0C83.8,100.6,76.6,95.9,67.9,95.9z"/>
	<path class="st0" d="M53.1,137.7v-15.8l0.8-1.7c0.5,0,0.8,0.4,0.8,0.8v15.7L53.1,137.7z M46.5,173c-3,1.2-6.1,1.9-9.4,1.9
		c-9.6,0-17.5-5.3-17.6-11.9c0,0,0,0,0-0.1v-41.8c0-0.5,0.4-0.8,0.9-0.8l0.9,1.7v40.9c0,5.7,7.1,10.3,15.9,10.3
		c3.3,0,6.6-0.7,9.6-2.1L46.5,173z"/>
	<path class="st0" d="M37.2,133.1c-9.7,0-17.6-5.4-17.6-12s7.9-12,17.6-12s17.6,5.4,17.6,12l0,0C54.8,127.7,46.9,133.1,37.2,133.1z
		 M37.2,110.8c-8.8,0-15.9,4.6-15.9,10.3s7.1,10.3,15.9,10.3s15.9-4.6,15.9-10.3l0,0C53.1,115.4,45.9,110.8,37.2,110.8z"/>
	<path class="st0" d="M37,121.2c-0.5,0-0.8-0.4-0.8-0.8v-5.2c0-0.5,0.4-0.8,0.8-0.8c0.5,0,0.9,0.4,0.9,0.8v5.2
		C37.9,120.8,37.5,121.2,37,121.2L37,121.2z"/>
	<path class="st0" d="M67.5,106.7c-0.5,0-0.8-0.4-0.8-0.8v-5.2c0-0.5,0.4-0.8,0.9-0.8s0.8,0.4,0.8,0.8v5.2
		C68.3,106.3,67.9,106.7,67.5,106.7L67.5,106.7z"/>
	<path class="st0" d="M24,174.5c-0.5,0-0.9-0.4-0.9-0.9l0,0v-52.1c0-0.3,0.2-0.6,0.5-0.8L97.2,84c0.3-0.1,0.6-0.1,0.8,0
		c0.3,0.2,0.4,0.4,0.4,0.7v5.9c0,0.5-0.4,0.8-0.9,0.8s-0.8-0.4-0.8-0.8v-4.5l-71.8,35.8v51.6C24.9,174.1,24.5,174.5,24,174.5
		L24,174.5z"/>
	<path class="st0" d="M98.9,205.3l-53.2-25.8v-39.1l0.5-0.2l76.4-37.2l53.1,25.8V168L98.9,205.3z M47.5,178.4l51.5,25l75.2-36.5
		v-37.1l-51.4-25l-75.2,36.6L47.5,178.4L47.5,178.4z"/>
	<polygon class="st0" points="99.8,204.3 98.1,204.3 98.1,165.7 98.6,165.5 174.6,128.5 175.4,130 99.8,166.8 	"/>
	<rect x="72" y="124.5" transform="matrix(0.437 -0.8995 0.8995 0.437 -97.1453 151.9799)" class="st0" width="1.7" height="58.2"/>
	<polygon class="st0" points="80.1,195 78.4,195 78.4,178.6 62,170.6 62,186.1 60.2,186.1 60.2,167.9 80.1,177.6 	"/>
	<path class="st0" d="M108.4,192.9V185l7.9-3.9v7.9L108.4,192.9z M110.1,186.1v4.1l4.5-2.2v-4.1L110.1,186.1z"/>
	<path class="st0" d="M121.3,186.7v-7.9l7.9-3.9v7.9L121.3,186.7z M123,179.8v4.1l4.5-2.2v-4.1L123,179.8z"/>
	<path class="st0" d="M147.1,174.1v-7.9l7.9-3.9v7.9L147.1,174.1z M148.8,167.3v4.1l4.5-2.2v-4.1L148.8,167.3z"/>
	<path class="st0" d="M160.1,167.8v-7.9l7.9-3.9v7.9L160.1,167.8z M161.8,161v4.1l4.5-2.2v-4.1L161.8,161z"/>
	<path class="st0" d="M134.2,180.4v-7.9l7.9-3.9v7.9L134.2,180.4z M135.9,173.5v4.1l4.5-2.2v-4.1L135.9,173.5z"/>
	<path class="st0" d="M193.3,148.4H175c-0.5,0-0.9-0.4-0.9-0.8c0-0.5,0.4-0.9,0.8-0.9l0,0h18.3c0.5,0,0.9,0.4,0.9,0.8
		C194.2,148,193.8,148.4,193.3,148.4L193.3,148.4L193.3,148.4z"/>
	<path class="st0" d="M19.2,148.4h-19c-0.5,0-0.8-0.4-0.8-0.9s0.4-0.8,0.8-0.8h19c0.5,0,0.9,0.4,0.9,0.8
		C20,148,19.7,148.4,19.2,148.4L19.2,148.4L19.2,148.4z"/>
	<path class="st1" d="M46.6,35.7c-5.3,0-9.6-4.3-9.6-9.6c0-4,1.9-7.2,4-10.6c2.4-3.9,4.8-8,4.8-13.8c0-0.5,0.4-0.9,0.9-0.9
		s0.8,0.4,0.8,0.9c0,5.8,2.4,9.9,4.8,13.8c2,3.4,4,6.7,4,10.6C56.3,31.4,52,35.7,46.6,35.7L46.6,35.7z M46.6,7.6
		c-1,3.1-2.4,6-4.2,8.7c-2,3.4-3.7,6.3-3.7,9.8c0,4.4,3.6,7.9,7.9,7.9s7.9-3.6,7.9-7.9c0-3.5-1.7-6.4-3.7-9.8
		C49.1,13.6,47.6,10.7,46.6,7.6z"/>
	<path class="st1" d="M83.6,35.7H67.1c-0.4,0-0.8-0.3-0.9-0.7L63.7,9.4c0-0.5,0.3-0.9,0.8-0.9s0.9,0.3,0.9,0.8L67.8,34h15l2.4-24.8
		c0-0.5,0.5-0.8,0.9-0.8l0,0c0.5,0,0.8,0.5,0.8,0.9l0,0L84.4,35C84.4,35.4,84,35.7,83.6,35.7z"/>
	<path class="st1" d="M72.4,30.7c-0.5,0-0.8-0.4-0.8-0.8l-0.8-18.1c0-0.5,0.3-0.9,0.8-0.9l0,0c0.5,0,0.8,0.3,0.9,0.8c0,0,0,0,0,0.1
		l0.8,18C73.3,30.2,72.9,30.6,72.4,30.7C72.5,30.7,72.5,30.7,72.4,30.7L72.4,30.7z"/>
	<path class="st1" d="M78.2,30.7L78.2,30.7c-0.5,0-0.8-0.4-0.8-0.9l0,0l0.8-18c0-0.5,0.4-0.8,0.8-0.8c0,0,0,0,0.1,0
		c0.5,0,0.8,0.4,0.8,0.9l0,0L79.1,30C79.1,30.4,78.7,30.7,78.2,30.7z"/>
	<path class="st1" d="M64.6,13.1h-1.9c-0.5,0-0.8-0.4-0.8-0.9s0.4-0.8,0.8-0.8h1.9c0.5,0,0.8,0.4,0.8,0.9S65.1,13.1,64.6,13.1z"/>
	<path class="st1" d="M87.9,13.1H86c-0.5,0-0.9-0.4-0.9-0.8c0-0.5,0.4-0.9,0.8-0.9l0,0h1.9c0.5,0,0.8,0.4,0.8,0.9
		C88.7,12.8,88.4,13.1,87.9,13.1L87.9,13.1z"/>
	<path class="st1" d="M87.6,7H63c-0.5,0-0.8-0.4-0.8-0.9s0.4-0.8,0.8-0.8h24.6c0.5,0,0.8,0.4,0.8,0.9C88.4,6.6,88.1,7,87.6,7L87.6,7
		z"/>
	<path class="st1" d="M77.9,3.9c-0.5,0-0.9-0.4-0.9-0.8l0,0V2.5h-3.4V3c0,0.5-0.4,0.9-0.8,0.9c-0.5,0-0.9-0.4-0.9-0.8l0,0V1.7
		c0-0.5,0.4-0.8,0.8-0.9h5.1c0.5,0,0.8,0.4,0.8,0.9V3C78.7,3.5,78.3,3.9,77.9,3.9L77.9,3.9z"/>
	<path class="st0" d="M188.6,442V206.2c0-0.5,0.4-0.9,0.8-0.9c0.5,0,0.9,0.4,0.9,0.8l0,0V442H188.6z"/>
	<path class="st0" d="M170.4,217.4c-0.1,0-0.3,0-0.4-0.1l-30.8-14.9c-0.4-0.2-0.6-0.7-0.4-1.1c0.2-0.4,0.7-0.6,1.1-0.4l0,0
		l30.8,14.9c0.4,0.2,0.6,0.7,0.4,1.1l0,0C171.1,217.3,170.8,217.4,170.4,217.4z"/>
	<path class="st0" d="M189.3,207.1c-0.1,0-0.3,0-0.4-0.1l-30.2-14.6c-0.4-0.2-0.6-0.7-0.4-1.1c0.2-0.4,0.7-0.6,1.1-0.4l0,0
		l30.2,14.6c0.4,0.2,0.6,0.7,0.4,1.1C189.9,206.9,189.6,207,189.3,207.1L189.3,207.1z"/>
	<path class="st0" d="M96.7,70.2L96.7,70.2c-0.2,0-0.4-0.1-0.6-0.2l-5.2-5.2c-0.3-0.4-0.3-0.9,0.1-1.2c0.3-0.3,0.8-0.3,1.1,0
		l4.6,4.6l4.6-4.6c0.3-0.3,0.9-0.3,1.2,0c0.3,0.3,0.3,0.8,0,1.2l0,0L97.3,70C97.2,70.1,97,70.2,96.7,70.2z"/>
	<path class="st0" d="M174.9,110.8c-0.1,0-0.2,0-0.3,0c-0.4-0.2-0.7-0.6-0.5-1.1l0,0l2.1-6.2l-6.2-2.2c-0.4-0.2-0.7-0.6-0.5-1.1
		c0.2-0.4,0.6-0.7,1.1-0.5l7,2.4c0.4,0.2,0.7,0.6,0.5,1.1l-2.4,7C175.5,110.6,175.2,110.8,174.9,110.8z"/>
	<path class="st0" d="M96.7,70.2c-0.5,0-0.8-0.4-0.8-0.8V41.1c0-0.5,0.4-0.9,0.8-0.9c0.5,0,0.9,0.4,0.9,0.8l0,0v28.3
		C97.6,69.8,97.2,70.2,96.7,70.2L96.7,70.2z"/>
	<path class="st0" d="M169.6,442V216.6c0-0.5,0.4-0.9,0.8-0.9c0.5,0,0.9,0.4,0.9,0.8l0,0V442H169.6z"/>
	<path class="st0" d="M160.9,112c-0.5,0-0.8-0.4-0.8-0.9c0-0.3,0.2-0.6,0.5-0.7l16.4-8.1c0.4-0.2,0.9,0,1.1,0.4s0,0.9-0.4,1.1l0,0
		l-16.4,8.1C161.2,112,161,112,160.9,112z"/>
</g>
<g id="enska">
	<g class="st2">
		<path class="st0" d="M182.9,101.6V94h3c0.6,0,1.1,0.1,1.5,0.3c0.4,0.2,0.7,0.5,0.9,0.9c0.2,0.4,0.3,0.8,0.3,1.3s-0.1,1-0.3,1.3
			c-0.2,0.4-0.5,0.7-0.9,0.9c-0.4,0.2-0.9,0.3-1.5,0.3h-1.4v2.5H182.9z M184.5,97.8h1.1c0.5,0,0.8-0.1,1-0.4s0.3-0.5,0.3-0.9
			c0-0.4-0.1-0.7-0.3-0.9s-0.6-0.3-1-0.3h-1.1V97.8z"/>
	</g>
	<g class="st2">
		<path class="st0" d="M189.5,101.6v-5.7h1.5v1h0.1c0.1-0.4,0.3-0.6,0.5-0.8s0.5-0.3,0.9-0.3c0.2,0,0.3,0,0.4,0.1
			c0.1,0,0.2,0.1,0.4,0.2l-0.5,1.3c-0.1,0-0.2-0.1-0.2-0.1c-0.1,0-0.2,0-0.3,0c-0.3,0-0.6,0.1-0.8,0.3c-0.2,0.2-0.3,0.5-0.3,0.9v3.2
			H189.5z"/>
	</g>
	<g class="st2">
		<path class="st0" d="M196.1,101.7c-0.6,0-1.1-0.1-1.5-0.4c-0.4-0.2-0.7-0.6-1-1c-0.2-0.4-0.3-1-0.3-1.5c0-0.6,0.1-1.1,0.3-1.6
			c0.2-0.4,0.6-0.8,1-1s0.9-0.4,1.5-0.4s1.1,0.1,1.5,0.4c0.4,0.2,0.7,0.6,1,1c0.2,0.4,0.3,1,0.3,1.6c0,0.6-0.1,1.1-0.3,1.5
			c-0.2,0.4-0.6,0.8-1,1C197.2,101.6,196.7,101.7,196.1,101.7z M196.1,100.5c0.4,0,0.7-0.2,0.9-0.5s0.3-0.7,0.3-1.2
			s-0.1-0.9-0.3-1.2c-0.2-0.3-0.5-0.5-0.9-0.5c-0.4,0-0.7,0.2-0.9,0.5c-0.2,0.3-0.3,0.7-0.3,1.2s0.1,0.9,0.3,1.2
			C195.4,100.3,195.7,100.5,196.1,100.5z"/>
		<path class="st0" d="M202.1,101.7c-0.4,0-0.8-0.1-1.2-0.3c-0.4-0.2-0.6-0.6-0.8-1c-0.2-0.4-0.3-1-0.3-1.6c0-0.7,0.1-1.2,0.3-1.6
			s0.5-0.8,0.8-1c0.4-0.2,0.7-0.3,1.2-0.3c0.3,0,0.6,0.1,0.8,0.2c0.2,0.1,0.4,0.2,0.5,0.4c0.1,0.2,0.2,0.3,0.3,0.5h0V94h1.6v7.6
			h-1.6v-0.9h-0.1c-0.1,0.2-0.2,0.3-0.3,0.5s-0.3,0.3-0.5,0.4S202.4,101.7,202.1,101.7z M202.6,100.4c0.4,0,0.7-0.2,0.9-0.5
			c0.2-0.3,0.3-0.7,0.3-1.2c0-0.5-0.1-0.9-0.3-1.2c-0.2-0.3-0.5-0.5-0.9-0.5c-0.4,0-0.7,0.2-0.9,0.5s-0.3,0.7-0.3,1.2
			c0,0.5,0.1,0.9,0.3,1.2C201.9,100.3,202.2,100.4,202.6,100.4z"/>
		<path class="st0" d="M210.3,99.2v-3.3h1.6v5.7h-1.5v-1h-0.1c-0.1,0.3-0.3,0.6-0.6,0.8c-0.3,0.2-0.7,0.3-1.1,0.3
			c-0.6,0-1-0.2-1.4-0.6c-0.4-0.4-0.5-0.9-0.5-1.6v-3.6h1.6v3.4c0,0.3,0.1,0.6,0.3,0.8s0.4,0.3,0.7,0.3c0.3,0,0.5-0.1,0.8-0.3
			C210.2,99.8,210.3,99.6,210.3,99.2z"/>
		<path class="st0" d="M215.7,101.7c-0.6,0-1.1-0.1-1.5-0.4c-0.4-0.2-0.7-0.6-1-1c-0.2-0.4-0.3-1-0.3-1.5c0-0.6,0.1-1.1,0.3-1.5
			s0.6-0.8,1-1c0.4-0.2,0.9-0.4,1.5-0.4c0.5,0,0.9,0.1,1.3,0.3c0.4,0.2,0.7,0.4,0.9,0.8s0.3,0.7,0.4,1.2h-1.5c0-0.3-0.2-0.5-0.3-0.7
			c-0.2-0.2-0.4-0.3-0.7-0.3c-0.4,0-0.7,0.1-0.9,0.4c-0.2,0.3-0.3,0.7-0.3,1.3c0,0.5,0.1,1,0.3,1.3c0.2,0.3,0.5,0.4,0.9,0.4
			c0.3,0,0.5-0.1,0.7-0.2s0.3-0.4,0.4-0.7h1.5c0,0.4-0.1,0.8-0.4,1.2c-0.2,0.3-0.5,0.6-0.9,0.8C216.7,101.6,216.3,101.7,215.7,101.7
			z"/>
	</g>
	<g class="st2">
		<path class="st0" d="M221.5,95.9v1.2h-1.1v2.8c0,0.2,0,0.4,0.1,0.4s0.2,0.1,0.4,0.1c0.1,0,0.1,0,0.2,0c0.1,0,0.1,0,0.2,0l0.2,1.2
			c-0.1,0-0.2,0.1-0.3,0.1c-0.1,0-0.3,0.1-0.5,0.1c-0.6,0-1-0.1-1.4-0.4c-0.3-0.3-0.5-0.7-0.5-1.3v-3h-0.8v-1.2h0.8v-1.4h1.6v1.4
			H221.5z"/>
	</g>
	<g class="st2">
		<path class="st0" d="M227,97.5l-1.5,0.1c0-0.2-0.1-0.3-0.3-0.5c-0.2-0.1-0.4-0.2-0.7-0.2c-0.2,0-0.5,0.1-0.6,0.2
			c-0.2,0.1-0.3,0.2-0.3,0.4c0,0.1,0.1,0.3,0.2,0.3c0.1,0.1,0.3,0.2,0.6,0.2l1,0.2c1.1,0.2,1.7,0.7,1.7,1.6c0,0.4-0.1,0.7-0.3,1
			c-0.2,0.3-0.5,0.5-0.9,0.7s-0.8,0.2-1.3,0.2c-0.8,0-1.4-0.2-1.8-0.5c-0.4-0.3-0.7-0.7-0.8-1.3l1.6-0.1c0,0.2,0.2,0.4,0.3,0.5
			c0.2,0.1,0.4,0.2,0.7,0.2c0.3,0,0.5-0.1,0.7-0.2s0.3-0.2,0.3-0.4c0-0.3-0.3-0.5-0.7-0.6l-1-0.2c-1.1-0.2-1.7-0.8-1.7-1.6
			c0-0.6,0.2-1,0.7-1.3c0.4-0.3,1-0.5,1.8-0.5c0.7,0,1.3,0.2,1.7,0.5C226.7,96.6,227,97,227,97.5z"/>
	</g>
	<g class="st2">
		<path class="st0" d="M192.1,185.3l-2.2-7.6h1.8l1.3,5.3h0.1l1.4-5.3h1.5l1.4,5.3h0.1l1.3-5.3h1.8l-2.2,7.6h-1.6l-1.5-5h-0.1
			l-1.5,5H192.1z"/>
	</g>
	<g class="st2">
		<path class="st0" d="M202,185.4c-0.5,0-1-0.1-1.4-0.4c-0.4-0.3-0.5-0.7-0.5-1.3c0-0.4,0.1-0.8,0.3-1c0.2-0.2,0.5-0.4,0.8-0.5
			c0.3-0.1,0.7-0.2,1.1-0.2c0.5,0,0.9-0.1,1.1-0.2c0.2-0.1,0.3-0.2,0.3-0.4v0c0-0.2-0.1-0.4-0.2-0.5s-0.4-0.2-0.6-0.2
			c-0.3,0-0.5,0.1-0.7,0.2c-0.2,0.1-0.3,0.3-0.3,0.5l-1.5-0.1c0.1-0.5,0.4-0.9,0.8-1.2c0.4-0.3,1-0.5,1.7-0.5c0.4,0,0.8,0.1,1.2,0.2
			c0.4,0.1,0.7,0.3,0.9,0.6c0.2,0.3,0.3,0.7,0.3,1.1v3.9h-1.5v-0.8h0c-0.1,0.3-0.3,0.5-0.6,0.7C202.8,185.3,202.5,185.4,202,185.4z
			 M202.5,184.3c0.3,0,0.6-0.1,0.9-0.3s0.3-0.5,0.3-0.8v-0.6c-0.1,0-0.2,0.1-0.3,0.1s-0.3,0.1-0.4,0.1s-0.3,0-0.4,0.1
			c-0.3,0-0.5,0.1-0.7,0.2c-0.2,0.1-0.3,0.3-0.3,0.5c0,0.2,0.1,0.4,0.2,0.5C202,184.3,202.2,184.3,202.5,184.3z"/>
		<path class="st0" d="M211.3,181.2l-1.5,0.1c0-0.2-0.1-0.3-0.3-0.5s-0.4-0.2-0.7-0.2c-0.2,0-0.5,0.1-0.6,0.2
			c-0.2,0.1-0.3,0.2-0.3,0.4c0,0.1,0.1,0.3,0.2,0.3c0.1,0.1,0.3,0.2,0.6,0.2l1,0.2c1.1,0.2,1.7,0.7,1.7,1.6c0,0.4-0.1,0.7-0.3,1
			c-0.2,0.3-0.5,0.5-0.9,0.7s-0.8,0.2-1.3,0.2c-0.8,0-1.4-0.2-1.8-0.5c-0.4-0.3-0.7-0.7-0.8-1.3l1.6-0.1c0,0.2,0.2,0.4,0.3,0.5
			s0.4,0.2,0.7,0.2c0.3,0,0.5-0.1,0.7-0.2c0.2-0.1,0.3-0.2,0.3-0.4c0-0.3-0.3-0.5-0.7-0.6l-1-0.2c-1.1-0.2-1.7-0.8-1.7-1.6
			c0-0.6,0.2-1,0.7-1.3c0.4-0.3,1-0.5,1.8-0.5c0.7,0,1.3,0.2,1.7,0.5C210.9,180.3,211.2,180.7,211.3,181.2z"/>
	</g>
	<g class="st2">
		<path class="st0" d="M215,179.6v1.2h-1.1v2.8c0,0.2,0,0.4,0.1,0.4s0.2,0.1,0.4,0.1c0.1,0,0.1,0,0.2,0c0.1,0,0.1,0,0.2,0l0.2,1.2
			c-0.1,0-0.2,0.1-0.3,0.1c-0.1,0-0.3,0.1-0.5,0.1c-0.6,0-1-0.1-1.4-0.4c-0.3-0.3-0.5-0.7-0.5-1.3v-3h-0.8v-1.2h0.8v-1.4h1.6v1.4
			H215z"/>
	</g>
	<g class="st2">
		<path class="st0" d="M218.4,185.4c-0.6,0-1.1-0.1-1.5-0.4c-0.4-0.2-0.8-0.6-1-1c-0.2-0.4-0.3-1-0.3-1.6c0-0.6,0.1-1.1,0.3-1.6
			c0.2-0.4,0.6-0.8,1-1c0.4-0.2,0.9-0.4,1.5-0.4c0.5,0,1,0.1,1.4,0.3s0.7,0.5,1,1c0.2,0.4,0.4,1,0.4,1.6v0.4h-3.9v0
			c0,0.4,0.1,0.8,0.3,1c0.2,0.2,0.5,0.4,0.9,0.4c0.3,0,0.5-0.1,0.7-0.2c0.2-0.1,0.3-0.3,0.4-0.5l1.5,0.1c-0.1,0.5-0.4,1-0.9,1.3
			C219.7,185.3,219.1,185.4,218.4,185.4z M217.1,181.9h2.4c0-0.3-0.1-0.6-0.3-0.8c-0.2-0.2-0.5-0.3-0.8-0.3c-0.4,0-0.6,0.1-0.9,0.3
			C217.3,181.3,217.1,181.5,217.1,181.9z"/>
	</g>
	<g class="st2">
		<path class="st0" d="M194.4,196.3v-7.6h1.6v3.2h3.3v-3.2h1.6v7.6h-1.6v-3.2H196v3.2H194.4z"/>
		<path class="st0" d="M204.8,196.4c-0.6,0-1.1-0.1-1.5-0.4c-0.4-0.2-0.8-0.6-1-1s-0.3-1-0.3-1.6c0-0.6,0.1-1.1,0.3-1.6s0.6-0.8,1-1
			c0.4-0.2,0.9-0.4,1.5-0.4c0.5,0,1,0.1,1.4,0.3s0.7,0.5,1,1s0.4,1,0.4,1.6v0.4h-3.9v0c0,0.4,0.1,0.8,0.3,1c0.2,0.2,0.6,0.4,0.9,0.4
			c0.3,0,0.5-0.1,0.7-0.2c0.2-0.1,0.3-0.3,0.4-0.5l1.5,0.1c-0.1,0.5-0.4,1-0.9,1.3C206.1,196.3,205.5,196.4,204.8,196.4z
			 M203.6,192.9h2.4c0-0.3-0.1-0.6-0.3-0.8c-0.2-0.2-0.5-0.3-0.8-0.3c-0.4,0-0.6,0.1-0.9,0.3C203.7,192.3,203.6,192.5,203.6,192.9z"
			/>
		<path class="st0" d="M210.1,196.4c-0.5,0-1-0.1-1.4-0.4c-0.4-0.3-0.5-0.7-0.5-1.3c0-0.4,0.1-0.8,0.3-1c0.2-0.2,0.5-0.4,0.8-0.5
			s0.7-0.2,1.1-0.2c0.5,0,0.9-0.1,1.1-0.2c0.2-0.1,0.3-0.2,0.3-0.4v0c0-0.2-0.1-0.4-0.2-0.5c-0.1-0.1-0.4-0.2-0.6-0.2
			c-0.3,0-0.5,0.1-0.7,0.2c-0.2,0.1-0.3,0.3-0.3,0.5l-1.5-0.1c0.1-0.5,0.4-0.9,0.8-1.2c0.4-0.3,1-0.5,1.7-0.5c0.4,0,0.8,0.1,1.2,0.2
			c0.4,0.1,0.7,0.3,0.9,0.6c0.2,0.3,0.3,0.7,0.3,1.1v3.9h-1.5v-0.8h0c-0.1,0.3-0.3,0.5-0.6,0.7S210.5,196.4,210.1,196.4z
			 M210.6,195.3c0.3,0,0.6-0.1,0.9-0.3c0.2-0.2,0.3-0.5,0.3-0.8v-0.6c-0.1,0-0.2,0.1-0.3,0.1c-0.1,0-0.3,0.1-0.4,0.1
			c-0.1,0-0.3,0-0.4,0.1c-0.3,0-0.5,0.1-0.7,0.2c-0.2,0.1-0.3,0.3-0.3,0.5c0,0.2,0.1,0.4,0.2,0.5
			C210.1,195.3,210.3,195.3,210.6,195.3z"/>
		<path class="st0" d="M217.6,190.6v1.2h-1.1v2.8c0,0.2,0,0.4,0.1,0.4c0.1,0.1,0.2,0.1,0.4,0.1c0.1,0,0.1,0,0.2,0s0.1,0,0.2,0
			l0.2,1.2c-0.1,0-0.2,0.1-0.3,0.1c-0.1,0-0.3,0.1-0.5,0.1c-0.6,0-1-0.1-1.4-0.4c-0.3-0.3-0.5-0.7-0.5-1.3v-3h-0.8v-1.2h0.8v-1.4
			h1.6v1.4H217.6z"/>
	</g>
	<g class="st2">
		<path class="st0" d="M85.7,224v-7.6h3.1c0.8,0,1.5,0.2,1.9,0.6c0.4,0.4,0.6,0.8,0.6,1.4c0,0.5-0.1,0.8-0.4,1.1s-0.6,0.5-1,0.5v0.1
			c0.3,0,0.6,0.1,0.8,0.2c0.3,0.2,0.5,0.4,0.6,0.6c0.2,0.3,0.2,0.6,0.2,1c0,0.4-0.1,0.8-0.3,1.1s-0.5,0.6-0.9,0.8
			c-0.4,0.2-0.9,0.3-1.4,0.3H85.7z M87.3,219.6h1.2c0.3,0,0.6-0.1,0.8-0.3s0.3-0.4,0.3-0.7c0-0.3-0.1-0.5-0.3-0.7
			c-0.2-0.2-0.5-0.3-0.8-0.3h-1.2V219.6z M87.3,222.7h1.3c0.5,0,0.8-0.1,1-0.3c0.2-0.2,0.3-0.4,0.3-0.7c0-0.3-0.1-0.6-0.3-0.8
			c-0.2-0.2-0.5-0.3-0.9-0.3h-1.4V222.7z"/>
		<path class="st0" d="M93.6,226.2c-0.2,0-0.4,0-0.6-0.1c-0.2,0-0.3-0.1-0.4-0.1l0.4-1.2c0.3,0.1,0.5,0.1,0.7,0.1
			c0.2,0,0.3-0.2,0.5-0.5l0.1-0.3l-2.1-5.9h1.7l1.2,4.2h0.1l1.2-4.2H98l-2.2,6.4c-0.2,0.5-0.4,0.8-0.8,1.1
			C94.6,226.1,94.1,226.2,93.6,226.2z"/>
		<path class="st0" d="M102.4,220.2v1.3h-3.5v-1.3H102.4z"/>
		<path class="st0" d="M103.7,224v-7.6h3c0.6,0,1.1,0.1,1.5,0.3c0.4,0.2,0.7,0.5,0.9,0.9c0.2,0.4,0.3,0.8,0.3,1.3s-0.1,1-0.3,1.3
			c-0.2,0.4-0.5,0.7-0.9,0.9c-0.4,0.2-0.9,0.3-1.5,0.3h-1.4v2.5H103.7z M105.4,220.2h1.1c0.5,0,0.8-0.1,1-0.4s0.3-0.5,0.3-0.9
			c0-0.4-0.1-0.7-0.3-0.9s-0.6-0.3-1-0.3h-1.1V220.2z"/>
	</g>
	<g class="st2">
		<path class="st0" d="M109.7,224v-5.7h1.5v1h0.1c0.1-0.4,0.3-0.6,0.5-0.8s0.5-0.3,0.9-0.3c0.2,0,0.3,0,0.4,0.1
			c0.1,0,0.2,0.1,0.4,0.2l-0.5,1.3c-0.1,0-0.2-0.1-0.2-0.1c-0.1,0-0.2,0-0.3,0c-0.3,0-0.6,0.1-0.8,0.3c-0.2,0.2-0.3,0.5-0.3,0.9v3.2
			H109.7z"/>
	</g>
	<g class="st2">
		<path class="st0" d="M116.3,224.1c-0.6,0-1.1-0.1-1.5-0.4c-0.4-0.2-0.7-0.6-1-1c-0.2-0.4-0.3-1-0.3-1.5c0-0.6,0.1-1.1,0.3-1.6
			c0.2-0.4,0.6-0.8,1-1s0.9-0.4,1.5-0.4s1.1,0.1,1.5,0.4c0.4,0.2,0.7,0.6,1,1c0.2,0.4,0.3,1,0.3,1.6c0,0.6-0.1,1.1-0.3,1.5
			c-0.2,0.4-0.6,0.8-1,1C117.4,224,116.9,224.1,116.3,224.1z M116.3,222.9c0.4,0,0.7-0.2,0.9-0.5c0.2-0.3,0.3-0.7,0.3-1.2
			s-0.1-0.9-0.3-1.2c-0.2-0.3-0.5-0.5-0.9-0.5c-0.4,0-0.7,0.2-0.9,0.5c-0.2,0.3-0.3,0.7-0.3,1.2s0.1,0.9,0.3,1.2
			C115.6,222.7,115.9,222.9,116.3,222.9z"/>
		<path class="st0" d="M122.3,224.1c-0.4,0-0.8-0.1-1.2-0.3s-0.6-0.6-0.8-1c-0.2-0.4-0.3-1-0.3-1.6c0-0.7,0.1-1.2,0.3-1.6
			s0.5-0.8,0.8-1c0.4-0.2,0.7-0.3,1.2-0.3c0.3,0,0.6,0.1,0.8,0.2c0.2,0.1,0.4,0.2,0.5,0.4c0.1,0.2,0.2,0.3,0.3,0.5h0v-2.9h1.6v7.6
			H124v-0.9h-0.1c-0.1,0.2-0.2,0.3-0.3,0.5s-0.3,0.3-0.5,0.4C122.8,224.1,122.6,224.1,122.3,224.1z M122.8,222.8
			c0.4,0,0.7-0.2,0.9-0.5c0.2-0.3,0.3-0.7,0.3-1.2c0-0.5-0.1-0.9-0.3-1.2c-0.2-0.3-0.5-0.5-0.9-0.5c-0.4,0-0.7,0.2-0.9,0.5
			s-0.3,0.7-0.3,1.2c0,0.5,0.1,0.9,0.3,1.2C122.1,222.7,122.4,222.8,122.8,222.8z"/>
		<path class="st0" d="M130.5,221.6v-3.3h1.6v5.7h-1.5v-1h-0.1c-0.1,0.3-0.3,0.6-0.6,0.8c-0.3,0.2-0.7,0.3-1.1,0.3
			c-0.6,0-1-0.2-1.4-0.6c-0.4-0.4-0.5-0.9-0.5-1.6v-3.6h1.6v3.4c0,0.3,0.1,0.6,0.3,0.8c0.2,0.2,0.4,0.3,0.7,0.3
			c0.3,0,0.5-0.1,0.8-0.3C130.4,222.2,130.5,222,130.5,221.6z"/>
		<path class="st0" d="M135.9,224.1c-0.6,0-1.1-0.1-1.5-0.4s-0.7-0.6-1-1c-0.2-0.4-0.3-1-0.3-1.5c0-0.6,0.1-1.1,0.3-1.5
			c0.2-0.4,0.6-0.8,1-1c0.4-0.2,0.9-0.4,1.5-0.4c0.5,0,0.9,0.1,1.3,0.3c0.4,0.2,0.7,0.4,0.9,0.8c0.2,0.3,0.3,0.7,0.4,1.2H137
			c0-0.3-0.2-0.5-0.3-0.7c-0.2-0.2-0.4-0.3-0.7-0.3c-0.4,0-0.7,0.1-0.9,0.4c-0.2,0.3-0.3,0.7-0.3,1.3c0,0.5,0.1,1,0.3,1.3
			c0.2,0.3,0.5,0.4,0.9,0.4c0.3,0,0.5-0.1,0.7-0.2s0.3-0.4,0.4-0.7h1.5c0,0.4-0.1,0.8-0.4,1.2s-0.5,0.6-0.9,0.8
			C136.9,224,136.4,224.1,135.9,224.1z"/>
	</g>
	<g class="st2">
		<path class="st0" d="M141.7,218.3v1.2h-1.1v2.8c0,0.2,0,0.4,0.1,0.4c0.1,0.1,0.2,0.1,0.4,0.1c0.1,0,0.1,0,0.2,0s0.1,0,0.2,0
			l0.2,1.2c-0.1,0-0.2,0.1-0.3,0.1c-0.1,0-0.3,0.1-0.5,0.1c-0.6,0-1-0.1-1.4-0.4c-0.3-0.3-0.5-0.7-0.5-1.3v-3h-0.8v-1.2h0.8v-1.4
			h1.6v1.4H141.7z"/>
	</g>
	<g class="st2">
		<path class="st0" d="M147.2,219.9l-1.5,0.1c0-0.2-0.1-0.3-0.3-0.5s-0.4-0.2-0.7-0.2c-0.2,0-0.5,0.1-0.6,0.2
			c-0.2,0.1-0.3,0.2-0.3,0.4c0,0.1,0.1,0.3,0.2,0.3c0.1,0.1,0.3,0.2,0.6,0.2l1,0.2c1.1,0.2,1.7,0.7,1.7,1.6c0,0.4-0.1,0.7-0.3,1
			c-0.2,0.3-0.5,0.5-0.9,0.7s-0.8,0.2-1.3,0.2c-0.8,0-1.4-0.2-1.8-0.5c-0.4-0.3-0.7-0.7-0.8-1.3l1.6-0.1c0,0.2,0.2,0.4,0.3,0.5
			s0.4,0.2,0.7,0.2c0.3,0,0.5-0.1,0.7-0.2c0.2-0.1,0.3-0.2,0.3-0.4c0-0.3-0.3-0.5-0.7-0.6l-1-0.2c-1.1-0.2-1.7-0.8-1.7-1.6
			c0-0.6,0.2-1,0.7-1.3c0.4-0.3,1-0.5,1.8-0.5c0.7,0,1.3,0.2,1.7,0.5C146.9,219,147.2,219.4,147.2,219.9z"/>
	</g>
	<g class="st2">
		<path class="st0" d="M99,235.1c-0.5,0-1-0.1-1.4-0.3c-0.4-0.2-0.7-0.4-0.9-0.8s-0.3-0.7-0.3-1.1c0-0.4,0.1-0.8,0.4-1.1
			c0.3-0.3,0.6-0.6,1-0.9c-0.2-0.3-0.4-0.5-0.5-0.8s-0.2-0.6-0.2-0.9c0-0.4,0.1-0.7,0.3-1c0.2-0.3,0.4-0.5,0.7-0.7
			c0.3-0.2,0.7-0.3,1.1-0.3c0.4,0,0.8,0.1,1.1,0.2c0.3,0.2,0.5,0.4,0.7,0.7s0.2,0.6,0.2,0.9c0,0.4-0.1,0.7-0.3,1s-0.4,0.6-0.7,0.8
			l-0.4,0.3l1.3,1.4c0.1-0.2,0.2-0.4,0.2-0.6c0.1-0.2,0.1-0.5,0.1-0.7h1.3c0,0.5-0.1,1-0.2,1.4c-0.1,0.4-0.3,0.7-0.5,1l1.1,1.3h-1.7
			l-0.5-0.5c-0.3,0.2-0.6,0.4-0.9,0.5S99.3,235.1,99,235.1z M100.1,233.5l-1.4-1.6l0,0c-0.2,0.2-0.4,0.3-0.5,0.5
			c-0.1,0.2-0.2,0.3-0.2,0.5c0,0.3,0.1,0.5,0.3,0.7c0.2,0.2,0.5,0.3,0.8,0.3C99.4,233.8,99.7,233.7,100.1,233.5z M98.9,230.3
			l0.4-0.3c0.4-0.2,0.6-0.5,0.6-0.8c0-0.2-0.1-0.3-0.2-0.4c-0.1-0.1-0.3-0.2-0.5-0.2c-0.2,0-0.4,0.1-0.5,0.2
			c-0.1,0.1-0.2,0.3-0.2,0.5c0,0.2,0,0.3,0.1,0.5C98.7,229.9,98.8,230.1,98.9,230.3z"/>
	</g>
	<g class="st2">
		<path class="st0" d="M107.5,235l-2.2-7.6h1.8l1.3,5.3h0.1l1.4-5.3h1.5l1.4,5.3h0.1l1.3-5.3h1.8l-2.2,7.6H112l-1.5-5h-0.1l-1.5,5
			H107.5z"/>
	</g>
	<g class="st2">
		<path class="st0" d="M117.4,235.1c-0.5,0-1-0.1-1.4-0.4c-0.4-0.3-0.5-0.7-0.5-1.3c0-0.4,0.1-0.8,0.3-1c0.2-0.2,0.5-0.4,0.8-0.5
			c0.3-0.1,0.7-0.2,1.1-0.2c0.5,0,0.9-0.1,1.1-0.2c0.2-0.1,0.3-0.2,0.3-0.4v0c0-0.2-0.1-0.4-0.2-0.5s-0.4-0.2-0.6-0.2
			c-0.3,0-0.5,0.1-0.7,0.2c-0.2,0.1-0.3,0.3-0.3,0.5l-1.5-0.1c0.1-0.5,0.4-0.9,0.8-1.2c0.4-0.3,1-0.5,1.7-0.5c0.4,0,0.8,0.1,1.2,0.2
			c0.4,0.1,0.7,0.3,0.9,0.6c0.2,0.3,0.3,0.7,0.3,1.1v3.9h-1.5v-0.8h0c-0.1,0.3-0.3,0.5-0.6,0.7C118.2,235,117.8,235.1,117.4,235.1z
			 M117.9,234c0.3,0,0.6-0.1,0.9-0.3s0.3-0.5,0.3-0.8v-0.6c-0.1,0-0.2,0.1-0.3,0.1c-0.1,0-0.3,0.1-0.4,0.1s-0.3,0-0.4,0.1
			c-0.3,0-0.5,0.1-0.7,0.2c-0.2,0.1-0.3,0.3-0.3,0.5c0,0.2,0.1,0.4,0.2,0.5C117.4,234,117.6,234,117.9,234z"/>
		<path class="st0" d="M126.6,230.9l-1.5,0.1c0-0.2-0.1-0.3-0.3-0.5s-0.4-0.2-0.7-0.2c-0.2,0-0.5,0.1-0.6,0.2
			c-0.2,0.1-0.3,0.2-0.3,0.4c0,0.1,0.1,0.3,0.2,0.3c0.1,0.1,0.3,0.2,0.6,0.2l1,0.2c1.1,0.2,1.7,0.7,1.7,1.6c0,0.4-0.1,0.7-0.3,1
			c-0.2,0.3-0.5,0.5-0.9,0.7s-0.8,0.2-1.3,0.2c-0.8,0-1.4-0.2-1.8-0.5c-0.4-0.3-0.7-0.7-0.8-1.3l1.6-0.1c0,0.2,0.2,0.4,0.3,0.5
			s0.4,0.2,0.7,0.2c0.3,0,0.5-0.1,0.7-0.2c0.2-0.1,0.3-0.2,0.3-0.4c0-0.3-0.3-0.5-0.7-0.6l-1-0.2c-1.1-0.2-1.7-0.8-1.7-1.6
			c0-0.6,0.2-1,0.7-1.3c0.4-0.3,1-0.5,1.8-0.5c0.7,0,1.3,0.2,1.7,0.5C126.3,230,126.6,230.4,126.6,230.9z"/>
	</g>
	<g class="st2">
		<path class="st0" d="M130.4,229.3v1.2h-1.1v2.8c0,0.2,0,0.4,0.1,0.4c0.1,0.1,0.2,0.1,0.4,0.1c0.1,0,0.1,0,0.2,0s0.1,0,0.2,0
			l0.2,1.2c-0.1,0-0.2,0.1-0.3,0.1c-0.1,0-0.3,0.1-0.5,0.1c-0.6,0-1-0.1-1.4-0.4c-0.3-0.3-0.5-0.7-0.5-1.3v-3h-0.8v-1.2h0.8v-1.4
			h1.6v1.4H130.4z"/>
	</g>
	<g class="st2">
		<path class="st0" d="M133.8,235.1c-0.6,0-1.1-0.1-1.5-0.4c-0.4-0.2-0.8-0.6-1-1c-0.2-0.4-0.3-1-0.3-1.6c0-0.6,0.1-1.1,0.3-1.6
			c0.2-0.4,0.6-0.8,1-1c0.4-0.2,0.9-0.4,1.5-0.4c0.5,0,1,0.1,1.4,0.3c0.4,0.2,0.7,0.5,1,1s0.4,1,0.4,1.6v0.4h-3.9v0
			c0,0.4,0.1,0.8,0.4,1c0.2,0.2,0.5,0.4,0.9,0.4c0.3,0,0.5-0.1,0.7-0.2c0.2-0.1,0.3-0.3,0.4-0.5l1.5,0.1c-0.1,0.5-0.4,1-0.9,1.3
			C135.1,235,134.5,235.1,133.8,235.1z M132.5,231.6h2.4c0-0.3-0.1-0.6-0.3-0.8c-0.2-0.2-0.5-0.3-0.8-0.3c-0.4,0-0.6,0.1-0.9,0.3
			C132.6,231,132.5,231.2,132.5,231.6z"/>
	</g>
	<g class="st2">
		<path class="st0" d="M103.7,15.3c0,0.8-0.2,1.5-0.5,2.1c-0.3,0.6-0.7,1-1.3,1.3c-0.5,0.3-1.1,0.5-1.8,0.5c-0.7,0-1.3-0.2-1.8-0.5
			c-0.5-0.3-1-0.8-1.3-1.3c-0.3-0.6-0.5-1.3-0.5-2.1c0-0.8,0.2-1.5,0.5-2.1c0.3-0.6,0.7-1,1.3-1.3c0.5-0.3,1.1-0.5,1.8-0.5
			c0.7,0,1.3,0.2,1.8,0.5c0.5,0.3,1,0.8,1.3,1.3S103.7,14.4,103.7,15.3z M102.1,15.3c0-0.8-0.2-1.4-0.5-1.9
			c-0.4-0.4-0.8-0.6-1.4-0.6c-0.6,0-1.1,0.2-1.4,0.6c-0.4,0.4-0.5,1-0.5,1.9c0,0.8,0.2,1.4,0.5,1.9s0.8,0.6,1.4,0.6
			c0.6,0,1.1-0.2,1.4-0.6S102.1,16.1,102.1,15.3z"/>
		<path class="st0" d="M106.5,11.4v7.6h-1.6v-7.6H106.5z"/>
		<path class="st0" d="M110.3,19.2c-0.6,0-1.1-0.1-1.5-0.4c-0.4-0.2-0.8-0.6-1-1c-0.2-0.4-0.3-1-0.3-1.6c0-0.6,0.1-1.1,0.3-1.6
			c0.2-0.4,0.6-0.8,1-1c0.4-0.2,0.9-0.4,1.5-0.4c0.5,0,1,0.1,1.4,0.3c0.4,0.2,0.7,0.5,1,1s0.4,1,0.4,1.6v0.4h-3.9v0
			c0,0.4,0.1,0.8,0.4,1c0.2,0.2,0.5,0.4,0.9,0.4c0.3,0,0.5-0.1,0.7-0.2c0.2-0.1,0.3-0.3,0.4-0.5l1.5,0.1c-0.1,0.5-0.4,1-0.9,1.3
			C111.6,19,111,19.2,110.3,19.2z M109.1,15.6h2.4c0-0.3-0.1-0.6-0.3-0.8c-0.2-0.2-0.5-0.3-0.8-0.3c-0.4,0-0.6,0.1-0.9,0.3
			C109.2,15,109.1,15.3,109.1,15.6z"/>
		<path class="st0" d="M116.6,19.2c-0.6,0-1.1-0.1-1.5-0.4c-0.4-0.2-0.7-0.6-1-1c-0.2-0.4-0.3-1-0.3-1.5c0-0.6,0.1-1.1,0.3-1.6
			c0.2-0.4,0.6-0.8,1-1s0.9-0.4,1.5-0.4s1.1,0.1,1.5,0.4c0.4,0.2,0.7,0.6,1,1c0.2,0.4,0.3,1,0.3,1.6c0,0.6-0.1,1.1-0.3,1.5
			c-0.2,0.4-0.6,0.8-1,1C117.7,19.1,117.2,19.2,116.6,19.2z M116.6,18c0.4,0,0.7-0.2,0.9-0.5s0.3-0.7,0.3-1.2c0-0.5-0.1-0.9-0.3-1.2
			c-0.2-0.3-0.5-0.5-0.9-0.5c-0.4,0-0.7,0.2-0.9,0.5c-0.2,0.3-0.3,0.7-0.3,1.2c0,0.5,0.1,0.9,0.3,1.2C115.9,17.8,116.2,18,116.6,18z
			"/>
		<path class="st0" d="M124,15.3v1.3h-3.5v-1.3H124z"/>
	</g>
	<g class="st2">
		<path class="st0" d="M96.7,30.1v-7.6h5.1v1.3h-3.4v1.8h3.1v1.3h-3.1v3.2H96.7z"/>
	</g>
	<g class="st2">
		<path class="st0" d="M104.8,30.2c-0.6,0-1.1-0.1-1.5-0.4c-0.4-0.2-0.8-0.6-1-1c-0.2-0.4-0.3-1-0.3-1.6c0-0.6,0.1-1.1,0.3-1.6
			c0.2-0.4,0.6-0.8,1-1c0.4-0.2,0.9-0.4,1.5-0.4c0.5,0,1,0.1,1.4,0.3c0.4,0.2,0.7,0.5,1,1s0.4,1,0.4,1.6v0.4h-3.9v0
			c0,0.4,0.1,0.8,0.4,1c0.2,0.2,0.5,0.4,0.9,0.4c0.3,0,0.5-0.1,0.7-0.2c0.2-0.1,0.3-0.3,0.4-0.5l1.5,0.1c-0.1,0.5-0.4,1-0.9,1.3
			C106.1,30,105.5,30.2,104.8,30.2z M103.5,26.6h2.4c0-0.3-0.1-0.6-0.3-0.8c-0.2-0.2-0.5-0.3-0.8-0.3c-0.4,0-0.6,0.1-0.9,0.3
			C103.7,26,103.5,26.3,103.5,26.6z"/>
		<path class="st0" d="M111.1,30.2c-0.6,0-1.1-0.1-1.5-0.4c-0.4-0.2-0.8-0.6-1-1c-0.2-0.4-0.3-1-0.3-1.6c0-0.6,0.1-1.1,0.3-1.6
			c0.2-0.4,0.6-0.8,1-1c0.4-0.2,0.9-0.4,1.5-0.4c0.5,0,1,0.1,1.4,0.3c0.4,0.2,0.7,0.5,1,1s0.4,1,0.4,1.6v0.4h-3.9v0
			c0,0.4,0.1,0.8,0.4,1c0.2,0.2,0.5,0.4,0.9,0.4c0.3,0,0.5-0.1,0.7-0.2c0.2-0.1,0.3-0.3,0.4-0.5l1.5,0.1c-0.1,0.5-0.4,1-0.9,1.3
			C112.3,30,111.8,30.2,111.1,30.2z M109.8,26.6h2.4c0-0.3-0.1-0.6-0.3-0.8c-0.2-0.2-0.5-0.3-0.8-0.3c-0.4,0-0.6,0.1-0.9,0.3
			C109.9,26,109.8,26.3,109.8,26.6z"/>
		<path class="st0" d="M116.8,30.2c-0.4,0-0.8-0.1-1.2-0.3s-0.6-0.6-0.8-1c-0.2-0.4-0.3-1-0.3-1.6c0-0.7,0.1-1.2,0.3-1.6
			s0.5-0.8,0.8-1c0.4-0.2,0.7-0.3,1.2-0.3c0.3,0,0.6,0.1,0.8,0.2c0.2,0.1,0.4,0.2,0.5,0.4c0.1,0.2,0.2,0.3,0.3,0.5h0v-2.9h1.6v7.6
			h-1.6v-0.9h-0.1c-0.1,0.2-0.2,0.3-0.3,0.5s-0.3,0.3-0.5,0.4C117.4,30.1,117.1,30.2,116.8,30.2z M117.3,28.9c0.4,0,0.7-0.2,0.9-0.5
			c0.2-0.3,0.3-0.7,0.3-1.2c0-0.5-0.1-0.9-0.3-1.2c-0.2-0.3-0.5-0.5-0.9-0.5c-0.4,0-0.7,0.2-0.9,0.5s-0.3,0.7-0.3,1.2
			c0,0.5,0.1,0.9,0.3,1.2C116.6,28.7,116.9,28.9,117.3,28.9z"/>
		<path class="st0" d="M126.2,26l-1.5,0.1c0-0.2-0.1-0.3-0.3-0.5s-0.4-0.2-0.7-0.2c-0.2,0-0.5,0.1-0.6,0.2c-0.2,0.1-0.3,0.2-0.3,0.4
			c0,0.1,0.1,0.3,0.2,0.3c0.1,0.1,0.3,0.2,0.6,0.2l1,0.2c1.1,0.2,1.7,0.7,1.7,1.6c0,0.4-0.1,0.7-0.3,1c-0.2,0.3-0.5,0.5-0.9,0.7
			s-0.8,0.2-1.3,0.2c-0.8,0-1.4-0.2-1.8-0.5c-0.4-0.3-0.7-0.7-0.8-1.3l1.6-0.1c0,0.2,0.2,0.4,0.3,0.5s0.4,0.2,0.7,0.2
			c0.3,0,0.5-0.1,0.7-0.2c0.2-0.1,0.3-0.2,0.3-0.4c0-0.3-0.3-0.5-0.7-0.6l-1-0.2c-1.1-0.2-1.7-0.8-1.7-1.6c0-0.6,0.2-1,0.7-1.3
			c0.4-0.3,1-0.5,1.8-0.5c0.7,0,1.3,0.2,1.7,0.5C125.8,25,126.1,25.4,126.2,26z"/>
	</g>
	<g class="st2">
		<path class="st0" d="M129.5,24.3v1.2h-1.1v2.8c0,0.2,0,0.4,0.1,0.4c0.1,0.1,0.2,0.1,0.4,0.1c0.1,0,0.1,0,0.2,0s0.1,0,0.2,0
			l0.2,1.2c-0.1,0-0.2,0.1-0.3,0.1c-0.1,0-0.3,0.1-0.5,0.1c-0.6,0-1-0.1-1.4-0.4c-0.3-0.3-0.5-0.7-0.5-1.3v-3h-0.8v-1.2h0.8V23h1.6
			v1.4H129.5z"/>
	</g>
	<g class="st2">
		<path class="st0" d="M132.9,30.2c-0.6,0-1.1-0.1-1.5-0.4c-0.4-0.2-0.7-0.6-1-1c-0.2-0.4-0.3-1-0.3-1.5c0-0.6,0.1-1.1,0.3-1.6
			c0.2-0.4,0.6-0.8,1-1s0.9-0.4,1.5-0.4s1.1,0.1,1.5,0.4c0.4,0.2,0.7,0.6,1,1c0.2,0.4,0.3,1,0.3,1.6c0,0.6-0.1,1.1-0.3,1.5
			c-0.2,0.4-0.6,0.8-1,1C133.9,30.1,133.4,30.2,132.9,30.2z M132.9,29c0.4,0,0.7-0.2,0.9-0.5s0.3-0.7,0.3-1.2s-0.1-0.9-0.3-1.2
			c-0.2-0.3-0.5-0.5-0.9-0.5c-0.4,0-0.7,0.2-0.9,0.5c-0.2,0.3-0.3,0.7-0.3,1.2s0.1,0.9,0.3,1.2C132.2,28.8,132.5,29,132.9,29z"/>
		<path class="st0" d="M139.3,30.2c-0.6,0-1.1-0.1-1.5-0.4s-0.7-0.6-1-1c-0.2-0.4-0.3-1-0.3-1.5c0-0.6,0.1-1.1,0.3-1.5
			c0.2-0.4,0.6-0.8,1-1c0.4-0.2,0.9-0.4,1.5-0.4c0.5,0,0.9,0.1,1.3,0.3c0.4,0.2,0.7,0.4,0.9,0.8c0.2,0.3,0.3,0.7,0.4,1.2h-1.5
			c0-0.3-0.2-0.5-0.3-0.7c-0.2-0.2-0.4-0.3-0.7-0.3c-0.4,0-0.7,0.1-0.9,0.4c-0.2,0.3-0.3,0.7-0.3,1.3c0,0.5,0.1,1,0.3,1.3
			c0.2,0.3,0.5,0.4,0.9,0.4c0.3,0,0.5-0.1,0.7-0.2s0.3-0.4,0.4-0.7h1.5c0,0.4-0.1,0.8-0.4,1.2s-0.5,0.6-0.9,0.8
			C140.2,30.1,139.8,30.2,139.3,30.2z"/>
		<path class="st0" d="M142.9,30.1v-7.6h1.6v4.1h0.1l1.8-2.2h1.8l-2.1,2.5l2.2,3.2h-1.9l-1.6-2.3l-0.4,0.5v1.8H142.9z"/>
		<path class="st0" d="M153.7,26l-1.5,0.1c0-0.2-0.1-0.3-0.3-0.5s-0.4-0.2-0.7-0.2c-0.2,0-0.5,0.1-0.6,0.2c-0.2,0.1-0.3,0.2-0.3,0.4
			c0,0.1,0.1,0.3,0.2,0.3c0.1,0.1,0.3,0.2,0.6,0.2l1,0.2c1.1,0.2,1.7,0.7,1.7,1.6c0,0.4-0.1,0.7-0.3,1c-0.2,0.3-0.5,0.5-0.9,0.7
			s-0.8,0.2-1.3,0.2c-0.8,0-1.4-0.2-1.8-0.5c-0.4-0.3-0.7-0.7-0.8-1.3l1.6-0.1c0,0.2,0.2,0.4,0.3,0.5s0.4,0.2,0.7,0.2
			c0.3,0,0.5-0.1,0.7-0.2c0.2-0.1,0.3-0.2,0.3-0.4c0-0.3-0.3-0.5-0.7-0.6l-1-0.2c-1.1-0.2-1.7-0.8-1.7-1.6c0-0.6,0.2-1,0.7-1.3
			c0.4-0.3,1-0.5,1.8-0.5c0.7,0,1.3,0.2,1.7,0.5C153.4,25,153.7,25.4,153.7,26z"/>
	</g>
</g>
</svg>
