<?xml version="1.0" encoding="utf-8"?>
<!-- Generator: Adobe Illustrator 23.0.6, SVG Export Plug-In . SVG Version: 6.00 Build 0)  -->
<svg version="1.1" id="Layer_1" xmlns="http://www.w3.org/2000/svg" xmlns:xlink="http://www.w3.org/1999/xlink" x="0px" y="0px"
	 viewBox="0 0 400 306" style="enable-background:new 0 0 400 306;" xml:space="preserve">
<style type="text/css">
	.st0{fill:#333333;}
	.st1{fill:#4AA052;}
	.st2{enable-background:new    ;}
</style>
<title>gefn-mynd-04-en</title>
<g id="teikningar">
	<path class="st0" d="M182.8,206.3H77.5V103.9c0-0.5,0.4-0.9,0.8-0.9c0.5,0,0.9,0.4,0.9,0.8c0,0,0,0,0,0v100.8h103.6
		c0.5,0,0.9,0.4,0.9,0.8C183.6,206,183.3,206.3,182.8,206.3C182.8,206.3,182.8,206.3,182.8,206.3z"/>
	<path class="st0" d="M89.8,206.3c-0.5,0-0.8-0.4-0.8-0.9l0,0v-5.2c0-0.5,0.4-0.9,0.8-0.9c0.5,0,0.9,0.4,0.9,0.8c0,0,0,0,0,0v5.2
		C90.7,206,90.3,206.3,89.8,206.3C89.8,206.3,89.8,206.3,89.8,206.3z"/>
	<path class="st0" d="M182.8,206.3c-0.5,0-0.9-0.4-0.9-0.8v0v-5.2c0-0.5,0.4-0.9,0.8-0.9c0.5,0,0.9,0.4,0.9,0.8c0,0,0,0,0,0v5.2
		C183.6,206,183.3,206.3,182.8,206.3z"/>
	<path class="st0" d="M120.8,206.3c-0.5,0-0.8-0.4-0.8-0.9l0,0v-5.2c0-0.5,0.4-0.8,0.9-0.8c0.5,0,0.8,0.4,0.8,0.8v5.2
		C121.7,206,121.3,206.3,120.8,206.3C120.8,206.3,120.8,206.3,120.8,206.3z"/>
	<path class="st0" d="M151.8,206.3c-0.5,0-0.9-0.4-0.9-0.8v0v-5.2c0-0.5,0.4-0.8,0.9-0.8c0.5,0,0.8,0.4,0.8,0.8v5.2
		C152.6,206,152.3,206.3,151.8,206.3z"/>
	<path class="st0" d="M321.6,206.3H216.3V103.9c0-0.5,0.4-0.9,0.8-0.9c0.5,0,0.9,0.4,0.9,0.8c0,0,0,0,0,0v100.8h103.6
		c0.5,0,0.9,0.4,0.9,0.8C322.5,206,322.1,206.3,321.6,206.3C321.6,206.3,321.6,206.3,321.6,206.3z"/>
	<path class="st0" d="M228.6,206.3c-0.5,0-0.9-0.4-0.9-0.8v0v-5.2c0-0.5,0.4-0.9,0.8-0.9c0.5,0,0.9,0.4,0.9,0.8c0,0,0,0,0,0v5.2
		C229.5,206,229.1,206.3,228.6,206.3z"/>
	<path class="st0" d="M321.6,206.3c-0.5,0-0.9-0.4-0.9-0.8v0v-5.2c0-0.5,0.4-0.9,0.9-0.9s0.9,0.4,0.9,0.9v5.2
		C322.5,206,322.1,206.3,321.6,206.3L321.6,206.3z"/>
	<path class="st0" d="M259.6,206.3c-0.5,0-0.9-0.4-0.9-0.8v0v-5.2c0-0.5,0.4-0.9,0.9-0.9s0.9,0.4,0.9,0.9v5.2
		C260.5,206,260.1,206.3,259.6,206.3L259.6,206.3z"/>
	<path class="st0" d="M290.6,206.3c-0.5,0-0.9-0.4-0.9-0.8v0v-5.2c0-0.5,0.4-0.9,0.9-0.9s0.9,0.4,0.9,0.9v5.2
		C291.5,206,291.1,206.3,290.6,206.3L290.6,206.3z"/>
	<path class="st1" d="M181.2,187.4c-0.1,0-0.3,0-0.4-0.1l-91.2-47.1c-0.4-0.2-0.6-0.7-0.4-1.1c0.2-0.4,0.7-0.6,1.1-0.4c0,0,0,0,0,0
		l91.2,47.1c0.4,0.2,0.6,0.7,0.4,1.1C181.8,187.2,181.5,187.4,181.2,187.4L181.2,187.4z"/>
	<path class="st1" d="M171.2,190.9c-0.5,0-0.9-0.4-0.9-0.8c0-0.4,0.3-0.8,0.7-0.9l10.2-2.6l-2.6-10.2c-0.1-0.5,0.2-0.9,0.6-1
		c0.5-0.1,0.9,0.2,1,0.6l2.8,11c0.1,0.4-0.2,0.9-0.6,1l-11,2.8L171.2,190.9z"/>
	<path class="st1" d="M228.3,190.9c-0.5,0-0.9-0.4-0.9-0.8c0-0.3,0.2-0.6,0.5-0.8l91.4-47.2c0.4-0.2,0.9,0,1.1,0.4
		c0.2,0.4,0.1,0.9-0.3,1.1c0,0,0,0,0,0l-91.4,47.2C228.6,190.9,228.4,190.9,228.3,190.9z"/>
	<path class="st1" d="M318,154h-0.2c-0.4-0.1-0.7-0.6-0.6-1l2.5-10.2l-10.2-2.6c-0.4-0.1-0.7-0.6-0.6-1c0.1-0.4,0.6-0.7,1-0.6
		l11,2.8c0.2,0.1,0.4,0.2,0.5,0.4c0.1,0.2,0.1,0.4,0.1,0.6l-2.8,11C318.7,153.7,318.4,154,318,154z"/>
</g>
<g id="enska">
	<g class="st2">
		<path class="st0" d="M96.4,108h-1.6c-0.1-0.4-0.2-0.8-0.5-1c-0.3-0.2-0.7-0.4-1.1-0.4c-0.6,0-1.1,0.2-1.4,0.7
			c-0.4,0.4-0.5,1-0.5,1.8c0,0.8,0.2,1.4,0.5,1.9s0.8,0.6,1.4,0.6c0.4,0,0.8-0.1,1.1-0.3s0.5-0.5,0.6-0.9l1.6,0
			c-0.1,0.5-0.2,0.9-0.5,1.3c-0.3,0.4-0.7,0.7-1.1,1c-0.5,0.3-1,0.4-1.7,0.4c-0.7,0-1.3-0.2-1.8-0.5c-0.5-0.3-1-0.8-1.3-1.3
			s-0.5-1.3-0.5-2.1c0-0.8,0.2-1.5,0.5-2.1c0.3-0.6,0.7-1,1.3-1.3c0.5-0.3,1.1-0.5,1.8-0.5c0.6,0,1.1,0.1,1.6,0.3
			c0.5,0.2,0.9,0.5,1.2,0.9C96.2,106.9,96.4,107.4,96.4,108z"/>
		<path class="st0" d="M99.2,113c-0.5,0-1-0.1-1.4-0.4c-0.4-0.3-0.5-0.7-0.5-1.3c0-0.4,0.1-0.8,0.3-1c0.2-0.2,0.5-0.4,0.8-0.5
			c0.3-0.1,0.7-0.2,1.1-0.2c0.5,0,0.9-0.1,1.1-0.2c0.2-0.1,0.3-0.2,0.3-0.4v0c0-0.2-0.1-0.4-0.2-0.5s-0.4-0.2-0.6-0.2
			c-0.3,0-0.5,0.1-0.7,0.2c-0.2,0.1-0.3,0.3-0.3,0.5l-1.5-0.1c0.1-0.5,0.4-0.9,0.8-1.2c0.4-0.3,1-0.5,1.7-0.5c0.4,0,0.8,0.1,1.2,0.2
			c0.4,0.1,0.7,0.3,0.9,0.6c0.2,0.3,0.3,0.7,0.3,1.1v3.9h-1.5v-0.8h0c-0.1,0.3-0.3,0.5-0.6,0.7C100,113,99.6,113,99.2,113z
			 M99.6,112c0.3,0,0.6-0.1,0.9-0.3s0.3-0.5,0.3-0.8v-0.6c-0.1,0-0.2,0.1-0.3,0.1c-0.1,0-0.3,0.1-0.4,0.1s-0.3,0-0.4,0.1
			c-0.3,0-0.5,0.1-0.7,0.2c-0.2,0.1-0.3,0.3-0.3,0.5c0,0.2,0.1,0.4,0.2,0.5C99.2,111.9,99.4,112,99.6,112z"/>
		<path class="st0" d="M103.7,112.9v-5.7h1.5v1h0.1c0.1-0.4,0.3-0.6,0.5-0.8s0.5-0.3,0.9-0.3c0.2,0,0.3,0,0.4,0.1
			c0.1,0,0.2,0.1,0.4,0.2l-0.5,1.3c-0.1,0-0.2-0.1-0.2-0.1c-0.1,0-0.2,0-0.3,0c-0.3,0-0.6,0.1-0.8,0.3c-0.2,0.2-0.3,0.5-0.3,0.9v3.2
			H103.7z"/>
		<path class="st0" d="M108.2,112.9v-7.6h1.6v2.9h0c0.1-0.2,0.2-0.3,0.3-0.5c0.1-0.2,0.3-0.3,0.5-0.4s0.5-0.2,0.8-0.2
			c0.4,0,0.8,0.1,1.2,0.3s0.6,0.5,0.8,1c0.2,0.4,0.3,1,0.3,1.6c0,0.6-0.1,1.2-0.3,1.6c-0.2,0.4-0.5,0.8-0.8,1s-0.7,0.3-1.2,0.3
			c-0.3,0-0.6-0.1-0.8-0.2c-0.2-0.1-0.4-0.2-0.5-0.4c-0.1-0.2-0.2-0.3-0.3-0.5h-0.1v0.9H108.2z M109.7,110.1c0,0.5,0.1,0.9,0.3,1.2
			s0.5,0.5,0.9,0.5c0.4,0,0.7-0.2,0.9-0.5c0.2-0.3,0.3-0.7,0.3-1.2c0-0.5-0.1-0.9-0.3-1.2s-0.5-0.5-0.9-0.5c-0.4,0-0.7,0.2-0.9,0.5
			S109.7,109.6,109.7,110.1z"/>
		<path class="st0" d="M117.4,113.1c-0.6,0-1.1-0.1-1.5-0.4c-0.4-0.2-0.7-0.6-1-1c-0.2-0.4-0.3-1-0.3-1.5c0-0.6,0.1-1.1,0.3-1.6
			c0.2-0.4,0.6-0.8,1-1s0.9-0.4,1.5-0.4s1.1,0.1,1.5,0.4c0.4,0.2,0.7,0.6,1,1c0.2,0.4,0.3,1,0.3,1.6c0,0.6-0.1,1.1-0.3,1.5
			c-0.2,0.4-0.6,0.8-1,1C118.5,112.9,118,113.1,117.4,113.1z M117.4,111.8c0.4,0,0.7-0.2,0.9-0.5s0.3-0.7,0.3-1.2s-0.1-0.9-0.3-1.2
			c-0.2-0.3-0.5-0.5-0.9-0.5c-0.4,0-0.7,0.2-0.9,0.5c-0.2,0.3-0.3,0.7-0.3,1.2s0.1,0.9,0.3,1.2C116.7,111.7,117,111.8,117.4,111.8z"
			/>
		<path class="st0" d="M122.9,109.6v3.3h-1.6v-5.7h1.5v1h0.1c0.1-0.3,0.3-0.6,0.6-0.8c0.3-0.2,0.7-0.3,1.1-0.3
			c0.6,0,1.1,0.2,1.4,0.6s0.5,0.9,0.5,1.6v3.6H125v-3.4c0-0.4-0.1-0.6-0.3-0.8c-0.2-0.2-0.4-0.3-0.7-0.3c-0.3,0-0.6,0.1-0.8,0.3
			C123,109,122.9,109.3,122.9,109.6z"/>
	</g>
	<g class="st2">
		<path class="st0" d="M89.7,123.9v-7.6h5.1v1.3h-3.4v1.8h3.1v1.3h-3.1v3.2H89.7z"/>
	</g>
	<g class="st2">
		<path class="st0" d="M98,124.1c-0.6,0-1.1-0.1-1.5-0.4c-0.4-0.2-0.7-0.6-1-1c-0.2-0.4-0.3-1-0.3-1.5c0-0.6,0.1-1.1,0.3-1.6
			c0.2-0.4,0.6-0.8,1-1s0.9-0.4,1.5-0.4s1.1,0.1,1.5,0.4c0.4,0.2,0.7,0.6,1,1c0.2,0.4,0.3,1,0.3,1.6c0,0.6-0.1,1.1-0.3,1.5
			c-0.2,0.4-0.6,0.8-1,1C99.1,123.9,98.6,124.1,98,124.1z M98,122.8c0.4,0,0.7-0.2,0.9-0.5s0.3-0.7,0.3-1.2s-0.1-0.9-0.3-1.2
			c-0.2-0.3-0.5-0.5-0.9-0.5c-0.4,0-0.7,0.2-0.9,0.5c-0.2,0.3-0.3,0.7-0.3,1.2s0.1,0.9,0.3,1.2C97.3,122.7,97.6,122.8,98,122.8z"/>
		<path class="st0" d="M104.4,124.1c-0.6,0-1.1-0.1-1.5-0.4c-0.4-0.2-0.7-0.6-1-1c-0.2-0.4-0.3-1-0.3-1.5c0-0.6,0.1-1.1,0.3-1.6
			c0.2-0.4,0.6-0.8,1-1s0.9-0.4,1.5-0.4s1.1,0.1,1.5,0.4c0.4,0.2,0.7,0.6,1,1c0.2,0.4,0.3,1,0.3,1.6c0,0.6-0.1,1.1-0.3,1.5
			c-0.2,0.4-0.6,0.8-1,1C105.5,123.9,105,124.1,104.4,124.1z M104.4,122.8c0.4,0,0.7-0.2,0.9-0.5s0.3-0.7,0.3-1.2s-0.1-0.9-0.3-1.2
			c-0.2-0.3-0.5-0.5-0.9-0.5c-0.4,0-0.7,0.2-0.9,0.5c-0.2,0.3-0.3,0.7-0.3,1.2s0.1,0.9,0.3,1.2C103.7,122.7,104,122.8,104.4,122.8z"
			/>
		<path class="st0" d="M111.3,118.2v1.2h-1.1v2.8c0,0.2,0,0.4,0.1,0.4c0.1,0.1,0.2,0.1,0.4,0.1c0.1,0,0.1,0,0.2,0s0.1,0,0.2,0
			l0.2,1.2c-0.1,0-0.2,0.1-0.3,0.1c-0.1,0-0.3,0.1-0.5,0.1c-0.6,0-1-0.1-1.4-0.4c-0.3-0.3-0.5-0.7-0.5-1.3v-3h-0.8v-1.2h0.8v-1.4
			h1.6v1.4H111.3z"/>
		<path class="st0" d="M112.3,126.1v-7.9h1.6v1h0.1c0.1-0.2,0.2-0.3,0.3-0.5c0.1-0.2,0.3-0.3,0.5-0.4s0.5-0.2,0.8-0.2
			c0.4,0,0.8,0.1,1.2,0.3s0.6,0.5,0.8,1c0.2,0.4,0.3,1,0.3,1.6c0,0.6-0.1,1.2-0.3,1.6c-0.2,0.4-0.5,0.8-0.8,1s-0.7,0.3-1.2,0.3
			c-0.3,0-0.6-0.1-0.8-0.2c-0.2-0.1-0.4-0.2-0.5-0.4c-0.1-0.2-0.2-0.3-0.3-0.5h0v3.1H112.3z M113.9,121.1c0,0.5,0.1,0.9,0.3,1.2
			s0.5,0.5,0.9,0.5c0.4,0,0.7-0.2,0.9-0.5c0.2-0.3,0.3-0.7,0.3-1.2c0-0.5-0.1-0.9-0.3-1.2s-0.5-0.5-0.9-0.5c-0.4,0-0.7,0.2-0.9,0.5
			S113.9,120.6,113.9,121.1z"/>
		<path class="st0" d="M119,123.9v-5.7h1.5v1h0.1c0.1-0.4,0.3-0.6,0.5-0.8s0.5-0.3,0.9-0.3c0.2,0,0.3,0,0.5,0.1v1.4
			c-0.1,0-0.2,0-0.3-0.1c-0.1,0-0.3,0-0.4,0c-0.4,0-0.6,0.1-0.9,0.3c-0.2,0.2-0.3,0.5-0.3,0.9v3.2H119z"/>
		<path class="st0" d="M124.1,117.5c-0.2,0-0.4-0.1-0.6-0.2c-0.2-0.2-0.3-0.3-0.3-0.6c0-0.2,0.1-0.4,0.3-0.6
			c0.2-0.2,0.4-0.2,0.6-0.2c0.2,0,0.4,0.1,0.6,0.2c0.2,0.2,0.3,0.3,0.3,0.6c0,0.2-0.1,0.4-0.3,0.6
			C124.5,117.4,124.3,117.5,124.1,117.5z M123.3,123.9v-5.7h1.6v5.7H123.3z"/>
		<path class="st0" d="M127.7,120.6v3.3h-1.6v-5.7h1.5v1h0.1c0.1-0.3,0.3-0.6,0.6-0.8c0.3-0.2,0.7-0.3,1.1-0.3
			c0.6,0,1.1,0.2,1.4,0.6s0.5,0.9,0.5,1.6v3.6h-1.6v-3.4c0-0.4-0.1-0.6-0.3-0.8c-0.2-0.2-0.4-0.3-0.7-0.3c-0.3,0-0.6,0.1-0.8,0.3
			C127.8,120,127.7,120.3,127.7,120.6z"/>
		<path class="st0" d="M135.7,118.2v1.2h-1.1v2.8c0,0.2,0,0.4,0.1,0.4c0.1,0.1,0.2,0.1,0.4,0.1c0.1,0,0.1,0,0.2,0s0.1,0,0.2,0
			l0.2,1.2c-0.1,0-0.2,0.1-0.3,0.1c-0.1,0-0.3,0.1-0.5,0.1c-0.6,0-1-0.1-1.4-0.4c-0.3-0.3-0.5-0.7-0.5-1.3v-3h-0.8v-1.2h0.8v-1.4
			h1.6v1.4H135.7z"/>
	</g>
	<g class="st2">
		<path class="st0" d="M228.5,112.9v-7.6h5.1v1.3h-3.5v1.8h3.3v1.3h-3.3v1.8h3.5v1.3H228.5z"/>
		<path class="st0" d="M238.1,107.2v1.2h-1.1v4.5h-1.6v-4.5h-0.8v-1.2h0.8v-0.4c0-0.6,0.2-1.1,0.5-1.4c0.4-0.3,0.8-0.5,1.3-0.5
			c0.2,0,0.5,0,0.7,0.1c0.2,0,0.4,0.1,0.5,0.1l-0.3,1.2c-0.1,0-0.1,0-0.2-0.1s-0.2,0-0.3,0c-0.2,0-0.4,0.1-0.5,0.2s-0.1,0.3-0.1,0.5
			v0.4H238.1z"/>
		<path class="st0" d="M242.2,107.2v1.2H241v4.5h-1.6v-4.5h-0.8v-1.2h0.8v-0.4c0-0.6,0.2-1.1,0.5-1.4c0.4-0.3,0.8-0.5,1.3-0.5
			c0.2,0,0.5,0,0.7,0.1c0.2,0,0.4,0.1,0.5,0.1l-0.3,1.2c-0.1,0-0.1,0-0.2-0.1s-0.2,0-0.3,0c-0.2,0-0.4,0.1-0.5,0.2s-0.1,0.3-0.1,0.5
			v0.4H242.2z"/>
		<path class="st0" d="M243.9,106.5c-0.2,0-0.4-0.1-0.6-0.2c-0.2-0.2-0.3-0.3-0.3-0.6c0-0.2,0.1-0.4,0.3-0.6
			c0.2-0.2,0.4-0.2,0.6-0.2c0.2,0,0.4,0.1,0.6,0.2c0.2,0.2,0.3,0.3,0.3,0.6c0,0.2-0.1,0.4-0.3,0.6
			C244.4,106.4,244.2,106.5,243.9,106.5z M243.1,112.9v-5.7h1.6v5.7H243.1z"/>
		<path class="st0" d="M248.6,113.1c-0.6,0-1.1-0.1-1.5-0.4c-0.4-0.2-0.7-0.6-1-1c-0.2-0.4-0.3-1-0.3-1.5c0-0.6,0.1-1.1,0.3-1.5
			c0.2-0.4,0.6-0.8,1-1c0.4-0.2,0.9-0.4,1.5-0.4c0.5,0,0.9,0.1,1.3,0.3c0.4,0.2,0.7,0.4,0.9,0.8c0.2,0.3,0.3,0.7,0.4,1.2h-1.5
			c0-0.3-0.2-0.5-0.3-0.7c-0.2-0.2-0.4-0.3-0.7-0.3c-0.4,0-0.7,0.1-0.9,0.4s-0.3,0.7-0.3,1.3c0,0.5,0.1,1,0.3,1.3
			c0.2,0.3,0.5,0.4,0.9,0.4c0.3,0,0.5-0.1,0.7-0.2s0.3-0.4,0.4-0.7h1.5c0,0.4-0.1,0.8-0.4,1.2c-0.2,0.3-0.5,0.6-0.9,0.8
			S249.1,113.1,248.6,113.1z"/>
		<path class="st0" d="M253,106.5c-0.2,0-0.4-0.1-0.6-0.2c-0.2-0.2-0.3-0.3-0.3-0.6c0-0.2,0.1-0.4,0.3-0.6c0.2-0.2,0.4-0.2,0.6-0.2
			c0.2,0,0.4,0.1,0.6,0.2c0.2,0.2,0.3,0.3,0.3,0.6c0,0.2-0.1,0.4-0.3,0.6C253.4,106.4,253.2,106.5,253,106.5z M252.2,112.9v-5.7h1.6
			v5.7H252.2z"/>
		<path class="st0" d="M257.6,113.1c-0.6,0-1.1-0.1-1.5-0.4s-0.8-0.6-1-1s-0.3-1-0.3-1.6c0-0.6,0.1-1.1,0.3-1.6s0.6-0.8,1-1
			c0.4-0.2,0.9-0.4,1.5-0.4c0.5,0,1,0.1,1.4,0.3c0.4,0.2,0.7,0.5,1,1c0.2,0.4,0.4,1,0.4,1.6v0.4h-3.9v0c0,0.4,0.1,0.8,0.4,1
			s0.5,0.4,0.9,0.4c0.3,0,0.5-0.1,0.7-0.2c0.2-0.1,0.3-0.3,0.4-0.5l1.5,0.1c-0.1,0.5-0.4,1-0.9,1.3S258.3,113.1,257.6,113.1z
			 M256.3,109.5h2.4c0-0.3-0.1-0.6-0.3-0.8c-0.2-0.2-0.5-0.3-0.8-0.3c-0.4,0-0.6,0.1-0.9,0.3C256.5,108.9,256.4,109.2,256.3,109.5z"
			/>
		<path class="st0" d="M262.9,109.6v3.3h-1.6v-5.7h1.5v1h0.1c0.1-0.3,0.3-0.6,0.6-0.8c0.3-0.2,0.7-0.3,1.1-0.3
			c0.6,0,1.1,0.2,1.4,0.6s0.5,0.9,0.5,1.6v3.6H265v-3.4c0-0.4-0.1-0.6-0.3-0.8c-0.2-0.2-0.4-0.3-0.7-0.3c-0.3,0-0.6,0.1-0.8,0.3
			S262.9,109.3,262.9,109.6z"/>
		<path class="st0" d="M270.4,113.1c-0.6,0-1.1-0.1-1.5-0.4c-0.4-0.2-0.7-0.6-1-1c-0.2-0.4-0.3-1-0.3-1.5c0-0.6,0.1-1.1,0.3-1.5
			c0.2-0.4,0.6-0.8,1-1c0.4-0.2,0.9-0.4,1.5-0.4c0.5,0,0.9,0.1,1.3,0.3c0.4,0.2,0.7,0.4,0.9,0.8c0.2,0.3,0.3,0.7,0.4,1.2h-1.5
			c0-0.3-0.2-0.5-0.3-0.7c-0.2-0.2-0.4-0.3-0.7-0.3c-0.4,0-0.7,0.1-0.9,0.4s-0.3,0.7-0.3,1.3c0,0.5,0.1,1,0.3,1.3
			c0.2,0.3,0.5,0.4,0.9,0.4c0.3,0,0.5-0.1,0.7-0.2s0.3-0.4,0.4-0.7h1.5c0,0.4-0.1,0.8-0.4,1.2c-0.2,0.3-0.5,0.6-0.9,0.8
			S270.9,113.1,270.4,113.1z"/>
		<path class="st0" d="M274.9,115.2c-0.2,0-0.4,0-0.6-0.1c-0.2,0-0.3-0.1-0.4-0.1l0.4-1.2c0.3,0.1,0.5,0.1,0.7,0.1
			c0.2,0,0.3-0.2,0.5-0.5l0.1-0.3l-2.1-5.9h1.7l1.2,4.2h0.1l1.2-4.2h1.7l-2.2,6.4c-0.2,0.5-0.4,0.8-0.8,1.1S275.5,115.2,274.9,115.2
			z"/>
	</g>
</g>
</svg>
