<?xml version="1.0" encoding="utf-8"?>
<!-- Generator: Adobe Illustrator 23.0.6, SVG Export Plug-In . SVG Version: 6.00 Build 0)  -->
<svg version="1.1" id="Layer_1" xmlns="http://www.w3.org/2000/svg" xmlns:xlink="http://www.w3.org/1999/xlink" x="0px" y="0px"
	 viewBox="0 0 400 442" style="enable-background:new 0 0 400 442;" xml:space="preserve">
<style type="text/css">
	.st0{fill:#333333;}
	.st1{fill:#4AA052;}
	.st2{enable-background:new    ;}
</style>
<title>gefn-mynd-01-is</title>
<g id="teikningar">
	<path class="st0" d="M114.1,107.8V92.2l0.8-1.7c0.5,0,0.8,0.4,0.8,0.8v15.9L114.1,107.8z M80.7,99v-7.6c0-0.5,0.4-0.8,0.8-0.8
		l0.8,1.7v8.3L80.7,99z"/>
	<path class="st0" d="M98.2,103.4c-9.7,0-17.6-5.4-17.6-12s7.9-12,17.6-12s17.6,5.4,17.6,12l0,0C115.8,98,107.9,103.4,98.2,103.4z
		 M98.2,81.1c-8.8,0-15.9,4.6-15.9,10.3s7.1,10.3,15.9,10.3s15.9-4.6,15.9-10.3l0,0C114.1,85.7,107,81.1,98.2,81.1z"/>
	<path class="st0" d="M83.8,122.5v-15.4l0.8-1.7c0.5,0,0.8,0.4,0.8,0.8v15.5L83.8,122.5z M50.3,114.3v-8.1c0-0.5,0.4-0.8,0.8-0.8
		l0.8,1.7v8.9L50.3,114.3z"/>
	<path class="st0" d="M67.9,118.2c-9.7,0-17.6-5.4-17.6-12s7.9-12,17.6-12s17.6,5.4,17.6,12l0,0C85.4,112.9,77.6,118.2,67.9,118.2z
		 M67.9,95.9c-8.8,0-15.9,4.6-15.9,10.3s7.1,10.3,15.9,10.3s15.9-4.6,15.9-10.3l0,0C83.8,100.6,76.6,95.9,67.9,95.9z"/>
	<path class="st0" d="M53.1,137.7v-15.8l0.8-1.7c0.5,0,0.8,0.4,0.8,0.8v15.7L53.1,137.7z M46.5,173c-3,1.2-6.1,1.9-9.4,1.9
		c-9.6,0-17.5-5.3-17.6-11.9c0,0,0,0,0-0.1v-41.8c0-0.5,0.4-0.8,0.9-0.8l0.9,1.7v40.9c0,5.7,7.1,10.3,15.9,10.3
		c3.3,0,6.6-0.7,9.6-2.1L46.5,173z"/>
	<path class="st0" d="M37.2,133.1c-9.7,0-17.6-5.4-17.6-12s7.9-12,17.6-12s17.6,5.4,17.6,12l0,0C54.8,127.7,46.9,133.1,37.2,133.1z
		 M37.2,110.8c-8.8,0-15.9,4.6-15.9,10.3s7.1,10.3,15.9,10.3s15.9-4.6,15.9-10.3l0,0C53.1,115.4,45.9,110.8,37.2,110.8z"/>
	<path class="st0" d="M37,121.2c-0.5,0-0.8-0.4-0.8-0.8v-5.2c0-0.5,0.4-0.8,0.8-0.8c0.5,0,0.9,0.4,0.9,0.8v5.2
		C37.9,120.8,37.5,121.2,37,121.2L37,121.2z"/>
	<path class="st0" d="M67.5,106.7c-0.5,0-0.8-0.4-0.8-0.8v-5.2c0-0.5,0.4-0.8,0.9-0.8c0.5,0,0.8,0.4,0.8,0.8v5.2
		C68.3,106.3,67.9,106.7,67.5,106.7C67.5,106.7,67.5,106.7,67.5,106.7z"/>
	<path class="st0" d="M24,174.5c-0.5,0-0.9-0.4-0.9-0.9l0,0v-52.1c0-0.3,0.2-0.6,0.5-0.8l73.6-36.7c0.3-0.1,0.6-0.1,0.8,0
		c0.3,0.2,0.4,0.4,0.4,0.7v5.9c0,0.5-0.4,0.8-0.9,0.8c-0.5,0-0.8-0.4-0.8-0.8v-4.5l-71.8,35.8v51.6C24.9,174.1,24.5,174.5,24,174.5
		C24,174.5,24,174.5,24,174.5z"/>
	<path class="st0" d="M98.9,205.3l-53.2-25.8v-39.1l0.5-0.2l76.4-37.2l53.1,25.8v39.2L98.9,205.3z M47.5,178.4l51.5,25l75.2-36.5
		v-37.1l-51.4-25l-75.2,36.6V178.4z"/>
	<polygon class="st0" points="99.8,204.3 98.1,204.3 98.1,165.7 98.6,165.5 174.6,128.5 175.4,130 99.8,166.8 	"/>
	
		<rect x="71.9" y="124.5" transform="matrix(0.437 -0.8995 0.8995 0.437 -97.1266 151.9047)" class="st0" width="1.7" height="58.2"/>
	<polygon class="st0" points="80.1,195 78.4,195 78.4,178.6 62,170.6 62,186.1 60.2,186.1 60.2,167.9 80.1,177.6 	"/>
	<path class="st0" d="M108.4,192.9V185l7.9-3.9v7.9L108.4,192.9z M110.1,186.1v4.1l4.5-2.2v-4.1L110.1,186.1z"/>
	<path class="st0" d="M121.3,186.7v-7.9l7.9-3.9v7.9L121.3,186.7z M123,179.8v4.1l4.5-2.2v-4.1L123,179.8z"/>
	<path class="st0" d="M147.1,174.1v-7.9l7.9-3.9v7.9L147.1,174.1z M148.8,167.3v4.1l4.5-2.2v-4.1L148.8,167.3z"/>
	<path class="st0" d="M160.1,167.8v-7.9l7.9-3.9v7.9L160.1,167.8z M161.8,161v4.1l4.5-2.2v-4.1L161.8,161z"/>
	<path class="st0" d="M134.2,180.4v-7.9l7.9-3.9v7.9L134.2,180.4z M135.9,173.5v4.1l4.5-2.2v-4.1L135.9,173.5z"/>
	<path class="st0" d="M193.3,148.4H175c-0.5,0-0.9-0.4-0.9-0.8c0-0.5,0.4-0.9,0.8-0.9c0,0,0,0,0,0h18.3c0.5,0,0.9,0.4,0.9,0.8
		C194.2,148,193.8,148.4,193.3,148.4C193.3,148.4,193.3,148.4,193.3,148.4L193.3,148.4z"/>
	<path class="st0" d="M19.2,148.4h-19c-0.5,0-0.8-0.4-0.8-0.9c0-0.5,0.4-0.8,0.8-0.8h19c0.5,0,0.9,0.4,0.9,0.8
		C20,148,19.7,148.4,19.2,148.4C19.2,148.4,19.2,148.4,19.2,148.4L19.2,148.4z"/>
	<path class="st1" d="M46.6,35.7c-5.3,0-9.6-4.3-9.6-9.6c0-4,1.9-7.2,4-10.6c2.4-3.9,4.8-8,4.8-13.8c0-0.5,0.4-0.9,0.9-0.9
		c0.5,0,0.8,0.4,0.8,0.9c0,5.8,2.4,9.9,4.8,13.8c2,3.4,4,6.7,4,10.6C56.3,31.4,52,35.7,46.6,35.7C46.6,35.7,46.6,35.7,46.6,35.7z
		 M46.6,7.6c-1,3.1-2.4,6-4.2,8.7c-2,3.4-3.7,6.3-3.7,9.8c0,4.4,3.6,7.9,7.9,7.9s7.9-3.6,7.9-7.9c0-3.5-1.7-6.4-3.7-9.8
		C49.1,13.6,47.6,10.7,46.6,7.6z"/>
	<path class="st1" d="M83.6,35.7H67.1c-0.4,0-0.8-0.3-0.9-0.7L63.7,9.4c0-0.5,0.3-0.9,0.8-0.9c0.5,0,0.9,0.3,0.9,0.8L67.8,34h15
		l2.4-24.8c0-0.5,0.5-0.8,0.9-0.8c0,0,0,0,0,0c0.5,0,0.8,0.5,0.8,0.9c0,0,0,0,0,0L84.4,35C84.4,35.4,84,35.7,83.6,35.7z"/>
	<path class="st1" d="M72.4,30.7c-0.5,0-0.8-0.4-0.8-0.8l-0.8-18.1c0-0.5,0.3-0.9,0.8-0.9c0,0,0,0,0,0c0.5,0,0.8,0.3,0.9,0.8
		c0,0,0,0,0,0.1l0.8,18C73.3,30.2,72.9,30.6,72.4,30.7C72.5,30.7,72.5,30.7,72.4,30.7L72.4,30.7z"/>
	<path class="st1" d="M78.2,30.7L78.2,30.7c-0.5,0-0.8-0.4-0.8-0.9c0,0,0,0,0,0l0.8-18c0-0.5,0.4-0.8,0.8-0.8c0,0,0,0,0.1,0
		c0.5,0,0.8,0.4,0.8,0.9c0,0,0,0,0,0l-0.8,18.1C79.1,30.4,78.7,30.7,78.2,30.7z"/>
	<path class="st1" d="M64.6,13.1h-1.9c-0.5,0-0.8-0.4-0.8-0.9c0-0.5,0.4-0.8,0.8-0.8h1.9c0.5,0,0.8,0.4,0.8,0.9
		C65.4,12.8,65.1,13.1,64.6,13.1z"/>
	<path class="st1" d="M87.9,13.1H86c-0.5,0-0.9-0.4-0.9-0.8c0-0.5,0.4-0.9,0.8-0.9c0,0,0,0,0,0h1.9c0.5,0,0.8,0.4,0.8,0.9
		C88.7,12.8,88.4,13.1,87.9,13.1L87.9,13.1z"/>
	<path class="st1" d="M87.6,7H63c-0.5,0-0.8-0.4-0.8-0.9c0-0.5,0.4-0.8,0.8-0.8h24.6c0.5,0,0.8,0.4,0.8,0.9C88.4,6.6,88.1,7,87.6,7
		L87.6,7z"/>
	<path class="st1" d="M77.9,3.9c-0.5,0-0.9-0.4-0.9-0.8c0,0,0,0,0,0V2.5h-3.4V3c0,0.5-0.4,0.9-0.8,0.9c-0.5,0-0.9-0.4-0.9-0.8
		c0,0,0,0,0,0V1.7c0-0.5,0.4-0.8,0.8-0.9h5.1c0.5,0,0.8,0.4,0.8,0.9V3C78.7,3.5,78.3,3.9,77.9,3.9L77.9,3.9z"/>
	<path class="st0" d="M188.6,442V206.2c0-0.5,0.4-0.9,0.8-0.9c0.5,0,0.9,0.4,0.9,0.8c0,0,0,0,0,0V442L188.6,442z"/>
	<path class="st0" d="M170.4,217.4c-0.1,0-0.3,0-0.4-0.1l-30.8-14.9c-0.4-0.2-0.6-0.7-0.4-1.1c0.2-0.4,0.7-0.6,1.1-0.4c0,0,0,0,0,0
		l30.8,14.9c0.4,0.2,0.6,0.7,0.4,1.1c0,0,0,0,0,0C171.1,217.3,170.8,217.4,170.4,217.4z"/>
	<path class="st0" d="M189.3,207.1c-0.1,0-0.3,0-0.4-0.1l-30.2-14.6c-0.4-0.2-0.6-0.7-0.4-1.1c0.2-0.4,0.7-0.6,1.1-0.4c0,0,0,0,0,0
		l30.2,14.6c0.4,0.2,0.6,0.7,0.4,1.1C189.9,206.9,189.6,207,189.3,207.1L189.3,207.1z"/>
	<path class="st0" d="M96.7,70.2L96.7,70.2c-0.2,0-0.4-0.1-0.6-0.2l-5.2-5.2c-0.3-0.4-0.3-0.9,0.1-1.2c0.3-0.3,0.8-0.3,1.1,0
		l4.6,4.6l4.6-4.6c0.3-0.3,0.9-0.3,1.2,0c0.3,0.3,0.3,0.8,0,1.2c0,0,0,0,0,0L97.3,70C97.2,70.1,97,70.2,96.7,70.2z"/>
	<path class="st0" d="M174.9,110.8c-0.1,0-0.2,0-0.3,0c-0.4-0.2-0.7-0.6-0.5-1.1c0,0,0,0,0,0l2.1-6.2l-6.2-2.2
		c-0.4-0.2-0.7-0.6-0.5-1.1c0.2-0.4,0.6-0.7,1.1-0.5l7,2.4c0.4,0.2,0.7,0.6,0.5,1.1l-2.4,7C175.5,110.6,175.2,110.8,174.9,110.8z"/>
	<path class="st0" d="M96.7,70.2c-0.5,0-0.8-0.4-0.8-0.8V41.1c0-0.5,0.4-0.9,0.8-0.9c0.5,0,0.9,0.4,0.9,0.8c0,0,0,0,0,0v28.3
		C97.6,69.8,97.2,70.2,96.7,70.2C96.7,70.2,96.7,70.2,96.7,70.2z"/>
	<path class="st0" d="M169.6,442V216.6c0-0.5,0.4-0.9,0.8-0.9c0.5,0,0.9,0.4,0.9,0.8c0,0,0,0,0,0V442L169.6,442z"/>
	<path class="st0" d="M160.9,112c-0.5,0-0.8-0.4-0.8-0.9c0-0.3,0.2-0.6,0.5-0.7l16.4-8.1c0.4-0.2,0.9,0,1.1,0.4s0,0.9-0.4,1.1l0,0
		l-16.4,8.1C161.2,112,161,112,160.9,112z"/>
</g>
<g id="islenska">
	<g class="st2">
		<path class="st0" d="M90,224h-1.7l2.6-7.6H93l2.6,7.6h-1.7l-0.6-1.7h-2.8L90,224z M91,221h1.9l-0.9-2.9h-0.1L91,221z"/>
		<path class="st0" d="M99.9,221.6v-3.3h1.6v5.7H100v-1H100c-0.1,0.3-0.3,0.6-0.6,0.8c-0.3,0.2-0.7,0.3-1.1,0.3
			c-0.6,0-1-0.2-1.4-0.6c-0.4-0.4-0.5-0.9-0.5-1.6v-3.6h1.6v3.4c0,0.3,0.1,0.6,0.3,0.8c0.2,0.2,0.4,0.3,0.7,0.3
			c0.3,0,0.5-0.1,0.8-0.3C99.8,222.2,100,222,99.9,221.6z"/>
		<path class="st0" d="M102.6,224v-7.6h1.6v4.1h0.1l1.8-2.2h1.8l-2.1,2.5l2.2,3.2h-1.9l-1.6-2.3l-0.4,0.5v1.8H102.6z"/>
		<path class="st0" d="M110.1,224.1c-0.5,0-1-0.1-1.4-0.4c-0.4-0.3-0.5-0.7-0.5-1.3c0-0.4,0.1-0.8,0.3-1c0.2-0.2,0.5-0.4,0.8-0.5
			c0.3-0.1,0.7-0.2,1.1-0.2c0.5,0,0.9-0.1,1.1-0.2c0.2-0.1,0.3-0.2,0.3-0.4v0c0-0.2-0.1-0.4-0.2-0.5s-0.4-0.2-0.6-0.2
			c-0.3,0-0.5,0.1-0.7,0.2c-0.2,0.1-0.3,0.3-0.3,0.5l-1.5-0.1c0.1-0.5,0.4-0.9,0.8-1.2c0.4-0.3,1-0.5,1.7-0.5c0.4,0,0.8,0.1,1.2,0.2
			c0.4,0.1,0.7,0.3,0.9,0.6c0.2,0.3,0.3,0.7,0.3,1.1v3.9h-1.5v-0.8h0c-0.1,0.3-0.3,0.5-0.6,0.7C110.9,224,110.5,224.1,110.1,224.1z
			 M110.6,223c0.3,0,0.6-0.1,0.9-0.3s0.3-0.5,0.3-0.8v-0.6c-0.1,0-0.2,0.1-0.3,0.1c-0.1,0-0.3,0.1-0.4,0.1s-0.3,0-0.4,0.1
			c-0.3,0-0.5,0.1-0.7,0.2c-0.2,0.1-0.3,0.3-0.3,0.5c0,0.2,0.1,0.4,0.2,0.5C110.1,223,110.3,223,110.6,223z"/>
		<path class="st0" d="M116,224.1c-0.5,0-1-0.1-1.4-0.4c-0.4-0.3-0.5-0.7-0.5-1.3c0-0.4,0.1-0.8,0.3-1c0.2-0.2,0.5-0.4,0.8-0.5
			c0.3-0.1,0.7-0.2,1.1-0.2c0.5,0,0.9-0.1,1.1-0.2c0.2-0.1,0.3-0.2,0.3-0.4v0c0-0.2-0.1-0.4-0.2-0.5s-0.4-0.2-0.6-0.2
			c-0.3,0-0.5,0.1-0.7,0.2c-0.2,0.1-0.3,0.3-0.3,0.5l-1.5-0.1c0.1-0.5,0.4-0.9,0.8-1.2c0.4-0.3,1-0.5,1.7-0.5c0.4,0,0.8,0.1,1.2,0.2
			c0.4,0.1,0.7,0.3,0.9,0.6c0.2,0.3,0.3,0.7,0.3,1.1v3.9h-1.5v-0.8h0c-0.1,0.3-0.3,0.5-0.6,0.7C116.8,224,116.4,224.1,116,224.1z
			 M116.5,223c0.3,0,0.6-0.1,0.9-0.3s0.3-0.5,0.3-0.8v-0.6c-0.1,0-0.2,0.1-0.3,0.1c-0.1,0-0.3,0.1-0.4,0.1s-0.3,0-0.4,0.1
			c-0.3,0-0.5,0.1-0.7,0.2c-0.2,0.1-0.3,0.3-0.3,0.5c0,0.2,0.1,0.4,0.2,0.5C116,223,116.2,223,116.5,223z"/>
		<path class="st0" d="M123.4,218.3v1.2h-1.1v4.5h-1.6v-4.5h-0.8v-1.2h0.8v-0.4c0-0.6,0.2-1.1,0.5-1.4c0.4-0.3,0.8-0.5,1.3-0.5
			c0.2,0,0.5,0,0.7,0.1s0.4,0.1,0.5,0.1l-0.3,1.2c-0.1,0-0.1,0-0.2-0.1c-0.1,0-0.2,0-0.3,0c-0.2,0-0.4,0.1-0.5,0.2s-0.1,0.3-0.1,0.5
			v0.4H123.4z"/>
		<path class="st0" d="M127.8,221.6v-3.3h1.6v5.7h-1.5v-1h-0.1c-0.1,0.3-0.3,0.6-0.6,0.8c-0.3,0.2-0.7,0.3-1.1,0.3
			c-0.6,0-1-0.2-1.4-0.6c-0.4-0.4-0.5-0.9-0.5-1.6v-3.6h1.6v3.4c0,0.3,0.1,0.6,0.3,0.8c0.2,0.2,0.4,0.3,0.7,0.3
			c0.3,0,0.5-0.1,0.8-0.3C127.7,222.2,127.8,222,127.8,221.6z"/>
	</g>
	<g class="st2">
		<path class="st0" d="M130.5,224v-5.7h1.5v1h0.1c0.1-0.4,0.3-0.6,0.5-0.8s0.5-0.3,0.9-0.3c0.2,0,0.3,0,0.4,0.1
			c0.1,0,0.2,0.1,0.4,0.2l-0.5,1.3c-0.1,0-0.2-0.1-0.2-0.1c-0.1,0-0.2,0-0.3,0c-0.3,0-0.6,0.1-0.8,0.3c-0.2,0.2-0.3,0.5-0.3,0.9v3.2
			H130.5z"/>
	</g>
	<g class="st2">
		<path class="st0" d="M138.6,217l-0.7,0.4c0.5,0.5,0.8,1,1.1,1.7c0.3,0.6,0.4,1.3,0.4,2.1c0,0.6-0.1,1.1-0.3,1.6
			c-0.2,0.4-0.5,0.8-0.9,1s-0.8,0.3-1.4,0.3c-0.5,0-1-0.1-1.4-0.4c-0.4-0.2-0.7-0.6-0.9-1c-0.2-0.4-0.3-0.9-0.3-1.4
			c0-0.5,0.1-1,0.3-1.3s0.4-0.7,0.7-0.9c0.3-0.2,0.6-0.4,0.9-0.4c0.3,0,0.5,0,0.8,0c0.3,0.1,0.5,0.2,0.6,0.4h0.1
			c-0.1-0.2-0.3-0.4-0.4-0.6s-0.3-0.4-0.5-0.5l-1.3,0.7l-0.4-0.8l1-0.5c-0.2-0.1-0.5-0.3-0.8-0.5l0.7-1c0.2,0.1,0.4,0.2,0.6,0.4
			c0.2,0.1,0.4,0.3,0.6,0.5l1-0.5L138.6,217z M136.9,222.9c0.4,0,0.6-0.1,0.8-0.4c0.2-0.3,0.3-0.6,0.3-1.1c0-0.5-0.1-0.9-0.3-1.1
			c-0.2-0.3-0.5-0.4-0.8-0.4c-0.3,0-0.6,0.1-0.8,0.4c-0.2,0.2-0.3,0.6-0.3,1.1c0,0.5,0.1,0.9,0.3,1.1
			C136.3,222.8,136.6,222.9,136.9,222.9z"/>
		<path class="st0" d="M141.1,217.5c-0.2,0-0.4-0.1-0.6-0.2c-0.2-0.2-0.3-0.3-0.3-0.6c0-0.2,0.1-0.4,0.3-0.6
			c0.2-0.2,0.4-0.2,0.6-0.2c0.2,0,0.4,0.1,0.6,0.2c0.2,0.2,0.3,0.3,0.3,0.6c0,0.2-0.1,0.4-0.3,0.6
			C141.5,217.5,141.3,217.5,141.1,217.5z M140.3,224v-5.7h1.6v5.7H140.3z"/>
		<path class="st0" d="M142.9,224v-5.7h1.5v1h0.1c0.1-0.4,0.3-0.6,0.5-0.8s0.5-0.3,0.9-0.3c0.2,0,0.3,0,0.4,0.1
			c0.1,0,0.2,0.1,0.4,0.2l-0.5,1.3c-0.1,0-0.2-0.1-0.2-0.1c-0.1,0-0.2,0-0.3,0c-0.3,0-0.6,0.1-0.8,0.3c-0.2,0.2-0.3,0.5-0.3,0.9v3.2
			H142.9z"/>
	</g>
	<g class="st2">
		<path class="st0" d="M92.7,235.1c-0.5,0-1-0.1-1.4-0.3c-0.4-0.2-0.7-0.4-0.9-0.8s-0.3-0.7-0.3-1.1c0-0.4,0.1-0.8,0.4-1.1
			c0.3-0.3,0.6-0.6,1-0.9c-0.2-0.3-0.4-0.5-0.5-0.8s-0.2-0.6-0.2-0.9c0-0.4,0.1-0.7,0.3-1c0.2-0.3,0.4-0.5,0.7-0.7
			c0.3-0.2,0.7-0.3,1.1-0.3c0.4,0,0.8,0.1,1.1,0.2c0.3,0.2,0.5,0.4,0.7,0.7s0.2,0.6,0.2,0.9c0,0.4-0.1,0.7-0.3,1s-0.4,0.6-0.7,0.8
			l-0.4,0.3l1.3,1.4c0.1-0.2,0.2-0.4,0.2-0.6c0.1-0.2,0.1-0.5,0.1-0.7h1.3c0,0.5-0.1,1-0.2,1.4c-0.1,0.4-0.3,0.7-0.5,1l1.1,1.3h-1.7
			l-0.5-0.5c-0.3,0.2-0.6,0.4-0.9,0.5S93,235.1,92.7,235.1z M93.8,233.5l-1.4-1.6l0,0c-0.2,0.2-0.4,0.3-0.5,0.5
			c-0.1,0.2-0.2,0.3-0.2,0.5c0,0.3,0.1,0.5,0.3,0.7c0.2,0.2,0.5,0.3,0.8,0.3C93.1,233.8,93.5,233.7,93.8,233.5z M92.7,230.3l0.4-0.3
			c0.4-0.2,0.6-0.5,0.6-0.8c0-0.2-0.1-0.3-0.2-0.4c-0.1-0.1-0.3-0.2-0.5-0.2c-0.2,0-0.4,0.1-0.5,0.2c-0.1,0.1-0.2,0.3-0.2,0.5
			c0,0.2,0,0.3,0.1,0.5C92.4,229.9,92.5,230.1,92.7,230.3z"/>
		<path class="st0" d="M103.1,232.6v-3.3h1.6v5.7h-1.5v-1h-0.1c-0.1,0.3-0.3,0.6-0.6,0.8c-0.3,0.2-0.7,0.3-1.1,0.3
			c-0.6,0-1-0.2-1.4-0.6c-0.4-0.4-0.5-0.9-0.5-1.6v-3.6h1.6v3.4c0,0.3,0.1,0.6,0.3,0.8c0.2,0.2,0.4,0.3,0.7,0.3
			c0.3,0,0.5-0.1,0.8-0.3C103,233.2,103.1,233,103.1,232.6z M101.5,228.5l0.8-1.7h1.5l-1.1,1.7H101.5z"/>
	</g>
	<g class="st2">
		<path class="st0" d="M105.8,235v-5.7h1.5v1h0.1c0.1-0.4,0.3-0.6,0.5-0.8s0.5-0.3,0.9-0.3c0.2,0,0.3,0,0.4,0.1
			c0.1,0,0.2,0.1,0.4,0.2l-0.5,1.3c-0.1,0-0.2-0.1-0.2-0.1c-0.1,0-0.2,0-0.3,0c-0.3,0-0.6,0.1-0.8,0.3c-0.2,0.2-0.3,0.5-0.3,0.9v3.2
			H105.8z"/>
	</g>
	<g class="st2">
		<path class="st0" d="M112.4,237.2c-0.8,0-1.4-0.2-1.8-0.5c-0.4-0.3-0.7-0.7-0.8-1.1l1.5-0.2c0.1,0.2,0.2,0.3,0.4,0.4
			c0.2,0.1,0.5,0.2,0.8,0.2c0.3,0,0.6-0.1,0.9-0.2c0.2-0.2,0.3-0.4,0.3-0.8v-1h-0.1c-0.1,0.2-0.3,0.5-0.6,0.6
			c-0.3,0.2-0.6,0.3-1.1,0.3c-0.4,0-0.8-0.1-1.2-0.3c-0.4-0.2-0.6-0.5-0.8-0.9c-0.2-0.4-0.3-0.9-0.3-1.6c0-0.7,0.1-1.2,0.3-1.6
			c0.2-0.4,0.5-0.8,0.8-1c0.4-0.2,0.7-0.3,1.2-0.3c0.3,0,0.6,0.1,0.8,0.2s0.4,0.2,0.5,0.4c0.1,0.2,0.2,0.3,0.3,0.5h0.1v-1h1.6v5.8
			c0,0.5-0.1,0.9-0.4,1.2c-0.2,0.3-0.6,0.6-1,0.7S112.9,237.2,112.4,237.2z M112.4,233.7c0.4,0,0.7-0.1,0.9-0.4
			c0.2-0.3,0.3-0.7,0.3-1.2c0-0.5-0.1-0.9-0.3-1.2c-0.2-0.3-0.5-0.5-0.9-0.5c-0.4,0-0.7,0.2-0.9,0.5c-0.2,0.3-0.3,0.7-0.3,1.2
			c0,0.5,0.1,0.9,0.3,1.2C111.7,233.6,112,233.7,112.4,233.7z"/>
		<path class="st0" d="M117.9,235.1c-0.5,0-1-0.1-1.4-0.4c-0.4-0.3-0.5-0.7-0.5-1.3c0-0.4,0.1-0.8,0.3-1c0.2-0.2,0.5-0.4,0.8-0.5
			c0.3-0.1,0.7-0.2,1.1-0.2c0.5,0,0.9-0.1,1.1-0.2c0.2-0.1,0.3-0.2,0.3-0.4v0c0-0.2-0.1-0.4-0.2-0.5s-0.4-0.2-0.6-0.2
			c-0.3,0-0.5,0.1-0.7,0.2c-0.2,0.1-0.3,0.3-0.3,0.5l-1.5-0.1c0.1-0.5,0.4-0.9,0.8-1.2c0.4-0.3,1-0.5,1.7-0.5c0.4,0,0.8,0.1,1.2,0.2
			c0.4,0.1,0.7,0.3,0.9,0.6c0.2,0.3,0.3,0.7,0.3,1.1v3.9h-1.5v-0.8h0c-0.1,0.3-0.3,0.5-0.6,0.7C118.6,235,118.3,235.1,117.9,235.1z
			 M118.3,234c0.3,0,0.6-0.1,0.9-0.3s0.3-0.5,0.3-0.8v-0.6c-0.1,0-0.2,0.1-0.3,0.1c-0.1,0-0.3,0.1-0.4,0.1s-0.3,0-0.4,0.1
			c-0.3,0-0.5,0.1-0.7,0.2c-0.2,0.1-0.3,0.3-0.3,0.5c0,0.2,0.1,0.4,0.2,0.5C117.9,234,118.1,234,118.3,234z"/>
		<path class="st0" d="M123.7,231.7v3.3h-1.6v-5.7h1.5v1h0.1c0.1-0.3,0.3-0.6,0.6-0.8c0.3-0.2,0.7-0.3,1.1-0.3
			c0.6,0,1.1,0.2,1.4,0.6s0.5,0.9,0.5,1.6v3.6h-1.6v-3.4c0-0.4-0.1-0.6-0.3-0.8c-0.2-0.2-0.4-0.3-0.7-0.3c-0.3,0-0.6,0.1-0.8,0.3
			C123.8,231,123.7,231.3,123.7,231.7z"/>
		<path class="st0" d="M131,237.2c-0.8,0-1.4-0.2-1.8-0.5c-0.4-0.3-0.7-0.7-0.8-1.1l1.5-0.2c0.1,0.2,0.2,0.3,0.4,0.4
			c0.2,0.1,0.5,0.2,0.8,0.2c0.3,0,0.6-0.1,0.9-0.2c0.2-0.2,0.3-0.4,0.3-0.8v-1h-0.1c-0.1,0.2-0.3,0.5-0.6,0.6
			c-0.3,0.2-0.6,0.3-1.1,0.3c-0.4,0-0.8-0.1-1.2-0.3c-0.4-0.2-0.6-0.5-0.8-0.9c-0.2-0.4-0.3-0.9-0.3-1.6c0-0.7,0.1-1.2,0.3-1.6
			c0.2-0.4,0.5-0.8,0.8-1c0.4-0.2,0.7-0.3,1.2-0.3c0.3,0,0.6,0.1,0.8,0.2s0.4,0.2,0.5,0.4c0.1,0.2,0.2,0.3,0.3,0.5h0.1v-1h1.6v5.8
			c0,0.5-0.1,0.9-0.4,1.2c-0.2,0.3-0.6,0.6-1,0.7S131.6,237.2,131,237.2z M131.1,233.7c0.4,0,0.7-0.1,0.9-0.4
			c0.2-0.3,0.3-0.7,0.3-1.2c0-0.5-0.1-0.9-0.3-1.2c-0.2-0.3-0.5-0.5-0.9-0.5c-0.4,0-0.7,0.2-0.9,0.5c-0.2,0.3-0.3,0.7-0.3,1.2
			c0,0.5,0.1,0.9,0.3,1.2C130.4,233.6,130.7,233.7,131.1,233.7z"/>
		<path class="st0" d="M138.6,232.6v-3.3h1.6v5.7h-1.5v-1h-0.1c-0.1,0.3-0.3,0.6-0.6,0.8c-0.3,0.2-0.7,0.3-1.1,0.3
			c-0.6,0-1-0.2-1.4-0.6c-0.4-0.4-0.5-0.9-0.5-1.6v-3.6h1.6v3.4c0,0.3,0.1,0.6,0.3,0.8c0.2,0.2,0.4,0.3,0.7,0.3
			c0.3,0,0.5-0.1,0.8-0.3C138.4,233.2,138.6,233,138.6,232.6z"/>
		<path class="st0" d="M141.2,235v-5.7h1.5v1h0.1c0.1-0.4,0.3-0.6,0.5-0.8s0.5-0.3,0.9-0.3c0.2,0,0.3,0,0.4,0.1
			c0.1,0,0.2,0.1,0.4,0.2l-0.5,1.3c-0.1,0-0.2-0.1-0.2-0.1c-0.1,0-0.2,0-0.3,0c-0.3,0-0.6,0.1-0.8,0.3c-0.2,0.2-0.3,0.5-0.3,0.9v3.2
			H141.2z"/>
	</g>
	<g class="st2">
		<path class="st0" d="M180.3,189.8c-0.6,0-1.1-0.1-1.6-0.3s-1-0.5-1.5-0.9l1-1.1c0.3,0.3,0.7,0.5,1,0.7c0.4,0.2,0.7,0.2,1.2,0.2
			c0.3,0,0.6-0.1,0.8-0.2c0.2-0.1,0.3-0.3,0.3-0.5v0c0-0.1,0-0.2-0.1-0.3c0-0.1-0.1-0.2-0.2-0.2s-0.3-0.1-0.5-0.2s-0.4-0.1-0.8-0.2
			c-0.4-0.1-0.7-0.2-1-0.3c-0.3-0.1-0.6-0.2-0.8-0.4c-0.2-0.2-0.4-0.4-0.5-0.6s-0.2-0.5-0.2-0.9v0c0-0.3,0.1-0.6,0.2-0.9
			c0.1-0.3,0.3-0.5,0.5-0.7c0.2-0.2,0.5-0.3,0.8-0.5c0.3-0.1,0.7-0.2,1-0.2c0.5,0,1,0.1,1.5,0.2c0.5,0.2,0.9,0.4,1.2,0.7l-0.8,1.2
			c-0.3-0.2-0.7-0.4-1-0.5c-0.3-0.1-0.6-0.2-0.9-0.2s-0.6,0.1-0.7,0.2c-0.2,0.1-0.2,0.3-0.2,0.5v0c0,0.1,0,0.2,0.1,0.3
			s0.1,0.2,0.2,0.2c0.1,0.1,0.3,0.1,0.5,0.2c0.2,0.1,0.5,0.1,0.8,0.2c0.4,0.1,0.7,0.2,1,0.3c0.3,0.1,0.5,0.3,0.7,0.4
			c0.2,0.2,0.4,0.4,0.5,0.6c0.1,0.2,0.2,0.5,0.2,0.8v0c0,0.4-0.1,0.7-0.2,1c-0.1,0.3-0.3,0.5-0.6,0.7s-0.5,0.3-0.8,0.4
			C181,189.7,180.7,189.8,180.3,189.8z"/>
		<path class="st0" d="M184,184h1.6v0.8c0.2-0.3,0.4-0.5,0.7-0.7c0.3-0.2,0.6-0.3,1-0.3c0.3,0,0.6,0.1,1,0.2s0.6,0.3,0.8,0.6
			c0.2,0.2,0.4,0.6,0.6,0.9s0.2,0.8,0.2,1.2v0c0,0.5-0.1,0.9-0.2,1.2c-0.1,0.4-0.3,0.7-0.6,0.9c-0.2,0.2-0.5,0.4-0.8,0.6
			s-0.6,0.2-1,0.2c-0.4,0-0.8-0.1-1.1-0.3c-0.3-0.2-0.5-0.4-0.7-0.6v2.4H184V184z M186.9,188.4c0.2,0,0.4,0,0.5-0.1
			c0.2-0.1,0.3-0.2,0.4-0.3s0.2-0.3,0.3-0.5c0.1-0.2,0.1-0.4,0.1-0.6v0c0-0.2,0-0.4-0.1-0.6c-0.1-0.2-0.2-0.4-0.3-0.5
			s-0.3-0.2-0.4-0.3c-0.2-0.1-0.3-0.1-0.5-0.1s-0.4,0-0.5,0.1c-0.2,0.1-0.3,0.2-0.4,0.3c-0.1,0.1-0.2,0.3-0.3,0.5
			c-0.1,0.2-0.1,0.4-0.1,0.6v0c0,0.2,0,0.4,0.1,0.6c0.1,0.2,0.2,0.4,0.3,0.5c0.1,0.1,0.3,0.2,0.4,0.3
			C186.6,188.4,186.7,188.4,186.9,188.4z"/>
		<path class="st0" d="M190.9,182h1.7v1.4h-1.7V182z M190.9,184h1.6v5.6h-1.6V184z"/>
		<path class="st0" d="M193.9,182h1.6v7.7h-1.6V182z"/>
		<path class="st0" d="M196.9,182h1.6v7.7h-1.6V182z"/>
		<path class="st0" d="M199.8,182h1.7v1.4h-1.7V182z M199.8,184h1.6v5.6h-1.6V184z"/>
		<path class="st0" d="M202.2,184h1.7l1.3,3.8l1.3-3.8h1.7l-2.2,5.7h-1.4L202.2,184z"/>
		<path class="st0" d="M210.4,189.8c-0.3,0-0.5,0-0.8-0.1c-0.2-0.1-0.4-0.2-0.6-0.3c-0.2-0.1-0.3-0.3-0.4-0.5
			c-0.1-0.2-0.2-0.5-0.2-0.7v0c0-0.3,0.1-0.6,0.2-0.8c0.1-0.2,0.3-0.4,0.5-0.6c0.2-0.1,0.4-0.3,0.7-0.3c0.3-0.1,0.6-0.1,0.9-0.1
			c0.3,0,0.5,0,0.8,0.1c0.2,0,0.4,0.1,0.6,0.2v-0.1c0-0.3-0.1-0.6-0.3-0.8s-0.5-0.3-0.9-0.3c-0.3,0-0.6,0-0.8,0.1
			c-0.2,0.1-0.5,0.1-0.7,0.2l-0.4-1.2c0.3-0.1,0.6-0.2,1-0.3s0.7-0.1,1.2-0.1c0.4,0,0.8,0.1,1.1,0.2s0.6,0.3,0.8,0.5
			c0.2,0.2,0.4,0.5,0.5,0.8s0.1,0.6,0.1,1v3.3h-1.5v-0.6c-0.2,0.2-0.4,0.4-0.7,0.5C211.1,189.7,210.8,189.8,210.4,189.8z
			 M210.9,188.7c0.4,0,0.7-0.1,0.9-0.3s0.3-0.4,0.3-0.7v-0.3c-0.1-0.1-0.3-0.1-0.5-0.2c-0.2,0-0.4-0.1-0.6-0.1
			c-0.3,0-0.6,0.1-0.8,0.2c-0.2,0.1-0.3,0.3-0.3,0.6v0c0,0.2,0.1,0.4,0.2,0.5C210.4,188.6,210.6,188.7,210.9,188.7z"/>
		<path class="st0" d="M214.8,184h1.6v1.1c0.2-0.4,0.4-0.7,0.7-0.9c0.3-0.2,0.7-0.3,1.1-0.3v1.7h-0.1c-0.5,0-1,0.2-1.3,0.5
			c-0.3,0.3-0.5,0.8-0.5,1.5v2.1h-1.6V184z"/>
		<path class="st0" d="M219,184h1.6v0.8c0.1-0.1,0.2-0.2,0.3-0.3c0.1-0.1,0.2-0.2,0.4-0.3c0.1-0.1,0.3-0.2,0.4-0.2
			c0.2,0,0.3-0.1,0.6-0.1c0.4,0,0.7,0.1,1,0.2s0.5,0.4,0.6,0.7c0.2-0.3,0.5-0.5,0.8-0.7s0.6-0.2,1-0.2c0.6,0,1.1,0.2,1.4,0.5
			c0.3,0.4,0.5,0.9,0.5,1.5v3.7H226v-3.1c0-0.4-0.1-0.7-0.2-0.9c-0.2-0.2-0.4-0.3-0.7-0.3s-0.5,0.1-0.7,0.3
			c-0.2,0.2-0.3,0.5-0.3,0.9v3.1h-1.6v-3.1c0-0.4-0.1-0.7-0.2-0.9c-0.2-0.2-0.4-0.3-0.7-0.3s-0.5,0.1-0.7,0.3
			c-0.2,0.2-0.3,0.5-0.3,0.9v3.1H219V184z"/>
		<path class="st0" d="M228.8,182h1.7v1.4h-1.7V182z M228.8,184h1.6v5.6h-1.6V184z"/>
	</g>
	<g class="st2">
		<path class="st0" d="M184.2,101.6h-1.7l2.6-7.6h2.1l2.6,7.6h-1.7l-0.6-1.7h-2.8L184.2,101.6z M185.2,98.6h1.9l-0.9-2.9h-0.1
			L185.2,98.6z"/>
	</g>
	<g class="st2">
		<path class="st0" d="M193.6,95.9v1.2h-1.1v4.5h-1.6v-4.5H190v-1.2h0.8v-0.4c0-0.6,0.2-1.1,0.5-1.4c0.4-0.3,0.8-0.5,1.3-0.5
			c0.2,0,0.5,0,0.7,0.1s0.4,0.1,0.5,0.1l-0.3,1.2c-0.1,0-0.1,0-0.2-0.1c-0.1,0-0.2,0-0.3,0c-0.2,0-0.4,0.1-0.5,0.2s-0.1,0.3-0.1,0.5
			v0.4H193.6z"/>
		<path class="st0" d="M198,99.2v-3.3h1.6v5.7h-1.5v-1H198c-0.1,0.3-0.3,0.6-0.6,0.8c-0.3,0.2-0.7,0.3-1.1,0.3c-0.6,0-1-0.2-1.4-0.6
			c-0.4-0.4-0.5-0.9-0.5-1.6v-3.6h1.6v3.4c0,0.3,0.1,0.6,0.3,0.8c0.2,0.2,0.4,0.3,0.7,0.3c0.3,0,0.5-0.1,0.8-0.3
			C197.9,99.8,198,99.6,198,99.2z"/>
	</g>
	<g class="st2">
		<path class="st0" d="M200.7,101.6v-5.7h1.5v1h0.1c0.1-0.4,0.3-0.6,0.5-0.8s0.5-0.3,0.9-0.3c0.2,0,0.3,0,0.4,0.1
			c0.1,0,0.2,0.1,0.4,0.2l-0.5,1.3c-0.1,0-0.2-0.1-0.2-0.1c-0.1,0-0.2,0-0.3,0c-0.3,0-0.6,0.1-0.8,0.3s-0.3,0.5-0.3,0.9v3.2H200.7z"
			/>
	</g>
	<g class="st2">
		<path class="st0" d="M208.8,94.6l-0.7,0.4c0.5,0.5,0.8,1,1.1,1.7c0.3,0.6,0.4,1.3,0.4,2.1c0,0.6-0.1,1.1-0.3,1.6
			c-0.2,0.4-0.5,0.8-0.9,1s-0.8,0.3-1.4,0.3c-0.5,0-1-0.1-1.4-0.4c-0.4-0.2-0.7-0.6-0.9-1c-0.2-0.4-0.3-0.9-0.3-1.4
			c0-0.5,0.1-1,0.3-1.3s0.4-0.7,0.7-0.9c0.3-0.2,0.6-0.4,0.9-0.4c0.3,0,0.5,0,0.8,0c0.3,0.1,0.5,0.2,0.6,0.4h0.1
			c-0.1-0.2-0.3-0.4-0.4-0.6c-0.1-0.2-0.3-0.4-0.5-0.5l-1.3,0.7l-0.4-0.8l1-0.5c-0.2-0.1-0.5-0.3-0.8-0.5l0.7-1
			c0.2,0.1,0.4,0.2,0.6,0.4c0.2,0.1,0.4,0.3,0.6,0.5l1-0.5L208.8,94.6z M207.1,100.5c0.4,0,0.6-0.1,0.8-0.4s0.3-0.6,0.3-1.1
			c0-0.5-0.1-0.9-0.3-1.1c-0.2-0.3-0.5-0.4-0.8-0.4c-0.3,0-0.6,0.1-0.8,0.4c-0.2,0.2-0.3,0.6-0.3,1.1c0,0.5,0.1,0.9,0.3,1.1
			S206.7,100.5,207.1,100.5z"/>
		<path class="st0" d="M211.3,95.1c-0.2,0-0.4-0.1-0.6-0.2c-0.2-0.2-0.3-0.3-0.3-0.6c0-0.2,0.1-0.4,0.3-0.6c0.2-0.2,0.4-0.2,0.6-0.2
			c0.2,0,0.4,0.1,0.6,0.2c0.2,0.2,0.3,0.3,0.3,0.6c0,0.2-0.1,0.4-0.3,0.6C211.7,95.1,211.5,95.1,211.3,95.1z M210.5,101.6v-5.7h1.6
			v5.7H210.5z"/>
		<path class="st0" d="M213.1,101.6v-5.7h1.5v1h0.1c0.1-0.4,0.3-0.6,0.5-0.8c0.2-0.2,0.5-0.3,0.9-0.3c0.2,0,0.3,0,0.4,0.1
			c0.1,0,0.2,0.1,0.4,0.2l-0.5,1.3c-0.1,0-0.2-0.1-0.2-0.1c-0.1,0-0.2,0-0.3,0c-0.3,0-0.6,0.1-0.8,0.3c-0.2,0.2-0.3,0.5-0.3,0.9v3.2
			H213.1z"/>
	</g>
	<g class="st2">
		<path class="st0" d="M96.7,23.1v-7.6h1.6v6.3h3.3v1.3H96.7z"/>
		<path class="st0" d="M102.4,23.1v-5.7h1.6v5.7H102.4z M102.6,16.6l0.8-1.7h1.5l-1.1,1.7H102.6z"/>
		<path class="st0" d="M108.2,17.4v1.2h-1.1v4.5h-1.6v-4.5h-0.8v-1.2h0.8v-0.4c0-0.6,0.2-1.1,0.5-1.4c0.4-0.3,0.8-0.5,1.3-0.5
			c0.2,0,0.5,0,0.7,0.1s0.4,0.1,0.5,0.1l-0.3,1.2c-0.1,0-0.1,0-0.2-0.1c-0.1,0-0.2,0-0.3,0c-0.2,0-0.4,0.1-0.5,0.2s-0.1,0.3-0.1,0.5
			v0.4H108.2z"/>
		<path class="st0" d="M112.1,17.4v1.2h-1.1v4.5h-1.6v-4.5h-0.8v-1.2h0.8v-0.4c0-0.6,0.2-1.1,0.5-1.4c0.4-0.3,0.8-0.5,1.3-0.5
			c0.2,0,0.5,0,0.7,0.1s0.4,0.1,0.5,0.1l-0.3,1.2c-0.1,0-0.1,0-0.2-0.1c-0.1,0-0.2,0-0.3,0c-0.2,0-0.4,0.1-0.5,0.2s-0.1,0.3-0.1,0.5
			v0.4H112.1z"/>
		<path class="st0" d="M113.6,16.6c-0.2,0-0.4-0.1-0.6-0.2c-0.2-0.2-0.3-0.3-0.3-0.6c0-0.2,0.1-0.4,0.3-0.6c0.2-0.2,0.4-0.2,0.6-0.2
			c0.2,0,0.4,0.1,0.6,0.2c0.2,0.2,0.3,0.3,0.3,0.6c0,0.2-0.1,0.4-0.3,0.6C114.1,16.5,113.9,16.6,113.6,16.6z M112.8,23.1v-5.7h1.6
			v5.7H112.8z"/>
		<path class="st0" d="M118.5,17.4v1.2h-1.1v2.8c0,0.2,0,0.4,0.1,0.4c0.1,0.1,0.2,0.1,0.4,0.1c0.1,0,0.1,0,0.2,0s0.1,0,0.2,0
			l0.2,1.2c-0.1,0-0.2,0.1-0.3,0.1c-0.1,0-0.3,0.1-0.5,0.1c-0.6,0-1-0.1-1.4-0.4c-0.3-0.3-0.5-0.7-0.5-1.3v-3h-0.8v-1.2h0.8V16h1.6
			v1.4H118.5z"/>
		<path class="st0" d="M121,23.2c-0.5,0-1-0.1-1.4-0.4c-0.4-0.3-0.5-0.7-0.5-1.3c0-0.4,0.1-0.8,0.3-1c0.2-0.2,0.5-0.4,0.8-0.5
			c0.3-0.1,0.7-0.2,1.1-0.2c0.5,0,0.9-0.1,1.1-0.2c0.2-0.1,0.3-0.2,0.3-0.4v0c0-0.2-0.1-0.4-0.2-0.5s-0.4-0.2-0.6-0.2
			c-0.3,0-0.5,0.1-0.7,0.2c-0.2,0.1-0.3,0.3-0.3,0.5l-1.5-0.1c0.1-0.5,0.4-0.9,0.8-1.2c0.4-0.3,1-0.5,1.7-0.5c0.4,0,0.8,0.1,1.2,0.2
			c0.4,0.1,0.7,0.3,0.9,0.6c0.2,0.3,0.3,0.7,0.3,1.1v3.9h-1.5v-0.8h0c-0.1,0.3-0.3,0.5-0.6,0.7C121.8,23.1,121.4,23.2,121,23.2z
			 M121.4,22.1c0.3,0,0.6-0.1,0.9-0.3s0.3-0.5,0.3-0.8v-0.6c-0.1,0-0.2,0.1-0.3,0.1c-0.1,0-0.3,0.1-0.4,0.1s-0.3,0-0.4,0.1
			c-0.3,0-0.5,0.1-0.7,0.2c-0.2,0.1-0.3,0.3-0.3,0.5c0,0.2,0.1,0.4,0.2,0.5C121,22,121.2,22.1,121.4,22.1z"/>
	</g>
</g>
</svg>
