<?xml version="1.0" encoding="utf-8"?>
<!-- Generator: Adobe Illustrator 23.0.6, SVG Export Plug-In . SVG Version: 6.00 Build 0)  -->
<svg version="1.1" id="Layer_1" xmlns="http://www.w3.org/2000/svg" xmlns:xlink="http://www.w3.org/1999/xlink" x="0px" y="0px"
	 viewBox="0 0 400 306" style="enable-background:new 0 0 400 306;" xml:space="preserve">
<style type="text/css">
	.st0{enable-background:new    ;}
	.st1{fill:#333333;}
	.st2{fill:#4AA052;}
</style>
<title>gefn-mynd-05-is</title>
<g id="islenska">
	<g class="st0">
		<path class="st1" d="M160.7,207.7c-0.1-0.4-0.3-0.6-0.6-0.8s-0.6-0.3-1-0.3c-0.6,0-1.1,0.2-1.4,0.6c-0.4,0.4-0.5,1-0.5,1.8
			s0.2,1.4,0.5,1.8c0.4,0.4,0.8,0.7,1.4,0.7c0.5,0,1-0.1,1.3-0.4c0.3-0.3,0.5-0.7,0.5-1.1h-1.6v-1.2h3.2v1c0,0.7-0.1,1.2-0.4,1.7
			c-0.3,0.5-0.7,0.9-1.2,1.1c-0.5,0.3-1.1,0.4-1.7,0.4c-0.7,0-1.3-0.2-1.9-0.5c-0.5-0.3-1-0.8-1.3-1.4c-0.3-0.6-0.5-1.3-0.5-2.1
			s0.2-1.5,0.5-2.1s0.7-1,1.3-1.3s1.1-0.5,1.8-0.5c0.6,0,1.1,0.1,1.6,0.3s0.9,0.5,1.1,0.9s0.5,0.8,0.6,1.3h-1.7V207.7z"/>
	</g>
	<g class="st0">
		<path class="st1" d="M163.6,212.9v-5.7h1.5v1h0.1c0.1-0.4,0.3-0.6,0.5-0.8s0.5-0.3,0.9-0.3c0.2,0,0.3,0,0.4,0.1
			c0.1,0,0.2,0.1,0.4,0.2l-0.5,1.3c-0.1,0-0.2-0.1-0.2-0.1s-0.2,0-0.3,0c-0.3,0-0.6,0.1-0.8,0.3s-0.3,0.5-0.3,0.9v3.2L163.6,212.9
			L163.6,212.9z"/>
	</g>
	<g class="st0">
		<path class="st1" d="M173.9,213c-0.5,0-0.9-0.1-1.3-0.3c-0.4-0.2-0.6-0.4-0.8-0.8l0,0c-0.2,0.3-0.4,0.6-0.8,0.8
			c-0.4,0.2-0.9,0.3-1.3,0.3c-0.6,0-1.1-0.1-1.4-0.4c-0.4-0.3-0.6-0.7-0.6-1.3c0-0.4,0.1-0.8,0.3-1s0.5-0.4,0.8-0.5s0.7-0.2,1.1-0.2
			c0.5,0,0.9-0.1,1.1-0.2c0.2-0.1,0.3-0.2,0.3-0.4l0,0c0-0.2-0.1-0.4-0.2-0.5c-0.1-0.1-0.4-0.2-0.6-0.2c-0.3,0-0.5,0.1-0.7,0.2
			c-0.2,0.1-0.3,0.3-0.3,0.5l-1.5-0.1c0.1-0.5,0.4-0.9,0.8-1.2c0.4-0.3,1-0.5,1.7-0.5c0.3,0,0.6,0.1,0.9,0.2
			c0.3,0.1,0.5,0.3,0.7,0.6c0.4-0.5,1-0.7,1.8-0.7c0.5,0,1,0.1,1.4,0.3s0.7,0.5,1,1c0.2,0.4,0.4,1,0.4,1.6v0.4h-3.9l0,0
			c0,0.4,0.1,0.8,0.4,1c0.2,0.2,0.5,0.4,0.9,0.4c0.3,0,0.5-0.1,0.7-0.2c0.2-0.1,0.3-0.3,0.4-0.5l1.5,0.1c-0.1,0.5-0.4,1-0.8,1.3
			S174.6,213,173.9,213z M170,211.9c0.3,0,0.6-0.1,0.9-0.3c0.2-0.2,0.3-0.5,0.3-0.8v-0.6c-0.1,0-0.2,0.1-0.3,0.1s-0.3,0.1-0.4,0.1
			c-0.1,0-0.3,0-0.4,0.1c-0.3,0-0.5,0.1-0.7,0.2s-0.3,0.3-0.3,0.5s0.1,0.4,0.2,0.5C169.5,211.8,169.7,211.9,170,211.9z M172.5,209.4
			h2.4c0-0.3-0.1-0.6-0.3-0.8s-0.5-0.3-0.8-0.3c-0.4,0-0.6,0.1-0.9,0.3C172.7,208.8,172.6,209.1,172.5,209.4z"/>
		<path class="st1" d="M179.1,209.6v3.3h-1.6v-5.7h1.5v1h0.1c0.1-0.3,0.3-0.6,0.6-0.8s0.7-0.3,1.1-0.3c0.6,0,1.1,0.2,1.4,0.6
			c0.4,0.4,0.5,0.9,0.5,1.6v3.6h-1.6v-3.4c0-0.3-0.1-0.6-0.3-0.8s-0.4-0.3-0.7-0.3s-0.6,0.1-0.8,0.3S179.1,209.2,179.1,209.6z"/>
		<path class="st1" d="M185.6,213c-0.5,0-1-0.1-1.4-0.4c-0.4-0.3-0.5-0.7-0.5-1.3c0-0.4,0.1-0.8,0.3-1s0.5-0.4,0.8-0.5
			s0.7-0.2,1.1-0.2c0.5,0,0.9-0.1,1.1-0.2s0.3-0.2,0.3-0.4l0,0c0-0.2-0.1-0.4-0.2-0.5c-0.1-0.1-0.4-0.2-0.6-0.2
			c-0.3,0-0.5,0.1-0.7,0.2s-0.3,0.3-0.3,0.5l-1.5-0.1c0.1-0.5,0.4-0.9,0.8-1.2c0.4-0.3,1-0.5,1.7-0.5c0.4,0,0.8,0.1,1.2,0.2
			c0.4,0.1,0.7,0.3,0.9,0.6s0.3,0.7,0.3,1.1v3.9h-1.5v-0.8l0,0c-0.1,0.3-0.3,0.5-0.6,0.7S186.1,213,185.6,213z M186.1,211.9
			c0.3,0,0.6-0.1,0.9-0.3c0.2-0.2,0.3-0.5,0.3-0.8v-0.6c-0.1,0-0.2,0.1-0.3,0.1s-0.3,0.1-0.4,0.1c-0.1,0-0.3,0-0.4,0.1
			c-0.3,0-0.5,0.1-0.7,0.2c-0.2,0.1-0.3,0.3-0.3,0.5s0.1,0.4,0.2,0.5C185.7,211.8,185.9,211.9,186.1,211.9z"/>
		<path class="st1" d="M190.1,212.9v-5.7h1.5v1h0.1c0.1-0.4,0.3-0.6,0.5-0.8s0.5-0.3,0.9-0.3c0.2,0,0.3,0,0.4,0.1
			c0.1,0,0.2,0.1,0.4,0.2l-0.5,1.3c-0.1,0-0.2-0.1-0.2-0.1c-0.1,0-0.2,0-0.3,0c-0.3,0-0.6,0.1-0.8,0.3s-0.3,0.5-0.3,0.9v3.2
			L190.1,212.9L190.1,212.9z"/>
		<path class="st1" d="M199.7,213c-0.6,0-1.1-0.1-1.5-0.4s-0.8-0.6-1-1s-0.3-1-0.3-1.6s0.1-1.1,0.3-1.6s0.6-0.8,1-1s0.9-0.4,1.5-0.4
			c0.5,0,1,0.1,1.4,0.3s0.7,0.5,1,1c0.2,0.4,0.4,1,0.4,1.6v0.4h-3.9l0,0c0,0.4,0.1,0.8,0.4,1s0.5,0.4,0.9,0.4c0.3,0,0.5-0.1,0.7-0.2
			c0.2-0.1,0.3-0.3,0.4-0.5l1.5,0.1c-0.1,0.5-0.4,1-0.9,1.3S200.4,213,199.7,213z M198.4,209.4h2.4c0-0.3-0.1-0.6-0.3-0.8
			s-0.5-0.3-0.8-0.3c-0.4,0-0.6,0.1-0.9,0.3C198.5,208.8,198.4,209.1,198.4,209.4z"/>
		<path class="st1" d="M206.5,207.2v1.2h-1.1v4.5h-1.6v-4.5H203v-1.2h0.8v-0.4c0-0.6,0.2-1.1,0.5-1.4c0.4-0.3,0.8-0.5,1.3-0.5
			c0.2,0,0.5,0,0.7,0.1c0.2,0,0.4,0.1,0.5,0.1l-0.3,1.2c-0.1,0-0.1,0-0.2-0.1s-0.2,0-0.3,0c-0.2,0-0.4,0.1-0.5,0.2
			c-0.1,0.1-0.1,0.3-0.1,0.5v0.4h1.1V207.2z"/>
		<path class="st1" d="M209,209.6v3.3h-1.6v-5.7h1.5v1h0.1c0.1-0.3,0.3-0.6,0.6-0.8s0.7-0.3,1.1-0.3c0.6,0,1.1,0.2,1.4,0.6
			c0.4,0.4,0.5,0.9,0.5,1.6v3.6H211v-3.4c0-0.3-0.1-0.6-0.3-0.8s-0.4-0.3-0.7-0.3s-0.6,0.1-0.8,0.3S209,209.2,209,209.6z"/>
	</g>
	<g class="st0">
		<path class="st1" d="M215.6,213c-0.5,0-1-0.1-1.4-0.4s-0.5-0.7-0.5-1.3c0-0.4,0.1-0.8,0.3-1s0.5-0.4,0.8-0.5s0.7-0.2,1.1-0.2
			c0.5,0,0.9-0.1,1.1-0.2c0.2-0.1,0.3-0.2,0.3-0.4l0,0c0-0.2-0.1-0.4-0.2-0.5c-0.1-0.1-0.4-0.2-0.6-0.2c-0.3,0-0.5,0.1-0.7,0.2
			c-0.2,0.1-0.3,0.3-0.3,0.5l-1.5-0.1c0.1-0.5,0.4-0.9,0.8-1.2c0.4-0.3,1-0.5,1.7-0.5c0.4,0,0.8,0.1,1.2,0.2
			c0.4,0.1,0.7,0.3,0.9,0.6s0.3,0.7,0.3,1.1v3.9h-1.5v-0.8l0,0c-0.1,0.3-0.3,0.5-0.6,0.7C216.3,212.9,216,213,215.6,213z M216,211.9
			c0.3,0,0.6-0.1,0.9-0.3c0.2-0.2,0.3-0.5,0.3-0.8v-0.6c-0.1,0-0.2,0.1-0.3,0.1s-0.3,0.1-0.4,0.1c-0.1,0-0.3,0-0.4,0.1
			c-0.3,0-0.5,0.1-0.7,0.2s-0.3,0.3-0.3,0.5s0.1,0.4,0.2,0.5C215.6,211.8,215.8,211.9,216,211.9z"/>
	</g>
	<g class="st0">
		<path class="st1" d="M225.2,207.2l-2,5.7h-1.8l-2-5.7h1.7l1.2,4.1h0.1l1.2-4.1H225.2z"/>
	</g>
	<g class="st0">
		<path class="st1" d="M228.4,213c-0.6,0-1.1-0.1-1.5-0.4c-0.4-0.2-0.7-0.6-1-1c-0.2-0.4-0.3-1-0.3-1.5c0-0.6,0.1-1.1,0.3-1.6
			c0.2-0.4,0.6-0.8,1-1s0.9-0.4,1.5-0.4s1.1,0.1,1.5,0.4c0.4,0.2,0.7,0.6,1,1c0.2,0.4,0.3,1,0.3,1.6s-0.1,1.1-0.3,1.5s-0.6,0.8-1,1
			C229.5,212.9,229,213,228.4,213z M227.2,206.4c-0.2,0-0.4-0.1-0.6-0.2s-0.2-0.3-0.2-0.5s0.1-0.4,0.2-0.5s0.3-0.2,0.6-0.2
			c0.2,0,0.4,0.1,0.5,0.2s0.2,0.3,0.2,0.5s-0.1,0.4-0.2,0.5S227.5,206.4,227.2,206.4z M228.4,211.8c0.4,0,0.7-0.2,0.9-0.5
			s0.3-0.7,0.3-1.2s-0.1-0.9-0.3-1.2s-0.5-0.5-0.9-0.5s-0.7,0.2-0.9,0.5s-0.3,0.7-0.3,1.2s0.1,0.9,0.3,1.2S228,211.8,228.4,211.8z
			 M229.5,206.4c-0.2,0-0.4-0.1-0.6-0.2s-0.2-0.3-0.2-0.5s0.1-0.4,0.2-0.5s0.3-0.2,0.6-0.2c0.2,0,0.4,0.1,0.5,0.2s0.2,0.3,0.2,0.5
			s-0.1,0.4-0.2,0.5S229.7,206.4,229.5,206.4z"/>
		<path class="st1" d="M232.2,212.9v-5.7h1.5v1h0.1c0.1-0.4,0.3-0.6,0.5-0.8s0.5-0.3,0.9-0.3c0.2,0,0.3,0,0.5,0.1v1.4
			c-0.1,0-0.2,0-0.3-0.1c-0.1,0-0.3,0-0.4,0c-0.4,0-0.6,0.1-0.9,0.3c-0.2,0.2-0.3,0.5-0.3,0.9v3.2L232.2,212.9L232.2,212.9z"/>
		<path class="st1" d="M240.2,210.4v-3.3h1.6v5.7h-1.5v-1h-0.1c-0.1,0.3-0.3,0.6-0.6,0.8s-0.7,0.3-1.1,0.3c-0.6,0-1-0.2-1.4-0.6
			c-0.4-0.4-0.5-0.9-0.5-1.6v-3.6h1.6v3.4c0,0.3,0.1,0.6,0.3,0.8s0.4,0.3,0.7,0.3s0.5-0.1,0.8-0.3
			C240.1,211.1,240.2,210.8,240.2,210.4z"/>
		<path class="st1" d="M243.1,212.9v-5.7h1.5v1h0.1c0.1-0.4,0.3-0.6,0.5-0.8s0.5-0.3,0.9-0.3c0.2,0,0.3,0,0.4,0.1
			c0.1,0,0.2,0.1,0.4,0.2l-0.5,1.3c-0.1,0-0.2-0.1-0.2-0.1c-0.1,0-0.2,0-0.3,0c-0.3,0-0.6,0.1-0.8,0.3s-0.3,0.5-0.3,0.9v3.2
			L243.1,212.9L243.1,212.9z"/>
	</g>
</g>
<g id="teikningar">
	<path class="st2" d="M154.6,132.2c-0.5,0-0.9-0.4-0.9-0.8l0,0V130c0-3.8,2-8,6.5-8h0.6v-5.4h-16.2c-6.2,0-9.1,1.2-9.1,7.7v0.6h3.4
		c3.4,0,5.1,1.7,5.1,5.1v1.4c0,0.5-0.4,0.9-0.8,0.9c-0.5,0-0.9-0.4-0.9-0.8l0,0V130c0-2.5-0.9-3.4-3.4-3.4h-4.3
		c-0.5,0-0.9-0.4-0.9-0.8l0,0v-1.4c0-8.7,5.1-9.4,10.8-9.4h17.1c0.5,0,0.8,0.4,0.9,0.8v7.1c0,0.5-0.4,0.8-0.9,0.8l0,0h-1.4
		c-3.3,0-4.8,3.1-4.8,6.3v1.4C155.5,131.9,155.1,132.2,154.6,132.2z"/>
	<path class="st2" d="M168.9,123.3h-3.4c-0.5,0-0.9-0.4-0.9-0.8c0-0.5,0.4-0.9,0.8-0.9l0,0h2.5V117h-2.5c-0.5,0.1-0.9-0.3-0.9-0.8
		c-0.1-0.5,0.3-0.9,0.8-0.9c0.1,0,0.1,0,0.2,0h3.4c0.5,0,0.8,0.4,0.9,0.8v6.3C169.7,122.9,169.3,123.3,168.9,123.3L168.9,123.3z"/>
	<path class="st2" d="M168.1,140.4c-0.3,0-0.6-0.2-0.7-0.4l-7.1-12.4c-0.3-0.4-0.2-0.9,0.2-1.2s0.9-0.2,1.2,0.2l0.1,0.1l7.1,12.4
		c0.2,0.4,0.1,0.9-0.3,1.2l0,0C168.4,140.4,168.2,140.4,168.1,140.4z"/>
	<path class="st2" d="M154.6,136.3c-0.5,0-0.9-0.4-0.9-0.8l0,0v-2.7H144v2.7c0,0.5-0.4,0.9-0.8,0.9c-0.5,0-0.9-0.4-0.9-0.8l0,0V132
		c0-0.5,0.4-0.9,0.8-0.9l0,0h11.4c0.5,0,0.9,0.4,0.9,0.8l0,0v3.6C155.5,135.9,155.1,136.3,154.6,136.3L154.6,136.3z"/>
	<path class="st2" d="M167.6,185.5h-34.3c-0.5,0-0.9-0.4-0.9-0.8l0,0c0-1.6,0-3.2,0-4.8c-0.1-14.4-0.3-32.3,9.7-41.3
		c0.2-0.1,0.4-0.2,0.6-0.2h11c1.2,0,2.4,0.4,3.3,1.1c2.1,1.3,3.4,3.5,3.6,6c0,1.6-0.2,3.3-0.6,4.8c-0.4,1.6-0.7,3.2-0.9,4.8
		c-0.2,1.8,0.9,2.9,2.9,4.8c2.7,2.6,6.4,6.1,6.4,13.9v11C168.4,185.1,168,185.5,167.6,185.5L167.6,185.5z M134.1,183.8h32.6v-10.1
		c0-7-3.3-10.2-5.9-12.7c-1.9-1.8-3.7-3.6-3.4-6.2l0,0c0.2-1.7,0.5-3.4,1-5c0.4-1.4,0.6-2.8,0.6-4.3c-0.1-2-1.2-3.7-2.9-4.7
		c-0.7-0.5-1.5-0.7-2.3-0.8H143c-9.2,8.6-9.1,25.9-8.9,39.8C134.1,181.1,134.1,182.5,134.1,183.8z"/>
	<path class="st2" d="M175.2,116.6h-1.6c-0.5,0.1-0.9-0.3-0.9-0.8c-0.1-0.5,0.3-0.9,0.8-0.9c0.1,0,0.1,0,0.2,0h1.6
		c0.5-0.1,0.9,0.3,0.9,0.8c0.1,0.5-0.3,0.9-0.8,0.9C175.3,116.6,175.3,116.6,175.2,116.6z"/>
	<path class="st2" d="M175.2,122.3h-1.6c-0.5,0-0.9-0.4-0.9-0.8c0-0.5,0.4-0.9,0.8-0.9l0,0h1.6c0.5,0,0.8,0.4,0.8,0.9
		C176.1,121.9,175.7,122.3,175.2,122.3z"/>
	<path class="st2" d="M180.9,113.8h-1.6c-0.5,0-0.9-0.4-0.9-0.8c0-0.5,0.4-0.9,0.8-0.9l0,0h1.6c0.5,0,0.9,0.4,0.9,0.8
		C181.7,113.4,181.4,113.7,180.9,113.8L180.9,113.8z"/>
	<path class="st2" d="M180.9,119.4h-1.6c-0.5,0-0.9-0.4-0.9-0.8c0-0.5,0.4-0.9,0.8-0.9l0,0h1.6c0.5,0,0.9,0.4,0.9,0.8
		C181.7,119.1,181.4,119.4,180.9,119.4L180.9,119.4z"/>
	<path class="st2" d="M180.9,125.1h-1.6c-0.5,0-0.9-0.4-0.9-0.8c0-0.5,0.4-0.9,0.8-0.9l0,0h1.6c0.5,0,0.8,0.4,0.8,0.9
		C181.7,124.7,181.4,125.1,180.9,125.1z"/>
	<path class="st2" d="M230.8,149l-31,0.9l1.3-2.6c1.7-3.4,5.5-5.3,9.2-4.7l2.6,0.4c2.3-1.2,4.3-3,5.6-5.3l0.4-0.7l0.8,0.4
		c2.9,1.2,4.9,4.1,4.9,7.2c2.1,0.3,4.7,0.9,5.9,3.2c0,0,0.3,0.6,0.3,0.7C230.8,148.6,230.8,149,230.8,149z M202.5,148.3l26.3,0.3
		v-0.1c-0.9-1.7-3.4-2.1-5.2-2.3l-0.8-0.1v-0.7c0.2-2.5-1.1-4.9-3.3-6.1c-1.5,2.4-3.6,4.2-6.2,5.4l-0.2,0.1l-3.1-0.5
		c-3-0.5-6,1-7.4,3.7L202.5,148.3z"/>
	<path class="st2" d="M233.9,155.3c-0.5,0-0.9-0.4-0.9-0.8l0,0V150h-36.4v4.4c0,0.5-0.4,0.8-0.9,0.8s-0.8-0.4-0.8-0.8v-5.2
		c0-0.5,0.4-0.8,0.9-0.9h38.1c0.5,0,0.9,0.4,0.9,0.8l0,0v5.2C234.8,154.8,234.4,155.2,233.9,155.3L233.9,155.3z"/>
	<path class="st2" d="M193.8,154.5c-0.5,0-0.8-0.4-0.8-0.9s0.4-0.8,0.8-0.8l42-1.8c0.5,0,0.9,0.3,0.9,0.8s-0.3,0.9-0.8,0.9
		L193.8,154.5L193.8,154.5z"/>
	<path class="st2" d="M232.1,184.6h-34.6c-4.7,0-8.4-3.8-8.4-8.5v-18.3c0-0.5,0.4-0.9,0.8-0.9l0,0h49.8c0.5,0,0.9,0.4,0.9,0.8l0,0
		V176C240.6,180.8,236.8,184.5,232.1,184.6z M190.8,158.6V176c0,3.7,3,6.8,6.8,6.8h34.6c3.7,0,6.8-3,6.8-6.8v-17.4H190.8z"/>
	<path class="st2" d="M232.1,174.7h-34.6c-0.5,0-0.8-0.4-0.9-0.9v-9.7c0-0.5,0.4-0.8,0.9-0.9h34.6c0.5,0,0.9,0.4,0.9,0.8l0,0v9.7
		C233,174.3,232.6,174.7,232.1,174.7L232.1,174.7z M198.4,173h32.9v-8h-32.9V173z"/>
	<path class="st2" d="M226.6,169.7h-22.8c-0.5,0-0.8-0.4-0.8-0.9s0.4-0.8,0.8-0.8h22.8c0.5,0,0.9,0.4,0.9,0.8
		C227.4,169.3,227,169.7,226.6,169.7L226.6,169.7z"/>
	<path class="st2" d="M257.8,184.6c-0.3,0-0.6-0.2-0.7-0.4l-21.7-37.7c-0.2-0.4-0.1-0.9,0.3-1.2l0,0l6.4-3.7
		c0.2-0.1,0.4-0.2,0.6-0.1c0.2,0.1,0.4,0.2,0.5,0.4l21.7,37.7c0.1,0.2,0.1,0.4,0.1,0.6c-0.1,0.2-0.2,0.4-0.4,0.5l-6.4,3.7
		C258.1,184.5,257.9,184.5,257.8,184.6z M237.2,146.3l20.9,36.3l4.9-2.8l-20.9-36.3L237.2,146.3z"/>
	<path class="st2" d="M243.3,150.8c-0.5,0-0.9-0.4-0.9-0.8c0-0.3,0.2-0.6,0.4-0.8l2.4-1.4c0.4-0.2,0.9-0.1,1.2,0.3
		c0.2,0.4,0.1,0.9-0.3,1.2l-2.4,1.4C243.6,150.8,243.4,150.8,243.3,150.8z"/>
	<path class="st2" d="M245.3,154.3c-0.3,0-0.6-0.2-0.7-0.4c-0.2-0.4-0.1-0.9,0.3-1.2l0,0l2.4-1.4c0.4-0.2,0.9-0.1,1.2,0.3l0,0
		c0.2,0.4,0.1,0.9-0.3,1.2l-2.4,1.4C245.6,154.3,245.4,154.3,245.3,154.3z"/>
	<path class="st2" d="M111.5,185.6H79c-0.5,0-0.8-0.4-0.8-0.9l0,0v-48.3c0-6.5,5.3-11.8,11.8-11.9h10.5c6.5,0,11.9,5.3,11.9,11.9
		v48.3C112.4,185.2,112,185.6,111.5,185.6z M79.9,183.9h30.8v-47.4c0-5.6-4.6-10.2-10.2-10.2H90c-5.6,0-10.1,4.6-10.2,10.2
		L79.9,183.9z"/>
	<path class="st2" d="M101.3,122.7c-0.5,0-0.8-0.4-0.8-0.8v-5.1H90.2v5.1c0,0.5-0.4,0.9-0.8,0.9c-0.5,0-0.9-0.4-0.9-0.8l0,0v-6
		c0-0.5,0.4-0.8,0.8-0.8h12c0.5,0,0.8,0.4,0.8,0.8v5.9C102.1,122.4,101.7,122.7,101.3,122.7z"/>
	<path class="st2" d="M111.5,166.9H98.9c-0.5,0-0.8-0.4-0.8-0.9l0,0v-26.6c0-0.5,0.4-0.9,0.8-0.9l0,0h12.6c0.5,0,0.8,0.4,0.8,0.9
		l0,0V166C112.4,166.5,112,166.9,111.5,166.9L111.5,166.9z M99.8,165.2h10.9v-24.9H99.8V165.2z"/>
	<path class="st2" d="M111.5,146.3h-7.8c-0.5,0-0.9-0.4-0.9-0.8c0-0.5,0.4-0.9,0.8-0.9l0,0h7.8c0.5,0,0.9,0.4,0.9,0.8
		C112.4,145.9,112,146.3,111.5,146.3L111.5,146.3z"/>
	<path class="st2" d="M111.5,151.2h-5.9c-0.5,0-0.9-0.4-0.9-0.8c0-0.5,0.4-0.9,0.8-0.9l0,0h5.9c0.5,0,0.9,0.4,0.9,0.8
		C112.4,150.9,112,151.2,111.5,151.2L111.5,151.2z"/>
	<path class="st2" d="M87,161.6c-2.5,0-4.5-2-4.5-4.5v-13.9c0-2.5,2-4.5,4.5-4.5s4.5,2,4.5,4.5v13.9C91.5,159.6,89.5,161.6,87,161.6
		L87,161.6z M87,140.4c-1.5,0-2.8,1.3-2.8,2.8v13.9c0.1,1.5,1.4,2.7,3,2.6c1.4-0.1,2.5-1.2,2.6-2.6v-13.9
		C89.8,141.7,88.5,140.4,87,140.4z"/>
	<path class="st2" d="M293.1,185.3h-2.7c-0.2,0-0.4-0.1-0.6-0.2l-2.5-2.5h-2.4c-0.5,0-0.9-0.4-0.9-0.8c0-0.5,0.4-0.9,0.8-0.9l0,0
		h2.7c0.2,0,0.4,0.1,0.6,0.2l2.5,2.5h2l2.5-2.5c0.2-0.2,0.4-0.3,0.6-0.2h2.7c0.5,0,0.9,0.4,0.9,0.8c0,0.5-0.4,0.9-0.8,0.9l0,0h-2.4
		l-2.5,2.5C293.5,185.2,293.3,185.3,293.1,185.3z"/>
	<path class="st2" d="M282.1,174.7c-0.5,0-0.9-0.3-0.9-0.8s0.3-0.9,0.8-0.9l19.2-2.5c0.5,0,0.9,0.3,0.9,0.8c0,0.4-0.3,0.8-0.7,0.9
		L282.1,174.7L282.1,174.7z"/>
	<path class="st2" d="M282.1,179.1c-0.5,0-0.9-0.3-0.9-0.8s0.3-0.9,0.8-0.9l19.2-2.4c0.5-0.1,0.9,0.3,1,0.7c0.1,0.5-0.3,0.9-0.7,1
		l0,0l-19.2,2.5L282.1,179.1z"/>
	<path class="st2" d="M283.5,170.3c-0.5,0-0.9-0.4-0.9-0.8l0,0v-4c0-2.7-1.1-5.3-3-7.2c-3.4-3.6-5.2-8.4-5.2-13.3
		c0-9.5,7.7-17.3,17.3-17.3c9.5,0,17.3,7.7,17.3,17.3c0,4.9-1.8,9.7-5.2,13.3c-1.9,1.9-3,4.5-3,7.2v1.8c0,0.5-0.4,0.9-0.9,0.9
		s-0.9-0.4-0.9-0.9v-1.8c0-3.2,1.3-6.2,3.5-8.4c3-3.3,4.7-7.6,4.7-12.1c0-8.6-7-15.6-15.6-15.6s-15.6,7-15.6,15.6l0,0
		c0,4.5,1.6,8.8,4.7,12.1c2.2,2.2,3.5,5.3,3.5,8.4v4C284.3,169.9,284,170.3,283.5,170.3z"/>
	<path class="st2" d="M269.1,144.6h-7.3c-0.5,0-0.9-0.4-0.9-0.8l0,0c0-0.5,0.4-0.8,0.8-0.8l0,0h7.3c0.5,0,0.8,0.4,0.8,0.8l0,0
		C270,144.3,269.6,144.6,269.1,144.6L269.1,144.6z"/>
	<path class="st2" d="M321.6,144.6h-7.3c-0.5,0-0.9-0.4-0.9-0.8l0,0c0-0.5,0.4-0.8,0.8-0.8l0,0h7.3c0.5,0,0.8,0.4,0.9,0.8
		C322.4,144.3,322,144.6,321.6,144.6z"/>
	<path class="st2" d="M307.7,128.7c-0.5,0-0.8-0.4-0.8-0.9c0-0.2,0.1-0.4,0.2-0.6l5.2-5.2c0.3-0.3,0.8-0.3,1.2,0l0,0
		c0.3,0.3,0.3,0.9,0,1.2l-5.1,5.2C308.1,128.6,307.9,128.7,307.7,128.7z"/>
	<path class="st2" d="M291.7,122.1c-0.5,0-0.9-0.4-0.9-0.8l0,0V114c0-0.5,0.4-0.9,0.9-0.9s0.9,0.4,0.9,0.9v7.3
		C292.6,121.7,292.2,122.1,291.7,122.1L291.7,122.1z"/>
	<path class="st2" d="M275.7,128.7c-0.2,0-0.4-0.1-0.6-0.2l-5.1-5.1c-0.3-0.3-0.3-0.9,0-1.2c0.3-0.3,0.8-0.3,1.2,0l0,0l5.2,5.2
		c0.3,0.3,0.3,0.9,0,1.2C276.2,128.6,276,128.7,275.7,128.7L275.7,128.7z"/>
	<path class="st2" d="M291.7,163.7c-0.5,0-0.9-0.4-0.9-0.8l0,0v-10.8c0-0.5,0.4-0.9,0.9-0.9s0.9,0.4,0.9,0.9v10.8
		C292.6,163.3,292.2,163.7,291.7,163.7L291.7,163.7z"/>
	<path class="st2" d="M293.3,159.1c-0.5,0-0.9-0.4-0.9-0.8c0-0.4,0.3-0.8,0.7-0.8c2.5-0.6,4.2-2.8,4.2-5.4c0-5.6-4-10.6-5.6-12.3
		c-1.5,1.7-5.6,6.7-5.6,12.3c0,2.6,1.7,4.8,4.2,5.4c0.4,0.1,0.7,0.6,0.6,1s-0.6,0.7-1,0.6c-3.2-0.8-5.5-3.7-5.5-7.1
		c0-7.6,6.4-13.9,6.7-14.1c0.3-0.3,0.9-0.3,1.2,0c0.3,0.3,6.7,6.5,6.7,14.1c0,3.3-2.3,6.3-5.5,7.1H293.3z"/>
</g>
</svg>
