<?xml version="1.0" encoding="utf-8"?>
<!-- Generator: Adobe Illustrator 23.0.6, SVG Export Plug-In . SVG Version: 6.00 Build 0)  -->
<svg version="1.1" id="Layer_1" xmlns="http://www.w3.org/2000/svg" xmlns:xlink="http://www.w3.org/1999/xlink" x="0px" y="0px"
	 viewBox="0 0 400 306" style="enable-background:new 0 0 400 306;" xml:space="preserve">
<style type="text/css">
	.st0{fill:#333333;}
	.st1{fill:#4AA052;}
	.st2{enable-background:new    ;}
</style>
<title>gefn-mynd-04-is</title>
<g id="teikningar">
	<path class="st0" d="M182.8,206.3H77.5V103.9c0-0.5,0.4-0.9,0.8-0.9c0.5,0,0.9,0.4,0.9,0.8c0,0,0,0,0,0v100.8h103.6
		c0.5,0,0.9,0.4,0.9,0.8C183.6,206,183.3,206.3,182.8,206.3C182.8,206.3,182.8,206.3,182.8,206.3z"/>
	<path class="st0" d="M89.8,206.3c-0.5,0-0.8-0.4-0.8-0.9l0,0v-5.2c0-0.5,0.4-0.9,0.8-0.9c0.5,0,0.9,0.4,0.9,0.8c0,0,0,0,0,0v5.2
		C90.7,206,90.3,206.3,89.8,206.3C89.8,206.3,89.8,206.3,89.8,206.3z"/>
	<path class="st0" d="M182.8,206.3c-0.5,0-0.9-0.4-0.9-0.8v0v-5.2c0-0.5,0.4-0.9,0.8-0.9c0.5,0,0.9,0.4,0.9,0.8c0,0,0,0,0,0v5.2
		C183.6,206,183.3,206.3,182.8,206.3z"/>
	<path class="st0" d="M120.8,206.3c-0.5,0-0.8-0.4-0.8-0.9l0,0v-5.2c0-0.5,0.4-0.8,0.9-0.8c0.5,0,0.8,0.4,0.8,0.8v5.2
		C121.7,206,121.3,206.3,120.8,206.3C120.8,206.3,120.8,206.3,120.8,206.3z"/>
	<path class="st0" d="M151.8,206.3c-0.5,0-0.9-0.4-0.9-0.8v0v-5.2c0-0.5,0.4-0.8,0.9-0.8c0.5,0,0.8,0.4,0.8,0.8v5.2
		C152.6,206,152.3,206.3,151.8,206.3z"/>
	<path class="st0" d="M321.6,206.3H216.3V103.9c0-0.5,0.4-0.9,0.8-0.9c0.5,0,0.9,0.4,0.9,0.8c0,0,0,0,0,0v100.8h103.6
		c0.5,0,0.9,0.4,0.9,0.8C322.5,206,322.1,206.3,321.6,206.3C321.6,206.3,321.6,206.3,321.6,206.3z"/>
	<path class="st0" d="M228.6,206.3c-0.5,0-0.9-0.4-0.9-0.8v0v-5.2c0-0.5,0.4-0.9,0.8-0.9c0.5,0,0.9,0.4,0.9,0.8c0,0,0,0,0,0v5.2
		C229.5,206,229.1,206.3,228.6,206.3z"/>
	<path class="st0" d="M321.6,206.3c-0.5,0-0.9-0.4-0.9-0.8v0v-5.2c0-0.5,0.4-0.9,0.9-0.9s0.9,0.4,0.9,0.9v5.2
		C322.5,206,322.1,206.3,321.6,206.3L321.6,206.3z"/>
	<path class="st0" d="M259.6,206.3c-0.5,0-0.9-0.4-0.9-0.8v0v-5.2c0-0.5,0.4-0.9,0.9-0.9s0.9,0.4,0.9,0.9v5.2
		C260.5,206,260.1,206.3,259.6,206.3L259.6,206.3z"/>
	<path class="st0" d="M290.6,206.3c-0.5,0-0.9-0.4-0.9-0.8v0v-5.2c0-0.5,0.4-0.9,0.9-0.9s0.9,0.4,0.9,0.9v5.2
		C291.5,206,291.1,206.3,290.6,206.3L290.6,206.3z"/>
	<path class="st1" d="M181.2,187.4c-0.1,0-0.3,0-0.4-0.1l-91.2-47.1c-0.4-0.2-0.6-0.7-0.4-1.1c0.2-0.4,0.7-0.6,1.1-0.4c0,0,0,0,0,0
		l91.2,47.1c0.4,0.2,0.6,0.7,0.4,1.1C181.8,187.2,181.5,187.4,181.2,187.4L181.2,187.4z"/>
	<path class="st1" d="M171.2,190.9c-0.5,0-0.9-0.4-0.9-0.8c0-0.4,0.3-0.8,0.7-0.9l10.2-2.6l-2.6-10.2c-0.1-0.5,0.2-0.9,0.6-1
		c0.5-0.1,0.9,0.2,1,0.6l2.8,11c0.1,0.4-0.2,0.9-0.6,1l-11,2.8L171.2,190.9z"/>
	<path class="st1" d="M228.3,190.9c-0.5,0-0.9-0.4-0.9-0.8c0-0.3,0.2-0.6,0.5-0.8l91.4-47.2c0.4-0.2,0.9,0,1.1,0.4
		c0.2,0.4,0.1,0.9-0.3,1.1c0,0,0,0,0,0l-91.4,47.2C228.6,190.9,228.4,190.9,228.3,190.9z"/>
	<path class="st1" d="M318,154h-0.2c-0.4-0.1-0.7-0.6-0.6-1l2.5-10.2l-10.2-2.6c-0.4-0.1-0.7-0.6-0.6-1c0.1-0.4,0.6-0.7,1-0.6
		l11,2.8c0.2,0.1,0.4,0.2,0.5,0.4c0.1,0.2,0.1,0.4,0.1,0.6l-2.8,11C318.7,153.7,318.4,154,318,154z"/>
</g>
<g id="islenska">
	<g class="st2">
		<path class="st0" d="M89.7,112.9v-7.6h1.6v3.4h0.1l2.7-3.4h1.9l-2.8,3.4l2.9,4.2h-1.9l-2.1-3.1l-0.8,1v2.2H89.7z"/>
	</g>
	<g class="st2">
		<path class="st0" d="M99.1,113.1c-0.6,0-1.1-0.1-1.5-0.4c-0.4-0.2-0.7-0.6-1-1c-0.2-0.4-0.3-1-0.3-1.5c0-0.6,0.1-1.1,0.3-1.6
			c0.2-0.4,0.6-0.8,1-1s0.9-0.4,1.5-0.4s1.1,0.1,1.5,0.4c0.4,0.2,0.7,0.6,1,1c0.2,0.4,0.3,1,0.3,1.6c0,0.6-0.1,1.1-0.3,1.5
			c-0.2,0.4-0.6,0.8-1,1C100.2,112.9,99.7,113.1,99.1,113.1z M99.1,111.8c0.4,0,0.7-0.2,0.9-0.5s0.3-0.7,0.3-1.2s-0.1-0.9-0.3-1.2
			c-0.2-0.3-0.5-0.5-0.9-0.5c-0.4,0-0.7,0.2-0.9,0.5c-0.2,0.3-0.3,0.7-0.3,1.2s0.1,0.9,0.3,1.2C98.4,111.7,98.7,111.8,99.1,111.8z"
			/>
		<path class="st0" d="M104.5,105.3v7.6h-1.6v-7.6H104.5z"/>
		<path class="st0" d="M108.4,113.1c-0.6,0-1.1-0.1-1.5-0.4c-0.4-0.2-0.8-0.6-1-1c-0.2-0.4-0.3-1-0.3-1.6c0-0.6,0.1-1.1,0.3-1.6
			c0.2-0.4,0.6-0.8,1-1c0.4-0.2,0.9-0.4,1.5-0.4c0.5,0,1,0.1,1.4,0.3c0.4,0.2,0.7,0.5,1,1s0.4,1,0.4,1.6v0.4h-3.9v0
			c0,0.4,0.1,0.8,0.4,1c0.2,0.2,0.5,0.4,0.9,0.4c0.3,0,0.5-0.1,0.7-0.2c0.2-0.1,0.3-0.3,0.4-0.5l1.5,0.1c-0.1,0.5-0.4,1-0.9,1.3
			C109.7,112.9,109.1,113.1,108.4,113.1z M107.1,109.5h2.4c0-0.3-0.1-0.6-0.3-0.8c-0.2-0.2-0.5-0.3-0.8-0.3c-0.4,0-0.6,0.1-0.9,0.3
			C107.3,108.9,107.1,109.2,107.1,109.5z"/>
		<path class="st0" d="M115.2,107.2v1.2h-1.1v4.5h-1.6v-4.5h-0.8v-1.2h0.8v-0.4c0-0.6,0.2-1.1,0.5-1.4c0.4-0.3,0.8-0.5,1.3-0.5
			c0.2,0,0.5,0,0.7,0.1s0.4,0.1,0.5,0.1l-0.3,1.2c-0.1,0-0.1,0-0.2-0.1c-0.1,0-0.2,0-0.3,0c-0.2,0-0.4,0.1-0.5,0.2s-0.1,0.3-0.1,0.5
			v0.4H115.2z"/>
		<path class="st0" d="M117.7,109.6v3.3h-1.6v-5.7h1.5v1h0.1c0.1-0.3,0.3-0.6,0.6-0.8c0.3-0.2,0.7-0.3,1.1-0.3
			c0.6,0,1.1,0.2,1.4,0.6s0.5,0.9,0.5,1.6v3.6h-1.6v-3.4c0-0.4-0.1-0.6-0.3-0.8c-0.2-0.2-0.4-0.3-0.7-0.3c-0.3,0-0.6,0.1-0.8,0.3
			C117.9,109,117.8,109.3,117.7,109.6z"/>
		<path class="st0" d="M123.5,106.5c-0.2,0-0.4-0.1-0.6-0.2c-0.2-0.2-0.3-0.3-0.3-0.6c0-0.2,0.1-0.4,0.3-0.6
			c0.2-0.2,0.4-0.2,0.6-0.2c0.2,0,0.4,0.1,0.6,0.2c0.2,0.2,0.3,0.3,0.3,0.6c0,0.2-0.1,0.4-0.3,0.6
			C123.9,106.4,123.7,106.5,123.5,106.5z M122.7,112.9v-5.7h1.6v5.7H122.7z"/>
		<path class="st0" d="M130.3,108.8l-1.5,0.1c0-0.2-0.1-0.3-0.3-0.5s-0.4-0.2-0.7-0.2c-0.2,0-0.5,0.1-0.6,0.2
			c-0.2,0.1-0.3,0.2-0.3,0.4c0,0.1,0.1,0.3,0.2,0.3c0.1,0.1,0.3,0.2,0.6,0.2l1,0.2c1.1,0.2,1.7,0.7,1.7,1.6c0,0.4-0.1,0.7-0.3,1
			c-0.2,0.3-0.5,0.5-0.9,0.7s-0.8,0.2-1.3,0.2c-0.8,0-1.4-0.2-1.8-0.5c-0.4-0.3-0.7-0.7-0.8-1.3l1.6-0.1c0,0.2,0.2,0.4,0.3,0.5
			s0.4,0.2,0.7,0.2c0.3,0,0.5-0.1,0.7-0.2c0.2-0.1,0.3-0.2,0.3-0.4c0-0.3-0.3-0.5-0.7-0.6l-1-0.2c-1.1-0.2-1.7-0.8-1.7-1.6
			c0-0.6,0.2-1,0.7-1.3c0.4-0.3,1-0.5,1.8-0.5c0.7,0,1.3,0.2,1.7,0.5C130,107.9,130.2,108.3,130.3,108.8z"/>
		<path class="st0" d="M136.2,108.8l-1.5,0.1c0-0.2-0.1-0.3-0.3-0.5s-0.4-0.2-0.7-0.2c-0.2,0-0.5,0.1-0.6,0.2
			c-0.2,0.1-0.3,0.2-0.3,0.4c0,0.1,0.1,0.3,0.2,0.3c0.1,0.1,0.3,0.2,0.6,0.2l1,0.2c1.1,0.2,1.7,0.7,1.7,1.6c0,0.4-0.1,0.7-0.3,1
			c-0.2,0.3-0.5,0.5-0.9,0.7s-0.8,0.2-1.3,0.2c-0.8,0-1.4-0.2-1.8-0.5c-0.4-0.3-0.7-0.7-0.8-1.3l1.6-0.1c0,0.2,0.2,0.4,0.3,0.5
			s0.4,0.2,0.7,0.2c0.3,0,0.5-0.1,0.7-0.2c0.2-0.1,0.3-0.2,0.3-0.4c0-0.3-0.3-0.5-0.7-0.6l-1-0.2c-1.1-0.2-1.7-0.8-1.7-1.6
			c0-0.6,0.2-1,0.7-1.3c0.4-0.3,1-0.5,1.8-0.5c0.7,0,1.3,0.2,1.7,0.5C135.9,107.9,136.1,108.3,136.2,108.8z"/>
		<path class="st0" d="M137.3,115.1v-7.9h1.6v1h0.1c0.1-0.2,0.2-0.3,0.3-0.5c0.1-0.2,0.3-0.3,0.5-0.4s0.5-0.2,0.8-0.2
			c0.4,0,0.8,0.1,1.2,0.3s0.6,0.5,0.8,1c0.2,0.4,0.3,1,0.3,1.6c0,0.6-0.1,1.2-0.3,1.6c-0.2,0.4-0.5,0.8-0.8,1s-0.7,0.3-1.2,0.3
			c-0.3,0-0.6-0.1-0.8-0.2c-0.2-0.1-0.4-0.2-0.5-0.4c-0.1-0.2-0.2-0.3-0.3-0.5h0v3.1H137.3z M138.9,110.1c0,0.5,0.1,0.9,0.3,1.2
			s0.5,0.5,0.9,0.5c0.4,0,0.7-0.2,0.9-0.5c0.2-0.3,0.3-0.7,0.3-1.2c0-0.5-0.1-0.9-0.3-1.2s-0.5-0.5-0.9-0.5c-0.4,0-0.7,0.2-0.9,0.5
			S138.9,109.6,138.9,110.1z"/>
		<path class="st0" d="M146.6,113.1c-0.6,0-1.1-0.1-1.5-0.4c-0.4-0.2-0.7-0.6-1-1c-0.2-0.4-0.3-1-0.3-1.5c0-0.6,0.1-1.1,0.3-1.6
			c0.2-0.4,0.6-0.8,1-1s0.9-0.4,1.5-0.4s1.1,0.1,1.5,0.4c0.4,0.2,0.7,0.6,1,1c0.2,0.4,0.3,1,0.3,1.6c0,0.6-0.1,1.1-0.3,1.5
			c-0.2,0.4-0.6,0.8-1,1C147.7,112.9,147.1,113.1,146.6,113.1z M146.6,111.8c0.4,0,0.7-0.2,0.9-0.5s0.3-0.7,0.3-1.2
			s-0.1-0.9-0.3-1.2c-0.2-0.3-0.5-0.5-0.9-0.5c-0.4,0-0.7,0.2-0.9,0.5c-0.2,0.3-0.3,0.7-0.3,1.2s0.1,0.9,0.3,1.2
			C145.9,111.7,146.2,111.8,146.6,111.8z"/>
		<path class="st0" d="M150.4,112.9v-5.7h1.5v1h0.1c0.1-0.4,0.3-0.6,0.5-0.8s0.5-0.3,0.9-0.3c0.2,0,0.3,0,0.4,0.1
			c0.1,0,0.2,0.1,0.4,0.2l-0.5,1.3c-0.1,0-0.2-0.1-0.2-0.1c-0.1,0-0.2,0-0.3,0c-0.3,0-0.6,0.1-0.8,0.3c-0.2,0.2-0.3,0.5-0.3,0.9v3.2
			H150.4z"/>
	</g>
	<g class="st2">
		<path class="st0" d="M234.9,105.3v7.6h-1.4l-3.3-4.8h-0.1v4.8h-1.6v-7.6h1.4l3.3,4.8h0.1v-4.8H234.9z"/>
		<path class="st0" d="M237.1,115.2c-0.2,0-0.4,0-0.6-0.1c-0.2,0-0.3-0.1-0.4-0.1l0.4-1.2c0.3,0.1,0.5,0.1,0.7,0.1
			c0.2,0,0.3-0.2,0.5-0.5l0.1-0.3l-2.1-5.9h1.7l1.2,4.2h0.1l1.2-4.2h1.7l-2.2,6.4c-0.2,0.5-0.4,0.8-0.8,1.1S237.7,115.2,237.1,115.2
			z M238.1,106.5l0.8-1.7h1.5l-1.1,1.7H238.1z"/>
		<path class="st0" d="M245.4,107.2v1.2h-1.1v2.8c0,0.2,0,0.4,0.1,0.4s0.2,0.1,0.4,0.1c0.1,0,0.1,0,0.2,0c0.1,0,0.1,0,0.2,0l0.2,1.2
			c-0.1,0-0.2,0.1-0.3,0.1c-0.1,0-0.3,0.1-0.5,0.1c-0.6,0-1-0.1-1.4-0.4c-0.3-0.3-0.5-0.7-0.5-1.3v-3H242v-1.2h0.8v-1.4h1.6v1.4
			H245.4z"/>
		<path class="st0" d="M248,109.6v3.3h-1.6v-5.7h1.5v1h0.1c0.1-0.3,0.3-0.6,0.6-0.8c0.3-0.2,0.7-0.3,1.1-0.3c0.6,0,1.1,0.2,1.4,0.6
			s0.5,0.9,0.5,1.6v3.6h-1.6v-3.4c0-0.4-0.1-0.6-0.3-0.8c-0.2-0.2-0.4-0.3-0.7-0.3c-0.3,0-0.6,0.1-0.8,0.3S248,109.3,248,109.6z"/>
		<path class="st0" d="M253.8,106.5c-0.2,0-0.4-0.1-0.6-0.2c-0.2-0.2-0.3-0.3-0.3-0.6c0-0.2,0.1-0.4,0.3-0.6
			c0.2-0.2,0.4-0.2,0.6-0.2c0.2,0,0.4,0.1,0.6,0.2c0.2,0.2,0.3,0.3,0.3,0.6c0,0.2-0.1,0.4-0.3,0.6
			C254.2,106.4,254,106.5,253.8,106.5z M253,112.9v-5.7h1.6v5.7H253z"/>
	</g>
</g>
</svg>
