<?xml version="1.0" encoding="utf-8"?>
<!-- Generator: Adobe Illustrator 23.0.6, SVG Export Plug-In . SVG Version: 6.00 Build 0)  -->
<svg version="1.1" id="Layer_1" xmlns="http://www.w3.org/2000/svg" xmlns:xlink="http://www.w3.org/1999/xlink" x="0px" y="0px"
	 viewBox="0 0 400 332" style="enable-background:new 0 0 400 332;" xml:space="preserve">
<style type="text/css">
	.st0{fill:#4AA052;}
	.st1{fill:none;stroke:#333333;stroke-width:1.7;stroke-linecap:round;stroke-linejoin:round;}
	.st2{fill:none;stroke:#4AA052;stroke-linecap:round;stroke-linejoin:round;}
	.st3{enable-background:new    ;}
	.st4{fill:#333333;}
</style>
<title>gefn-mynd-03-is-04</title>
<g id="teikningar">
	<path class="st0" d="M248.9,25.8L200.7,2.4c-1.1-0.5-2.4-0.5-3.5,0L149,25.8c-1.4,0.7-2.3,2.1-2.3,3.6v55.5c0,1.5,0.9,2.9,2.3,3.6
		l48.2,23.5c0.5,0.3,1.2,0.4,1.8,0.4l0,0c0.6,0,1.2-0.1,1.8-0.4l48.2-23.4c1.4-0.7,2.3-2.1,2.3-3.6V29.4
		C251.2,27.9,250.3,26.5,248.9,25.8z M199.9,10.9l38.9,18.9c0.4,0.2,0.6,0.6,0.4,1c-0.1,0.2-0.2,0.3-0.4,0.4l-38.9,18.9
		c-0.6,0.3-1.3,0.3-1.9,0l-38.9-18.9c-0.4-0.2-0.6-0.6-0.4-1c0.1-0.2,0.2-0.3,0.4-0.4L198,10.9C198.6,10.6,199.3,10.6,199.9,10.9z
		 M155.9,34.2l39.8,19.4c0.8,0.4,1.2,1.2,1.2,2v46.2c0,0.4-0.3,0.8-0.8,0.8c-0.1,0-0.2,0-0.4-0.1L156,83c-0.8-0.4-1.2-1.2-1.2-2
		V34.9c0-0.4,0.4-0.8,0.8-0.8C155.7,34.1,155.8,34.1,155.9,34.2z M201,101.7V55.5c0-0.8,0.5-1.6,1.2-2L242,34.2
		c0.4-0.2,0.9,0,1.1,0.4c0.1,0.1,0.1,0.2,0.1,0.3v46.2c0,0.8-0.5,1.6-1.2,2l-39.8,19.3c-0.4,0.2-0.9,0-1-0.4
		C201,101.9,201,101.8,201,101.7z"/>
	<line class="st1" x1="199" y1="135.3" x2="199" y2="168.4"/>
	<polyline class="st1" points="205.2,162.1 199,168.4 192.7,162.1 	"/>
	<path class="st0" d="M105.5,230.3c-0.1,0-0.3,0-0.4-0.1l-14.3-8.4l-13.6,8c-0.4,0.2-0.9,0.1-1.2-0.3c-0.2-0.4-0.1-0.9,0.3-1.2l0,0
		l14-8.2c0.3-0.2,0.6-0.2,0.9,0l14.7,8.6c0.4,0.2,0.5,0.8,0.3,1.2C106,230.2,105.7,230.3,105.5,230.3L105.5,230.3z"/>
	<path class="st0" d="M105.5,230.3c-0.3,0-0.6-0.2-0.7-0.4c-0.2-0.4-0.1-0.9,0.3-1.2c0,0,0,0,0,0l14.7-8.6c0.3-0.2,0.6-0.2,0.9,0
		l10.2,6c0.4,0.2,0.5,0.8,0.3,1.2c-0.2,0.4-0.8,0.5-1.2,0.3l-9.8-5.8l-14.3,8.4C105.8,230.2,105.6,230.3,105.5,230.3z"/>
	<path class="st0" d="M164.4,230.3c-0.2,0-0.3,0-0.4-0.1l-14.3-8.4l-9.4,5.5c-0.4,0.2-0.9,0.1-1.2-0.3c-0.2-0.4-0.1-0.9,0.3-1.2l0,0
		l9.9-5.8c0.3-0.2,0.6-0.2,0.9,0l14.7,8.6c0.4,0.2,0.5,0.8,0.3,1.2C165,230.1,164.7,230.3,164.4,230.3L164.4,230.3z"/>
	<path class="st0" d="M164.4,230.3c-0.5,0-0.8-0.4-0.8-0.9c0-0.3,0.2-0.6,0.4-0.7l13.7-8c0.4-0.2,0.9-0.1,1.2,0.3
		c0.2,0.4,0.1,0.9-0.3,1.2l-13.7,8C164.7,230.3,164.6,230.3,164.4,230.3z"/>
	<path class="st0" d="M86.6,238.1h-3.2c-0.5,0-0.8-0.4-0.8-0.9l0,0v-25.2c0-0.5,0.4-0.9,0.8-0.9c0,0,0,0,0,0h3.2
		c0.5,0,0.9,0.4,0.9,0.8c0,0.5-0.4,0.9-0.8,0.9c0,0,0,0,0,0h-2.3v23.5h2.3c0.5,0,0.9,0.4,0.9,0.8C87.4,237.7,87.1,238.1,86.6,238.1
		C86.6,238.1,86.6,238.1,86.6,238.1z"/>
	<path class="st0" d="M113.5,238.1h-3.2c-0.5,0-0.9-0.4-0.9-0.8c0-0.5,0.4-0.9,0.8-0.9c0,0,0,0,0,0h2.3v-23.5h-2.3
		c-0.5,0-0.8-0.4-0.8-0.9c0-0.5,0.4-0.8,0.8-0.8h3.2c0.5,0,0.8,0.4,0.8,0.9l0,0v25.2C114.3,237.7,113.9,238.1,113.5,238.1z"/>
	<path class="st0" d="M145.3,238.1h-3.2c-0.5,0-0.9-0.4-0.9-0.8v0v-25.2c0-0.5,0.4-0.9,0.8-0.9h0h3.2c0.5,0,0.8,0.4,0.8,0.9
		c0,0.5-0.4,0.8-0.8,0.8H143v23.5h2.3c0.5,0,0.8,0.4,0.8,0.9C146.2,237.7,145.8,238.1,145.3,238.1L145.3,238.1z"/>
	<path class="st0" d="M172.2,238.1H169c-0.5,0-0.8-0.4-0.8-0.9c0-0.5,0.4-0.8,0.8-0.8h2.3v-23.5H169c-0.5,0-0.8-0.4-0.8-0.9
		c0-0.5,0.4-0.8,0.8-0.8h3.2c0.5,0,0.9,0.4,0.9,0.8v0v25.2C173,237.7,172.7,238.1,172.2,238.1z"/>
	<path class="st0" d="M89,192.7h2.6c0.4,0,0.7,0,1.1,0.2c0.3,0.1,0.5,0.2,0.7,0.4c0.3,0.3,0.5,0.8,0.5,1.3l0,0
		c0,0.4-0.1,0.7-0.3,1.1c-0.2,0.3-0.5,0.5-0.8,0.6l1.2,1.9h-1.7l-1.1-1.7h-0.7v1.7H89V192.7z M91.5,195.3c0.2,0,0.4-0.1,0.6-0.2
		c0.1-0.1,0.2-0.3,0.2-0.5l0,0c0-0.2-0.1-0.4-0.2-0.5c-0.2-0.1-0.4-0.2-0.6-0.2h-1v1.3L91.5,195.3z"/>
	<path class="st0" d="M116.6,236.6h1.3l-0.1,0.4c0.1-0.1,0.3-0.2,0.4-0.3c0.2-0.1,0.4-0.1,0.6-0.1c0.2,0,0.4,0.1,0.6,0.2
		c0.2,0.1,0.3,0.3,0.3,0.4c0.2-0.2,0.4-0.3,0.6-0.5c0.2-0.1,0.5-0.2,0.7-0.2c0.3,0,0.6,0.1,0.8,0.3c0.2,0.2,0.3,0.5,0.3,0.8
		c0,0.1,0,0.2,0,0.3c0,0.1,0,0.2-0.1,0.3l-0.5,1.9h-1.2l0.5-1.9c0-0.1,0-0.1,0-0.2c0,0,0-0.1,0-0.1c0-0.1,0-0.2-0.1-0.3
		c-0.1-0.1-0.2-0.1-0.3-0.1c-0.2,0-0.3,0.1-0.4,0.2c-0.1,0.1-0.2,0.3-0.2,0.5l-0.5,1.9h-1.2l0.5-1.9v-0.2c0,0,0-0.1,0-0.1
		c0-0.1,0-0.2-0.1-0.3c-0.1-0.1-0.2-0.1-0.3-0.1c-0.2,0-0.3,0.1-0.4,0.2c-0.1,0.1-0.2,0.3-0.2,0.5l-0.5,1.9h-1.2L116.6,236.6z"/>
	<path class="st0" d="M175.2,236.6h1.2l-0.1,0.4c0.1-0.1,0.3-0.2,0.4-0.3c0.2-0.1,0.4-0.2,0.6-0.1c0.3,0,0.6,0.1,0.8,0.3
		c0.2,0.2,0.3,0.5,0.3,0.8c0,0.1,0,0.2,0,0.3c0,0.1,0,0.2-0.1,0.3l-0.5,1.9h-1.3l0.5-1.9c0-0.1,0-0.1,0-0.2c0,0,0-0.1,0-0.1
		c0-0.1,0-0.2-0.1-0.3c-0.1-0.1-0.2-0.1-0.3-0.1c-0.2,0-0.3,0.1-0.4,0.2c-0.1,0.1-0.2,0.3-0.2,0.5l-0.5,1.9h-1.3L175.2,236.6z"/>
	<path class="st0" d="M120,198.3c-0.4,0-0.8-0.1-1.2-0.2c-0.3-0.1-0.7-0.4-0.9-0.6c-0.3-0.3-0.5-0.6-0.6-0.9
		c-0.1-0.4-0.2-0.7-0.2-1.1l0,0c0-0.4,0.1-0.8,0.2-1.1c0.1-0.3,0.4-0.7,0.6-0.9c0.3-0.3,0.6-0.5,0.9-0.6c1.1-0.5,2.4-0.2,3.3,0.6
		c0.5,0.5,0.8,1.2,0.8,2l0,0c0,0.4-0.1,0.8-0.2,1.1c-0.1,0.3-0.4,0.7-0.6,0.9c-0.3,0.3-0.6,0.5-0.9,0.6
		C120.8,198.2,120.4,198.3,120,198.3z M120,196.9c0.4,0,0.7-0.2,1-0.4c0.1-0.1,0.2-0.3,0.3-0.5c0.1-0.2,0.1-0.4,0.1-0.6l0,0
		c0-0.2,0-0.4-0.1-0.6c-0.1-0.2-0.2-0.3-0.3-0.5c-0.1-0.1-0.3-0.2-0.4-0.3c-0.2-0.1-0.4-0.1-0.6-0.1c-0.2,0-0.4,0-0.6,0.1
		c-0.2,0.1-0.3,0.2-0.4,0.3c-0.1,0.1-0.2,0.3-0.3,0.5c-0.1,0.2-0.1,0.4-0.1,0.6l0,0c0,0.2,0,0.4,0.1,0.6c0.1,0.2,0.2,0.3,0.3,0.5
		c0.1,0.1,0.3,0.2,0.4,0.3C119.6,196.9,119.8,196.9,120,196.9L120,196.9z"/>
	<path class="st0" d="M135.3,231.6c-0.8,0-1.5-0.3-2.1-0.8c-0.5-0.5-0.8-1.2-0.8-2l0,0c0-0.4,0.1-0.8,0.2-1.1
		c0.1-0.3,0.4-0.7,0.6-0.9c0.3-0.3,0.6-0.5,0.9-0.6c0.8-0.3,1.6-0.3,2.4,0c0.3,0.1,0.7,0.3,0.9,0.6c0.3,0.3,0.5,0.6,0.6,0.9
		c0.1,0.4,0.2,0.7,0.2,1.1l0,0c0,0.4-0.1,0.8-0.2,1.1c-0.1,0.3-0.4,0.7-0.6,0.9c-0.3,0.3-0.6,0.5-0.9,0.6
		C136.1,231.6,135.7,231.6,135.3,231.6z M135.3,230.3c0.2,0,0.4,0,0.6-0.1c0.2-0.1,0.3-0.2,0.4-0.3c0.1-0.1,0.2-0.3,0.3-0.5
		c0.1-0.2,0.1-0.4,0.1-0.6l0,0c0-0.2,0-0.4-0.1-0.6c-0.1-0.2-0.2-0.3-0.3-0.5c-0.1-0.1-0.3-0.2-0.4-0.3c-0.4-0.2-0.8-0.2-1.1,0
		c-0.2,0.1-0.3,0.2-0.4,0.3c-0.1,0.1-0.2,0.3-0.3,0.5c-0.1,0.2-0.1,0.4-0.1,0.6l0,0c0,0.2,0,0.4,0.1,0.6c0.1,0.2,0.2,0.3,0.3,0.5
		c0.1,0.1,0.3,0.2,0.4,0.3C134.9,230.2,135.1,230.3,135.3,230.3L135.3,230.3z"/>
	<path class="st0" d="M118.7,222.3c-0.5,0-0.8-0.4-0.8-0.9l0,0v-19.2c0-0.5,0.4-0.9,0.8-0.9c0.5,0,0.9,0.4,0.9,0.8c0,0,0,0,0,0v19.2
		C119.5,221.9,119.2,222.3,118.7,222.3z"/>
	<path class="st0" d="M121.8,222.3c-0.5,0-0.8-0.4-0.8-0.9l0,0v-19.2c0-0.5,0.4-0.9,0.8-0.9c0.5,0,0.9,0.4,0.9,0.8c0,0,0,0,0,0v19.2
		C122.6,221.9,122.3,222.3,121.8,222.3z"/>
	<path class="st0" d="M104,251.1h2.6c0.4,0,0.7,0,1.1,0.2c0.3,0.1,0.5,0.2,0.7,0.4c0.3,0.3,0.5,0.8,0.5,1.3l0,0
		c0,0.4-0.1,0.7-0.3,1.1c-0.2,0.3-0.5,0.5-0.8,0.6l1.3,1.9h-1.8l-1.1-1.7h-0.7v1.7H104V251.1z M106.5,253.7c0.2,0,0.4,0,0.6-0.2
		c0.1-0.1,0.2-0.3,0.2-0.5l0,0c0-0.2-0.1-0.4-0.2-0.5c-0.2-0.1-0.4-0.2-0.6-0.2h-1v1.3L106.5,253.7z"/>
	<path class="st0" d="M109.8,252c-0.3,0-0.5-0.2-0.5-0.5v-1.2c0-0.3,0.2-0.5,0.5-0.5s0.5,0.2,0.5,0.5v1.2
		C110.3,251.8,110.1,252,109.8,252z"/>
	<path class="st0" d="M162.2,251.1h2.6c0.4,0,0.7,0,1.1,0.2c0.3,0.1,0.5,0.2,0.7,0.4c0.3,0.3,0.5,0.8,0.5,1.3l0,0
		c0,0.4-0.1,0.7-0.3,1.1c-0.2,0.3-0.5,0.5-0.8,0.6l1.3,1.9h-1.8l-1.1-1.7h-0.7v1.7h-1.5V251.1z M164.7,253.7c0.2,0,0.4,0,0.6-0.2
		c0.1-0.1,0.2-0.3,0.2-0.5l0,0c0-0.2-0.1-0.4-0.2-0.5c-0.2-0.1-0.4-0.2-0.6-0.2h-1v1.3L164.7,253.7z"/>
	<path class="st0" d="M168.1,252c-0.3,0-0.5-0.2-0.5-0.5v-1.2c0-0.3,0.2-0.5,0.5-0.5s0.5,0.2,0.5,0.5v1.2
		C168.6,251.8,168.4,252,168.1,252z"/>
	<path class="st0" d="M169.8,252c-0.3,0-0.5-0.2-0.5-0.5v-1.2c0-0.3,0.2-0.5,0.5-0.5s0.5,0.2,0.5,0.5v1.2
		C170.3,251.8,170.1,252,169.8,252z"/>
	<path class="st0" d="M171.5,252c-0.3,0-0.5-0.2-0.5-0.5v-1.2c0-0.3,0.2-0.5,0.5-0.5s0.5,0.2,0.5,0.5v1.2
		C172,251.8,171.8,252,171.5,252z"/>
	<path class="st0" d="M105.4,226.5c-0.1,0-0.2,0-0.3-0.1l-1.3-0.8c-0.2-0.1-0.3-0.5-0.2-0.7c0.1-0.2,0.5-0.3,0.7-0.2l1.3,0.8
		c0.2,0.1,0.3,0.5,0.2,0.7C105.7,226.4,105.6,226.5,105.4,226.5z M101.6,224.2c-0.1,0-0.2,0-0.3-0.1l-1.3-0.8
		c-0.2-0.1-0.3-0.4-0.2-0.7c0,0,0,0,0,0c0.1-0.2,0.4-0.3,0.7-0.2l1.3,0.8c0.2,0.1,0.3,0.5,0.1,0.7
		C101.9,224.1,101.8,224.2,101.6,224.2L101.6,224.2z M97.9,221.9c-0.1,0-0.2,0-0.3-0.1l-1.3-0.8c-0.2-0.1-0.3-0.4-0.2-0.7
		c0,0,0,0,0,0c0.1-0.2,0.4-0.3,0.7-0.2c0,0,0,0,0,0l1.3,0.8c0.2,0.1,0.3,0.4,0.2,0.7c0,0,0,0,0,0C98.2,221.8,98,221.9,97.9,221.9z
		 M94.1,219.6c-0.1,0-0.2,0-0.3-0.1l-1.3-0.8c-0.2-0.1-0.3-0.5-0.2-0.7c0.1-0.2,0.5-0.3,0.7-0.2l1.3,0.8c0.2,0.1,0.3,0.5,0.1,0.7
		C94.4,219.6,94.3,219.6,94.1,219.6L94.1,219.6z"/>
	<path class="st0" d="M147.4,193.4h2.6c0.4,0,0.7,0,1.1,0.2c0.3,0.1,0.5,0.2,0.7,0.4c0.3,0.3,0.5,0.8,0.5,1.3l0,0
		c0,0.4-0.1,0.7-0.3,1.1c-0.2,0.3-0.5,0.5-0.8,0.6l1.3,1.9h-1.8l-1.1-1.7h-0.7v1.7h-1.5L147.4,193.4z M149.9,196.1
		c0.2,0,0.4,0,0.6-0.2c0.1-0.1,0.2-0.3,0.2-0.5l0,0c0-0.2-0.1-0.4-0.2-0.5c-0.2-0.1-0.4-0.2-0.6-0.2h-1v1.3L149.9,196.1z"/>
	<line class="st2" x1="153.2" y1="192.5" x2="153.2" y2="193.7"/>
	<line class="st2" x1="154.8" y1="192.5" x2="154.8" y2="193.7"/>
	<path class="st0" d="M206.2,238.2H204c-0.5,0-0.9-0.4-0.9-0.8v0v-25.2c0-0.5,0.4-0.9,0.8-0.9h0h2.1c0.5,0,0.8,0.4,0.8,0.9
		c0,0.5-0.4,0.8-0.8,0.8h-1.3v23.5h1.3c0.5,0,0.8,0.4,0.8,0.9C207,237.8,206.6,238.2,206.2,238.2L206.2,238.2z"/>
	<path class="st0" d="M234.3,238.2h-2.1c-0.5,0-0.8-0.4-0.8-0.9c0-0.5,0.4-0.8,0.8-0.8h1.3V213h-1.3c-0.5,0-0.8-0.4-0.8-0.9
		c0-0.5,0.4-0.8,0.8-0.8h2.1c0.5,0,0.9,0.4,0.9,0.8v0v25.2C235.1,237.8,234.8,238.2,234.3,238.2
		C234.3,238.2,234.3,238.2,234.3,238.2z"/>
	<path class="st0" d="M280.9,238.2h-2.1c-0.5,0-0.9-0.4-0.9-0.8v0v-25.2c0-0.5,0.4-0.9,0.9-0.9l0,0h2.1c0.5,0,0.9,0.4,0.9,0.8
		c0,0.5-0.4,0.9-0.8,0.9c0,0,0,0,0,0h-1.3v23.5h1.3c0.5,0,0.8,0.4,0.8,0.9C281.8,237.8,281.4,238.2,280.9,238.2z"/>
	<path class="st0" d="M306.5,238.2h-2.1c-0.5,0-0.9-0.4-0.9-0.8c0-0.5,0.4-0.9,0.8-0.9c0,0,0,0,0,0h1.3V213h-1.3
		c-0.5,0-0.9-0.4-0.9-0.8c0-0.5,0.4-0.9,0.8-0.9c0,0,0,0,0,0h2.1c0.5,0,0.9,0.4,0.9,0.8v0v25.2C307.3,237.8,306.9,238.2,306.5,238.2
		C306.5,238.2,306.5,238.2,306.5,238.2z"/>
	<path class="st0" d="M309.5,236.6h1.2l-0.1,0.4c0.1-0.1,0.3-0.2,0.4-0.3c0.2-0.1,0.4-0.2,0.6-0.1c0.3,0,0.6,0.1,0.8,0.3
		c0.2,0.2,0.3,0.5,0.3,0.8c0,0.1,0,0.2,0,0.3c0,0.1,0,0.2-0.1,0.3l-0.5,1.9h-1.2l0.5-1.9v-0.1c0,0,0-0.1,0-0.1c0-0.1,0-0.2-0.1-0.3
		c-0.1-0.1-0.2-0.1-0.3-0.1c-0.2,0-0.3,0.1-0.4,0.2c-0.1,0.1-0.2,0.3-0.2,0.5l-0.5,1.9h-1.2L309.5,236.6z"/>
	<path class="st0" d="M236.7,236.7h1.2l-0.1,0.4c0.1-0.1,0.3-0.2,0.4-0.3c0.2-0.1,0.4-0.2,0.6-0.1c0.2,0,0.4,0.1,0.6,0.2
		c0.1,0.1,0.3,0.3,0.3,0.4c0.2-0.2,0.4-0.3,0.6-0.4c0.2-0.1,0.5-0.2,0.7-0.2c0.3,0,0.6,0.1,0.8,0.3c0.2,0.2,0.3,0.5,0.3,0.8
		c0,0.1,0,0.2,0,0.3c0,0.1,0,0.2-0.1,0.3l-0.5,1.9h-1.3l0.5-1.9v-0.1c0,0,0-0.1,0-0.1c0-0.2-0.1-0.3-0.3-0.4c0,0-0.1,0-0.1,0
		c-0.2,0-0.3,0.1-0.4,0.2c-0.1,0.1-0.2,0.3-0.2,0.5l-0.5,1.9H238l0.5-1.9v-0.1c0,0,0-0.1,0-0.1c0-0.1,0-0.2-0.1-0.3
		c-0.1-0.1-0.2-0.1-0.3-0.1c-0.2,0-0.3,0.1-0.4,0.2c-0.1,0.1-0.2,0.3-0.2,0.5l-0.5,1.9h-1.3L236.7,236.7z"/>
	<path class="st0" d="M211,249.1c-0.5,0-0.9-0.4-0.9-0.8v0v-18.7c0-0.3,0.2-0.6,0.4-0.7l14.7-8.6c0.3-0.1,0.6-0.1,0.9,0l10.5,6.2
		c0.4,0.2,0.5,0.8,0.3,1.2c-0.2,0.4-0.8,0.5-1.2,0.3l-10.1-5.9l-13.9,8.1v18.2C211.9,248.6,211.5,249,211,249.1
		C211,249.1,211,249.1,211,249.1z"/>
	<path class="st0" d="M241,231.7c-0.4,0-0.8-0.1-1.2-0.2c-0.3-0.1-0.7-0.4-0.9-0.6c-0.3-0.3-0.5-0.6-0.6-0.9
		c-0.1-0.4-0.2-0.7-0.2-1.1l0,0c0-0.4,0.1-0.8,0.2-1.1c0.1-0.3,0.4-0.7,0.6-0.9c0.3-0.3,0.6-0.5,0.9-0.6c1.1-0.5,2.4-0.2,3.3,0.6
		c0.5,0.5,0.8,1.2,0.8,2l0,0c0,0.4-0.1,0.8-0.2,1.1c-0.1,0.3-0.4,0.7-0.6,0.9c-0.3,0.3-0.6,0.5-0.9,0.6
		C241.8,231.6,241.4,231.7,241,231.7z M241,230.4c0.2,0,0.4,0,0.6-0.1c0.2-0.1,0.3-0.2,0.4-0.3c0.1-0.1,0.2-0.3,0.3-0.5
		c0.1-0.2,0.1-0.4,0.1-0.6l0,0c0-0.2,0-0.4-0.1-0.6c-0.1-0.2-0.2-0.3-0.3-0.5c-0.1-0.1-0.3-0.2-0.4-0.3c-0.2-0.1-0.4-0.1-0.6-0.1
		c-0.2,0-0.4,0-0.6,0.1c-0.2,0.1-0.3,0.2-0.4,0.3c-0.1,0.1-0.2,0.3-0.3,0.5c-0.1,0.2-0.1,0.4-0.1,0.6l0,0c0,0.2,0,0.4,0.1,0.6
		c0.1,0.2,0.2,0.3,0.3,0.5c0.1,0.1,0.3,0.2,0.4,0.3C240.6,230.3,240.8,230.4,241,230.4z"/>
	<path class="st0" d="M255.1,199.8c-0.4,0-0.8-0.1-1.2-0.2c-0.3-0.1-0.6-0.3-0.9-0.6c-0.5-0.5-0.8-1.2-0.8-2l0,0
		c0-0.4,0.1-0.8,0.2-1.1c0.1-0.3,0.4-0.7,0.6-0.9c0.3-0.3,0.6-0.5,0.9-0.6c0.8-0.3,1.6-0.3,2.4,0c0.4,0.1,0.7,0.3,0.9,0.6
		c0.3,0.3,0.5,0.6,0.6,0.9c0.1,0.4,0.2,0.7,0.1,1.1l0,0c0,0.4-0.1,0.8-0.2,1.1c-0.1,0.3-0.4,0.7-0.6,0.9c-0.3,0.3-0.6,0.5-0.9,0.6
		C255.8,199.8,255.5,199.8,255.1,199.8z M255.1,198.5c0.2,0,0.4,0,0.6-0.1c0.2-0.1,0.3-0.2,0.4-0.3c0.2-0.3,0.4-0.6,0.4-1l0,0
		c0-0.2,0-0.4-0.1-0.6c-0.1-0.2-0.2-0.3-0.3-0.5c-0.1-0.1-0.3-0.3-0.4-0.3c-0.4-0.2-0.8-0.2-1.1,0c-0.3,0.2-0.6,0.4-0.7,0.8
		c-0.1,0.2-0.1,0.4-0.1,0.6l0,0c0,0.2,0,0.4,0.1,0.6c0.1,0.2,0.2,0.3,0.3,0.5c0.1,0.1,0.3,0.2,0.4,0.3
		C254.7,198.4,254.9,198.5,255.1,198.5L255.1,198.5z"/>
	<path class="st0" d="M299.7,248.8c-0.5,0-0.9-0.4-0.9-0.8v0V230l-13.9-8.1l-9.3,5.5c-0.4,0.2-0.9,0.1-1.2-0.3
		c-0.2-0.4-0.1-0.9,0.3-1.2l9.7-5.7c0.3-0.1,0.6-0.1,0.9,0l14.7,8.6c0.3,0.2,0.4,0.4,0.4,0.7V248
		C300.6,248.4,300.2,248.8,299.7,248.8z"/>
	<path class="st0" d="M266.5,228.2c-0.2,0-0.3,0-0.4-0.1l-10.5-6.2l-9.4,5.5c-0.4,0.2-0.9,0.1-1.2-0.3c-0.2-0.4-0.1-0.9,0.3-1.2
		l9.9-5.8c0.3-0.1,0.6-0.1,0.9,0l11,6.4c0.4,0.2,0.5,0.8,0.3,1.2c0,0,0,0,0,0C267.1,228,266.8,228.2,266.5,228.2z"/>
	<path class="st0" d="M270.9,231.7c-0.4,0-0.8-0.1-1.2-0.2c-0.3-0.1-0.7-0.4-0.9-0.6c-0.3-0.3-0.5-0.6-0.6-0.9
		c-0.1-0.4-0.2-0.7-0.2-1.1l0,0c0-0.4,0.1-0.8,0.2-1.1c0.1-0.3,0.4-0.7,0.6-0.9c0.3-0.3,0.6-0.5,0.9-0.6c0.8-0.3,1.6-0.3,2.4,0
		c0.3,0.1,0.7,0.4,0.9,0.6c0.3,0.3,0.5,0.6,0.6,0.9c0.1,0.4,0.2,0.7,0.2,1.1l0,0c0,0.4-0.1,0.8-0.2,1.1c-0.1,0.3-0.4,0.7-0.6,0.9
		C272.4,231.4,271.7,231.7,270.9,231.7L270.9,231.7z M270.9,230.4c0.2,0,0.4,0,0.6-0.1c0.2-0.1,0.3-0.2,0.4-0.3
		c0.1-0.1,0.2-0.3,0.3-0.5c0.1-0.2,0.1-0.4,0.1-0.6l0,0c0-0.2,0-0.4-0.1-0.6c-0.1-0.2-0.2-0.3-0.3-0.5c-0.1-0.1-0.3-0.2-0.4-0.3
		c-0.2-0.1-0.4-0.1-0.6-0.1c-0.2,0-0.4,0-0.6,0.1c-0.2,0.1-0.3,0.2-0.4,0.3c-0.1,0.1-0.2,0.3-0.3,0.5c-0.1,0.2-0.1,0.4-0.1,0.6l0,0
		c0,0.2,0,0.4,0.1,0.6c0.1,0.2,0.2,0.3,0.3,0.5c0.1,0.1,0.3,0.2,0.4,0.3C270.5,230.3,270.7,230.4,270.9,230.4L270.9,230.4z"/>
	<path class="st0" d="M254,222.4c-0.5,0-0.9-0.4-0.9-0.8v0v-19.2c0-0.5,0.4-0.8,0.9-0.8c0.5,0,0.8,0.4,0.8,0.8v19.2
		C254.8,222,254.5,222.4,254,222.4z"/>
	<path class="st0" d="M257.1,222.4c-0.5,0-0.9-0.4-0.9-0.8v0v-19.2c0-0.5,0.4-0.9,0.9-0.9s0.9,0.4,0.9,0.9v19.2
		C257.9,222,257.5,222.4,257.1,222.4z"/>
	<path class="st0" d="M311.8,216.8h2.6c0.4,0,0.7,0,1.1,0.2c0.3,0.1,0.5,0.2,0.7,0.4c0.3,0.3,0.5,0.8,0.5,1.3l0,0
		c0,0.4-0.1,0.7-0.3,1.1c-0.2,0.3-0.5,0.5-0.8,0.6l1.3,1.9h-1.8l-1.1-1.7h-0.7v1.7h-1.5L311.8,216.8z M314.4,219.4
		c0.2,0,0.4-0.1,0.6-0.2c0.1-0.1,0.2-0.3,0.2-0.5l0,0c0-0.2-0.1-0.4-0.2-0.5c-0.2-0.1-0.4-0.2-0.6-0.2h-1v1.3L314.4,219.4z"/>
	<path class="st0" d="M317.3,216.5c-0.3,0-0.5-0.2-0.5-0.5v-1.2c0-0.3,0.2-0.5,0.5-0.5s0.5,0.2,0.5,0.5v1.2
		C317.9,216.3,317.7,216.5,317.3,216.5C317.4,216.5,317.4,216.5,317.3,216.5z"/>
	<path class="st0" d="M319,216.5c-0.3,0-0.5-0.2-0.5-0.5v-1.2c0-0.3,0.2-0.5,0.5-0.5s0.5,0.2,0.5,0.5v1.2
		C319.5,216.3,319.3,216.5,319,216.5C319,216.5,319,216.5,319,216.5z"/>
	<path class="st0" d="M320.7,216.5c-0.3,0-0.5-0.2-0.5-0.5v-1.2c0-0.3,0.2-0.5,0.5-0.5s0.5,0.2,0.5,0.5v1.2
		C321.2,216.3,321,216.5,320.7,216.5C320.7,216.5,320.7,216.5,320.7,216.5z"/>
	<path class="st0" d="M302.5,227.4c-0.2,0-0.3-0.1-0.4-0.2c-0.1-0.2-0.1-0.5,0.2-0.7c0,0,0,0,0,0l1.3-0.8c0.2-0.1,0.5-0.1,0.7,0.2
		c0,0,0,0,0,0c0.1,0.2,0.1,0.5-0.2,0.7c0,0,0,0,0,0l-1.3,0.8C302.6,227.4,302.6,227.5,302.5,227.4z M305.8,225.4
		c-0.2,0-0.3-0.1-0.4-0.2c-0.1-0.2-0.1-0.5,0.2-0.7l1.3-0.8c0.2-0.2,0.5-0.1,0.7,0.1c0.2,0.2,0.1,0.5-0.1,0.7c0,0-0.1,0.1-0.1,0.1
		l-1.3,0.8C306,225.4,305.9,225.4,305.8,225.4L305.8,225.4z M309.1,223.4c-0.2,0-0.3-0.1-0.4-0.2c-0.1-0.2-0.1-0.5,0.2-0.7
		c0,0,0,0,0,0l1.3-0.8c0.3-0.1,0.5,0,0.7,0.3c0.1,0.2,0,0.4-0.1,0.6l-1.3,0.8C309.3,223.4,309.2,223.4,309.1,223.4L309.1,223.4z"/>
	<path class="st0" d="M207.9,226.9c-0.1,0-0.2,0-0.2-0.1l-1.3-0.8c-0.2-0.1-0.3-0.4-0.2-0.7c0.1-0.2,0.4-0.3,0.7-0.2c0,0,0,0,0,0
		l1.3,0.8c0.2,0.1,0.3,0.4,0.2,0.7c0,0,0,0,0,0C208.3,226.8,208.1,226.9,207.9,226.9z M204.6,224.9c-0.1,0-0.2,0-0.2-0.1l-1.3-0.8
		c-0.2-0.1-0.3-0.5-0.2-0.7s0.5-0.3,0.7-0.2l1.3,0.8c0.2,0.1,0.3,0.4,0.2,0.7c0,0,0,0,0,0C204.9,224.8,204.8,224.9,204.6,224.9
		L204.6,224.9z M201.2,222.9c-0.1,0-0.2,0-0.2-0.1l-1.3-0.8c-0.2-0.1-0.3-0.4-0.2-0.7c0.1-0.2,0.4-0.3,0.7-0.2c0,0,0,0,0,0l1.3,0.8
		c0.2,0.1,0.3,0.4,0.2,0.7c0,0,0,0,0,0C201.6,222.8,201.4,222.9,201.2,222.9L201.2,222.9z"/>
	<path class="st0" d="M223.4,193.5h2.6c0.4,0,0.7,0,1.1,0.2c0.3,0.1,0.5,0.2,0.7,0.4c0.3,0.3,0.5,0.8,0.5,1.3l0,0
		c0,0.4-0.1,0.7-0.3,1.1c-0.2,0.3-0.5,0.5-0.8,0.6l1.3,1.9h-1.8l-1.1-1.7h-0.7v1.7h-1.5L223.4,193.5z M225.9,196.1
		c0.2,0,0.4-0.1,0.6-0.2c0.1-0.1,0.2-0.3,0.2-0.5l0,0c0-0.2-0.1-0.4-0.2-0.5c-0.2-0.1-0.4-0.2-0.6-0.2h-1v1.3L225.9,196.1z"/>
	<path class="st0" d="M229.2,194.3c-0.3,0-0.5-0.2-0.5-0.5v-1.2c0-0.3,0.2-0.5,0.5-0.5c0.3,0,0.5,0.2,0.5,0.5v1.2
		C229.7,194,229.4,194.3,229.2,194.3z"/>
	<path class="st0" d="M283.3,193.5h2.6c0.4,0,0.7,0,1.1,0.2c0.3,0.1,0.5,0.2,0.7,0.4c0.3,0.3,0.5,0.8,0.5,1.3l0,0
		c0,0.4-0.1,0.8-0.3,1.1c-0.2,0.3-0.5,0.5-0.8,0.6l1.3,1.9h-1.8l-1.1-1.7h-0.7v1.7h-1.5L283.3,193.5z M285.8,196.1
		c0.2,0,0.4-0.1,0.6-0.2c0.1-0.1,0.2-0.3,0.2-0.5l0,0c0-0.2-0.1-0.4-0.2-0.5c-0.2-0.1-0.4-0.2-0.6-0.2h-1v1.3L285.8,196.1z"/>
	<path class="st0" d="M288.8,194.3c-0.3,0-0.5-0.2-0.5-0.5v-1.2c0-0.3,0.2-0.5,0.5-0.5s0.5,0.2,0.5,0.5v1.2
		C289.3,194,289.1,194.3,288.8,194.3z"/>
	<path class="st0" d="M290.6,194.3c-0.3,0-0.5-0.2-0.5-0.5v-1.2c0-0.3,0.2-0.5,0.5-0.5c0.3,0,0.5,0.2,0.5,0.5v1.2
		C291.1,194,290.8,194.3,290.6,194.3z"/>
	<path class="st0" d="M193.3,215.8h2.6c0.4,0,0.7,0,1.1,0.2c0.3,0.1,0.5,0.2,0.7,0.4c0.3,0.3,0.5,0.8,0.5,1.3l0,0
		c0,0.4-0.1,0.7-0.3,1.1c-0.2,0.3-0.5,0.5-0.8,0.6l1.3,1.9h-1.8l-1.1-1.7h-0.7v1.7h-1.5L193.3,215.8z M195.8,218.4
		c0.2,0,0.4-0.1,0.6-0.2c0.1-0.1,0.2-0.3,0.2-0.5l0,0c0-0.2-0.1-0.4-0.2-0.5c-0.2-0.1-0.4-0.2-0.6-0.2h-1v1.3L195.8,218.4z"/>
	<path class="st0" d="M256.3,262.3L256.3,262.3h-1.7c-0.3,0-0.5-0.2-0.5-0.5c0-0.3,0.2-0.5,0.5-0.5l0,0h1.7c0.3,0,0.5,0.2,0.5,0.5
		c0,0,0,0,0,0C256.8,262.1,256.5,262.3,256.3,262.3z M259.6,262.3c-0.3,0-0.5-0.2-0.5-0.5s0.2-0.5,0.5-0.5h1.7
		c0.3,0,0.5,0.2,0.5,0.5c0,0.3-0.2,0.5-0.5,0.5c0,0,0,0,0,0H259.6L259.6,262.3z M251.3,262.3L251.3,262.3l-1.7-0.1
		c-0.3,0-0.5-0.2-0.5-0.5c0,0,0,0,0,0c0-0.3,0.2-0.5,0.5-0.5l1.7,0.1c0.3,0,0.5,0.2,0.5,0.5S251.6,262.3,251.3,262.3L251.3,262.3z
		 M264.6,262.2c-0.3,0-0.5-0.2-0.5-0.5s0.2-0.5,0.5-0.5l1.7-0.1c0.3,0,0.5,0.2,0.5,0.5s-0.2,0.5-0.5,0.5L264.6,262.2L264.6,262.2z
		 M246.3,262L246.3,262l-1.7-0.1c-0.3,0-0.5-0.2-0.5-0.5c0,0,0,0,0,0c0-0.3,0.2-0.5,0.5-0.5c0,0,0,0,0,0l1.7,0.1
		c0.3,0,0.5,0.2,0.5,0.5S246.6,262,246.3,262L246.3,262z M269.6,261.9c-0.3,0-0.5-0.2-0.5-0.5s0.2-0.5,0.5-0.5l1.7-0.1
		c0.3,0,0.5,0.2,0.5,0.5c0,0.3-0.2,0.5-0.5,0.5L269.6,261.9L269.6,261.9z M241.3,261.7L241.3,261.7l-1.7-0.1c-0.3,0-0.5-0.3-0.5-0.5
		c0,0,0,0,0,0c0-0.3,0.3-0.5,0.5-0.5l1.7,0.2c0.3,0,0.5,0.2,0.5,0.5S241.6,261.7,241.3,261.7L241.3,261.7z M274.5,261.4
		c-0.3,0-0.5-0.2-0.5-0.5s0.2-0.5,0.5-0.5l1.7-0.2c0.3,0,0.5,0.1,0.6,0.4c0,0,0,0,0,0c0,0.3-0.1,0.5-0.4,0.6c0,0,0,0,0,0
		C275.7,261.2,275.2,261.3,274.5,261.4L274.5,261.4z M236.3,261.2L236.3,261.2l-1.8-0.2c-0.3,0-0.5-0.3-0.4-0.6
		c0-0.3,0.3-0.5,0.6-0.4l1.7,0.2c0.3,0,0.5,0.3,0.5,0.5S236.6,261.2,236.3,261.2L236.3,261.2z M279.5,260.7c-0.3,0-0.5-0.2-0.5-0.5
		c0-0.3,0.2-0.5,0.5-0.5l1.7-0.3c0.3,0,0.5,0.1,0.6,0.4s-0.1,0.5-0.4,0.6C280.7,260.5,280.1,260.6,279.5,260.7L279.5,260.7z
		 M231.4,260.4L231.4,260.4l-1.8-0.3c-0.3-0.1-0.5-0.3-0.4-0.6s0.3-0.5,0.6-0.4l1.7,0.3c0.3,0.1,0.5,0.3,0.4,0.6
		C231.9,260.3,231.6,260.5,231.4,260.4L231.4,260.4z M284.4,259.7c-0.3,0-0.5-0.2-0.6-0.4s0.2-0.5,0.4-0.6c0.6-0.1,1.1-0.3,1.6-0.4
		c0.3-0.1,0.5,0.1,0.6,0.4c0.1,0.3-0.1,0.5-0.3,0.6c0,0,0,0,0,0l-1.7,0.4L284.4,259.7z M226.5,259.4h-0.1l-1.7-0.4
		c-0.3-0.1-0.4-0.3-0.4-0.6c0,0,0,0,0,0c0.1-0.3,0.3-0.4,0.6-0.4l1.6,0.4c0.3,0,0.5,0.3,0.4,0.6S226.8,259.5,226.5,259.4
		L226.5,259.4z M289.2,258.4c-0.2,0-0.4-0.1-0.5-0.3c-0.1-0.3,0.1-0.5,0.3-0.6c0.5-0.2,1.1-0.4,1.6-0.6c0.3-0.1,0.5,0,0.6,0.3
		c0.1,0.3,0,0.5-0.3,0.6c0,0,0,0,0,0c-0.5,0.2-1,0.4-1.6,0.6C289.3,258.4,289.2,258.4,289.2,258.4L289.2,258.4z M221.7,258.1h-0.2
		c-0.6-0.2-1.1-0.4-1.6-0.6c-0.3-0.1-0.4-0.4-0.3-0.6s0.4-0.4,0.6-0.3c0,0,0,0,0.1,0c0.5,0.2,1,0.4,1.6,0.6c0.3,0.1,0.4,0.4,0.3,0.6
		C222.1,258,221.9,258.1,221.7,258.1L221.7,258.1z M293.8,256.4c-0.2,0-0.3-0.1-0.4-0.3c-0.1-0.2,0-0.5,0.2-0.7c0,0,0,0,0,0
		c0.5-0.3,1-0.6,1.4-0.8c0.2-0.1,0.5,0,0.7,0.2c0.1,0.2,0.1,0.5-0.1,0.6c-0.5,0.3-1,0.6-1.5,0.9
		C293.9,256.4,293.8,256.4,293.8,256.4L293.8,256.4z M217.1,256.1c-0.1,0-0.2,0-0.2-0.1c-0.5-0.3-1-0.6-1.5-0.9
		c-0.2-0.1-0.3-0.5-0.2-0.7c0.1-0.2,0.4-0.3,0.7-0.2c0,0,0,0,0,0c0.4,0.3,0.9,0.6,1.4,0.8c0.3,0.1,0.4,0.3,0.4,0.6
		C217.7,256.1,217.4,256.3,217.1,256.1L217.1,256.1z M297.8,253.4c-0.1,0-0.2,0-0.3-0.1c-0.2-0.2-0.2-0.5,0-0.7c0,0,0,0,0,0
		c0.4-0.4,0.6-0.8,0.9-1.3c0.1-0.3,0.4-0.4,0.6-0.3c0.3,0.1,0.4,0.4,0.3,0.6c0,0,0,0.1,0,0.1c-0.2,0.6-0.6,1.1-1,1.5
		C298.1,253.4,297.9,253.5,297.8,253.4L297.8,253.4z M213,253.3c-0.1,0-0.3-0.1-0.4-0.2c-0.5-0.4-0.8-1-1.1-1.5
		c-0.1-0.3,0-0.6,0.3-0.6c0.3-0.1,0.6,0,0.6,0.3c0.2,0.4,0.5,0.9,0.9,1.2c0.2,0.2,0.2,0.5,0,0.7c0,0,0,0,0,0
		C213.3,253.3,213.1,253.3,213,253.3z"/>
	<path class="st0" d="M90.7,217.1c-0.3,0-0.5-0.2-0.5-0.5v-1.5c0-0.3,0.2-0.5,0.5-0.5s0.5,0.2,0.5,0.5v1.5
		C91.2,216.8,91,217.1,90.7,217.1z M90.7,212.7c-0.3,0-0.5-0.2-0.5-0.5v-1.5c0-0.3,0.2-0.5,0.5-0.5s0.5,0.2,0.5,0.5v1.5
		C91.2,212.4,91,212.7,90.7,212.7z M90.7,208.3c-0.3,0-0.5-0.2-0.5-0.5v-1.5c0-0.3,0.2-0.5,0.5-0.5s0.5,0.2,0.5,0.5v1.5
		C91.2,208,91,208.3,90.7,208.3z M90.7,203.9c-0.3,0-0.5-0.2-0.5-0.5v-1.5c0-0.3,0.2-0.5,0.5-0.5s0.5,0.2,0.5,0.5v1.5
		C91.2,203.6,91,203.9,90.7,203.9L90.7,203.9z"/>
	<path class="st0" d="M105.7,247.5c-0.3,0-0.5-0.2-0.5-0.5v-1.5c0-0.3,0.2-0.5,0.5-0.5c0.3,0,0.5,0.2,0.5,0.5v1.5
		C106.2,247.3,105.9,247.5,105.7,247.5C105.7,247.5,105.7,247.5,105.7,247.5z M105.7,243.1c-0.3,0-0.5-0.2-0.5-0.5v-1.5
		c0-0.3,0.2-0.5,0.5-0.5c0.3,0,0.5,0.2,0.5,0.5v1.5C106.2,242.9,105.9,243.1,105.7,243.1z M105.7,238.7c-0.3,0-0.5-0.2-0.5-0.5v-1.5
		c0-0.3,0.2-0.5,0.5-0.5c0.3,0,0.5,0.2,0.5,0.5v1.5C106.1,238.5,105.9,238.7,105.7,238.7L105.7,238.7z M105.7,234.3
		c-0.3,0-0.5-0.2-0.5-0.5v-1.5c0-0.3,0.2-0.5,0.5-0.5c0.3,0,0.5,0.2,0.5,0.5v1.5C106.1,234.1,105.9,234.3,105.7,234.3L105.7,234.3z"
		/>
	<path class="st0" d="M149.5,217.1c-0.3,0-0.5-0.2-0.5-0.5v-1.5c0-0.3,0.2-0.5,0.5-0.5s0.5,0.2,0.5,0.5v1.5
		C150,216.8,149.8,217.1,149.5,217.1z M149.5,212.7c-0.3,0-0.5-0.2-0.5-0.5v-1.5c0-0.3,0.2-0.5,0.5-0.5s0.5,0.2,0.5,0.5v1.5
		C150,212.4,149.8,212.7,149.5,212.7z M149.5,208.3c-0.3,0-0.5-0.2-0.5-0.5v-1.5c0-0.3,0.2-0.5,0.5-0.5s0.5,0.2,0.5,0.5v1.5
		C150,208,149.8,208.3,149.5,208.3z M149.5,203.9c-0.3,0-0.5-0.2-0.5-0.5v-1.5c0-0.3,0.2-0.5,0.5-0.5s0.5,0.2,0.5,0.5v1.5
		C150,203.6,149.8,203.9,149.5,203.9L149.5,203.9z"/>
	<path class="st0" d="M164.4,247.5c-0.3,0-0.5-0.2-0.5-0.5v-1.5c0-0.3,0.2-0.5,0.5-0.5c0.3,0,0.5,0.2,0.5,0.5v1.5
		C164.9,247.3,164.7,247.5,164.4,247.5C164.4,247.5,164.4,247.5,164.4,247.5z M164.4,243.1c-0.3,0-0.5-0.2-0.5-0.5v-1.5
		c0-0.3,0.2-0.5,0.5-0.5c0.3,0,0.5,0.2,0.5,0.5v1.5C164.9,242.9,164.7,243.1,164.4,243.1z M164.4,238.7c-0.3,0-0.5-0.2-0.5-0.5v-1.5
		c0-0.3,0.2-0.5,0.5-0.5c0.3,0,0.5,0.2,0.5,0.5v1.5C164.9,238.5,164.7,238.7,164.4,238.7L164.4,238.7z M164.4,234.3
		c-0.3,0-0.5-0.2-0.5-0.5v-1.5c0-0.3,0.2-0.5,0.5-0.5c0.3,0,0.5,0.2,0.5,0.5v1.5C164.9,234.1,164.7,234.3,164.4,234.3L164.4,234.3z"
		/>
	<path class="st0" d="M164.2,226.5c-0.1,0-0.2,0-0.3-0.1l-1.3-0.8c-0.2-0.1-0.3-0.4-0.2-0.7c0,0,0,0,0,0c0.1-0.2,0.4-0.3,0.7-0.2
		l1.3,0.8c0.2,0.1,0.3,0.5,0.2,0.7C164.5,226.4,164.3,226.5,164.2,226.5z M160.4,224.2c-0.1,0-0.2,0-0.3-0.1l-1.3-0.8
		c-0.2-0.1-0.3-0.4-0.2-0.7c0,0,0,0,0,0c0.1-0.2,0.4-0.3,0.7-0.2l1.3,0.8c0.2,0.1,0.3,0.5,0.1,0.7
		C160.7,224.1,160.6,224.2,160.4,224.2L160.4,224.2z M156.6,221.9c-0.1,0-0.2,0-0.3-0.1l-1.3-0.8c-0.2-0.1-0.3-0.5-0.2-0.7
		s0.5-0.3,0.7-0.2l0,0l1.3,0.8c0.2,0.1,0.3,0.4,0.2,0.7c0,0,0,0,0,0C157,221.8,156.8,221.9,156.6,221.9z M152.9,219.6
		c-0.1,0-0.2,0-0.3-0.1l-1.3-0.8c-0.2-0.1-0.3-0.5-0.2-0.7s0.5-0.3,0.7-0.2l1.3,0.8c0.2,0.1,0.3,0.5,0.1,0.7
		C153.2,219.6,153,219.6,152.9,219.6L152.9,219.6z"/>
	<path class="st0" d="M225.7,217.1c-0.3,0-0.5-0.2-0.5-0.5v-1.5c0-0.3,0.2-0.5,0.5-0.5s0.5,0.2,0.5,0.5v1.5
		C226.2,216.8,226,217.1,225.7,217.1z M225.7,212.7c-0.3,0-0.5-0.2-0.5-0.5v-1.5c0-0.3,0.2-0.5,0.5-0.5s0.5,0.2,0.5,0.5v1.5
		C226.2,212.4,226,212.7,225.7,212.7z M225.7,208.3c-0.3,0-0.5-0.2-0.5-0.5v-1.5c0-0.3,0.2-0.5,0.5-0.5s0.5,0.2,0.5,0.5v1.5
		C226.2,208,226,208.3,225.7,208.3z M225.7,203.9c-0.3,0-0.5-0.2-0.5-0.5v-1.5c0-0.3,0.2-0.5,0.5-0.5s0.5,0.2,0.5,0.5v1.5
		C226.2,203.6,226,203.9,225.7,203.9L225.7,203.9z"/>
	<path class="st0" d="M210.7,226.7c-0.3,0-0.5-0.2-0.5-0.5c0-0.2,0.1-0.3,0.2-0.4l1.3-0.8c0.2-0.1,0.5-0.1,0.7,0.2c0,0,0,0,0,0
		c0.1,0.2,0.1,0.5-0.2,0.7l-1.3,0.8C210.9,226.7,210.8,226.7,210.7,226.7z M214.5,224.5c-0.2,0-0.3-0.1-0.4-0.2
		c-0.1-0.2-0.1-0.5,0.2-0.7l1.3-0.8c0.2-0.2,0.5-0.1,0.7,0.1s0.1,0.5-0.1,0.7c0,0-0.1,0.1-0.1,0.1l-1.3,0.8
		C214.7,224.4,214.6,224.5,214.5,224.5z M218.2,222.2c-0.2,0-0.3-0.1-0.4-0.2c-0.1-0.2-0.1-0.5,0.2-0.7l1.3-0.8
		c0.2-0.1,0.5-0.1,0.7,0.2c0.1,0.2,0.1,0.5-0.1,0.7c0,0,0,0,0,0l-1.3,0.8C218.4,222.2,218.3,222.2,218.2,222.2z M222,219.9
		c-0.2,0-0.3-0.1-0.4-0.2c-0.1-0.2-0.1-0.5,0.2-0.7c0,0,0,0,0,0l1.3-0.8c0.2-0.1,0.5-0.1,0.7,0.2s0.1,0.5-0.2,0.7l-1.3,0.8
		C222.2,219.9,222.1,219.9,222,219.9L222,219.9z"/>
	<path class="st0" d="M285.1,217.1c-0.3,0-0.5-0.2-0.5-0.5v-1.5c0-0.3,0.2-0.5,0.5-0.5s0.5,0.2,0.5,0.5v1.5
		C285.6,216.8,285.3,217.1,285.1,217.1z M285.1,212.7c-0.3,0-0.5-0.2-0.5-0.5v-1.5c0-0.3,0.2-0.5,0.5-0.5s0.5,0.2,0.5,0.5v1.5
		C285.6,212.4,285.3,212.7,285.1,212.7z M285.1,208.3c-0.3,0-0.5-0.2-0.5-0.5v-1.5c0-0.3,0.2-0.5,0.5-0.5s0.5,0.2,0.5,0.5v1.5
		C285.6,208,285.3,208.3,285.1,208.3z M285.1,203.9c-0.3,0-0.5-0.2-0.5-0.5v-1.5c0-0.3,0.2-0.5,0.5-0.5s0.5,0.2,0.5,0.5v1.5
		C285.6,203.6,285.3,203.9,285.1,203.9L285.1,203.9z"/>
	<path class="st0" d="M299.7,226.7c-0.1,0-0.2,0-0.3-0.1l-1.3-0.8c-0.3-0.1-0.4-0.4-0.3-0.7c0.1-0.3,0.4-0.4,0.7-0.3
		c0,0,0.1,0,0.1,0.1l1.3,0.8c0.2,0.1,0.3,0.5,0.1,0.7C300,226.6,299.9,226.7,299.7,226.7L299.7,226.7z M296,224.5
		c-0.1,0-0.2,0-0.3-0.1l-1.3-0.8c-0.2-0.1-0.3-0.4-0.2-0.7c0,0,0,0,0,0c0.1-0.2,0.4-0.3,0.7-0.2c0,0,0,0,0,0l1.3,0.8
		c0.2,0.1,0.3,0.4,0.2,0.7c0,0,0,0,0,0C296.3,224.4,296.2,224.5,296,224.5z M292.2,222.2c-0.1,0-0.2,0-0.3-0.1l-1.3-0.8
		c-0.2-0.1-0.3-0.4-0.2-0.7c0,0,0,0,0,0c0.1-0.2,0.5-0.3,0.7-0.2l1.3,0.8c0.2,0.1,0.3,0.4,0.2,0.7
		C292.6,222.1,292.4,222.2,292.2,222.2L292.2,222.2z M288.5,219.9c-0.1,0-0.2,0-0.2-0.1l-1.3-0.8c-0.2-0.1-0.3-0.5-0.2-0.7
		c0.1-0.2,0.5-0.3,0.7-0.2l0,0l1.3,0.8c0.2,0.1,0.3,0.4,0.2,0.7c0,0,0,0,0,0C288.8,219.8,288.6,219.9,288.5,219.9L288.5,219.9z"/>
</g>
<g id="islenska">
	<g class="st3">
		<path class="st4" d="M109.9,283.5v-7.6h5.1v1.3h-3.5v1.8h3.3v1.3h-3.3v1.8h3.5v1.3H109.9z"/>
		<path class="st4" d="M121.1,279.4l-1.5,0.1c0-0.2-0.1-0.3-0.3-0.5s-0.4-0.2-0.7-0.2c-0.2,0-0.5,0.1-0.6,0.2
			c-0.2,0.1-0.3,0.2-0.3,0.4c0,0.1,0.1,0.3,0.2,0.3c0.1,0.1,0.3,0.2,0.6,0.2l1,0.2c1.1,0.2,1.7,0.7,1.7,1.6c0,0.4-0.1,0.7-0.3,1
			c-0.2,0.3-0.5,0.5-0.9,0.7s-0.8,0.2-1.3,0.2c-0.8,0-1.4-0.2-1.8-0.5c-0.4-0.3-0.7-0.7-0.8-1.3l1.6-0.1c0,0.2,0.2,0.4,0.3,0.5
			s0.4,0.2,0.7,0.2c0.3,0,0.5-0.1,0.7-0.2c0.2-0.1,0.3-0.2,0.3-0.4c0-0.3-0.3-0.5-0.7-0.6l-1-0.2c-1.1-0.2-1.7-0.8-1.7-1.6
			c0-0.6,0.2-1,0.7-1.3c0.4-0.3,1-0.5,1.8-0.5c0.7,0,1.3,0.2,1.7,0.5C120.8,278.5,121,278.9,121.1,279.4z"/>
	</g>
	<g class="st3">
		<path class="st4" d="M125.3,277.8v1.2h-1.1v2.8c0,0.2,0,0.4,0.1,0.4c0.1,0.1,0.2,0.1,0.4,0.1c0.1,0,0.1,0,0.2,0s0.1,0,0.2,0
			l0.2,1.2c-0.1,0-0.2,0.1-0.3,0.1c-0.1,0-0.3,0.1-0.5,0.1c-0.6,0-1-0.1-1.4-0.4c-0.3-0.3-0.5-0.7-0.5-1.3v-3h-0.8v-1.2h0.8v-1.4
			h1.6v1.4H125.3z"/>
	</g>
	<g class="st3">
		<path class="st4" d="M128.9,283.6c-0.6,0-1.1-0.1-1.5-0.4c-0.4-0.2-0.8-0.6-1-1c-0.2-0.4-0.3-1-0.3-1.6c0-0.6,0.1-1.1,0.3-1.6
			c0.2-0.4,0.6-0.8,1-1c0.4-0.2,0.9-0.4,1.5-0.4c0.5,0,1,0.1,1.4,0.3c0.4,0.2,0.7,0.5,1,1s0.4,1,0.4,1.6v0.4h-3.9v0
			c0,0.4,0.1,0.8,0.4,1c0.2,0.2,0.5,0.4,0.9,0.4c0.3,0,0.5-0.1,0.7-0.2c0.2-0.1,0.3-0.3,0.4-0.5l1.5,0.1c-0.1,0.5-0.4,1-0.9,1.3
			C130.2,283.5,129.6,283.6,128.9,283.6z M127.6,280.1h2.4c0-0.3-0.1-0.6-0.3-0.8c-0.2-0.2-0.5-0.3-0.8-0.3c-0.4,0-0.6,0.1-0.9,0.3
			C127.7,279.5,127.6,279.7,127.6,280.1z"/>
	</g>
	<g class="st3">
		<path class="st4" d="M132.5,283.5v-5.7h1.5v1h0.1c0.1-0.4,0.3-0.6,0.5-0.8s0.5-0.3,0.9-0.3c0.2,0,0.3,0,0.4,0.1
			c0.1,0,0.2,0.1,0.4,0.2l-0.5,1.3c-0.1,0-0.2-0.1-0.2-0.1c-0.1,0-0.2,0-0.3,0c-0.3,0-0.6,0.1-0.8,0.3c-0.2,0.2-0.3,0.5-0.3,0.9v3.2
			H132.5z"/>
	</g>
	<g class="st3">
		<path class="st4" d="M138.5,283.6c-0.5,0-1-0.1-1.4-0.4c-0.4-0.3-0.5-0.7-0.5-1.3c0-0.4,0.1-0.8,0.3-1c0.2-0.2,0.5-0.4,0.8-0.5
			c0.3-0.1,0.7-0.2,1.1-0.2c0.5,0,0.9-0.1,1.1-0.2c0.2-0.1,0.3-0.2,0.3-0.4v0c0-0.2-0.1-0.4-0.2-0.5s-0.4-0.2-0.6-0.2
			c-0.3,0-0.5,0.1-0.7,0.2c-0.2,0.1-0.3,0.3-0.3,0.5l-1.5-0.1c0.1-0.5,0.4-0.9,0.8-1.2c0.4-0.3,1-0.5,1.7-0.5c0.4,0,0.8,0.1,1.2,0.2
			c0.4,0.1,0.7,0.3,0.9,0.6c0.2,0.3,0.3,0.7,0.3,1.1v3.9h-1.5v-0.8h0c-0.1,0.3-0.3,0.5-0.6,0.7C139.3,283.5,138.9,283.6,138.5,283.6
			z M139,282.5c0.3,0,0.6-0.1,0.9-0.3s0.3-0.5,0.3-0.8v-0.6c-0.1,0-0.2,0.1-0.3,0.1c-0.1,0-0.3,0.1-0.4,0.1s-0.3,0-0.4,0.1
			c-0.3,0-0.5,0.1-0.7,0.2c-0.2,0.1-0.3,0.3-0.3,0.5c0,0.2,0.1,0.4,0.2,0.5C138.5,282.5,138.7,282.5,139,282.5z"/>
		<path class="st4" d="M143,283.5v-5.7h1.5v1h0.1c0.1-0.4,0.3-0.6,0.5-0.8s0.5-0.3,0.9-0.3c0.2,0,0.3,0,0.4,0.1
			c0.1,0,0.2,0.1,0.4,0.2l-0.5,1.3c-0.1,0-0.2-0.1-0.2-0.1c-0.1,0-0.2,0-0.3,0c-0.3,0-0.6,0.1-0.8,0.3c-0.2,0.2-0.3,0.5-0.3,0.9v3.2
			H143z"/>
	</g>
	<g class="st3">
		<path class="st4" d="M232.3,283.5v-7.6h1.6v3.4h0.1l2.7-3.4h1.9l-2.8,3.4l2.9,4.2h-1.9l-2.1-3.1l-0.8,1v2.2H232.3z"/>
		<path class="st4" d="M241.1,283.6c-0.5,0-1-0.1-1.4-0.4c-0.4-0.3-0.5-0.7-0.5-1.3c0-0.4,0.1-0.8,0.3-1c0.2-0.2,0.5-0.4,0.8-0.5
			s0.7-0.2,1.1-0.2c0.5,0,0.9-0.1,1.1-0.2c0.2-0.1,0.3-0.2,0.3-0.4v0c0-0.2-0.1-0.4-0.2-0.5c-0.1-0.1-0.4-0.2-0.6-0.2
			c-0.3,0-0.5,0.1-0.7,0.2c-0.2,0.1-0.3,0.3-0.3,0.5l-1.5-0.1c0.1-0.5,0.4-0.9,0.8-1.2c0.4-0.3,1-0.5,1.7-0.5c0.4,0,0.8,0.1,1.2,0.2
			c0.4,0.1,0.7,0.3,0.9,0.6c0.2,0.3,0.3,0.7,0.3,1.1v3.9h-1.5v-0.8h0c-0.1,0.3-0.3,0.5-0.6,0.7C241.9,283.5,241.5,283.6,241.1,283.6
			z M241.6,282.5c0.3,0,0.6-0.1,0.9-0.3s0.3-0.5,0.3-0.8v-0.6c-0.1,0-0.2,0.1-0.3,0.1c-0.1,0-0.3,0.1-0.4,0.1c-0.1,0-0.3,0-0.4,0.1
			c-0.3,0-0.5,0.1-0.7,0.2c-0.2,0.1-0.3,0.3-0.3,0.5c0,0.2,0.1,0.4,0.2,0.5C241.1,282.5,241.3,282.5,241.6,282.5z"/>
		<path class="st4" d="M245.6,283.5v-5.7h1.5v1h0.1c0.1-0.4,0.3-0.6,0.5-0.8c0.2-0.2,0.5-0.3,0.9-0.3c0.2,0,0.3,0,0.4,0.1
			c0.1,0,0.2,0.1,0.4,0.2l-0.5,1.3c-0.1,0-0.2-0.1-0.2-0.1c-0.1,0-0.2,0-0.3,0c-0.3,0-0.6,0.1-0.8,0.3s-0.3,0.5-0.3,0.9v3.2H245.6z"
			/>
		<path class="st4" d="M250.1,283.5v-7.6h1.6v2.9h0c0.1-0.2,0.2-0.3,0.3-0.5c0.1-0.2,0.3-0.3,0.5-0.4c0.2-0.1,0.5-0.2,0.8-0.2
			c0.4,0,0.8,0.1,1.2,0.3s0.6,0.5,0.8,1s0.3,1,0.3,1.6c0,0.6-0.1,1.2-0.3,1.6c-0.2,0.4-0.5,0.8-0.8,1s-0.7,0.3-1.2,0.3
			c-0.3,0-0.6-0.1-0.8-0.2s-0.4-0.2-0.5-0.4c-0.1-0.2-0.2-0.3-0.3-0.5h-0.1v0.9H250.1z M251.7,280.6c0,0.5,0.1,0.9,0.3,1.2
			s0.5,0.5,0.9,0.5c0.4,0,0.7-0.2,0.9-0.5c0.2-0.3,0.3-0.7,0.3-1.2c0-0.5-0.1-0.9-0.3-1.2s-0.5-0.5-0.9-0.5c-0.4,0-0.7,0.2-0.9,0.5
			S251.7,280.1,251.7,280.6z"/>
		<path class="st4" d="M259.3,283.6c-0.6,0-1.1-0.1-1.5-0.4c-0.4-0.2-0.7-0.6-1-1c-0.2-0.4-0.3-1-0.3-1.5c0-0.6,0.1-1.1,0.3-1.6
			c0.2-0.4,0.6-0.8,1-1c0.4-0.2,0.9-0.4,1.5-0.4s1.1,0.1,1.5,0.4c0.4,0.2,0.7,0.6,1,1c0.2,0.4,0.3,1,0.3,1.6c0,0.6-0.1,1.1-0.3,1.5
			c-0.2,0.4-0.6,0.8-1,1C260.4,283.5,259.9,283.6,259.3,283.6z M259.3,282.4c0.4,0,0.7-0.2,0.9-0.5c0.2-0.3,0.3-0.7,0.3-1.2
			s-0.1-0.9-0.3-1.2c-0.2-0.3-0.5-0.5-0.9-0.5c-0.4,0-0.7,0.2-0.9,0.5c-0.2,0.3-0.3,0.7-0.3,1.2s0.1,0.9,0.3,1.2
			C258.6,282.2,258.9,282.4,259.3,282.4z M258.8,277l0.8-1.7h1.5l-1.1,1.7H258.8z"/>
		<path class="st4" d="M264.8,280.2v3.3h-1.6v-5.7h1.5v1h0.1c0.1-0.3,0.3-0.6,0.6-0.8c0.3-0.2,0.7-0.3,1.1-0.3
			c0.6,0,1.1,0.2,1.4,0.6s0.5,0.9,0.5,1.6v3.6h-1.6v-3.4c0-0.4-0.1-0.6-0.3-0.8s-0.4-0.3-0.8-0.3c-0.3,0-0.6,0.1-0.8,0.3
			C264.9,279.5,264.8,279.8,264.8,280.2z"/>
		<path class="st4" d="M272.3,283.6c-0.6,0-1.1-0.1-1.5-0.4c-0.4-0.2-0.7-0.6-1-1c-0.2-0.4-0.3-1-0.3-1.5c0-0.6,0.1-1.1,0.3-1.6
			c0.2-0.4,0.6-0.8,1-1c0.4-0.2,0.9-0.4,1.5-0.4s1.1,0.1,1.5,0.4s0.7,0.6,1,1c0.2,0.4,0.3,1,0.3,1.6c0,0.6-0.1,1.1-0.3,1.5
			c-0.2,0.4-0.6,0.8-1,1C273.4,283.5,272.9,283.6,272.3,283.6z M271.2,277c-0.2,0-0.4-0.1-0.6-0.2c-0.2-0.2-0.2-0.3-0.2-0.5
			c0-0.2,0.1-0.4,0.2-0.5c0.2-0.1,0.3-0.2,0.6-0.2c0.2,0,0.4,0.1,0.5,0.2s0.2,0.3,0.2,0.5c0,0.2-0.1,0.4-0.2,0.5
			S271.4,277,271.2,277z M272.3,282.4c0.4,0,0.7-0.2,0.9-0.5c0.2-0.3,0.3-0.7,0.3-1.2s-0.1-0.9-0.3-1.2c-0.2-0.3-0.5-0.5-0.9-0.5
			c-0.4,0-0.7,0.2-0.9,0.5c-0.2,0.3-0.3,0.7-0.3,1.2s0.1,0.9,0.3,1.2S271.9,282.4,272.3,282.4z M273.4,277c-0.2,0-0.4-0.1-0.6-0.2
			s-0.2-0.3-0.2-0.5c0-0.2,0.1-0.4,0.2-0.5s0.3-0.2,0.6-0.2c0.2,0,0.4,0.1,0.6,0.2c0.2,0.1,0.2,0.3,0.2,0.5c0,0.2-0.1,0.4-0.2,0.5
			C273.8,276.9,273.7,277,273.4,277z"/>
		<path class="st4" d="M279.2,277.8v1.2h-1.1v2.8c0,0.2,0,0.4,0.1,0.4s0.2,0.1,0.4,0.1c0.1,0,0.1,0,0.2,0c0.1,0,0.1,0,0.2,0l0.2,1.2
			c-0.1,0-0.2,0.1-0.3,0.1c-0.1,0-0.3,0.1-0.5,0.1c-0.6,0-1-0.1-1.4-0.4c-0.3-0.3-0.5-0.7-0.5-1.3v-3h-0.8v-1.2h0.8v-1.4h1.6v1.4
			H279.2z"/>
	</g>
</g>
</svg>
