<?xml version="1.0" encoding="utf-8"?>
<!-- Generator: Adobe Illustrator 23.0.6, SVG Export Plug-In . SVG Version: 6.00 Build 0)  -->
<svg version="1.1" id="Layer_1" xmlns="http://www.w3.org/2000/svg" xmlns:xlink="http://www.w3.org/1999/xlink" x="0px" y="0px"
	 viewBox="0 0 400 436" style="enable-background:new 0 0 400 436;" xml:space="preserve">
<style type="text/css">
	.st0{fill:none;stroke:#66A8D4;stroke-width:1.7;stroke-miterlimit:10;}
	.st1{enable-background:new    ;}
	.st2{fill:#333333;}
	.st3{fill:#4AA052;}
</style>
<title>gefn-mynd-02-is</title>
<g id="teikningar">
	<path class="st0" d="M245.2,87.5c0.1-0.6,0.2-1.2,0.2-1.8c0-4-3.3-7.3-7.3-7.3c-1,0-2,0.2-2.9,0.6c-4.5-5.5-12.5-6.2-18-1.8
		c-3,2.4-4.7,6.1-4.7,9.9h-0.5c-5.6,0-10.2,4.6-10.2,10.2c0,0,0,0,0,0l0,0c0,5.7,4.6,10.2,10.2,10.2c0,0,0,0,0,0h30.3
		c5.7,0,10.2-4.6,10.2-10.2l0,0C252.6,92.8,249.6,88.8,245.2,87.5z"/>
	<g class="st1">
		<path class="st2" d="M224.4,92.3h-1.6c-0.1-0.4-0.2-0.8-0.5-1c-0.3-0.2-0.7-0.4-1.1-0.4c-0.6,0-1.1,0.2-1.4,0.7
			c-0.4,0.4-0.5,1-0.5,1.8c0,0.8,0.2,1.4,0.5,1.9s0.8,0.6,1.4,0.6c0.4,0,0.8-0.1,1.1-0.3c0.3-0.2,0.5-0.5,0.6-0.9l1.6,0
			c-0.1,0.5-0.2,0.9-0.5,1.3c-0.3,0.4-0.7,0.7-1.1,1c-0.5,0.3-1,0.4-1.7,0.4c-0.7,0-1.3-0.2-1.8-0.5c-0.5-0.3-1-0.8-1.3-1.3
			s-0.5-1.3-0.5-2.1c0-0.8,0.2-1.5,0.5-2.1c0.3-0.6,0.7-1,1.3-1.3c0.5-0.3,1.1-0.5,1.8-0.5c0.6,0,1.1,0.1,1.6,0.3
			c0.5,0.2,0.9,0.5,1.2,0.9C224.2,91.2,224.3,91.7,224.4,92.3z"/>
		<path class="st2" d="M232.4,93.5c0,0.8-0.2,1.5-0.5,2.1c-0.3,0.6-0.7,1-1.3,1.3c-0.5,0.3-1.1,0.5-1.8,0.5c-0.7,0-1.3-0.2-1.8-0.5
			c-0.5-0.3-1-0.8-1.3-1.3c-0.3-0.6-0.5-1.3-0.5-2.1c0-0.8,0.2-1.5,0.5-2.1c0.3-0.6,0.7-1,1.3-1.3s1.1-0.5,1.8-0.5
			c0.7,0,1.3,0.2,1.8,0.5s1,0.8,1.3,1.3S232.4,92.6,232.4,93.5z M230.7,93.5c0-0.8-0.2-1.4-0.5-1.9c-0.4-0.4-0.8-0.6-1.4-0.6
			s-1.1,0.2-1.4,0.6c-0.4,0.4-0.5,1-0.5,1.9c0,0.8,0.2,1.4,0.5,1.9c0.4,0.4,0.8,0.6,1.4,0.6s1.1-0.2,1.4-0.6
			C230.6,94.9,230.7,94.3,230.7,93.5z"/>
	</g>
	<g class="st1">
		<path class="st2" d="M233.2,98.5v-0.9l2.1-1.9c0.3-0.3,0.5-0.5,0.6-0.7s0.2-0.4,0.2-0.6c0-0.3-0.1-0.5-0.3-0.6s-0.4-0.2-0.6-0.2
			c-0.3,0-0.5,0.1-0.6,0.2s-0.2,0.4-0.2,0.7h-1.2c0-0.4,0.1-0.7,0.3-1c0.2-0.3,0.4-0.5,0.7-0.7c0.3-0.2,0.7-0.2,1.1-0.2
			c0.4,0,0.8,0.1,1.1,0.2s0.6,0.3,0.7,0.6c0.2,0.3,0.3,0.6,0.3,0.9c0,0.2,0,0.4-0.1,0.7c-0.1,0.2-0.2,0.5-0.5,0.7
			c-0.2,0.3-0.5,0.6-0.9,0.9l-0.8,0.8v0h2.4v1H233.2z"/>
	</g>
	<path class="st2" d="M309,88.6c0.5,0,0.9,0.4,0.9,0.8c0,0,0,0,0,0v55c0,0.1,0,0.1,0,0.1c-0.2,8.7-10.7,15.7-23.6,15.7
		s-23.4-7.1-23.6-15.8c0,0,0,0,0-0.1v-55c0-0.5,0.4-0.8,0.9-0.8l0,0l0.9,1.7v54.1c0,7.9,9.8,14.3,21.9,14.3s21.9-6.4,21.9-14.3
		c0,0,0-0.1,0-0.1v-54L309,88.6z"/>
	<path class="st2" d="M286.3,105.5c-13,0-23.6-7.2-23.6-16s10.6-16,23.6-16s23.6,7.2,23.6,16l0,0
		C309.9,98.3,299.3,105.5,286.3,105.5z M286.3,75.2c-12.1,0-21.9,6.4-21.9,14.3s9.8,14.3,21.9,14.3s21.9-6.4,21.9-14.3l0,0
		C308.1,81.6,298.3,75.2,286.3,75.2z"/>
	<path class="st2" d="M294.9,149.5c-0.5,0-0.9-0.4-0.9-0.8v0v-46.9c0-0.6-0.4-1-1-1h-1.6c-0.6,0-1,0.4-1,0.9c0,0,0,0,0,0.1
		c0,0.5-0.4,0.9-0.9,0.9s-0.9-0.4-0.9-0.9l0,0c0-1.5,1.2-2.7,2.7-2.8h1.5c1.5,0,2.8,1.2,2.8,2.8l0,0v46.9
		C295.8,149.1,295.4,149.5,294.9,149.5z"/>
	<path class="st2" d="M303.9,145.2c-0.5,0-0.9-0.4-0.9-0.8v0V97.6c0-0.6-0.4-1-1-1h-1.6c-0.6,0-1,0.4-1,1c0,0.5-0.4,0.9-0.9,0.9
		s-0.9-0.4-0.9-0.9c0-1.5,1.2-2.7,2.7-2.8h1.5c1.5,0,2.7,1.2,2.7,2.8v46.8C304.7,144.8,304.4,145.2,303.9,145.2z"/>
	<path class="st2" d="M295.4,111c-0.5,0-0.8-0.4-0.8-0.9c0-0.3,0.2-0.6,0.5-0.7l5.5-2.6c0.4-0.2,0.9,0,1.1,0.4
		c0.2,0.4,0,0.9-0.4,1.1l-5.5,2.6C295.6,111,295.5,111,295.4,111z"/>
	<path class="st2" d="M295.4,117.6c-0.5,0-0.9-0.4-0.9-0.8c0-0.3,0.2-0.6,0.5-0.8l5.5-2.6c0.4-0.2,0.9,0,1.1,0.4
		c0.2,0.4,0,0.9-0.4,1.1l0,0l-5.5,2.6C295.6,117.5,295.5,117.5,295.4,117.6z"/>
	<path class="st2" d="M295.4,124.1c-0.5,0-0.9-0.4-0.9-0.8c0-0.3,0.2-0.6,0.5-0.8l5.5-2.6c0.4-0.2,0.9,0,1.1,0.4
		c0.2,0.4,0,0.9-0.4,1.1l-5.5,2.6C295.6,124.1,295.5,124.1,295.4,124.1z"/>
	<path class="st2" d="M295.4,130.7c-0.5,0-0.9-0.4-0.9-0.8c0-0.3,0.2-0.6,0.5-0.8l5.5-2.6c0.4-0.2,0.9,0,1.1,0.4
		c0.2,0.4,0,0.9-0.4,1.1c0,0,0,0,0,0l-5.5,2.6C295.6,130.6,295.5,130.7,295.4,130.7z"/>
	<path class="st2" d="M295.4,137.2c-0.5,0-0.9-0.4-0.9-0.8c0-0.3,0.2-0.6,0.5-0.8l5.5-2.6c0.4-0.2,0.9,0,1.1,0.4
		c0.2,0.4,0,0.9-0.4,1.1l-5.5,2.6C295.6,137.2,295.5,137.2,295.4,137.2z"/>
	<path class="st2" d="M295.4,144.7c-0.5,0-0.8-0.4-0.8-0.9c0-0.3,0.2-0.6,0.5-0.7l5.5-2.6c0.4-0.2,0.9,0,1.1,0.4
		c0.2,0.4,0,0.9-0.4,1.1l-5.5,2.6C295.6,144.7,295.5,144.7,295.4,144.7z"/>
	<g class="st1">
		<path class="st2" d="M244.1,146h-1.6c-0.1-0.4-0.2-0.8-0.5-1c-0.3-0.2-0.7-0.4-1.1-0.4c-0.6,0-1.1,0.2-1.4,0.7
			c-0.4,0.4-0.5,1-0.5,1.8c0,0.8,0.2,1.4,0.5,1.9s0.8,0.6,1.4,0.6c0.4,0,0.8-0.1,1.1-0.3c0.3-0.2,0.5-0.5,0.6-0.9l1.6,0
			c-0.1,0.5-0.2,0.9-0.5,1.3c-0.3,0.4-0.7,0.7-1.1,1c-0.5,0.3-1,0.4-1.7,0.4c-0.7,0-1.3-0.2-1.8-0.5c-0.5-0.3-1-0.8-1.3-1.3
			s-0.5-1.3-0.5-2.1c0-0.8,0.2-1.5,0.5-2.1c0.3-0.6,0.7-1,1.3-1.3c0.5-0.3,1.1-0.5,1.8-0.5c0.6,0,1.1,0.1,1.6,0.3
			c0.5,0.2,0.9,0.5,1.2,0.9C243.8,144.9,244,145.4,244.1,146z"/>
		<path class="st2" d="M252,147.1c0,0.8-0.2,1.5-0.5,2.1c-0.3,0.6-0.7,1-1.3,1.3c-0.5,0.3-1.1,0.5-1.8,0.5c-0.7,0-1.3-0.2-1.8-0.5
			c-0.5-0.3-1-0.8-1.3-1.3c-0.3-0.6-0.5-1.3-0.5-2.1c0-0.8,0.2-1.5,0.5-2.1c0.3-0.6,0.7-1,1.3-1.3s1.1-0.5,1.8-0.5
			c0.7,0,1.3,0.2,1.8,0.5s1,0.8,1.3,1.3S252,146.3,252,147.1z M250.4,147.1c0-0.8-0.2-1.4-0.5-1.9c-0.4-0.4-0.8-0.6-1.4-0.6
			s-1.1,0.2-1.4,0.6c-0.4,0.4-0.5,1-0.5,1.9c0,0.8,0.2,1.4,0.5,1.9c0.4,0.4,0.8,0.6,1.4,0.6s1.1-0.2,1.4-0.6
			C250.2,148.5,250.4,147.9,250.4,147.1z"/>
	</g>
	<g class="st1">
		<path class="st2" d="M252.8,152.1v-0.9l2.1-1.9c0.3-0.3,0.5-0.5,0.6-0.7s0.2-0.4,0.2-0.6c0-0.3-0.1-0.5-0.3-0.6s-0.4-0.2-0.6-0.2
			c-0.3,0-0.5,0.1-0.6,0.2s-0.2,0.4-0.2,0.7h-1.2c0-0.4,0.1-0.7,0.3-1c0.2-0.3,0.4-0.5,0.7-0.7c0.3-0.2,0.7-0.2,1.1-0.2
			c0.4,0,0.8,0.1,1.1,0.2s0.6,0.3,0.7,0.6c0.2,0.3,0.3,0.6,0.3,0.9c0,0.2,0,0.4-0.1,0.7c-0.1,0.2-0.2,0.5-0.5,0.7
			c-0.2,0.3-0.5,0.6-0.9,0.9l-0.8,0.8v0h2.4v1H252.8z"/>
	</g>
	<path class="st2" d="M170.4,404.6c-0.2,0-0.4-0.1-0.6-0.2l-5.2-5.2c-0.3-0.3-0.3-0.9,0-1.2c0.3-0.3,0.9-0.3,1.2,0l4.6,4.6l4.6-4.6
		c0.3-0.3,0.9-0.3,1.2,0c0.3,0.3,0.3,0.8,0,1.2c0,0,0,0,0,0l-5.2,5.2C170.9,404.5,170.7,404.6,170.4,404.6z"/>
	<path class="st2" d="M189.4,404.6L189.4,404.6c-0.2,0-0.4-0.1-0.6-0.2l-5.2-5.2c-0.4-0.3-0.4-0.8-0.1-1.2c0.3-0.4,0.8-0.4,1.2-0.1
		c0,0,0,0,0.1,0.1l4.6,4.6l4.6-4.6c0.3-0.4,0.8-0.4,1.2-0.1c0.4,0.3,0.4,0.8,0.1,1.2c0,0,0,0-0.1,0.1l-5.2,5.2
		C189.8,404.5,189.6,404.6,189.4,404.6z"/>
	<path class="st2" d="M208.4,404.6c-0.2,0-0.4-0.1-0.6-0.2l-5.2-5.2c-0.4-0.3-0.4-0.8-0.1-1.2c0.3-0.4,0.8-0.4,1.2-0.1
		c0,0,0,0,0.1,0.1l4.6,4.6l4.6-4.6c0.3-0.4,0.8-0.4,1.2-0.1c0.4,0.3,0.4,0.8,0.1,1.2c0,0,0,0-0.1,0.1l-5.2,5.2
		C208.8,404.5,208.6,404.6,208.4,404.6z"/>
	<path class="st2" d="M227.3,404.6c-0.2,0-0.4-0.1-0.6-0.2l-5.2-5.2c-0.3-0.3-0.3-0.9,0-1.2c0.3-0.3,0.9-0.3,1.2,0l4.6,4.6l4.6-4.6
		c0.3-0.3,0.9-0.3,1.2,0c0.3,0.3,0.3,0.9,0,1.2l-5.2,5.2C227.8,404.5,227.5,404.6,227.3,404.6z"/>
	<path class="st2" d="M190.3,0v5.6v398.2c0,0.5-0.4,0.9-0.8,0.9h0c-0.5,0-0.9-0.4-0.9-0.9l0,0V0L190.3,0z"/>
	<path class="st2" d="M227.3,404.6c-0.5,0-0.9-0.4-0.9-0.9l0,0V171c0-0.3,0.2-0.6,0.5-0.8l31.7-15.7c0.4-0.2,0.9,0,1.1,0.4
		c0.2,0.4,0,0.9-0.4,1.1l-31.2,15.5v232.2C228.2,404.2,227.8,404.6,227.3,404.6z"/>
	<path class="st2" d="M316.5,125.1c-0.5,0-0.8-0.4-0.8-0.9c0-0.3,0.2-0.6,0.5-0.8l16.4-8.1c0.4-0.2,0.9,0,1.1,0.4
		c0.2,0.4,0,0.9-0.4,1.1l-16.4,8.1C316.8,125.1,316.6,125.1,316.5,125.1z"/>
	<path class="st2" d="M208.4,404.6c-0.5,0-0.9-0.4-0.9-0.9l0,0V157.3c0-0.3,0.2-0.6,0.5-0.8l19.9-9.9v-32.3c0-0.5,0.4-0.8,0.9-0.8
		c0.5,0,0.8,0.4,0.8,0.8v32.8c0,0.3-0.2,0.6-0.5,0.8l-19.9,9.9v246C209.2,404.2,208.8,404.6,208.4,404.6z"/>
	<path class="st3" d="M235.3,36.6c-0.5,0-0.9-0.4-0.9-0.8v0V19.4c0-0.5,0.4-0.9,0.8-0.9c0.5,0,0.9,0.4,0.9,0.8c0,0,0,0,0,0v16.4
		C236.2,36.2,235.8,36.6,235.3,36.6z"/>
	<path class="st3" d="M232.9,29.1c-0.1,0-0.2,0-0.2,0c-3.8-1.2-6.4-4.7-6.4-8.6c0-9.6,8.1-17.5,8.5-17.8c0.3-0.3,0.8-0.3,1.2,0
		c0.4,0.3,8.5,8.2,8.5,17.8c0,3.9-2.5,7.4-6.2,8.6c-0.4,0.1-0.9-0.1-1.1-0.5c-0.1-0.4,0.1-0.9,0.5-1.1c3-1,5.1-3.8,5.1-7
		c0-7.4-5.5-14-7.4-16c-1.8,2-7.3,8.6-7.3,16c0,3.2,2.1,6.1,5.2,7c0.4,0.1,0.7,0.6,0.6,1c0,0,0,0,0,0
		C233.6,28.9,233.3,29.1,232.9,29.1z"/>
	<path class="st3" d="M270.4,36.6h-16.5c-0.4,0-0.8-0.3-0.9-0.8l-2.5-25.6c-0.1-0.5,0.3-0.9,0.7-1c0.5-0.1,0.9,0.3,1,0.7
		c0,0,0,0,0,0.1l2.4,24.8h15l2.4-24.8c0-0.5,0.5-0.8,0.9-0.8s0.8,0.5,0.8,0.9l-2.5,25.6C271.2,36.2,270.9,36.6,270.4,36.6z"/>
	<path class="st3" d="M259.3,31.5c-0.5,0-0.8-0.4-0.9-0.8l-0.8-18c0-0.5,0.3-0.9,0.8-0.9c0,0,0,0,0,0c0.5,0,0.9,0.3,0.9,0.8
		c0,0,0,0,0,0l0.8,18C260.1,31.1,259.8,31.5,259.3,31.5C259.3,31.6,259.3,31.6,259.3,31.5L259.3,31.5z"/>
	<path class="st3" d="M265,31.5L265,31.5c-0.5,0-0.8-0.4-0.8-0.9c0,0,0,0,0,0l0.8-18c0-0.5,0.4-0.8,0.9-0.8c0,0,0,0,0,0
		c0.5,0,0.8,0.4,0.8,0.9c0,0,0,0,0,0l-0.8,18C265.9,31.2,265.5,31.5,265,31.5C265.1,31.5,265.1,31.5,265,31.5z"/>
	<path class="st3" d="M251.4,14h-1.9c-0.5,0-0.9-0.4-0.9-0.8c0-0.5,0.4-0.9,0.8-0.9c0,0,0,0,0,0h1.9c0.5,0,0.8,0.4,0.8,0.9
		C252.3,13.6,251.9,14,251.4,14z"/>
	<path class="st3" d="M274.8,14h-1.9c-0.5,0-0.8-0.4-0.8-0.9c0-0.5,0.4-0.8,0.8-0.8h1.9c0.5,0,0.9,0.4,0.9,0.8
		C275.6,13.6,275.3,14,274.8,14C274.8,14,274.8,14,274.8,14z"/>
	<path class="st3" d="M274.5,7.9h-24.6c-0.5,0-0.9-0.4-0.9-0.8c0-0.5,0.4-0.9,0.9-0.9l0,0h24.6c0.5,0,0.9,0.4,0.9,0.8
		S274.9,7.9,274.5,7.9C274.5,7.9,274.5,7.9,274.5,7.9z"/>
	<path class="st3" d="M264.7,4.7c-0.5,0-0.9-0.4-0.9-0.8c0,0,0,0,0,0V3.4h-3.4v0.5c0,0.5-0.4,0.9-0.9,0.9s-0.9-0.4-0.9-0.9l0,0V2.5
		c0-0.5,0.4-0.9,0.9-0.9l0,0h5.1c0.5,0,0.9,0.4,0.9,0.8c0,0,0,0,0,0v1.4C265.6,4.4,265.2,4.7,264.7,4.7z"/>
	<path class="st2" d="M286.2,65.2c-0.5,0-0.8-0.4-0.9-0.8L285,41.7c0-0.5,0.4-0.9,0.8-0.9l0,0c0.5,0,0.8,0.4,0.9,0.8l0.3,22.7
		C287,64.8,286.6,65.2,286.2,65.2C286.2,65.2,286.2,65.2,286.2,65.2L286.2,65.2z"/>
	<path class="st2" d="M286,65.4c-0.2,0-0.4-0.1-0.6-0.2l-5.2-5.2c-0.4-0.3-0.4-0.8-0.1-1.2c0.3-0.4,0.8-0.4,1.2-0.1c0,0,0,0,0.1,0.1
		l4.6,4.6l4.6-4.6c0.3-0.4,0.8-0.4,1.2-0.1c0.4,0.3,0.4,0.8,0.1,1.2c0,0,0,0-0.1,0.1l-5.2,5.2C286.4,65.3,286.2,65.4,286,65.4z"/>
	<path class="st2" d="M330.5,124c-0.1,0-0.2,0-0.3,0c-0.4-0.1-0.7-0.6-0.5-1.1c0,0,0,0,0,0l2.1-6.2l-6.2-2.1
		c-0.4-0.1-0.7-0.6-0.5-1.1c0,0,0,0,0,0c0.2-0.4,0.6-0.7,1.1-0.5l7,2.4c0.2,0.1,0.4,0.2,0.5,0.4c0.1,0.2,0.1,0.4,0,0.7l-2.4,7
		C331.1,123.8,330.8,124,330.5,124z"/>
	<path class="st2" d="M171.3,0v16v386.5c0,0.5-0.4,0.8-0.9,0.8c-0.5,0-0.9-0.4-0.9-0.9l0,0V0L171.3,0z"/>
</g>
<g id="islenska">
	<g class="st1">
		<path class="st2" d="M340.9,116.3h-1.7l2.6-7.6h2.1l2.6,7.6h-1.7l-0.6-1.7h-2.8L340.9,116.3z M341.9,113.3h1.9l-0.9-2.9h-0.1
			L341.9,113.3z"/>
	</g>
	<g class="st1">
		<path class="st2" d="M350.2,110.6v1.2h-1.1v4.5h-1.6v-4.5h-0.8v-1.2h0.8v-0.4c0-0.6,0.2-1.1,0.5-1.4c0.4-0.3,0.8-0.5,1.3-0.5
			c0.2,0,0.5,0,0.7,0.1c0.2,0,0.4,0.1,0.5,0.1l-0.3,1.2c-0.1,0-0.1,0-0.2-0.1s-0.2,0-0.3,0c-0.2,0-0.4,0.1-0.5,0.2s-0.1,0.3-0.1,0.5
			v0.4H350.2z"/>
		<path class="st2" d="M354.7,113.9v-3.3h1.6v5.7h-1.5v-1h-0.1c-0.1,0.3-0.3,0.6-0.6,0.8c-0.3,0.2-0.7,0.3-1.1,0.3
			c-0.6,0-1-0.2-1.4-0.6c-0.4-0.4-0.5-0.9-0.5-1.6v-3.6h1.6v3.4c0,0.3,0.1,0.6,0.3,0.8c0.2,0.2,0.4,0.3,0.7,0.3
			c0.3,0,0.5-0.1,0.8-0.3C354.6,114.6,354.7,114.3,354.7,113.9z"/>
	</g>
	<g class="st1">
		<path class="st2" d="M357.3,116.3v-5.7h1.5v1h0.1c0.1-0.4,0.3-0.6,0.5-0.8c0.2-0.2,0.5-0.3,0.9-0.3c0.2,0,0.3,0,0.4,0.1
			c0.1,0,0.2,0.1,0.4,0.2l-0.5,1.3c-0.1,0-0.2-0.1-0.2-0.1c-0.1,0-0.2,0-0.3,0c-0.3,0-0.6,0.1-0.8,0.3s-0.3,0.5-0.3,0.9v3.2H357.3z"
			/>
	</g>
	<g class="st1">
		<path class="st2" d="M365.5,109.3l-0.7,0.4c0.5,0.5,0.8,1,1.1,1.7c0.3,0.6,0.4,1.3,0.4,2.1c0,0.6-0.1,1.1-0.3,1.6
			c-0.2,0.4-0.5,0.8-0.9,1c-0.4,0.2-0.8,0.3-1.4,0.3c-0.5,0-1-0.1-1.4-0.4c-0.4-0.2-0.7-0.6-0.9-1c-0.2-0.4-0.3-0.9-0.3-1.4
			c0-0.5,0.1-1,0.3-1.3s0.4-0.7,0.7-0.9c0.3-0.2,0.6-0.4,0.9-0.4c0.3,0,0.5,0,0.8,0c0.3,0.1,0.5,0.2,0.6,0.4h0.1
			c-0.1-0.2-0.3-0.4-0.4-0.6s-0.3-0.4-0.5-0.5l-1.3,0.7l-0.4-0.8l1-0.5c-0.2-0.1-0.5-0.3-0.8-0.5l0.7-1c0.2,0.1,0.4,0.2,0.6,0.4
			c0.2,0.1,0.4,0.3,0.6,0.5l1-0.5L365.5,109.3z M363.8,115.2c0.4,0,0.6-0.1,0.8-0.4s0.3-0.6,0.3-1.1c0-0.5-0.1-0.9-0.3-1.1
			c-0.2-0.3-0.5-0.4-0.8-0.4c-0.3,0-0.6,0.1-0.8,0.4s-0.3,0.6-0.3,1.1c0,0.5,0.1,0.9,0.3,1.1S363.4,115.2,363.8,115.2z"/>
		<path class="st2" d="M367.9,109.9c-0.2,0-0.4-0.1-0.6-0.2c-0.2-0.2-0.3-0.3-0.3-0.6c0-0.2,0.1-0.4,0.3-0.6
			c0.2-0.2,0.4-0.2,0.6-0.2c0.2,0,0.4,0.1,0.6,0.2c0.2,0.2,0.3,0.3,0.3,0.6c0,0.2-0.1,0.4-0.3,0.6
			C368.4,109.8,368.2,109.9,367.9,109.9z M367.1,116.3v-5.7h1.6v5.7H367.1z"/>
		<path class="st2" d="M369.8,116.3v-5.7h1.5v1h0.1c0.1-0.4,0.3-0.6,0.5-0.8s0.5-0.3,0.9-0.3c0.2,0,0.3,0,0.4,0.1
			c0.1,0,0.2,0.1,0.4,0.2l-0.5,1.3c-0.1,0-0.2-0.1-0.2-0.1c-0.1,0-0.2,0-0.3,0c-0.3,0-0.6,0.1-0.8,0.3s-0.3,0.5-0.3,0.9v3.2H369.8z"
			/>
	</g>
	<g class="st1">
		<path class="st2" d="M285.3,25.3v-7.6h1.6V24h3.3v1.3H285.3z"/>
		<path class="st2" d="M291,25.3v-5.7h1.6v5.7H291z M291.3,18.9l0.8-1.7h1.5l-1.1,1.7H291.3z"/>
		<path class="st2" d="M296.8,19.6v1.2h-1.1v4.5h-1.6v-4.5h-0.8v-1.2h0.8v-0.4c0-0.6,0.2-1.1,0.5-1.4c0.4-0.3,0.8-0.5,1.3-0.5
			c0.2,0,0.5,0,0.7,0.1c0.2,0,0.4,0.1,0.5,0.1l-0.3,1.2c-0.1,0-0.1,0-0.2-0.1c-0.1,0-0.2,0-0.3,0c-0.2,0-0.4,0.1-0.5,0.2
			s-0.1,0.3-0.1,0.5v0.4H296.8z"/>
		<path class="st2" d="M297.6,25.3v-5.7h1.5v1h0.1c0.1-0.3,0.3-0.6,0.6-0.8c0.3-0.2,0.6-0.3,1-0.3c0.4,0,0.7,0.1,1,0.3
			c0.3,0.2,0.5,0.5,0.6,0.8h0.1c0.1-0.3,0.3-0.6,0.6-0.8c0.3-0.2,0.7-0.3,1.1-0.3c0.5,0,1,0.2,1.3,0.5c0.3,0.3,0.5,0.8,0.5,1.4v3.9
			h-1.6v-3.5c0-0.3-0.1-0.6-0.3-0.7c-0.2-0.2-0.4-0.2-0.6-0.2c-0.3,0-0.5,0.1-0.7,0.3c-0.2,0.2-0.2,0.4-0.2,0.7v3.5H301v-3.6
			c0-0.3-0.1-0.5-0.2-0.7c-0.2-0.2-0.4-0.2-0.6-0.2c-0.3,0-0.5,0.1-0.7,0.3c-0.2,0.2-0.3,0.4-0.3,0.8v3.4H297.6z"/>
		<path class="st2" d="M308.6,25.4c-0.5,0-1-0.1-1.4-0.4c-0.4-0.3-0.5-0.7-0.5-1.3c0-0.4,0.1-0.8,0.3-1c0.2-0.2,0.5-0.4,0.8-0.5
			c0.3-0.1,0.7-0.2,1.1-0.2c0.5,0,0.9-0.1,1.1-0.2s0.3-0.2,0.3-0.4v0c0-0.2-0.1-0.4-0.2-0.5c-0.1-0.1-0.4-0.2-0.6-0.2
			c-0.3,0-0.5,0.1-0.7,0.2c-0.2,0.1-0.3,0.3-0.3,0.5l-1.5-0.1c0.1-0.5,0.4-0.9,0.8-1.2c0.4-0.3,1-0.5,1.7-0.5c0.4,0,0.8,0.1,1.2,0.2
			c0.4,0.1,0.7,0.3,0.9,0.6c0.2,0.3,0.3,0.7,0.3,1.1v3.9h-1.5v-0.8h0c-0.1,0.3-0.3,0.5-0.6,0.7S309,25.4,308.6,25.4z M309,24.4
			c0.3,0,0.6-0.1,0.9-0.3s0.3-0.5,0.3-0.8v-0.6c-0.1,0-0.2,0.1-0.3,0.1s-0.3,0.1-0.4,0.1c-0.1,0-0.3,0-0.4,0.1
			c-0.3,0-0.5,0.1-0.7,0.2c-0.2,0.1-0.3,0.3-0.3,0.5c0,0.2,0.1,0.4,0.2,0.5C308.6,24.3,308.8,24.4,309,24.4z"/>
		<path class="st2" d="M317.6,21.2l-1.5,0.1c0-0.2-0.1-0.3-0.3-0.5c-0.2-0.1-0.4-0.2-0.7-0.2c-0.2,0-0.5,0.1-0.6,0.2
			c-0.2,0.1-0.3,0.2-0.3,0.4c0,0.1,0.1,0.3,0.2,0.3c0.1,0.1,0.3,0.2,0.6,0.2l1,0.2c1.1,0.2,1.7,0.7,1.7,1.6c0,0.4-0.1,0.7-0.3,1
			c-0.2,0.3-0.5,0.5-0.9,0.7s-0.8,0.2-1.3,0.2c-0.8,0-1.4-0.2-1.8-0.5c-0.4-0.3-0.7-0.7-0.8-1.3l1.6-0.1c0,0.2,0.2,0.4,0.3,0.5
			c0.2,0.1,0.4,0.2,0.7,0.2c0.3,0,0.5-0.1,0.7-0.2s0.3-0.2,0.3-0.4c0-0.3-0.3-0.5-0.7-0.6l-1-0.2c-1.1-0.2-1.7-0.8-1.7-1.6
			c0-0.6,0.2-1,0.7-1.3c0.4-0.3,1-0.5,1.8-0.5c0.7,0,1.3,0.2,1.7,0.5C317.3,20.3,317.5,20.7,317.6,21.2z"/>
		<path class="st2" d="M323.3,21.2l-1.5,0.1c0-0.2-0.1-0.3-0.3-0.5c-0.2-0.1-0.4-0.2-0.7-0.2c-0.2,0-0.5,0.1-0.6,0.2
			c-0.2,0.1-0.3,0.2-0.3,0.4c0,0.1,0.1,0.3,0.2,0.3c0.1,0.1,0.3,0.2,0.6,0.2l1,0.2c1.1,0.2,1.7,0.7,1.7,1.6c0,0.4-0.1,0.7-0.3,1
			c-0.2,0.3-0.5,0.5-0.9,0.7s-0.8,0.2-1.3,0.2c-0.8,0-1.4-0.2-1.8-0.5c-0.5-0.3-0.7-0.7-0.8-1.3l1.6-0.1c0,0.2,0.2,0.4,0.3,0.5
			c0.2,0.1,0.4,0.2,0.7,0.2c0.3,0,0.5-0.1,0.7-0.2c0.2-0.1,0.3-0.2,0.3-0.4c0-0.3-0.3-0.5-0.7-0.6l-1-0.2c-1.1-0.2-1.7-0.8-1.7-1.6
			c0-0.6,0.2-1,0.7-1.3c0.4-0.3,1-0.5,1.8-0.5c0.7,0,1.3,0.2,1.7,0.5C323,20.3,323.2,20.7,323.3,21.2z"/>
		<path class="st2" d="M325,18.9c-0.2,0-0.4-0.1-0.6-0.2c-0.2-0.2-0.3-0.3-0.3-0.6c0-0.2,0.1-0.4,0.3-0.6c0.2-0.2,0.4-0.2,0.6-0.2
			c0.2,0,0.4,0.1,0.6,0.2c0.2,0.2,0.3,0.3,0.3,0.6c0,0.2-0.1,0.4-0.3,0.6C325.4,18.8,325.2,18.9,325,18.9z M324.2,25.3v-5.7h1.6v5.7
			H324.2z"/>
	</g>
	<g class="st1">
		<path class="st2" d="M276.4,171.5c-0.1-0.4-0.3-0.6-0.6-0.8c-0.3-0.2-0.6-0.3-1-0.3c-0.6,0-1.1,0.2-1.4,0.6
			c-0.4,0.4-0.5,1-0.5,1.8c0,0.8,0.2,1.4,0.5,1.8c0.4,0.4,0.8,0.7,1.4,0.7c0.5,0,1-0.1,1.3-0.4c0.3-0.3,0.5-0.7,0.5-1.1h-1.6v-1.2
			h3.2v1c0,0.7-0.1,1.2-0.4,1.7s-0.7,0.9-1.2,1.1s-1.1,0.4-1.7,0.4c-0.7,0-1.3-0.2-1.9-0.5c-0.5-0.3-1-0.8-1.3-1.4
			c-0.3-0.6-0.5-1.3-0.5-2.1c0-0.8,0.2-1.5,0.5-2.1c0.3-0.6,0.7-1,1.3-1.3c0.5-0.3,1.1-0.5,1.8-0.5c0.6,0,1.1,0.1,1.6,0.3
			c0.5,0.2,0.8,0.5,1.1,0.9c0.3,0.4,0.5,0.8,0.6,1.3H276.4z"/>
		<path class="st2" d="M281.7,176.8c-0.6,0-1.1-0.1-1.5-0.4c-0.4-0.2-0.8-0.6-1-1c-0.2-0.4-0.3-1-0.3-1.6c0-0.6,0.1-1.1,0.3-1.6
			c0.2-0.4,0.6-0.8,1-1c0.4-0.2,0.9-0.4,1.5-0.4c0.5,0,1,0.1,1.4,0.3s0.7,0.5,1,1c0.2,0.4,0.4,1,0.4,1.6v0.4h-3.9v0
			c0,0.4,0.1,0.8,0.3,1c0.2,0.2,0.5,0.4,0.9,0.4c0.3,0,0.5-0.1,0.7-0.2c0.2-0.1,0.3-0.3,0.4-0.5l1.5,0.1c-0.1,0.5-0.4,1-0.9,1.3
			C283,176.6,282.4,176.8,281.7,176.8z M280.4,173.2h2.4c0-0.3-0.1-0.6-0.3-0.8c-0.2-0.2-0.5-0.3-0.8-0.3c-0.4,0-0.6,0.1-0.9,0.3
			C280.6,172.6,280.4,172.9,280.4,173.2z"/>
		<path class="st2" d="M285.1,176.7v-5.7h1.5v1h0.1c0.1-0.4,0.3-0.6,0.5-0.8s0.5-0.3,0.9-0.3c0.2,0,0.3,0,0.5,0.1v1.4
			c-0.1,0-0.2,0-0.3-0.1c-0.1,0-0.3,0-0.4,0c-0.4,0-0.6,0.1-0.9,0.3c-0.2,0.2-0.3,0.5-0.3,0.9v3.2H285.1z"/>
		<path class="st2" d="M289.2,170.9h1.6v6c0,0.7-0.2,1.1-0.6,1.4c-0.4,0.3-0.9,0.4-1.6,0.4c0,0-0.1,0-0.1,0c0,0-0.1,0-0.2,0v-1.2
			c0,0,0.1,0,0.1,0s0.1,0,0.1,0c0.3,0,0.4-0.1,0.5-0.2c0.1-0.1,0.2-0.3,0.2-0.5V170.9z M290,170.2c-0.2,0-0.4-0.1-0.6-0.2
			c-0.2-0.2-0.3-0.3-0.3-0.6c0-0.2,0.1-0.4,0.3-0.6c0.2-0.2,0.4-0.2,0.6-0.2c0.2,0,0.4,0.1,0.6,0.2c0.2,0.2,0.3,0.3,0.3,0.6
			c0,0.2-0.1,0.4-0.3,0.6C290.5,170.1,290.3,170.2,290,170.2z"/>
		<path class="st2" d="M295.5,174.2v-3.3h1.6v5.7h-1.5v-1h-0.1c-0.1,0.3-0.3,0.6-0.6,0.8c-0.3,0.2-0.7,0.3-1.1,0.3
			c-0.6,0-1-0.2-1.4-0.6c-0.4-0.4-0.5-0.9-0.5-1.6v-3.6h1.6v3.4c0,0.3,0.1,0.6,0.3,0.8s0.4,0.3,0.7,0.3c0.3,0,0.5-0.1,0.8-0.3
			C295.4,174.9,295.5,174.6,295.5,174.2z"/>
		<path class="st2" d="M299.8,173.3v3.3h-1.6v-5.7h1.5v1h0.1c0.1-0.3,0.3-0.6,0.6-0.8c0.3-0.2,0.7-0.3,1.1-0.3
			c0.6,0,1.1,0.2,1.4,0.6s0.5,0.9,0.5,1.6v3.6h-1.6v-3.4c0-0.4-0.1-0.6-0.3-0.8c-0.2-0.2-0.4-0.3-0.7-0.3c-0.3,0-0.6,0.1-0.8,0.3
			S299.8,173,299.8,173.3z"/>
	</g>
</g>
</svg>
