<svg width="24" height="24" viewBox="0 0 24 24" fill="none" xmlns="http://www.w3.org/2000/svg">
<path d="M22 6.01189C21.2627 6.35427 20.4724 6.58416 19.6416 6.6885C20.4896 6.157 21.1411 5.31572 21.4467 4.31466C20.6548 4.80541 19.7741 5.16246 18.8405 5.35485C18.0923 4.52009 17.0261 4 15.8462 4C13.5798 4 11.742 5.92059 11.742 8.29117C11.742 8.62703 11.7794 8.95473 11.8496 9.2694C8.43909 9.09005 5.41672 7.38141 3.39194 4.78421C3.03811 5.42006 2.83704 6.157 2.83704 6.94284C2.83704 8.43138 3.56028 9.74547 4.6623 10.5166C3.98893 10.4938 3.35609 10.2998 2.80274 9.97861C2.80274 9.99655 2.80274 10.0145 2.80274 10.0324C2.80274 12.1128 4.21807 13.8459 6.09321 14.2421C5.75029 14.3399 5.38711 14.3921 5.01302 14.3921C4.74803 14.3921 4.49084 14.366 4.23989 14.3138C4.76362 16.0176 6.2787 17.2615 8.07279 17.2958C6.66994 18.4468 4.90079 19.1316 2.97732 19.1316C2.64531 19.1316 2.31954 19.112 2 19.0713C3.81436 20.2908 5.97163 21 8.28945 21C15.8368 21 19.9643 14.4605 19.9643 8.79006C19.9643 8.6042 19.9596 8.41671 19.9534 8.2341C20.7546 7.62923 21.4498 6.87273 22 6.01189Z" fill="#20262D"/>
</svg>
