<svg width="96" height="104" viewBox="0 0 96 104" fill="none" xmlns="http://www.w3.org/2000/svg">
<path d="M84 44C84 72 48 96 48 96C48 96 12 72 12 44C12 34.4522 15.7928 25.2955 22.5442 18.5442C29.2955 11.7928 38.4522 8 48 8C57.5478 8 66.7045 11.7928 73.4558 18.5442C80.2072 25.2955 84 34.4522 84 44Z" stroke="#EDF1F5" stroke-width="10" stroke-linecap="round" stroke-linejoin="round"/>
<path d="M48 56C54.6274 56 60 50.6274 60 44C60 37.3726 54.6274 32 48 32C41.3726 32 36 37.3726 36 44C36 50.6274 41.3726 56 48 56Z" stroke="#EDF1F5" stroke-width="10" stroke-linecap="round" stroke-linejoin="round"/>
</svg>
