<svg viewBox="0 0 133 64" fill="none" xmlns="http://www.w3.org/2000/svg">
<g clip-path="url(#clip0)">
<path d="M20.4258 61.4098C20.4258 62.1976 19.9829 62.597 18.9676 62.9963C17.1637 63.6978 14.6038 64.0108 12.303 64.0108C3.26208 64 0 58.5821 0 48.8041C0 39.1987 4.01819 33.1548 12.2166 33.1548C14.7766 33.1548 17.5958 33.5541 18.6976 34.083C19.2268 34.342 19.4429 34.7845 19.4429 35.4968C19.4429 36.8135 18.5139 37.3423 17.6822 37.1697C16.3644 36.9106 14.6794 36.684 12.7027 36.684C6.83741 36.684 4.40705 40.17 4.40705 48.8472C4.40705 56.9956 6.25412 60.4816 12.5623 60.4816C13.7936 60.4816 15.1222 60.3521 15.9107 60.1255C16.2672 60.0391 16.3104 59.8664 16.3104 59.683V51.3511C16.3104 50.4229 16.1376 50.2071 15.079 50.2071H12.6487C11.6333 50.2071 11.2769 49.3221 11.2769 48.4479C11.2769 47.4334 11.6333 46.6024 12.6487 46.6024H17.4122C20.145 46.6024 20.415 47.7464 20.415 49.9481V61.4098H20.4258Z" fill="#636466"/>
<path d="M29.8664 53.1211C28.4946 53.1642 28.2354 53.6499 28.2354 54.7939C28.2354 58.8951 30.3525 60.7406 35.7749 60.7406C37.676 60.7406 39.1234 60.5248 40.2252 60.255C41.0677 60.0391 41.8994 60.4276 41.8994 61.5285C41.8994 62.1868 41.6834 62.7588 41.1541 63.0287C39.9227 63.6438 38.0216 64 35.3752 64C27.5225 64 24.0876 61.14 24.0876 53.2506V49.9481C24.0876 41.886 28.4514 39.544 33.7442 39.544C40.668 39.544 42.6123 43.289 42.6123 48.4911C42.6123 52.2793 41.867 52.7217 37.4492 52.8513L29.8664 53.1211ZM28.2246 48.5342C28.2246 49.9481 28.8835 50.2071 30.9142 50.2071H35.6345C37.7084 50.2071 38.4105 49.9912 38.4105 48.0917C38.4105 44.3467 37.2655 42.8034 33.6902 42.8034C29.7692 42.8034 28.2246 44.746 28.2246 47.9622V48.5342Z" fill="#636466"/>
<path d="M52.5281 38.8857C52.5281 39.7707 52.6145 39.9865 53.7163 39.9865H56.7623C57.7345 39.9865 57.9505 40.688 57.9505 41.573C57.9505 42.5444 57.7345 43.2459 56.7623 43.2459H53.7163C52.7873 43.2459 52.5281 43.4186 52.5281 44.3899V62.1545C52.5281 63.4712 51.5127 63.741 50.4542 63.741C49.4388 63.741 48.2939 63.4712 48.2939 62.1545V44.4331C48.2939 43.5481 48.2074 43.2459 47.1489 43.2459H45.2586C44.2865 43.2459 44.0272 42.5444 44.0272 41.573C44.0272 40.688 44.2865 39.9865 45.2586 39.9865H47.1057C48.2074 39.9865 48.2939 39.7707 48.2939 38.8857V37.3423C48.2939 33.4246 49.4388 31.169 53.7595 31.169C55.8766 31.169 57.0648 31.3848 57.5076 31.6115C58.0801 31.8705 58.2529 32.3562 58.2529 33.0253C58.2529 33.6405 58.0801 34.2557 57.1944 34.2557H54.9908C53.0466 34.2557 52.5173 35.1406 52.5173 37.515V38.8857H52.5281Z" fill="#636466"/>
<path d="M78.776 62.1545C78.776 63.4712 77.7607 63.741 76.7021 63.741C75.6868 63.741 74.5418 63.4712 74.5418 62.1545V47.6061C74.5418 43.7747 73.0836 42.8034 69.3786 42.8034C67.7476 42.8034 66.5594 42.9761 65.8465 43.2459C65.0148 43.5589 64.9176 44.0877 64.9176 44.9187V62.1545C64.9176 63.4712 63.9022 63.741 62.8437 63.741C61.8283 63.741 60.6833 63.4712 60.6833 62.1545V43.03C60.6833 41.2277 61.1694 40.6449 62.6276 40.3427C64.8312 39.857 67.4776 39.5548 69.5083 39.5548C77.0478 39.5548 78.776 41.7565 78.776 46.6995V62.1545Z" fill="#636466"/>
<path d="M111.181 31.5144L101.794 36.9322L98.7805 38.6698L95.7669 40.4074C93.6822 41.6054 91.6839 41.9724 90.0204 41.4759C89.9556 41.4651 89.772 41.4004 89.5452 41.3032L87.1256 45.5015C85.0409 49.1063 85.5054 50.423 86.3695 51.3727C87.104 52.1821 88.2598 52.9484 92.278 50.9194L118.31 37.6337C119.952 36.7919 121.14 35.7558 121.842 34.5363C122.134 34.0398 122.328 33.5218 122.436 33.0037C122.436 33.0037 122.566 32.5396 122.566 32.0648C122.566 31.8921 122.544 31.687 122.512 31.4928L111.181 31.5144Z" fill="#8AC170"/>
<path d="M129.511 24.3373L104.981 8.45061C103.436 7.4469 101.945 6.95044 100.53 6.95044C99.9579 6.95044 99.4071 7.03678 98.9102 7.19867C98.9102 7.19867 98.4457 7.31739 98.0245 7.55482C97.8624 7.64116 97.6896 7.78147 97.5276 7.90019L103.188 17.6891L103.209 17.6567L112.596 23.0746L115.609 24.8122L118.623 26.5498C120.708 27.7477 122.026 29.3019 122.425 30.9855C122.436 31.0503 122.49 31.2661 122.522 31.5144H122.544H127.394C131.563 31.5144 132.471 30.4567 132.86 29.2263C133.184 28.1902 133.27 26.8088 129.511 24.3373Z" fill="#00ABE6"/>
<path d="M118.623 26.5498L115.609 24.8122L112.596 23.0746L103.209 17.6567L103.188 17.6891L111.181 31.5036H122.523C122.49 31.2553 122.447 31.0395 122.425 30.9747C122.015 29.3019 120.697 27.7477 118.623 26.5498Z" fill="url(#paint0_linear)"/>
<path d="M95.1945 31.5143V20.6894V17.2142V13.739C95.1945 11.343 95.875 9.42194 97.1388 8.23475C97.182 8.19158 97.3332 8.05128 97.5168 7.91097L97.4952 7.8786L95.0757 3.66949C92.991 0.0647677 91.6192 -0.194255 90.3554 0.07556C89.2968 0.312997 88.0546 0.928174 87.7846 5.41789L86.2832 34.5902C86.186 36.425 86.4992 37.9791 87.2013 39.1879C87.493 39.6843 87.8386 40.116 88.2383 40.4722C88.2383 40.4722 88.5731 40.8176 88.9836 41.055C89.1348 41.1413 89.3508 41.2385 89.5345 41.3032L95.1945 31.5143Z" fill="#009A4A"/>
<path d="M95.1943 13.7282V17.2034V20.6786V31.5144L103.177 17.6891L97.5166 7.90021C97.333 8.04051 97.1818 8.18081 97.1386 8.22398C95.8856 9.42196 95.1943 11.3322 95.1943 13.7282Z" fill="url(#paint1_linear)"/>
<path d="M95.756 40.4075L98.7697 38.6699L101.783 36.9323L111.17 31.5144H95.1943L89.5343 41.3032C89.7503 41.3896 89.9448 41.4543 90.0096 41.4759C91.6838 41.9724 93.6821 41.6054 95.756 40.4075Z" fill="url(#paint2_linear)"/>
</g>
<defs>
<linearGradient id="paint0_linear" x1="103.186" y1="24.5867" x2="122.513" y2="24.5867" gradientUnits="userSpaceOnUse">
<stop stop-color="#00ABE6" stop-opacity="0.3"/>
<stop offset="1" stop-color="#00ABE6"/>
</linearGradient>
<linearGradient id="paint1_linear" x1="91.006" y1="14.3589" x2="101.681" y2="25.0432" gradientUnits="userSpaceOnUse">
<stop stop-color="#009A4A"/>
<stop offset="1" stop-color="#009A4A" stop-opacity="0.3"/>
</linearGradient>
<linearGradient id="paint2_linear" x1="100.361" y1="41.6938" x2="100.361" y2="31.5134" gradientUnits="userSpaceOnUse">
<stop stop-color="#009A4A"/>
<stop offset="1" stop-color="#009A4A" stop-opacity="0.3"/>
</linearGradient>
<clipPath id="clip0">
<rect width="133" height="64" fill="white"/>
</clipPath>
</defs>
</svg>
