<?xml version="1.0" encoding="utf-8"?>
<!-- Generator: Adobe Illustrator 23.0.6, SVG Export Plug-In . SVG Version: 6.00 Build 0)  -->
<svg version="1.1" id="teikningar" xmlns="http://www.w3.org/2000/svg" xmlns:xlink="http://www.w3.org/1999/xlink" x="0px" y="0px"
	 viewBox="0 0 400 306.7" style="enable-background:new 0 0 400 306.7;" xml:space="preserve">
<style type="text/css">
	.st0{fill:#333333;}
	.st1{fill:#4AA052;}
</style>
<title>gefn-mynd-07</title>
<path class="st0" d="M276.6,192.1L276.6,192.1c-0.2,0-0.4-0.1-0.6-0.2l-8.6-8.6c-0.3-0.3-0.3-0.9,0-1.2c0.3-0.3,0.9-0.3,1.2,0l8,8
	l8-8c0.3-0.3,0.9-0.3,1.2,0c0.3,0.3,0.3,0.8,0,1.2c0,0,0,0,0,0l-8.6,8.6C277,192,276.8,192.1,276.6,192.1z"/>
<path class="st0" d="M167.6,245.3c-0.3,0-0.6-0.1-0.7-0.4l-6.4-10.4c-0.2-0.4-0.1-0.9,0.3-1.2c0,0,0,0,0,0l10.4-6.4
	c0.4-0.2,0.9-0.1,1.2,0.3s0.1,0.9-0.3,1.2l0,0l-9.7,6l6,9.7c0.2,0.4,0.1,0.9-0.3,1.2c0,0,0,0,0,0
	C167.9,245.3,167.8,245.3,167.6,245.3z"/>
<path class="st0" d="M153.9,158.8c-0.1,0-0.2,0-0.3-0.1c-0.4-0.2-0.6-0.7-0.5-1.1l4.3-10.5l-10.5-4.3c-0.4-0.2-0.6-0.7-0.4-1.1
	c0.2-0.4,0.7-0.6,1.1-0.4l11.3,4.7c0.4,0.2,0.6,0.7,0.5,1.1l-4.7,11.3C154.6,158.6,154.3,158.8,153.9,158.8z"/>
<path class="st0" d="M155.9,233.4c-0.1,0-0.2,0-0.3,0c-27-8.6-43.7-25.2-43.7-43.4c0-18.9,17.7-35.8,46.2-44.1
	c0.5-0.1,0.9,0.1,1.1,0.6s-0.1,0.9-0.6,1.1c-27.7,8.1-45,24.4-45,42.5c0,17.4,16.3,33.4,42.5,41.7c0.4,0.1,0.7,0.6,0.6,1.1
	C156.6,233.2,156.3,233.4,155.9,233.4L155.9,233.4z"/>
<path class="st0" d="M194.7,239.2c-11.3,0.1-22.6-1.3-33.6-4.2c-0.5-0.1-0.8-0.5-0.7-1c0.1-0.5,0.5-0.8,1-0.7c0,0,0.1,0,0.1,0
	c10.8,2.8,22,4.2,33.1,4.1c40.3,0,74.8-17.6,80.3-41c0.1-0.5,0.6-0.7,1-0.6c0.5,0.1,0.7,0.6,0.6,1l0,0
	C271,221,235.8,239.2,194.7,239.2z"/>
<path class="st0" d="M276.6,190.9c-0.5,0-0.9-0.4-0.9-0.8v0c0-22.8-27.8-42.4-66-46.6c-0.5-0.1-0.8-0.5-0.8-0.9
	c0-0.5,0.5-0.8,0.9-0.8c0,0,0,0,0,0c39.1,4.3,67.5,24.6,67.5,48.3C277.4,190.5,277.1,190.8,276.6,190.9z"/>
<path class="st0" d="M163.2,146.3c-0.4,0-0.7-0.3-0.8-0.6c-0.1-0.4,0.2-0.9,0.6-1c5.3-1.3,10.6-2.3,16-2.9c0.5-0.1,0.9,0.3,0.9,0.7
	c0.1,0.5-0.3,0.9-0.7,0.9c-5.3,0.6-10.6,1.5-15.7,2.8L163.2,146.3z"/>
<path class="st0" d="M194.4,118.9c-5.7,0-12-2.9-12-7s6.3-7,12-7s12,2.9,12,7l0,0C206.4,116,200.1,118.9,194.4,118.9z M194.4,106.6
	c-5.2,0-10.3,2.6-10.3,5.3s5.1,5.3,10.3,5.3s10.3-2.6,10.3-5.3l0,0C204.7,109.2,199.6,106.6,194.4,106.6z"/>
<path class="st0" d="M193.5,185.7c-7.7,0-16.2-3.1-20.3-7.3c-0.3-0.3-0.3-0.9,0-1.2c0.3-0.3,0.9-0.3,1.2,0
	c3.8,3.9,11.8,6.8,19.1,6.8c0.5,0,0.8,0.4,0.8,0.9C194.3,185.2,194,185.6,193.5,185.7L193.5,185.7z"/>
<path class="st0" d="M193.5,173.3c-6.3,0-13.4-2.4-16.7-5.8c-0.3-0.3-0.3-0.9,0-1.2c0.3-0.3,0.9-0.3,1.2,0c0,0,0,0,0,0
	c3.1,3.1,9.6,5.3,15.5,5.3c0.5,0,0.8,0.4,0.8,0.9C194.4,173,194,173.3,193.5,173.3L193.5,173.3z"/>
<path class="st0" d="M193.5,160.9c-5.1,0-10.7-1.8-13.4-4.4c-0.3-0.3-0.4-0.9,0-1.2s0.9-0.4,1.2,0l0,0c2.4,2.2,7.5,3.9,12.2,3.9
	c0.5,0,0.9,0.4,0.9,0.8C194.4,160.5,194,160.9,193.5,160.9C193.5,160.9,193.5,160.9,193.5,160.9L193.5,160.9z"/>
<path class="st0" d="M194.4,201h-0.1c-8.1,0-15.8-1.6-21.5-4.6c-6.2-3.2-9.2-10.5-6.9-17.2l15.1-44.7c1.4-4.7,2.1-9.5,2.1-14.4
	l-0.6-8.2c0-0.5,0.4-0.8,0.9-0.8c0.4,0,0.8,0.3,0.8,0.7l0.6,8.3c0.1,5.1-0.7,10.1-2.2,15l-15.1,44.7c-2,5.9,0.6,12.3,6.1,15.1
	c5.5,2.8,12.8,4.4,20.7,4.4l0.1,0.9v-0.9h0.1c7.9,0,15.2-1.6,20.7-4.4c5.5-2.9,8.1-9.3,6.1-15.1l-15.1-44.7
	c-1.5-4.8-2.2-9.8-2.2-14.9l0.6-8.4c0.1-0.5,0.5-0.8,1-0.7c0.4,0.1,0.7,0.4,0.7,0.8l-0.6,8.3c-0.1,4.8,0.6,9.7,2.1,14.3l15.1,44.6
	c2.2,6.7-0.7,14-7,17.2c-5.7,2.9-13.3,4.5-21.5,4.6L194.4,201z"/>
<path class="st1" d="M194.8,113.3c-0.5,0-0.9-0.4-0.9-0.8c0,0,0,0,0,0V84.9c0-0.5,0.4-0.9,0.8-0.9c0.5,0,0.9,0.4,0.9,0.8
	c0,0,0,0,0,0v27.6C195.6,113,195.2,113.3,194.8,113.3z"/>
<path class="st1" d="M195.1,102.4c-0.5,0-0.8-0.4-0.8-0.9c0-0.3,0.2-0.6,0.5-0.7L211,93c0.4-0.2,0.9,0,1.1,0.4
	c0.2,0.4,0,0.9-0.4,1.1l0,0l-16.2,7.8C195.4,102.4,195.2,102.4,195.1,102.4z"/>
<g>
	<g>
		<path class="st1" d="M197.4,92.5c-0.3,0-0.7-0.2-0.8-0.5c-0.2-0.4,0-0.9,0.5-1.1c2.4-0.9,4-3.3,4-5.9c0-6.4-4.7-12-6.3-13.8
			c-1.7,1.8-6.3,7.5-6.3,13.8c0,2.6,1.6,4.9,4,5.9c0.4,0.2,0.6,0.7,0.5,1.1c-0.2,0.4-0.7,0.7-1.1,0.5c-3.1-1.2-5-4.2-5-7.5
			c0-8.4,7.1-15.4,7.4-15.7c0.3-0.3,0.8-0.3,1.2,0c0.3,0.3,7.4,7.2,7.4,15.7c0,3.3-2.1,6.3-5.1,7.5
			C197.6,92.4,197.5,92.5,197.4,92.5z"/>
	</g>
	<g>
		<path class="st1" d="M211.3,101.9c-2,0-4-0.8-5.5-2.2c-0.3-0.3-0.4-0.9,0-1.2c0.3-0.3,0.9-0.4,1.2,0c1.9,1.8,4.7,2.2,7.1,1.1
			c5.7-2.7,8.8-9.4,9.7-11.7c-2.4-0.7-9.5-2.5-15.2,0.3c-2.3,1.1-3.7,3.5-3.6,6.1c0,0.5-0.3,0.9-0.8,0.9c-0.5,0-0.9-0.3-0.9-0.8
			c-0.2-3.3,1.6-6.3,4.5-7.7c7.6-3.6,17-0.2,17.3-0.1c0.4,0.2,0.7,0.6,0.5,1.1c-0.1,0.4-3.3,9.8-10.9,13.5
			C213.6,101.7,212.4,101.9,211.3,101.9z"/>
	</g>
</g>
</svg>
