<?xml version="1.0" encoding="utf-8"?>
<!-- Generator: Adobe Illustrator 23.0.6, SVG Export Plug-In . SVG Version: 6.00 Build 0)  -->
<svg version="1.1" id="teikningar" xmlns="http://www.w3.org/2000/svg" xmlns:xlink="http://www.w3.org/1999/xlink" x="0px" y="0px"
	 viewBox="0 0 394 300" style="enable-background:new 0 0 394 300;" xml:space="preserve">
<style type="text/css">
	.st0{fill:#DCF1D4;}
	.st1{fill:#B1DBA1;}
	.st2{fill:#66A8D4;}
	.st3{fill:#4AA052;}
	.st4{fill:#333333;}
	.st5{fill:#FFFFFF;stroke:#4AA052;stroke-width:0.39;stroke-miterlimit:10;}
	.st6{fill:#D8D8D8;}
	.st7{fill:none;stroke:#4AA052;stroke-width:0.6;stroke-miterlimit:10;}
	.st8{fill:#C3C3C3;}
	.st9{fill:none;}
</style>
<title>gefn-mynd-07</title>
<polygon class="st0" points="219.1,54.1 235.5,62.2 235.5,79.8 219.1,71.3 "/>
<polygon class="st1" points="313.9,54.1 297.6,62.2 297.6,79.8 313.9,71.3 "/>
<polygon class="st0" points="252.1,53.4 237,60.9 224.5,54.7 239.6,47.3 "/>
<polygon class="st1" points="308.1,54.5 296,60.4 281.2,53.2 293.3,47.4 "/>
<polygon class="st2" points="280.9,53.1 266.2,60.3 252.1,53.4 266.7,46.3 "/>
<path class="st3" d="M315.8,50l-47.6-23.2c-1.1-0.5-2.4-0.5-3.5,0L217.1,50c-1.4,0.7-2.2,2.1-2.2,3.6v54.3c0,1.5,0.9,2.9,2.2,3.6
	l47.6,23.1c0.5,0.3,1.1,0.4,1.7,0.4l0,0c0.6,0,1.2-0.1,1.7-0.4l47.6-23.1c1.4-0.7,2.2-2.1,2.2-3.6V53.5C318,52,317.1,50.7,315.8,50z
	 M267.3,35.3L305.8,54c0.4,0.2,0.5,0.7,0.4,1c-0.1,0.2-0.2,0.3-0.4,0.4L267.3,74c-0.6,0.3-1.3,0.3-1.9,0L227,55.3
	c-0.4-0.2-0.6-0.6-0.4-1c0.1-0.2,0.2-0.3,0.4-0.4l38.4-18.7C266,35,266.7,35,267.3,35.3L267.3,35.3z M223.9,58.2l39.4,19.1
	c0.7,0.4,1.2,1.1,1.2,1.9v45.1c0,0.4-0.4,0.8-0.8,0.8c-0.1,0-0.2,0-0.3-0.1L224,105.9c-0.7-0.4-1.2-1.1-1.2-1.9V58.9
	c0-0.4,0.4-0.8,0.8-0.8C223.7,58.2,223.8,58.2,223.9,58.2z M268.4,124.3V79.3c0-0.8,0.5-1.6,1.2-1.9l39.3-19.1c0.4-0.2,0.9,0,1,0.4
	c0.1,0.1,0.1,0.2,0.1,0.3V104c0,0.8-0.5,1.6-1.2,1.9L269.5,125c-0.4,0.2-0.9,0-1-0.4C268.4,124.5,268.4,124.4,268.4,124.3
	L268.4,124.3z"/>
<rect x="235.2" y="61.5" class="st3" width="0.6" height="50.4"/>
<rect x="249.4" y="68.5" class="st3" width="0.6" height="50.5"/>
<rect x="297.3" y="61.5" class="st3" width="0.6" height="50.2"/>
<rect x="282.6" y="68.5" class="st3" width="0.6" height="50.5"/>
<rect x="244.2" y="59.6" transform="matrix(0.4379 -0.899 0.899 0.4379 61.86 267.0259)" class="st3" width="0.6" height="48.8"/>
<rect x="244.4" y="75.1" transform="matrix(0.4379 -0.899 0.899 0.4379 47.8328 276.0451)" class="st3" width="0.6" height="49.3"/>
<rect x="264" y="99.4" transform="matrix(0.8989 -0.4381 0.4381 0.8989 -14.5288 136.392)" class="st3" width="48.8" height="0.6"/>
<rect x="263.9" y="83.7" transform="matrix(0.8989 -0.4381 0.4381 0.8989 -7.6164 134.896)" class="st3" width="49.3" height="0.6"/>
<rect x="261.2" y="34.1" transform="matrix(0.4392 -0.8984 0.8984 0.4392 94.5271 267.4291)" class="st3" width="0.6" height="47.8"/>
<rect x="247.3" y="57.6" transform="matrix(0.8989 -0.4381 0.4381 0.8989 2.0376 124.7246)" class="st3" width="48" height="0.6"/>
<rect x="233.1" y="50.7" transform="matrix(0.8989 -0.4381 0.4381 0.8989 3.6177 117.7616)" class="st3" width="48" height="0.6"/>
<rect x="275.9" y="27.1" transform="matrix(0.4379 -0.899 0.899 0.4379 109.5269 276.9174)" class="st3" width="0.6" height="47.6"/>
<path class="st4" d="M238.8,54.8c-0.4,0-0.8-0.4-0.8-0.8V18.2c0-0.5,0.4-0.9,0.8-0.9c0.5,0,0.9,0.4,0.9,0.8c0,0,0,0,0,0V54
	C239.7,54.5,239.3,54.8,238.8,54.8C238.8,54.8,238.8,54.8,238.8,54.8z"/>
<path class="st4" d="M238.8,54.8c-0.2,0-0.4-0.1-0.6-0.2l-5.9-5.9c-0.3-0.4-0.3-0.9,0.1-1.2c0.3-0.3,0.8-0.3,1.1,0l5.3,5.3l5.3-5.3
	c0.4-0.3,0.9-0.3,1.2,0.1c0.3,0.3,0.3,0.8,0,1.1l-5.9,5.9C239.2,54.7,239,54.8,238.8,54.8z"/>
<path class="st4" d="M266.4,54.8c-0.5,0-0.9-0.4-0.9-0.8v0V18.2c0-0.5,0.4-0.9,0.9-0.9s0.9,0.4,0.9,0.9V54
	C267.3,54.5,266.9,54.8,266.4,54.8z"/>
<path class="st4" d="M266.4,54.8c-0.2,0-0.4-0.1-0.6-0.2l-5.9-5.9c-0.3-0.4-0.3-0.9,0.1-1.2c0.3-0.3,0.8-0.3,1.1,0l5.3,5.3l5.3-5.3
	c0.3-0.3,0.9-0.3,1.2,0c0.3,0.3,0.3,0.9,0,1.2l-6,5.9C266.8,54.7,266.6,54.8,266.4,54.8z"/>
<path class="st4" d="M294.6,54.8c-0.5,0-0.8-0.4-0.9-0.8V18.2c0-0.5,0.4-0.9,0.9-0.9s0.9,0.4,0.9,0.9V54
	C295.5,54.5,295.1,54.8,294.6,54.8z"/>
<path class="st4" d="M294.6,54.8c-0.2,0-0.4-0.1-0.6-0.2l-5.9-5.9c-0.3-0.4-0.3-0.9,0.1-1.2c0.3-0.3,0.8-0.3,1.1,0l5.3,5.3l5.4-5.3
	c0.4-0.3,0.9-0.3,1.2,0.1c0.3,0.3,0.3,0.8,0,1.1l-5.9,5.9C295.1,54.8,294.9,54.8,294.6,54.8z"/>
<path class="st4" d="M320.9,122.9c-0.1,0-0.3,0-0.4-0.1l-29.8-14c-0.4-0.2-0.6-0.7-0.4-1.1c0.2-0.4,0.7-0.6,1.1-0.4l29.8,14
	c0.4,0.2,0.6,0.7,0.4,1.1C321.5,122.7,321.2,122.9,320.9,122.9z"/>
<path class="st4" d="M314.6,125.1c-0.5,0-0.9-0.4-0.9-0.8c0-0.4,0.2-0.7,0.6-0.8l5.4-2l-2-5.4c-0.2-0.4,0.1-0.9,0.5-1.1
	s0.9,0.1,1.1,0.5l2.2,6.2c0.2,0.4-0.1,0.9-0.5,1.1l-6.2,2.2C314.8,125.1,314.7,125.1,314.6,125.1z"/>
<polygon class="st5" points="297.5,271.1 312.5,263.9 312.5,232.1 297.6,225 282.9,232.1 282.9,264 "/>
<path class="st3" d="M315.8,195.4l-47.6-23.1c-1.1-0.5-2.4-0.5-3.5,0l-19.6,9.5l-18.9,40.7l-9.1,4.5c-1.4,0.7-2.2,2.1-2.2,3.6v22.7
	c0,1.5,0.9,2.9,2.2,3.6l47.6,23.1c0.5,0.3,1.1,0.4,1.7,0.4l0,0c0.6,0,1.2-0.1,1.7-0.4l47.6-23.1c1.4-0.7,2.2-2.1,2.2-3.6V199
	C318,197.5,317.1,196.1,315.8,195.4z M267.3,180.7l38.4,18.7c0.4,0.2,0.5,0.7,0.4,1c-0.1,0.2-0.2,0.3-0.4,0.4l-38.4,18.7
	c-0.6,0.3-1.3,0.3-1.9,0L227,200.8c-0.4-0.2-0.6-0.6-0.4-1c0.1-0.2,0.2-0.3,0.4-0.4l38.4-18.7C266,180.4,266.7,180.4,267.3,180.7
	L267.3,180.7z M232.7,229.6l1.2-21l29.2,14.2c0.7,0.4,1.2,1.1,1.2,1.9v45.1c0,0.4-0.3,0.8-0.8,0.8c-0.1,0-0.2,0-0.3-0.1L224,251.4
	c-0.7-0.4-1.2-1.1-1.2-1.9v-15L232.7,229.6z M268.4,269.8v-45.1c0-0.8,0.5-1.6,1.2-1.9l39.3-19.1c0.4-0.2,0.9,0,1,0.4
	c0.1,0.1,0.1,0.2,0.1,0.3v45.1c0,0.8-0.5,1.6-1.2,1.9l-39.3,19.1c-0.4,0.2-0.9,0-1-0.4C268.4,270,268.4,269.9,268.4,269.8z"/>
<polygon class="st6" points="249.7,247.8 222.5,234.4 245.1,222.8 255.2,185.9 281,198.7 249.8,213.9 "/>
<rect x="234.1" y="240.3" class="st3" width="0.6" height="16.7"/>
<rect x="249.4" y="213.9" class="st3" width="0.6" height="50.5"/>
<rect x="297.3" y="207" class="st3" width="0.6" height="50.2"/>
<rect x="282.6" y="213.9" class="st3" width="0.6" height="50.5"/>
<rect x="254.9" y="222.3" transform="matrix(0.4379 -0.899 0.899 0.4379 -67.5638 361.3691)" class="st3" width="0.6" height="24.9"/>
<rect x="243.8" y="220.3" transform="matrix(0.4379 -0.899 0.899 0.4379 -82.9888 357.1686)" class="st3" width="0.6" height="49.3"/>
<rect x="264" y="244.8" transform="matrix(0.8989 -0.4381 0.4381 0.8989 -78.2445 151.0928)" class="st3" width="48.8" height="0.6"/>
<rect x="263.9" y="229.1" transform="matrix(0.8989 -0.4381 0.4381 0.8989 -71.3332 149.5924)" class="st3" width="49.3" height="0.6"/>
<rect x="261.2" y="179.5" transform="matrix(0.4392 -0.8984 0.8984 0.4392 -36.1503 348.9998)" class="st3" width="0.6" height="47.8"/>
<rect x="247.3" y="203.1" transform="matrix(0.8989 -0.4381 0.4381 0.8989 -61.6886 139.4205)" class="st3" width="48.1" height="0.6"/>
<rect x="266.2" y="188.5" transform="matrix(0.8989 -0.4381 0.4381 0.8989 -55.1606 138.5612)" class="st3" width="13.1" height="0.6"/>
<rect x="275.9" y="172.5" transform="matrix(0.4379 -0.899 0.899 0.4379 -21.2221 358.6823)" class="st3" width="0.6" height="47.6"/>
<line class="st7" x1="249.8" y1="232.8" x2="234.4" y2="240.3"/>
<path class="st8" d="M312.5,232.1v31.7l-15,7.2l-14.5-7.1v-31.9l14.7-7.1L312.5,232.1z"/>
<path class="st3" d="M297.5,271.4l-0.1-0.1l-14.8-7.2v-32.2l15-7.3l15.1,7.3v32.1L297.5,271.4z M283.2,263.8l14.3,7l14.6-7.1v-31.4
	l-14.6-7l-14.4,7V263.8z"/>
<rect x="281.7" y="254.9" transform="matrix(3.316162e-03 -1 1 3.316162e-03 41.3971 551.9403)" class="st3" width="31.8" height="0.6"/>
<line class="st9" x1="282.9" y1="232.1" x2="297.6" y2="239.3"/>
<rect x="290" y="227.5" transform="matrix(0.4379 -0.899 0.899 0.4379 -48.735 393.429)" class="st3" width="0.6" height="16.3"/>
<polygon class="st3" points="297.6,255.3 297.5,255.2 282.8,248.1 283.1,247.6 297.6,254.6 312.8,247 313.1,247.5 "/>
<line class="st9" x1="312.8" y1="231.9" x2="297.6" y2="239.3"/>
<rect x="296.8" y="235.3" transform="matrix(0.8989 -0.4381 0.4381 0.8989 -72.3669 157.4972)" class="st3" width="16.9" height="0.6"/>
<polygon class="st2" points="204.7,186.7 204.7,219.7 235.6,234.9 249.7,228.1 249.8,212.8 266.5,204.5 266.7,186.5 235.4,171.7 "/>
<path class="st3" d="M235.6,235.2c0,0-0.1,0-0.1,0L204.6,220c-0.1-0.1-0.2-0.2-0.2-0.3v-33c0-0.1,0.1-0.2,0.2-0.3l30.7-15
	c0.1,0,0.2,0,0.3,0l31.3,14.8c0.1,0.1,0.2,0.2,0.2,0.3l-0.1,18c0,0.1-0.1,0.2-0.2,0.3l-16.6,8.2v15.1c0,0.1-0.1,0.2-0.2,0.3
	l-14.2,6.8C235.7,235.2,235.6,235.2,235.6,235.2z M205,219.5l30.6,15.1l13.8-6.6v-15.1c0-0.1,0.1-0.2,0.2-0.3l16.6-8.2l0.1-17.6
	l-31-14.6L205,186.9V219.5z"/>
<path class="st3" d="M235.6,201.9c0,0-0.1,0-0.1,0l-30.9-15c-0.1-0.1-0.2-0.2-0.1-0.4c0,0,0,0,0,0c0.1-0.1,0.2-0.2,0.4-0.1
	c0,0,0,0,0,0l30.7,14.9l30.6-14.9c0.2-0.1,0.3,0,0.4,0.2c0.1,0.1,0,0.3-0.1,0.4l-30.7,15C235.7,201.9,235.7,201.9,235.6,201.9z"/>
<polygon class="st3" points="235.3,234.9 235.3,201.6 235.9,201.6 235.9,234.9 "/>
<path class="st3" d="M219,226.3c-0.2,0-0.3-0.1-0.3-0.3l0,0v-32.4c0-0.1,0.1-0.2,0.2-0.3l30.9-15c0.2-0.1,0.3,0,0.4,0.2
	c0.1,0.1,0,0.3-0.1,0.4l-30.8,15V226C219.3,226.2,219.2,226.3,219,226.3C219,226.3,219,226.3,219,226.3z"/>
<path class="st3" d="M251.8,212.3c-0.2,0-0.3-0.1-0.3-0.3l0,0v-17.9l-30.4-15.2c-0.2-0.1-0.2-0.2-0.2-0.4c0.1-0.2,0.2-0.2,0.4-0.2
	c0,0,0,0,0.1,0l30.6,15.3c0.1,0.1,0.2,0.2,0.2,0.3V212C252.1,212.2,252,212.3,251.8,212.3C251.8,212.3,251.8,212.3,251.8,212.3z"/>
<path class="st3" d="M235.7,220c0,0-0.1,0-0.1,0l-30.9-16.1c-0.1-0.1-0.2-0.3-0.1-0.4c0.1-0.1,0.2-0.2,0.3-0.1l30.8,16l30.2-14.7
	c0.1-0.1,0.3,0,0.4,0.1c0.1,0.2,0,0.3-0.1,0.4l-30.3,14.8C235.8,220,235.7,220,235.7,220z"/>
<path class="st3" d="M247.7,246.6c-0.3,0-0.6-0.3-0.8-0.4l-30.4-14.6c-0.8-0.3-1.3-1.2-1-2.1c0-0.1,0.1-0.2,0.1-0.2
	c0.5-1,1.6-1.4,2.6-0.9l27.5,13.2v-28.7c0-0.7,0.4-1.4,1.1-1.8l25.8-12.5l-6.1-2.9l0.3-4.2l11.2,5.3c0.7,0.3,3.6,1.6,2.9,1.9
	l-31.2,15.3V247C249.6,247.7,248.1,246.6,247.7,246.6z"/>
<polygon class="st1" points="165.1,199.7 148.8,207.8 148.8,259.3 165.1,250.8 "/>
<polygon class="st2" points="148.8,205.8 134.2,213.9 134.2,265.4 148.8,256.9 "/>
<polygon class="st1" points="160.5,200.3 148.5,206.6 101.5,183.5 113.6,177.6 "/>
<polygon class="st2" points="147.7,206.2 132.8,213.2 85.9,190.4 100.1,182.8 "/>
<path class="st3" d="M167.1,195.4l-47.6-23.1c-1.1-0.5-2.4-0.5-3.5,0l-47.6,23.1c-1.4,0.7-2.2,2.1-2.2,3.6v54.3
	c0,1.5,0.9,2.9,2.2,3.6l47.6,23.1c0.5,0.3,1.1,0.4,1.7,0.4l0,0c0.6,0,1.2-0.1,1.7-0.4l47.6-23.1c1.4-0.7,2.2-2.1,2.2-3.6V199
	C169.4,197.5,168.5,196.1,167.1,195.4z M118.7,180.7l38.4,18.7c0.4,0.2,0.6,0.6,0.4,1c-0.1,0.2-0.2,0.3-0.4,0.4l-38.4,18.7
	c-0.6,0.3-1.3,0.3-1.9,0l-38.4-18.7c-0.4-0.2-0.5-0.7-0.4-1c0.1-0.2,0.2-0.3,0.4-0.4l38.4-18.7C117.4,180.4,118.1,180.4,118.7,180.7
	z M75.2,203.7l39.3,19.1c0.7,0.4,1.2,1.1,1.2,1.9v45.1c0,0.4-0.4,0.8-0.8,0.8c-0.1,0-0.2,0-0.3-0.1l-39.3-19.1
	c-0.7-0.4-1.2-1.1-1.2-1.9v-45.1c0-0.4,0.4-0.8,0.8-0.8C75,203.6,75.1,203.6,75.2,203.7z M119.8,269.8v-45.1c0-0.8,0.5-1.6,1.2-1.9
	l39.4-19.1c0.4-0.2,0.8,0,1,0.4c0.1,0.1,0.1,0.2,0.1,0.3v45.1c0,0.8-0.5,1.6-1.2,1.9l-39.3,19.1c-0.4,0.2-0.8,0-1-0.4
	C119.8,270,119.8,269.9,119.8,269.8z"/>
<rect x="86.6" y="207" class="st3" width="0.6" height="50.4"/>
<rect x="100.8" y="213.9" class="st3" width="0.6" height="50.5"/>
<line class="st7" x1="149" y1="207" x2="149" y2="257.2"/>
<line class="st7" x1="134.3" y1="213.9" x2="134.3" y2="264.4"/>
<rect x="95.5" y="205.1" transform="matrix(0.4379 -0.899 0.899 0.4379 -152.4486 215.1604)" class="st3" width="0.6" height="48.8"/>
<rect x="95.8" y="220.6" transform="matrix(0.4379 -0.899 0.899 0.4379 -166.4691 224.1992)" class="st3" width="0.6" height="49.3"/>
<rect x="115.3" y="244.8" transform="matrix(0.8989 -0.4381 0.4381 0.8989 -93.2634 85.9839)" class="st3" width="48.8" height="0.6"/>
<rect x="115.3" y="229.1" transform="matrix(0.8989 -0.4381 0.4381 0.8989 -86.352 84.4835)" class="st3" width="49.3" height="0.6"/>
<line class="st7" x1="91.3" y1="192.9" x2="134.3" y2="213.9"/>
<rect x="98.7" y="203.1" transform="matrix(0.8989 -0.4381 0.4381 0.8989 -76.6942 74.32)" class="st3" width="48" height="0.6"/>
<rect x="84.4" y="196.2" transform="matrix(0.8989 -0.4381 0.4381 0.8989 -75.1144 67.3462)" class="st3" width="48" height="0.6"/>
<line class="st7" x1="106.2" y1="185.9" x2="149" y2="206.7"/>
<path class="st4" d="M89.4,200.3c-0.5,0-0.8-0.4-0.8-0.9l0,0v-35.8c0-0.5,0.4-0.8,0.9-0.8c0.5,0,0.8,0.4,0.8,0.8v35.8
	C90.2,199.9,89.8,200.3,89.4,200.3C89.4,200.3,89.4,200.3,89.4,200.3z"/>
<path class="st4" d="M89.4,200.3c-0.2,0-0.4-0.1-0.6-0.2l-5.9-5.9c-0.4-0.3-0.4-0.8-0.1-1.2s0.8-0.4,1.2-0.1c0,0,0,0,0.1,0.1
	l5.3,5.3l5.3-5.3c0.3-0.3,0.8-0.3,1.2,0c0,0,0,0,0,0c0.3,0.3,0.3,0.9,0,1.2L90,200C89.8,200.2,89.6,200.3,89.4,200.3z"/>
<path class="st4" d="M117,200.3c-0.5,0-0.9-0.4-0.9-0.9v-35.8c0.1-0.5,0.5-0.8,0.9-0.8c0.4,0,0.7,0.4,0.8,0.8v35.8
	C117.8,199.9,117.5,200.3,117,200.3z"/>
<path class="st4" d="M117,200.3c-0.2,0-0.4-0.1-0.6-0.2l-5.9-5.9c-0.3-0.3-0.3-0.9,0-1.2c0.3-0.3,0.8-0.3,1.2,0c0,0,0,0,0,0l5.3,5.3
	l5.3-5.3c0.3-0.3,0.8-0.3,1.2,0c0,0,0,0,0,0c0.3,0.3,0.3,0.9,0,1.2l-5.9,5.9C117.4,200.2,117.2,200.3,117,200.3z"/>
<path class="st4" d="M145.2,200.3c-0.5,0-0.9-0.4-0.9-0.8v0v-35.8c0-0.5,0.4-0.8,0.9-0.8c0.5,0,0.8,0.4,0.8,0.8v35.8
	C146,199.9,145.7,200.3,145.2,200.3z"/>
<path class="st4" d="M145.2,200.3c-0.2,0-0.4-0.1-0.6-0.2l-5.9-5.9c-0.3-0.3-0.3-0.9,0-1.2s0.9-0.3,1.2,0l5.3,5.3l5.3-5.3
	c0.3-0.3,0.8-0.3,1.2,0c0,0,0,0,0,0c0.3,0.3,0.3,0.9,0,1.2l-5.9,5.9C145.6,200.2,145.4,200.3,145.2,200.3z"/>
<path class="st4" d="M185.9,261.7c-0.1,0-0.2,0-0.4-0.1l-29.8-14c-0.4-0.2-0.5-0.8-0.3-1.2c0.2-0.4,0.7-0.5,1-0.4l29.8,14
	c0.4,0.2,0.6,0.7,0.4,1.1C186.5,261.5,186.2,261.7,185.9,261.7z"/>
<path class="st4" d="M179.6,264c-0.4,0-0.7-0.2-0.8-0.6c-0.2-0.4,0.1-0.9,0.5-1.1c0,0,0,0,0,0l5.4-2l-2-5.4
	c-0.2-0.4,0.1-0.9,0.5-1.1c0.4-0.2,0.9,0.1,1.1,0.5l2.2,6.2c0.2,0.4-0.1,0.9-0.5,1.1c0,0,0,0,0,0l-6.2,2.2
	C179.8,264,179.7,264,179.6,264z"/>
<path class="st4" d="M171.8,268c-0.1,0-0.2,0-0.4-0.1l-29.8-14c-0.4-0.2-0.6-0.7-0.4-1.1s0.7-0.6,1.1-0.4l0,0l29.8,14
	c0.4,0.2,0.6,0.7,0.4,1.1C172.5,267.8,172.2,268,171.8,268L171.8,268z"/>
<path class="st4" d="M165.6,270.2c-0.4,0-0.7-0.2-0.8-0.6c-0.2-0.4,0.1-0.9,0.5-1.1c0,0,0,0,0,0l5.4-2l-2-5.5
	c-0.2-0.4,0.1-0.9,0.5-1.1c0.4-0.2,0.9,0.1,1.1,0.5l2.2,6.2c0.2,0.4-0.1,0.9-0.5,1.1c0,0,0,0,0,0l-6.2,2.2
	C165.8,270.2,165.7,270.2,165.6,270.2z"/>
<path class="st4" d="M156.9,275.1c-0.1,0-0.2,0-0.4-0.1l-29.8-14c-0.4-0.2-0.6-0.7-0.4-1.1c0.2-0.4,0.7-0.6,1.1-0.4l29.8,14
	c0.4,0.2,0.6,0.7,0.4,1.1C157.6,274.9,157.3,275.1,156.9,275.1z"/>
<path class="st4" d="M150.7,277.3c-0.4,0-0.7-0.2-0.8-0.6c-0.2-0.4,0.1-0.9,0.5-1.1c0,0,0,0,0,0l5.4-2l-2-5.4
	c-0.2-0.4,0.1-0.9,0.5-1.1s0.9,0.1,1.1,0.5l2.2,6.2c0.1,0.2,0.1,0.4,0,0.6c-0.1,0.2-0.3,0.4-0.5,0.4l-6.2,2.3
	C150.9,277.3,150.8,277.3,150.7,277.3z"/>
<polygon class="st0" points="100.9,102.2 117.2,110.4 117.2,127.9 100.9,119.5 "/>
<polygon class="st0" points="134,102.2 117.7,110.4 117.7,127.9 134,119.5 "/>
<polygon class="st2" points="148.7,95.2 134,102.2 134,119.8 148.7,112.4 "/>
<polygon class="st1" points="163.4,88.2 148.7,95.2 148.7,112.7 163.4,105.4 "/>
<path class="st3" d="M166.9,50l-47.6-23.2c-1.1-0.5-2.4-0.5-3.5,0L68.2,50c-1.4,0.7-2.2,2.1-2.2,3.6v54.3c0,1.5,0.9,2.9,2.2,3.6
	l47.6,23.1c0.5,0.3,1.1,0.4,1.7,0.4l0,0c0.6,0,1.2-0.1,1.7-0.4l47.6-23.1c1.4-0.7,2.2-2.1,2.2-3.6V53.5
	C169.1,52,168.2,50.7,166.9,50z M118.5,35.3L156.9,54c0.4,0.2,0.5,0.7,0.4,1c-0.1,0.2-0.2,0.3-0.4,0.4L118.5,74
	c-0.6,0.3-1.3,0.3-1.9,0L78.2,55.3c-0.4-0.2-0.5-0.7-0.4-1c0.1-0.2,0.2-0.3,0.4-0.4l38.4-18.7C117.2,35,117.9,35,118.5,35.3
	L118.5,35.3z M75,58.2l39.3,19.1c0.7,0.4,1.2,1.1,1.2,1.9v45.1c0,0.4-0.4,0.8-0.8,0.8c-0.1,0-0.2,0-0.3-0.1l-39.4-19.1
	c-0.7-0.4-1.2-1.1-1.2-1.9V58.9c0-0.4,0.3-0.8,0.8-0.8C74.8,58.1,74.9,58.2,75,58.2z M119.5,124.3V79.3c0-0.8,0.5-1.6,1.2-1.9
	l39.4-19.1c0.4-0.2,0.9,0,1,0.4c0.1,0.1,0.1,0.2,0.1,0.3V104c0,0.8-0.5,1.6-1.2,1.9L120.6,125c-0.4,0.2-0.9,0-1-0.4
	C119.5,124.5,119.5,124.4,119.5,124.3L119.5,124.3z"/>
<rect x="86.3" y="61.5" class="st3" width="0.6" height="50.4"/>
<rect x="100.6" y="68.5" class="st3" width="0.6" height="50.5"/>
<rect x="148.4" y="61.5" class="st3" width="0.6" height="50.2"/>
<rect x="133.8" y="68.5" class="st3" width="0.6" height="50.5"/>
<rect x="95.3" y="59.6" transform="matrix(0.4379 -0.899 0.899 0.4379 -21.8456 133.1694)" class="st3" width="0.6" height="48.8"/>
<rect x="95.5" y="75.1" transform="matrix(0.4379 -0.899 0.899 0.4379 -35.8571 142.2026)" class="st3" width="0.6" height="49.3"/>
<line class="st7" x1="117.5" y1="110.4" x2="161.4" y2="89"/>
<g>
	<path class="st4" d="M185.4,115.4c-0.1,0-0.2,0-0.4-0.1l-29.8-14c-0.4-0.2-0.5-0.8-0.3-1.2c0.2-0.4,0.7-0.5,1-0.4l29.8,14
		c0.4,0.2,0.6,0.7,0.4,1.1C186.1,115.3,185.8,115.4,185.4,115.4z"/>
	<path class="st4" d="M179.2,117.7c-0.4,0-0.7-0.2-0.8-0.6c-0.2-0.4,0.1-0.9,0.5-1.1c0,0,0,0,0,0l5.4-2l-2-5.4
		c-0.2-0.4,0.1-0.9,0.5-1.1c0.4-0.2,0.9,0.1,1.1,0.5l2.2,6.2c0.2,0.4-0.1,0.9-0.5,1.1c0,0,0,0,0,0l-6.2,2.2
		C179.4,117.7,179.3,117.7,179.2,117.7z"/>
	<path class="st4" d="M171.4,121.7c-0.1,0-0.2,0-0.4-0.1l-29.8-14c-0.4-0.2-0.6-0.7-0.4-1.1s0.7-0.6,1.1-0.4l0,0l29.8,14
		c0.4,0.2,0.6,0.7,0.4,1.1C172,121.6,171.7,121.7,171.4,121.7L171.4,121.7z"/>
	<path class="st4" d="M165.2,124c-0.4,0-0.7-0.2-0.8-0.6c-0.2-0.4,0.1-0.9,0.5-1.1c0,0,0,0,0,0l5.4-2l-2-5.5
		c-0.2-0.4,0.1-0.9,0.5-1.1c0.4-0.2,0.9,0.1,1.1,0.5l2.2,6.2c0.2,0.4-0.1,0.9-0.5,1.1c0,0,0,0,0,0l-6.2,2.2
		C165.3,123.9,165.2,124,165.2,124z"/>
	<path class="st4" d="M156.5,128.8c-0.1,0-0.2,0-0.4-0.1l-29.8-14c-0.4-0.2-0.6-0.7-0.4-1.1c0.2-0.4,0.7-0.6,1.1-0.4l29.8,14
		c0.4,0.2,0.6,0.7,0.4,1.1C157.1,128.6,156.8,128.8,156.5,128.8z"/>
	<path class="st4" d="M150.2,131.1c-0.4,0-0.7-0.2-0.8-0.6c-0.2-0.4,0.1-0.9,0.5-1.1c0,0,0,0,0,0l5.4-2l-2-5.4
		c-0.2-0.4,0.1-0.9,0.5-1.1s0.9,0.1,1.1,0.5l2.2,6.2c0.1,0.2,0.1,0.4,0,0.6c-0.1,0.2-0.3,0.4-0.5,0.4l-6.2,2.3
		C150.5,131.1,150.4,131.1,150.2,131.1z"/>
</g>
<rect x="115" y="83.7" transform="matrix(0.8989 -0.4381 0.4381 0.8989 -22.6609 69.6756)" class="st3" width="49.3" height="0.6"/>
<rect x="112.3" y="34.1" transform="matrix(0.4392 -0.8984 0.8984 0.4392 11.0318 133.6698)" class="st3" width="0.6" height="47.8"/>
<rect x="98.5" y="57.6" transform="matrix(0.8989 -0.4381 0.4381 0.8989 -13.0058 59.5085)" class="st3" width="48" height="0.6"/>
<rect x="84.2" y="50.7" transform="matrix(0.8989 -0.4381 0.4381 0.8989 -11.4267 52.5411)" class="st3" width="48" height="0.6"/>
<rect x="127" y="27.1" transform="matrix(0.4379 -0.899 0.899 0.4379 25.837 143.0749)" class="st3" width="0.6" height="47.6"/>
<path class="st4" d="M117.5,53.4c-0.5,0-0.8-0.4-0.8-0.8V16.8c0-0.5,0.4-0.9,0.8-0.9c0.5,0,0.9,0.4,0.9,0.8c0,0,0,0,0,0v35.8
	C118.4,53,118,53.4,117.5,53.4z"/>
<path class="st4" d="M117.5,53.4c-0.2,0-0.4-0.1-0.6-0.2l-5.9-5.9c-0.3-0.3-0.3-0.9,0-1.2c0.3-0.3,0.9-0.3,1.2,0l5.3,5.3l5.3-5.3
	c0.3-0.4,0.8-0.4,1.2-0.1c0.4,0.3,0.4,0.8,0.1,1.2c0,0,0,0-0.1,0.1l-5.9,5.9C118,53.3,117.8,53.4,117.5,53.4z"/>
</svg>
