<svg version="1.1" id="teikningar" xmlns="http://www.w3.org/2000/svg" x="0" y="0" viewBox="0 0 400 306.7" xml:space="preserve"><style>.st0{fill:#333}.st1{fill:#4aa052}</style><path class="st0" d="M276.6 192.1c-.2 0-.4-.1-.6-.2l-8.6-8.6c-.3-.3-.3-.9 0-1.2.3-.3.9-.3 1.2 0l8 8 8-8c.3-.3.9-.3 1.2 0 .3.3.3.8 0 1.2l-8.6 8.6c-.2.1-.4.2-.6.2zm-109 53.2c-.3 0-.6-.1-.7-.4l-6.4-10.4c-.2-.4-.1-.9.3-1.2l10.4-6.4c.4-.2.9-.1 1.2.3s.1.9-.3 1.2l-9.7 6 6 9.7c.2.4.1.9-.3 1.2h-.5zm-13.7-86.5c-.1 0-.2 0-.3-.1-.4-.2-.6-.7-.5-1.1l4.3-10.5-10.5-4.3c-.4-.2-.6-.7-.4-1.1.2-.4.7-.6 1.1-.4l11.3 4.7c.4.2.6.7.5 1.1l-4.7 11.3c-.1.2-.4.4-.8.4z"/><path class="st0" d="M155.9 233.4h-.3c-27-8.6-43.7-25.2-43.7-43.4 0-18.9 17.7-35.8 46.2-44.1.5-.1.9.1 1.1.6s-.1.9-.6 1.1c-27.7 8.1-45 24.4-45 42.5 0 17.4 16.3 33.4 42.5 41.7.4.1.7.6.6 1.1-.1.3-.4.5-.8.5zm38.8 5.8c-11.3.1-22.6-1.3-33.6-4.2-.5-.1-.8-.5-.7-1 .1-.5.5-.8 1-.7h.1c10.8 2.8 22 4.2 33.1 4.1 40.3 0 74.8-17.6 80.3-41 .1-.5.6-.7 1-.6.5.1.7.6.6 1-5.5 24.2-40.7 42.4-81.8 42.4zm81.9-48.3c-.5 0-.9-.4-.9-.8 0-22.8-27.8-42.4-66-46.6-.5-.1-.8-.5-.8-.9 0-.5.5-.8.9-.8 39.1 4.3 67.5 24.6 67.5 48.3.1.4-.2.7-.7.8zm-113.4-44.6c-.4 0-.7-.3-.8-.6-.1-.4.2-.9.6-1 5.3-1.3 10.6-2.3 16-2.9.5-.1.9.3.9.7.1.5-.3.9-.7.9-5.3.6-10.6 1.5-15.7 2.8l-.3.1zm31.2-27.4c-5.7 0-12-2.9-12-7s6.3-7 12-7 12 2.9 12 7-6.3 7-12 7zm0-12.3c-5.2 0-10.3 2.6-10.3 5.3s5.1 5.3 10.3 5.3 10.3-2.6 10.3-5.3c0-2.7-5.1-5.3-10.3-5.3zm-.9 79.1c-7.7 0-16.2-3.1-20.3-7.3-.3-.3-.3-.9 0-1.2.3-.3.9-.3 1.2 0 3.8 3.9 11.8 6.8 19.1 6.8.5 0 .8.4.8.9 0 .3-.3.7-.8.8zm0-12.4c-6.3 0-13.4-2.4-16.7-5.8-.3-.3-.3-.9 0-1.2.3-.3.9-.3 1.2 0 3.1 3.1 9.6 5.3 15.5 5.3.5 0 .8.4.8.9.1.5-.3.8-.8.8zm0-12.4c-5.1 0-10.7-1.8-13.4-4.4-.3-.3-.4-.9 0-1.2s.9-.4 1.2 0c2.4 2.2 7.5 3.9 12.2 3.9.5 0 .9.4.9.8 0 .5-.4.9-.9.9z"/><path class="st0" d="M194.4 201h-.1c-8.1 0-15.8-1.6-21.5-4.6-6.2-3.2-9.2-10.5-6.9-17.2l15.1-44.7c1.4-4.7 2.1-9.5 2.1-14.4l-.6-8.2c0-.5.4-.8.9-.8.4 0 .8.3.8.7l.6 8.3c.1 5.1-.7 10.1-2.2 15l-15.1 44.7c-2 5.9.6 12.3 6.1 15.1 5.5 2.8 12.8 4.4 20.7 4.4l.1.9v-.9h.1c7.9 0 15.2-1.6 20.7-4.4 5.5-2.9 8.1-9.3 6.1-15.1l-15.1-44.7c-1.5-4.8-2.2-9.8-2.2-14.9l.6-8.4c.1-.5.5-.8 1-.7.4.1.7.4.7.8l-.6 8.3c-.1 4.8.6 9.7 2.1 14.3l15.1 44.6c2.2 6.7-.7 14-7 17.2-5.7 2.9-13.3 4.5-21.5 4.6v.1z"/><path class="st1" d="M194.8 113.3c-.5 0-.9-.4-.9-.8V84.9c0-.5.4-.9.8-.9.5 0 .9.4.9.8v27.6c0 .6-.4.9-.8.9z"/><path class="st1" d="M195.1 102.4c-.5 0-.8-.4-.8-.9 0-.3.2-.6.5-.7L211 93c.4-.2.9 0 1.1.4.2.4 0 .9-.4 1.1l-16.2 7.8c-.1.1-.3.1-.4.1zm2.3-9.9c-.3 0-.7-.2-.8-.5-.2-.4 0-.9.5-1.1 2.4-.9 4-3.3 4-5.9 0-6.4-4.7-12-6.3-13.8-1.7 1.8-6.3 7.5-6.3 13.8 0 2.6 1.6 4.9 4 5.9.4.2.6.7.5 1.1-.2.4-.7.7-1.1.5-3.1-1.2-5-4.2-5-7.5 0-8.4 7.1-15.4 7.4-15.7.3-.3.8-.3 1.2 0 .3.3 7.4 7.2 7.4 15.7 0 3.3-2.1 6.3-5.1 7.5-.2-.1-.3 0-.4 0z"/><path class="st1" d="M211.3 101.9c-2 0-4-.8-5.5-2.2-.3-.3-.4-.9 0-1.2.3-.3.9-.4 1.2 0 1.9 1.8 4.7 2.2 7.1 1.1 5.7-2.7 8.8-9.4 9.7-11.7-2.4-.7-9.5-2.5-15.2.3-2.3 1.1-3.7 3.5-3.6 6.1 0 .5-.3.9-.8.9s-.9-.3-.9-.8c-.2-3.3 1.6-6.3 4.5-7.7 7.6-3.6 17-.2 17.3-.1.4.2.7.6.5 1.1-.1.4-3.3 9.8-10.9 13.5-1.1.5-2.3.7-3.4.7z"/></svg>