<svg version="1.1" id="Layer_1" xmlns="http://www.w3.org/2000/svg" x="0" y="0" viewBox="0 0 394 224" xml:space="preserve"><style>.st0{fill:#333}</style><g id="teikningar"><path class="st0" d="M301.8 161.3c-18.2 0-38.6-8-51.6-17.8-.2-.2-.3-.5-.1-.7.2-.2.5-.3.7-.1 12.4 9 26.8 14.9 41.9 17 16.8 2.2 30.5-1.7 38.6-10.9.2-.2.5-.2.7-.1.2.2.2.5 0 .7-7.4 8.5-18.4 11.9-30.2 11.9zM156.3 63.4c-.1 0-.3-.1-.4-.2-8-9.2-11.6-18.4-9.9-25.2 1.2-4.5 4.6-7.9 10.2-9.9.3-.1.5 0 .6.3.1.3 0 .5-.3.6-5.3 1.9-8.5 5.1-9.6 9.3-1.7 6.5 1.9 15.3 9.6 24.3.2.2.2.5 0 .7 0 .1-.1.1-.2.1z"/><path class="st0" d="M143.6 55.1h-.2c-.2-.1-.4-.4-.2-.7l3.4-6.9c.1-.2.4-.4.7-.2l6.9 3.4c.2.1.4.4.2.7s-.4.4-.7.2l-6.5-3.2-3.1 6.5c-.1 0-.3.2-.5.2zm106.7 95.6c-.3 0-.5-.2-.5-.5l-.5-7.7c0-.1 0-.3.1-.4.1-.1.2-.2.3-.2l7.7-.5c.3 0 .5.2.5.5s-.2.5-.5.5l-7.2.4.4 7.2c.2.4 0 .7-.3.7z"/><path d="M256.2 69.8l-47.9-23.2c-1.1-.5-2.4-.5-3.5 0L157 69.8c-1.4.7-2.2 2.1-2.2 3.6v55.1c0 1.5.9 2.9 2.2 3.6l47.9 23.2c.5.3 1.1.4 1.7.4.6 0 1.2-.1 1.8-.4l47.8-23.2c1.4-.7 2.2-2.1 2.2-3.6V73.4c0-1.6-.9-2.9-2.2-3.6zM207.5 55l38.6 18.8c.4.2.5.7.4 1-.1.2-.2.3-.4.4L207.5 94c-.6.3-1.3.3-1.9 0L167 75.2c-.4-.2-.6-.6-.4-1 .1-.2.2-.3.4-.4L205.6 55c.6-.3 1.3-.3 1.9 0zm-43.7 23l39.5 19.2c.7.4 1.2 1.1 1.2 1.9V145c0 .4-.4.8-.8.8-.1 0-.2 0-.3-.1l-39.5-19.2c-.7-.4-1.2-1.1-1.2-1.9V78.8c0-.4.4-.8.8-.8h.3zm44.8 67V99.2c0-.8.5-1.6 1.2-1.9l39.5-19.2c.4-.2.9 0 1 .4.1.1.1.2.1.3v45.9c0 .8-.5 1.6-1.2 1.9l-39.5 19.2c-.4.2-.9 0-1-.4-.1-.1-.1-.2-.1-.4z" fill="#4aa052"/><path class="st0" d="M146 91.2l-7.7-.9c-.3 0-.5-.3-.4-.6 0-.3.3-.5.6-.4l7.1.8.8-7.2c0-.3.3-.5.5-.4.3 0 .5.3.4.6l-.9 7.7c0 .1-.1.3-.2.3 0 0-.1.1-.2.1z"/><path class="st0" d="M145.3 90.5c-.2 0-.3-.1-.4-.2-9.2-12.8-22.3-22-34.3-24-7.8-1.4-15.8.5-22.2 5.2-.2.2-.5.1-.7-.1-.2-.2-.1-.5.1-.7 6.6-4.9 14.9-6.8 22.9-5.4 12.4 2 25.5 11.2 34.9 24.4.2.2.1.5-.1.7 0 .1-.1.1-.2.1zm-63 98c-.3 0-.6-.2-.7-.4-17.9-28.8-17.8-55.9-17.8-77.7 0-.5.4-.8.9-.8s.9.4.8.9c-.1 21.6-.2 48.4 17.5 76.8.2.4.1.9-.3 1.2h-.4z"/><path class="st0" d="M126.7 177.4c-.1 0-.2 0-.3-.1-39.2-15.9-62.7-42.1-62.7-70.2 0-6.1 1.1-12.2 3.2-18 .2-.4.6-.7 1.1-.5.4.2.7.6.5 1.1-2.1 5.6-3.1 11.5-3.1 17.4 0 27.4 23 53 61.6 68.7.4.2.6.7.5 1.1-.2.3-.5.5-.8.5zm81.2 14.8c-27.5 0-54.2-4.6-77.2-13.2-.4-.2-.7-.7-.5-1.1.2-.4.6-.7 1.1-.5 22.9 8.6 49.4 13.1 76.6 13.1 3.3 0 6.6-.1 9.9-.2.5 0 .9.4.9.8 0 .5-.3.9-.8.9-3.4.1-6.7.2-10 .2zm76.6-13.1c-.5 0-.9-.4-.9-.8s.2-.7.6-.8c25.1-9.4 44.3-22.8 55.6-38.9.3-.4.8-.5 1.2-.2.4.3.5.8.2 1.2-11.5 16.4-30.9 30-56.4 39.5h-.3zm58.4-43c-.2 0-.3 0-.4-.1-.4-.2-.5-.8-.3-1.2 5.2-8.3 8-18 8.1-27.8 0-22.8-15.5-44.1-43.5-60-.4-.3-.5-.8-.3-1.2.2-.4.7-.5 1.1-.3 28.6 16.2 44.4 38 44.4 61.5-.1 10.1-3 20.1-8.4 28.7-.1.3-.4.4-.7.4zM280.2 35.2h-.3c-21.8-7.5-46.7-11.5-72.1-11.5-4.6 0-9.1.1-13.6.4-.5 0-.9-.3-.9-.8s.3-.9.8-.9c4.5-.2 9.1-.4 13.7-.4 25.6 0 50.7 4 72.6 11.6.4.1.7.6.6 1.1-.1.3-.4.5-.8.5zM120.7 41c-.5 0-.8-.4-.8-.9 0-.3.2-.6.5-.8 20.2-9.1 44.1-14.9 69.2-16.8.5 0 .9.3.9.8s-.3.9-.8.9c-24.9 1.9-48.7 7.6-68.7 16.6 0 .2-.1.2-.3.2z"/><path class="st0" d="M342.5 137.3c-.4 0-.7-.2-.8-.6l-4.1-11.5c-.2-.4.1-.9.5-1.1s.9.1 1.1.5l3.8 10.7 10.7-3.8c.4-.2.9.1 1.1.5.2.4-.1.9-.5 1.1l-11.5 4.1c-.1 0-.2.1-.3.1zm-160.9-104c-.2 0-.4-.1-.6-.3-.3-.3-.3-.9 0-1.2l7.9-8.1-8.1-7.9c-.3-.3-.3-.9 0-1.2.3-.3.9-.3 1.2 0l8.7 8.5c.3.3.3.9 0 1.2l-8.5 8.7c-.1.2-.4.3-.6.3zm-46.1 156.8c-.3 0-.6-.2-.8-.5l-5.2-11.1c-.1-.2-.1-.4 0-.6.1-.2.2-.4.4-.5l11-5.2c.4-.2.9 0 1.1.4.2.4 0 .9-.4 1.1l-10.3 4.8 4.8 10.3c.2.4 0 .9-.4 1.1 0 .2-.1.2-.2.2zm-72-20.4c-.1 0-.3 0-.4-.1-.4-.2-.6-.7-.4-1.1l5.6-10.8c.2-.4.7-.6 1.1-.4l10.8 5.6c.4.2.6.7.4 1.1-.2.4-.7.6-1.2.4l-10.1-5.2-5.2 10.1c.1.3-.2.4-.6.4z"/></g><path class="st0" d="M79.6 105v-7.6h3.1c.7-.1 1.4.1 1.9.6.4.3.7.9.6 1.4 0 .4-.1.8-.4 1.1-.3.3-.6.5-1 .6v.1c.3 0 .6.1.8.2.3.2.5.4.6.6.2.3.3.7.2 1 0 .8-.4 1.5-1.2 1.8-.5.2-.9.3-1.4.3l-3.2-.1zm1.6-4.4h1.2c.3 0 .6-.1.8-.3.2-.2.3-.4.3-.7 0-.3-.1-.5-.3-.7-.2-.2-.5-.3-.8-.2h-1.2v1.9zm0 3.1h1.3c.4 0 .7-.1 1-.3.2-.2.3-.4.3-.7 0-.3-.1-.6-.3-.8-.3-.2-.6-.3-.9-.3h-1.4v2.1zm6 3.6c-.2 0-.4 0-.6-.1-.1 0-.3-.1-.4-.1l.4-1.2c.2.1.5.1.7.1.2-.1.4-.2.5-.4l.1-.3-2-5.9h1.7l1.2 4.2h.1l1.2-4.2h1.6l-2.2 6.4c-.1.4-.4.8-.8 1.1-.5.2-1 .4-1.5.4zm8.6-6v1.3h-3.5v-1.3h3.5zM97 105v-7.6h3c.5 0 1 .1 1.5.3.4.2.7.5.9.9.2.4.3.9.3 1.3 0 .5-.1.9-.3 1.3-.2.4-.6.7-1 .9-.5.2-1 .3-1.5.3h-1.4v2.4H97zm1.6-3.8h1.1c.4 0 .7-.1 1-.3.2-.2.3-.6.3-.9 0-.3-.1-.7-.3-.9-.3-.2-.6-.4-1-.3h-1.1v2.4zm4.9 3.8v-5.7h1.5v1h.1c.1-.3.3-.6.5-.8.4-.3.8-.3 1.3-.2.1 0 .2.1.4.2l-.5 1.3-.2-.1h-.3c-.3 0-.6.1-.8.3-.2.2-.4.5-.3.8v3.2h-1.7zm6.6.2c-.5 0-1-.1-1.5-.4-.4-.2-.8-.6-1-1-.5-1-.5-2.1 0-3.1.2-.4.6-.8 1-1 .9-.5 2.1-.5 3 0 .4.2.8.6 1 1 .5 1 .5 2.1 0 3.1-.2.4-.6.8-1 1-.4.2-1 .4-1.5.4zm0-1.3c.4 0 .7-.2.9-.5.4-.8.4-1.7 0-2.5-.2-.3-.5-.5-.9-.5s-.7.2-.9.5c-.4.8-.4 1.7 0 2.5.2.4.6.5.9.5zm5.8 1.2c-.4 0-.8-.1-1.2-.3-.4-.2-.7-.6-.8-1-.2-.5-.3-1.1-.3-1.6 0-.6.1-1.1.3-1.6.2-.4.5-.8.8-1 .3-.2.7-.3 1.2-.3.3 0 .6 0 .8.2.2.1.4.2.5.4.1.1.2.3.3.5v-2.9h1.6v7.6h-1.6v-.9h-.1c-.1.2-.2.3-.3.5-.1.2-.3.3-.5.4h-.7zm.5-1.2c.4 0 .7-.2.9-.5.2-.4.3-.8.3-1.2 0-.4-.1-.9-.3-1.2-.3-.5-1-.6-1.5-.3l-.3.3c-.2.4-.3.8-.3 1.2 0 .4.1.9.3 1.2.2.3.5.5.9.5zm7.5-1.3v-3.3h1.6v5.7H124v-1h-.1c-.1.3-.3.6-.6.8-.3.2-.7.3-1.1.3-.5 0-1-.2-1.4-.6-.4-.4-.6-1-.5-1.6v-3.6h1.6v3.4c0 .3.1.6.3.8.2.2.4.3.7.3.3 0 .6-.1.8-.3.1-.3.2-.6.2-.9zm5.2 2.6c-.5 0-1.1-.1-1.5-.4-.4-.2-.8-.6-1-1-.5-1-.5-2.1 0-3.1.2-.4.6-.8 1-1 .5-.3 1-.4 1.5-.4s.9.1 1.3.3c.4.2.7.4.9.8.2.3.3.7.4 1.2h-1.5c0-.3-.1-.5-.3-.7-.2-.2-.4-.3-.7-.3-.4 0-.7.2-.9.4-.4.8-.4 1.7 0 2.5.2.3.5.5.9.4.3 0 .5-.1.7-.2.2-.2.3-.4.4-.7h1.5c0 .4-.1.8-.4 1.2-.2.3-.5.6-.9.8-.5.1-.9.2-1.4.2zm6.5-5.9v1.2h-1.1v2.8c0 .2 0 .3.1.4.1.1.3.1.4.1h.4l.2 1.2-.3.1c-.2 0-.4.1-.5.1-.5.1-1-.1-1.4-.4-.4-.3-.6-.8-.5-1.3v-3h-.8v-1.2h.8v-1.4h1.6v1.4h1.1zm5.5 1.7l-1.5.1c0-.2-.1-.4-.3-.5-.2-.1-.4-.2-.6-.2-.2 0-.4 0-.6.2-.2.1-.3.2-.2.4 0 .1.1.3.2.3.2.1.4.2.6.2l1 .2c1.1.2 1.7.7 1.7 1.6 0 .4-.1.7-.3 1-.2.3-.6.5-.9.7-.4.2-.9.2-1.3.2-.6 0-1.3-.1-1.8-.5-.4-.3-.7-.8-.8-1.3l1.6-.1c0 .2.2.4.4.5.2.1.4.2.7.2.2 0 .5 0 .7-.2.2-.1.3-.2.3-.4 0-.3-.2-.5-.7-.6l-1-.2c-1.1-.2-1.7-.8-1.7-1.6 0-.5.2-1 .7-1.3.5-.3 1.1-.5 1.8-.5.6 0 1.2.1 1.7.5-.1.3.2.8.3 1.3zm-48.3 15.2c-.5 0-.9-.1-1.4-.3-.4-.2-.7-.4-.9-.8-.2-.3-.3-.7-.3-1.1 0-.4.1-.8.4-1.1.3-.3.6-.6 1-.9-.2-.3-.4-.5-.5-.8-.1-.3-.2-.6-.2-.9 0-.4.1-.7.3-1 .2-.3.4-.5.7-.7.3-.2.7-.3 1.1-.3.4 0 .7.1 1.1.2.6.3.9.9.9 1.6 0 .4-.1.7-.3 1-.2.3-.5.6-.8.8l-.4.3 1.3 1.4c.1-.2.2-.4.2-.7.1-.2.1-.5.1-.7h1.3c0 .5-.1.9-.2 1.4-.1.4-.3.7-.5 1l1.2 1.3h-1.7l-.5-.5c-.3.2-.6.4-.9.5-.3.2-.6.2-1 .3zm1.1-1.6l-1.4-1.6c-.2.1-.3.3-.5.5-.1.1-.1.3-.2.5 0 .3.1.5.3.7.2.2.5.3.8.3.4-.1.7-.2 1-.4zm-1.1-3.3l.4-.3c.3-.2.5-.5.6-.8 0-.2-.1-.3-.2-.4-.1-.1-.3-.2-.5-.2s-.4.1-.5.2c-.1.1-.2.3-.2.5s0 .3.1.5c0 .2.1.3.3.5zm8.5 4.7l-2.2-7.6h1.8l1.3 5.3h.1l1.4-5.3h1.5l1.4 5.3h.1l1.3-5.3h1.8l-2.2 7.6H106l-1.4-5h-.1l-1.4 5h-1.8zm9.9.2c-.5 0-1-.1-1.4-.4-.6-.6-.7-1.6-.2-2.3.2-.3.5-.4.8-.5.3-.1.7-.2 1.1-.2.4 0 .7-.1 1.1-.2.2 0 .3-.2.3-.4s-.1-.4-.2-.6c-.2-.1-.4-.2-.6-.2-.2 0-.5.1-.7.2-.2.1-.3.3-.3.5l-1.5-.1c.1-.5.4-.9.8-1.2.5-.3 1.1-.5 1.7-.5.4 0 .8.1 1.2.2.3.1.7.3.9.6.2.3.4.7.3 1.1v3.8H113v-.8c-.1.3-.4.5-.6.7-.4.2-.8.3-1.2.3zm.5-1.1c.3 0 .6-.1.9-.3.2-.2.3-.5.3-.8v-.6c-.1.1-.2.1-.3.1l-.4.1-.4.1c-.2 0-.5.1-.7.2-.2.1-.3.3-.3.5s.1.4.2.5c.3.1.5.2.7.2zm8.5-3.1l-1.4.1c0-.2-.1-.4-.3-.5-.2-.1-.4-.2-.7-.2-.2 0-.4 0-.6.2-.2.1-.3.2-.3.4 0 .1.1.3.2.3.2.1.4.2.6.2l1 .2c1.1.2 1.7.7 1.7 1.6 0 .4-.1.7-.3 1-.2.3-.5.5-.9.7-.4.2-.9.2-1.3.2-.6 0-1.3-.1-1.8-.5-.4-.3-.7-.8-.8-1.3l1.6-.1c0 .2.2.4.3.5.2.1.5.2.7.2.2 0 .5 0 .7-.2.2-.1.3-.2.3-.4 0-.3-.2-.5-.7-.6l-1-.2c-1.1-.2-1.7-.8-1.7-1.6 0-.5.2-1 .7-1.3.5-.3 1.1-.5 1.8-.5.6 0 1.2.1 1.7.5.2.3.5.8.5 1.3zm4-1.7v1.2h-1.1v2.8c0 .2 0 .3.2.4.1.1.3.1.4.1h.4l.2 1.2-.3.1c-.2 0-.3.1-.5.1-.5.1-1-.1-1.4-.4-.4-.3-.6-.8-.5-1.3v-3h-.8v-1.2h.8V109h1.6v1.4l1-.1zm3.4 5.9c-.5 0-1.1-.1-1.5-.4-.4-.2-.8-.6-1-1-.5-1-.5-2.1 0-3.1.2-.4.6-.8 1-1 .4-.3.9-.4 1.5-.4.5 0 .9.1 1.4.3.4.2.8.6 1 1 .3.5.4 1.1.4 1.6v.4h-3.9c0 .4.1.7.3 1 .3.3.6.4 1 .4.2 0 .5-.1.7-.2.2-.1.3-.3.4-.5l1.5.1c-.1.5-.4 1-.9 1.3-.6.4-1.3.5-1.9.5zm-1.3-3.6h2.4c0-.6-.5-1.1-1.1-1.2h-.1c-.3 0-.6.1-.9.3-.1.3-.3.6-.3.9zm-47 89.3v-7.6h3c.7 0 1.4.2 2 .7.5.5.8 1.1.7 1.8 0 .5-.1.9-.3 1.3-.2.4-.6.7-1 .8l1.6 3h-1.8l-1.4-2.7h-1.2v2.7h-1.6zm1.6-4H82c.9 0 1.4-.4 1.4-1.1s-.5-1.2-1.4-1.2h-1.1v2.3zm6.7 4.1c-.5 0-1-.1-1.4-.4-.4-.3-.6-.8-.5-1.3 0-.4.1-.7.3-1 .2-.2.5-.4.8-.5.3-.1.7-.2 1.1-.2.4 0 .7-.1 1.1-.2.2-.1.3-.2.3-.4s-.1-.4-.2-.6c-.2-.1-.4-.2-.6-.2-.2 0-.5 0-.7.2-.2.1-.3.3-.3.5l-1.5-.1c.1-.5.4-1 .8-1.2.5-.3 1.1-.5 1.7-.5.4 0 .8.1 1.2.2.4.1.7.3.9.6.2.3.4.7.4 1.1v3.9h-1.5v-.8h-.1c-.1.3-.4.5-.6.6-.5.2-.9.3-1.2.3zm.4-1.1c.3 0 .6-.1.8-.3.2-.2.3-.5.3-.8v-.6c-.1.1-.2.1-.3.1l-.4.1-.4.1c-.2 0-.5.1-.7.2-.2.1-.3.3-.2.5 0 .2.1.4.2.5.3.1.5.2.7.2zm5 1l-1.6-5.7H93l.9 3.9.9-3.9h1.6l.9 3.8h.1l.9-3.8h1.6l-1.6 5.7h-1.6l-1-3.6h-.1l-1 3.6H93zm-23.3 3.3h2l2.1 5.1h.1l2.1-5.1h2v7.6h-1.6v-5h-.1l-2 4.9h-1l-2-5h-.1v5h-1.6v-7.5zm11.1 7.8c-.5 0-1-.1-1.4-.4-.4-.3-.6-.8-.5-1.3 0-.4.1-.7.3-1 .2-.2.5-.4.8-.5.3-.1.7-.2 1.1-.2.4 0 .7-.1 1.1-.2.2-.1.3-.2.3-.4s-.1-.4-.2-.6c-.2-.1-.4-.2-.6-.2-.2 0-.5.1-.7.2-.2.1-.3.3-.3.5l-1.5-.1c.1-.5.4-1 .8-1.2.5-.3 1.1-.5 1.7-.5.4 0 .8.1 1.2.2.4.1.7.3.9.6.2.3.4.7.4 1.1v3.9h-1.5v-.8c-.1.3-.4.5-.6.6-.6.2-.9.3-1.3.3zm.4-1.1c.3 0 .6-.1.9-.3.2-.2.3-.5.3-.8v-.6c-.1.1-.2.1-.3.1l-.4.1-.4.1c-.2 0-.5.1-.7.2-.2.1-.3.3-.3.5s.1.4.2.5c.3.1.5.2.7.2zm6.9-4.8v1.2H87v2.8c0 .2 0 .3.2.4.1.1.2.1.4.1h.4l.2 1.2-.3.1c-.2 0-.3.1-.5.1-.5.1-1-.1-1.4-.4-.4-.3-.6-.8-.5-1.2v-3h-.8v-1.2h.8v-1.4H87v1.4l1.1-.1zm3.3 5.9c-.5 0-1.1-.1-1.5-.4-.4-.2-.8-.6-1-1-.5-1-.5-2.1 0-3.1.2-.4.6-.8 1-1 .4-.3.9-.4 1.5-.4.5 0 .9.1 1.4.3.4.2.8.6 1 1 .3.5.4 1.1.4 1.6v.4h-3.9c0 .4.1.7.3 1 .2.2.6.4.9.4.2 0 .5 0 .7-.2.2-.1.3-.3.4-.5l1.5.1c-.1.5-.4 1-.8 1.3-.6.4-1.2.6-1.9.5zm-1.2-3.6h2.4c0-.3-.1-.6-.3-.9-.2-.2-.5-.3-.8-.3-.3 0-.6.1-.9.4-.3.2-.4.5-.4.8zm4.7 3.5v-5.7h1.5v1h.1c.1-.3.3-.6.5-.8.2-.2.5-.3.8-.3.2 0 .3 0 .5.1v1.4c-.1 0-.2-.1-.3-.1h-.4c-.3 0-.6.1-.9.3-.2.2-.4.5-.3.9v3.2h-1.5zm4.9-6.5c-.2 0-.4-.1-.6-.2-.3-.3-.4-.7-.1-1.1l.1-.1c.3-.3.9-.3 1.2 0 .3.3.3.8.1 1.1l-.1.1c-.2.1-.4.2-.6.2zm-.8 6.5v-5.7h1.6v5.7H99zm4.2.1c-.5 0-1-.1-1.4-.4-.4-.3-.6-.8-.5-1.3 0-.4.1-.7.3-1 .2-.2.5-.4.8-.5.3-.1.7-.2 1-.2.4 0 .7-.1 1.1-.2.2-.1.3-.2.3-.4s-.1-.4-.2-.6c-.2-.1-.4-.2-.6-.2-.2 0-.5 0-.7.2-.2.1-.3.3-.3.5l-1.5-.1c.1-.5.4-1 .8-1.2.5-.3 1.1-.5 1.7-.5.4 0 .8.1 1.2.2.4.1.7.3.9.6.2.3.4.7.3 1.1v3.9H105v-.8c-.1.3-.4.5-.6.6-.4.3-.8.3-1.2.3zm.5-1.1c.3 0 .6-.1.9-.3.2-.2.3-.5.3-.8v-.6c-.1.1-.2.1-.3.1l-.4.1-.4.1c-.2 0-.5.1-.7.2-.2.1-.3.3-.2.5 0 .2.1.4.2.5.2.1.4.2.6.2zm5.4-6.7v7.6h-1.6v-7.6h1.6zM74.8 84.1l-7-3.9 1.5-2.8c.3-.5.6-.9 1.1-1.2.4-.3.8-.4 1.3-.4 1 0 1.9.5 2.4 1.4.2.4.4.9.3 1.3 0 .5-.2 1.1-.5 1.5l-.7 1.2 2.3 1.3-.7 1.6zm-2.6-3.5l.6-1c.2-.3.3-.7.2-1.1-.1-.3-.3-.6-.7-.8-.3-.2-.7-.2-1-.2-.4.1-.7.4-.8.8l-.6 1 2.3 1.3zm5.9-2.2L73.2 75l.9-1.3.9.6v-.1c-.2-.3-.4-.6-.4-.9 0-.3.1-.6.3-.9l.3-.3c.1-.1.2-.2.3-.2l.9 1.2-.2.2-.2.2c-.2.3-.3.6-.2.9.1.3.3.6.5.8L79 77l-.9 1.4zm4.1-5.4c-.3.4-.8.8-1.3 1-.5.2-1 .2-1.5.1s-1.1-.4-1.5-.7c-.4-.4-.8-.8-1-1.3-.2-.5-.3-1-.2-1.5.1-.5.3-1.1.7-1.5.3-.4.8-.8 1.3-1 .5-.2 1-.2 1.4-.1 1.1.3 2 1 2.5 2 .2.5.3 1 .2 1.5 0 .5-.3 1.1-.6 1.5zm-1-.8c.2-.3.3-.7.2-1-.2-.4-.5-.8-.8-1.1-.3-.3-.8-.5-1.2-.6-.4-.1-.8.1-1 .4-.3.3-.3.7-.2 1 .2.4.5.8.9 1 .3.3.8.5 1.2.6.3.1.6 0 .9-.3zm4.7-3.5c-.3.3-.7.5-1.1.6-.5.1-.9.1-1.4-.1-1.1-.4-2-1.3-2.5-2.4-.2-.4-.2-.9-.1-1.3s.3-.8.6-1.1c.2-.2.4-.4.7-.5.2-.1.4-.1.7-.1.2 0 .4.1.6.1l-2.2-2.1 1.2-1.2 5.8 5.5-1.1 1.1-.7-.7c.1.2.1.4.1.6 0 .2 0 .5-.1.7-.1.4-.2.6-.5.9zm-.5-1.4c.3-.3.4-.6.3-1-.1-.4-.4-.8-.7-1.1-.3-.3-.7-.6-1.2-.7-.6-.1-1.2.4-1.3 1v.4c.3.9 1 1.5 1.8 1.8.4.1.8-.1 1.1-.4zm4.7-6.3l-2.3-2.6 1.2-1.1 4 4.5-1.2 1.1-.7-.8c.1.3.1.7.1 1.1-.1.4-.3.7-.6 1-.4.4-.9.6-1.5.5-.6-.1-1.1-.4-1.5-.8L84.9 61l1.2-1.1 2.3 2.6c.2.2.5.4.8.4.3 0 .6-.1.8-.3.2-.2.4-.5.4-.8.1-.2-.1-.6-.3-.8zm5.9-1.4c-.4.4-.9.6-1.5.7-.5.1-1 0-1.5-.3-1-.5-1.7-1.4-2-2.5-.1-.5 0-1 .2-1.5s.6-1 1-1.3c.4-.3.8-.5 1.3-.6.4-.1.8-.1 1.2.1.4.1.7.4 1 .7l-1.2 1c-.2-.2-.4-.3-.7-.3-.3 0-.5.1-.8.2-.3.2-.5.6-.4.9 0 .5.2.9.5 1.3s.7.7 1.1.8c.3.1.7 0 1-.2.2-.2.4-.4.4-.7 0-.3 0-.6-.2-.8l1.2-1c.3.3.4.8.4 1.2 0 .4 0 .8-.2 1.2-.2.4-.4.8-.8 1.1zm1.9-9l.7 1-.9.7 1.7 2.4c.1.2.3.3.4.3.1 0 .3 0 .4-.1l.2-.2.1-.1.9.9c-.1.1-.1.2-.2.3l-.4.4c-.4.3-.9.5-1.4.5-.5 0-.9-.3-1.2-.8l-1.8-2.6-.7.5-.7-1 .7-.5-.8-1.2 1.4-1 .9 1.2.7-.7zm1.2-1.7c-.2.1-.4.2-.7.1-.4-.1-.7-.5-.7-.9V48c.1-.5.6-.8 1.1-.7.2 0 .4.2.6.3.1.2.2.4.1.6 0 .4-.2.6-.4.7zm3 6.1l-3.3-5 1.4-.9 3.3 5-1.4.9zm4.8-2.8c-.5.3-1 .5-1.6.5-.5 0-1-.1-1.4-.4-.5-.3-.9-.7-1.2-1.2-.3-.5-.5-1-.5-1.6 0-.5.1-1 .3-1.5.3-.5.7-.9 1.1-1.2.5-.3 1-.5 1.6-.5.5 0 1 .1 1.4.4.5.3.9.7 1.1 1.2.3.5.5 1 .5 1.6 0 .5-.1 1-.3 1.5-.2.5-.5.9-1 1.2zm-.7-1.2c.3-.2.6-.5.5-.9 0-.5-.2-.9-.4-1.3s-.6-.8-1-1c-.3-.2-.7-.2-1.1 0-.3.2-.6.5-.5.9 0 .5.1.9.4 1.3.2.4.5.8.9 1 .4.2.9.2 1.2 0zm3.7-4.7l1.6 3.1-1.5.8-2.8-5.3 1.4-.8.5.9h.1c0-.3 0-.7.2-1 .2-.3.5-.6.8-.8.5-.3 1.1-.3 1.6-.2.6.2 1 .6 1.3 1.2l1.8 3.3-1.5.8-1.7-3.1c-.1-.3-.4-.5-.7-.6-.3-.1-.6-.1-.8.1-.3.1-.5.4-.6.7.1.2.2.6.3.9zm181.5-12.5l1.6.6-1.9 4.9c-.2.5-.5 1-1 1.3-.4.3-.9.5-1.4.5-.6 0-1.2-.1-1.7-.3-.5-.2-1.1-.5-1.5-.9-.4-.4-.6-.8-.7-1.3-.1-.5-.1-1.1.2-1.6l2-4.9 1.6.6-1.9 4.9c-.2.4-.1.8.1 1.1.2.4.6.6 1 .8.4.2.8.2 1.2.1.4-.1.7-.4.8-.8l1.6-5zm6.1 6.6l-1.4-.5c0-.2 0-.4-.1-.6-.1-.2-.3-.4-.5-.5-.2-.1-.4-.1-.7-.1-.2 0-.3.1-.4.3-.1.1-.1.3 0 .4.1.2.3.3.5.5l.9.6c1 .7 1.3 1.4.9 2.2-.1.3-.4.6-.7.8-.4.2-.8.3-1.1.3-.5 0-.9-.1-1.4-.3-.6-.2-1.2-.7-1.5-1.2-.3-.5-.4-1-.2-1.6l1.5.6c-.1.2 0 .5.1.7.1.2.4.4.6.5.2.1.5.2.7.1.2 0 .3-.1.4-.3.1-.3 0-.6-.5-.9l-.9-.6c-1-.7-1.3-1.4-.9-2.3.2-.5.6-.9 1.2-1 .6-.1 1.3 0 1.9.3.6.2 1.1.6 1.5 1.2.2.3.3.9.1 1.4zm1.5 5.7c-.5-.2-.9-.6-1.3-1-.3-.4-.4-.9-.5-1.4 0-.6.1-1.1.4-1.6.2-.5.6-.9 1-1.3.4-.3.9-.5 1.4-.5.5 0 1.1.1 1.5.3.4.2.8.5 1.1.9.3.4.5.9.5 1.3 0 .6-.1 1.2-.4 1.7l-.2.4-3.7-1.8c-.2.3-.2.7-.1 1.1.1.4.4.6.7.8.2.1.5.2.7.2.2 0 .5-.1.6-.3l1.3.8c-.3.4-.8.7-1.4.8-.4 0-1-.1-1.6-.4zm.5-4l2.3 1.1c.2-.3.2-.6.1-.9-.1-.3-.3-.6-.6-.7-.3-.2-.7-.2-1-.1-.4.1-.7.3-.8.6zm-72.3 151.6l-.7-8 3.1-.3c.8-.1 1.5.1 2.2.5.6.5.9 1.1.9 1.8.1.5 0 1-.2 1.4-.2.4-.6.8-1 1l2 3-1.9.2-1.8-2.7-1.2.1.2 2.8-1.6.2zm1.3-4.3l1.1-.1c1-.1 1.4-.5 1.3-1.3s-.6-1.2-1.6-1.1l-1.1.1.3 2.4zm8.7 3.5c-.6.1-1.1 0-1.6-.2s-.9-.5-1.1-.9c-.3-.5-.5-1-.6-1.6-.1-.6 0-1.1.2-1.7.2-.5.5-.9.9-1.2.4-.3.9-.5 1.5-.6.5-.1 1 0 1.5.2s.8.5 1.1.9c.3.5.5 1.1.6 1.6v.5l-4.1.5c0 .4.2.7.5 1 .3.2.6.3 1 .3.3 0 .5-.1.7-.2.2-.1.3-.3.4-.6l1.5-.1c0 .6-.3 1.1-.7 1.4-.6.4-1.2.6-1.8.7zm-1.8-3.6l2.5-.3c0-.3-.2-.6-.4-.8-.3-.2-.6-.3-.9-.2-.3 0-.7.2-.9.5-.2.2-.3.5-.3.8zm8.5 2.7c-.5.1-1.1 0-1.6-.2s-.9-.5-1.2-.9c-.6-.9-.8-2.1-.5-3.2.2-.5.4-.9.8-1.2.4-.3 1-.5 1.5-.6.5-.1 1-.1 1.4.1.4.1.7.4 1 .7.3.3.5.7.6 1.1l-1.6.2c-.1-.3-.2-.5-.4-.7-.2-.2-.5-.2-.8-.2-.4 0-.7.3-.9.6-.2.4-.2.9-.1 1.4 0 .5.2.9.5 1.3.3.3.6.4 1 .3.3 0 .5-.2.7-.4.2-.2.3-.5.3-.8l1.6-.2c0 .4 0 .9-.2 1.2-.2.4-.4.7-.8.9-.4.4-.9.5-1.3.6zm5.2 1.4h-1l.1-1.3c.2 0 .5 0 .7-.1.2-.1.4-.3.4-.6l.1-.3-3.2-5.7 1.7-.3 2 4.1.5-4.6 1.7-.3-1.1 7c-.1.5-.3.9-.6 1.3-.3.5-.8.7-1.3.8zm7.7-3.7c-.5.1-1.1.1-1.6-.1s-.9-.5-1.2-.9c-.3-.4-.6-1-.7-1.5-.1-.5-.1-1.1 0-1.7.1-.5.4-.9.8-1.3s.9-.6 1.5-.7c.5-.1.9-.1 1.4 0 .4.1.8.3 1.1.6.3.3.5.7.6 1.1l-1.5.3c-.1-.3-.3-.5-.5-.6-.2-.1-.5-.2-.8-.1-.4.1-.7.3-.8.6-.2.4-.2.9-.1 1.4.1.5.3.9.6 1.2.3.2.6.4 1 .3.3 0 .5-.2.7-.4.2-.2.2-.5.2-.8l1.5-.3c.1.4 0 .9-.1 1.3s-.4.7-.7 1c-.5.3-.9.5-1.4.6zm3.7-9.1l1.8 7.8-1.6.4-1.8-7.8 1.6-.4zm2.4.7c-.2.1-.5 0-.7-.1-.2-.1-.4-.3-.4-.5-.1-.2 0-.5.1-.6.1-.2.3-.3.6-.4.2-.1.5 0 .7.1.4.2.5.7.3 1.1v.1l-.6.3zm.8 6.7l-1.4-5.8 1.6-.4 1.4 5.8-1.6.4zm3.8-4.5l.9 3.4-1.6.4-1.6-5.8 1.5-.4.3 1h.1c0-.4.2-.7.4-1 .3-.3.6-.5 1-.6.5-.2 1.1-.1 1.6.2.5.3.9.9 1 1.4l1 3.7-1.6.4-.9-3.4c-.1-.3-.2-.6-.5-.8-.2-.2-.6-.2-.8-.1-.3.1-.6.3-.7.5-.2.4-.2.8-.1 1.1zm9.4 3.3c-.6.2-1.3.3-2 .1-.5-.1-.9-.4-1.1-.9l1.4-.7c.1.2.3.3.5.3.3.1.6 0 .9-.1.3-.1.6-.3.8-.5.2-.3.2-.6.1-.9l-.3-1h-.2c0 .3-.2.6-.4.8-.3.3-.6.5-1 .6-.4.1-.8.1-1.3.1-.4-.1-.8-.3-1.1-.7-.4-.4-.6-.9-.8-1.5-.2-.6-.3-1.1-.2-1.7.1-.5.2-.9.5-1.2.3-.3.6-.6 1-.7.3-.1.6-.1.9-.1.2 0 .5.1.6.2.2.1.3.2.5.4h.1l-.3-1 1.6-.5 1.8 5.8c.1.4.1.9 0 1.3-.2.4-.4.7-.8 1-.3.5-.7.8-1.2.9zm-1.1-3.5c.4-.1.6-.4.8-.7.1-.4.1-.9-.1-1.3-.1-.4-.3-.8-.7-1.1-.3-.2-.7-.3-1-.2-.4.1-.6.4-.8.7-.1.4-.1.9.1 1.3.1.4.3.8.7 1.1.3.3.7.3 1 .2z" id="enska"/></svg>