<svg viewBox="0 0 133 64" fill="none" xmlns="http://www.w3.org/2000/svg"><g clip-path="url(#clip0)"><path d="M20.426 61.41c0 .788-.443 1.187-1.458 1.586-1.804.702-4.364 1.015-6.665 1.015C3.263 64 0 58.582 0 48.804c0-9.605 4.018-15.65 12.217-15.65 2.56 0 5.379.4 6.48.929.53.259.746.702.746 1.414 0 1.316-.93 1.845-1.76 1.673a25.755 25.755 0 0 0-4.98-.486c-5.866 0-8.296 3.486-8.296 12.163 0 8.149 1.847 11.635 8.155 11.635 1.232 0 2.56-.13 3.349-.356.356-.087.4-.26.4-.443v-8.332c0-.928-.173-1.144-1.232-1.144h-2.43c-1.016 0-1.372-.885-1.372-1.76 0-1.014.356-1.845 1.372-1.845h4.763c2.733 0 3.003 1.144 3.003 3.346V61.41h.01zm9.44-8.289c-1.371.043-1.63.529-1.63 1.673 0 4.101 2.116 5.947 7.539 5.947 1.901 0 3.348-.216 4.45-.486.843-.216 1.674.173 1.674 1.273 0 .659-.216 1.23-.745 1.5-1.231.616-3.132.972-5.779.972-7.852 0-11.287-2.86-11.287-10.75v-3.302c0-8.062 4.363-10.404 9.656-10.404 6.924 0 8.868 3.745 8.868 8.947 0 3.788-.745 4.23-5.163 4.36l-7.583.27zm-1.641-4.587c0 1.414.659 1.673 2.69 1.673h4.72c2.073 0 2.776-.216 2.776-2.115 0-3.745-1.145-5.289-4.72-5.289-3.922 0-5.466 1.943-5.466 5.16v.571zm24.303-9.648c0 .885.087 1.1 1.188 1.1h3.046c.972 0 1.188.702 1.188 1.587 0 .971-.216 1.673-1.188 1.673h-3.046c-.929 0-1.188.173-1.188 1.144v17.764c0 1.317-1.015 1.587-2.074 1.587-1.015 0-2.16-.27-2.16-1.587v-17.72c0-.886-.087-1.188-1.145-1.188h-1.89c-.973 0-1.232-.702-1.232-1.673 0-.885.26-1.587 1.232-1.587h1.847c1.101 0 1.188-.215 1.188-1.1v-1.544c0-3.917 1.145-6.173 5.466-6.173 2.117 0 3.305.216 3.748.442.572.26.745.745.745 1.414 0 .616-.173 1.23-1.059 1.23h-2.203c-1.944 0-2.474.886-2.474 3.26v1.37h.011zm26.248 23.268c0 1.317-1.015 1.587-2.074 1.587-1.015 0-2.16-.27-2.16-1.587V47.606c0-3.831-1.458-4.803-5.163-4.803-1.631 0-2.82.173-3.532.443-.832.313-.93.842-.93 1.673v17.236c0 1.316-1.015 1.586-2.073 1.586-1.016 0-2.16-.27-2.16-1.587V43.03c0-1.802.485-2.385 1.944-2.687 2.203-.486 4.85-.788 6.88-.788 7.54 0 9.268 2.202 9.268 7.145v15.454z" fill="#636466"/><path d="M111.181 31.514l-9.387 5.418-3.013 1.738-3.014 1.737c-2.085 1.198-4.083 1.565-5.747 1.069a3.06 3.06 0 0 1-.475-.173l-2.42 4.199c-2.084 3.604-1.62 4.921-.755 5.87.734.81 1.89 1.576 5.908-.453l26.032-13.285c1.642-.842 2.83-1.878 3.532-3.098a5.052 5.052 0 0 0 .594-1.532s.13-.464.13-.94a3.69 3.69 0 0 0-.054-.571l-11.331.021z" fill="#8AC170"/><path d="M129.511 24.337l-24.53-15.886c-1.545-1.004-3.036-1.5-4.451-1.5a5.25 5.25 0 0 0-1.62.248s-.464.118-.885.356c-.163.086-.335.226-.497.345l5.66 9.79.021-.033 9.387 5.418 3.013 1.737 3.014 1.738c2.085 1.198 3.403 2.752 3.802 4.435.011.065.065.281.097.53h4.872c4.169 0 5.077-1.058 5.466-2.289.324-1.036.41-2.417-3.349-4.889z" fill="#00ABE6"/><path d="M118.623 26.55l-3.014-1.738-3.013-1.737-9.387-5.418-.021.032 7.993 13.815h11.342a3.993 3.993 0 0 0-.098-.53c-.41-1.672-1.728-3.226-3.802-4.424z" fill="url(#paint0_linear)"/><path d="M95.195 31.514V13.74c0-2.396.68-4.317 1.944-5.504.043-.043.194-.184.378-.324l-.022-.032-2.42-4.21C92.992.065 91.62-.194 90.356.076c-1.058.237-2.3.852-2.57 5.342L86.283 34.59c-.097 1.835.216 3.39.918 4.598.292.496.638.928 1.037 1.284 0 0 .335.346.746.583.15.086.367.184.55.248l5.66-9.789z" fill="#009A4A"/><path d="M95.194 13.728v17.786l7.983-13.825-5.66-9.789c-.184.14-.335.28-.378.324-1.253 1.198-1.945 3.108-1.945 5.504z" fill="url(#paint1_linear)"/><path d="M95.756 40.407l3.014-1.737 3.013-1.738 9.387-5.418H95.194l-5.66 9.79c.216.086.41.15.476.172 1.674.496 3.672.13 5.746-1.069z" fill="url(#paint2_linear)"/></g><defs><linearGradient id="paint0_linear" x1="103.186" y1="24.587" x2="122.513" y2="24.587" gradientUnits="userSpaceOnUse"><stop stop-color="#00ABE6" stop-opacity=".3"/><stop offset="1" stop-color="#00ABE6"/></linearGradient><linearGradient id="paint1_linear" x1="91.006" y1="14.359" x2="101.681" y2="25.043" gradientUnits="userSpaceOnUse"><stop stop-color="#009A4A"/><stop offset="1" stop-color="#009A4A" stop-opacity=".3"/></linearGradient><linearGradient id="paint2_linear" x1="100.361" y1="41.694" x2="100.361" y2="31.513" gradientUnits="userSpaceOnUse"><stop stop-color="#009A4A"/><stop offset="1" stop-color="#009A4A" stop-opacity=".3"/></linearGradient><clipPath id="clip0"><path fill="#fff" d="M0 0h133v64H0z"/></clipPath></defs></svg>